<svg viewBox="0 0 250 73" xmlns="http://www.w3.org/2000/svg">
<g filter="url(#filter0_d)">
<path d="M10.9258 41.8789C11.418 43.9414 11.8984 45.5117 12.3672 46.5898C12.4609 46.8359 12.5664 47.0938 12.6836 47.3633C12.8008 47.6211 12.8828 47.8789 12.9297 48.1367C12.9883 48.6172 12.7891 48.9863 12.332 49.2441C11.875 49.4902 11.3301 49.6602 10.6973 49.7539C10.0762 49.8477 9.56055 49.8652 9.15039 49.8066C8.75195 49.748 8.41797 49.6543 8.14844 49.5254C7.65625 49.3262 7.26367 48.9805 6.9707 48.4883C6.67773 47.9961 6.44336 47.5156 6.26758 47.0469C5.9043 46.1445 5.58203 44.9844 5.30078 43.5664C5.01953 42.1484 4.79102 40.6777 4.61523 39.1543C4.43945 37.6191 4.32812 36.1426 4.28125 34.7246C4.24609 33.2949 4.29297 32.1289 4.42188 31.2266C4.52734 30.4531 4.70312 29.7969 4.94922 29.2578C5.11328 28.8945 5.36523 28.6133 5.70508 28.4141C6.08008 28.2148 6.38477 28.0859 6.61914 28.0273C6.86523 27.957 7.20508 27.9219 7.63867 27.9219C8.27148 27.9336 8.76953 28.0508 9.13281 28.2734C9.50781 28.4844 9.67773 28.9766 9.64258 29.75C9.52539 32.3281 9.71289 35.0234 10.2051 37.8359C11.7402 37.6367 13.2344 37.4434 14.6875 37.2559C16.1523 37.0684 17.3008 36.9336 18.1328 36.8516C18.0742 35.5977 18.0566 34.4023 18.0801 33.2656C18.1152 32.1172 18.2031 31.1445 18.3438 30.3477C18.4258 29.8555 18.5605 29.3457 18.748 28.8184C18.9355 28.2793 19.252 27.8574 19.6973 27.5527C19.9316 27.3887 20.3477 27.2246 20.9453 27.0605C21.5547 26.8965 22.0645 26.7969 22.4746 26.7617C22.8965 26.7266 23.3535 26.791 23.8457 26.9551C24.3379 27.1191 24.6074 27.4414 24.6543 27.9219C24.6543 28.1914 24.625 28.4668 24.5664 28.748C24.5078 29.0293 24.4551 29.2988 24.4082 29.5566C23.8926 32.0293 23.7344 34.8418 23.9336 37.9941C24.1328 41.1348 24.5547 43.9883 25.1992 46.5547C25.375 47.3047 25.2988 47.8262 24.9707 48.1191C24.6543 48.4121 24.1914 48.6172 23.582 48.7344C23.1602 48.8164 22.791 48.8691 22.4746 48.8926C22.1582 48.916 21.7949 48.8633 21.3848 48.7344C21.0215 48.6289 20.7168 48.4004 20.4707 48.0488C20.1309 47.5801 19.832 46.9707 19.5742 46.2207C19.2109 45.1777 18.8242 43.3965 18.4141 40.877C17.5352 41.1582 16.2871 41.3867 14.6699 41.5625C13.0527 41.7266 11.8047 41.832 10.9258 41.8789ZM26.2715 41.6152C26.8574 40.4902 27.4961 39.5938 28.1875 38.9258C28.457 38.668 28.6328 38.5039 28.7148 38.4336C29.8164 37.4609 31.0703 36.793 32.4766 36.4297C33.6602 36.1133 34.8145 36.1074 35.9395 36.4121C36.4668 36.5762 36.9941 36.8633 37.5215 37.2734C38.0488 37.6719 38.4473 38.1172 38.7168 38.6094C39.0098 39.1719 39.1914 39.875 39.2617 40.7188C39.3672 41.9609 39.2559 43.0801 38.9277 44.0762C38.7168 44.6855 38.4121 45.2773 38.0137 45.8516C37.627 46.4141 37.2227 46.9238 36.8008 47.3809C36.168 48.0488 35.4473 48.623 34.6387 49.1035C33.8418 49.5723 32.9746 49.8477 32.0371 49.9297C31.0645 50 30.1504 49.8887 29.2949 49.5957C28.6152 49.3613 27.9883 49.0449 27.4141 48.6465C26.8516 48.2363 26.418 47.709 26.1133 47.0645C25.7969 46.4434 25.6211 45.7168 25.5859 44.8848C25.5391 43.7012 25.7676 42.6113 26.2715 41.6152ZM29.5059 42.8984C29.2129 43.7891 29.4121 44.709 30.1035 45.6582C30.8066 46.6074 31.7617 46.8301 32.9688 46.3262C33.7188 46.0098 34.2637 45.5645 34.6035 44.9902C34.9434 44.4043 35.1191 43.7949 35.1309 43.1621C35.1543 41.7207 34.375 40.8535 32.793 40.5605C31.2109 40.2676 30.1152 41.0469 29.5059 42.8984ZM54.6074 40.1387C53.7754 40.4082 53.4004 41.6387 53.4824 43.8301C53.5996 44.6504 53.6523 45.6113 53.6406 46.7129C53.6289 47.8145 53.4121 48.7578 52.9902 49.543C52.8379 49.8125 52.627 49.9648 52.3574 50C51.8887 50.0703 51.4023 50.0059 50.8984 49.8066C50.3945 49.5957 50.0195 49.3613 49.7734 49.1035C49.668 49.0098 49.5977 48.8926 49.5625 48.752C49.4922 48.5645 49.4746 48.3594 49.5098 48.1367C49.5566 47.9141 49.6035 47.7031 49.6504 47.5039C49.8262 46.7773 49.9199 46.0508 49.9316 45.3242C49.9434 44.5859 49.9258 43.877 49.8789 43.1973C49.7383 42.5059 49.5215 41.9434 49.2285 41.5098C48.6074 40.4551 47.957 39.916 47.2773 39.8926C46.6094 39.8691 46.1406 40.332 45.8711 41.2812C45.6484 42.043 45.543 43.0156 45.5547 44.1992V44.3223C45.625 45.3066 45.7363 46.2441 45.8887 47.1348C45.9355 47.334 46.0059 47.6387 46.0996 48.0488C46.2168 48.5293 46.2109 48.8457 46.082 48.998C46.0469 49.0332 46.0117 49.0684 45.9766 49.1035C45.8711 49.3262 45.6953 49.502 45.4492 49.6309C45.0625 49.8301 44.6289 49.9414 44.1484 49.9648C43.7852 49.9766 43.4277 49.959 43.0762 49.9121C42.9121 49.9238 42.7598 49.9238 42.6191 49.9121C42.4316 49.9004 42.2676 49.8301 42.127 49.7012C41.9512 49.6426 41.8105 49.5781 41.7051 49.5078C41.3652 49.2617 41.1191 48.9043 40.9668 48.4355C40.8262 47.9551 40.7207 47.4863 40.6504 47.0293C40.5215 46.1621 40.4512 45.0547 40.4395 43.707C40.4277 42.3594 40.4688 40.9707 40.5625 39.541C40.668 38.0996 40.9551 37.0918 41.4238 36.5176C41.623 36.166 41.8633 35.9258 42.1445 35.7969C42.4492 35.6445 42.8125 35.5566 43.2344 35.5332C43.6562 35.498 44.0312 35.498 44.3594 35.5332C44.8398 35.5918 45.2031 35.7441 45.4492 35.9902C45.707 36.2363 45.7773 36.6875 45.6602 37.3438C46.1992 36.8047 46.8789 36.5117 47.6992 36.4648C48.5195 36.4062 49.3984 36.7227 50.3359 37.4141C50.582 37.6016 50.8164 37.8008 51.0391 38.0117C51.6719 37.0273 53.0254 36.4824 55.0996 36.377C55.9785 36.4238 56.8867 36.793 57.8242 37.4844C58.8203 38.2227 59.5527 39.1836 60.0215 40.3672C60.4902 41.5391 60.8066 42.7168 60.9707 43.9004C61.0879 44.7207 61.1406 45.6816 61.1289 46.7832C61.1172 47.8848 60.9004 48.8281 60.4785 49.6133C60.3262 49.8828 60.1152 50.0352 59.8457 50.0703C59.377 50.1406 58.8906 50.0762 58.3867 49.877C57.8828 49.666 57.5078 49.4316 57.2617 49.1738C57.1562 49.0801 57.0859 48.9629 57.0508 48.8223C56.9805 48.6348 56.9629 48.4297 56.998 48.207C57.0449 47.9844 57.0918 47.7734 57.1387 47.5742C57.3145 46.8477 57.4082 46.1211 57.4199 45.3945C57.4316 44.6562 57.4141 43.9473 57.3672 43.2676C57.2266 42.5762 57.0098 42.0137 56.7168 41.5801C56.1426 40.3496 55.4395 39.8691 54.6074 40.1387ZM65.9805 43.9355C66.0156 44.0527 66.0566 44.1816 66.1035 44.3223C66.4082 45.1777 67.082 45.8281 68.125 46.2734C69.1797 46.7188 70.1816 46.8887 71.1309 46.7832C71.8809 46.7246 72.6309 46.3027 73.3809 45.5176C74.1426 44.7324 75.1211 44.7793 76.3164 45.6582C76.8438 45.998 76.7969 46.5371 76.1758 47.2754C75.5547 48.0137 75.0625 48.5117 74.6992 48.7695C74.4531 48.9453 74.2012 49.0977 73.9434 49.2266C73.2637 49.5781 72.5781 49.7891 71.8867 49.8594C71.1953 49.918 70.5156 49.9121 69.8477 49.8418C68.9336 49.7598 68.0547 49.5547 67.2109 49.2266C66.5547 48.9688 65.9219 48.6289 65.3125 48.207C64.7148 47.7852 64.1875 47.2637 63.7305 46.6426C62.875 45.5059 62.3008 44.2461 62.0078 42.8633C61.5508 40.7305 62.0781 38.9492 63.5898 37.5195C64.3516 36.793 65.207 36.2539 66.1562 35.9023C67.1172 35.5391 68.2598 35.2695 69.584 35.0938C70.9082 34.918 72.25 35.1875 73.6094 35.9023C74.9805 36.6055 75.8301 37.625 76.1582 38.9609C76.4863 40.2969 76.5449 41.2285 76.334 41.7559C76.123 42.2832 75.7598 42.6172 75.2441 42.7578C74.7402 42.8984 71.6523 43.291 65.9805 43.9355ZM73.3984 40.2969C72.9062 39.2188 72.0156 38.7207 70.7266 38.8027C69.4375 38.873 68.4355 39.0371 67.7207 39.2949C67.0059 39.5527 66.4785 40.1152 66.1387 40.9824C66.1035 41.041 66.0742 41.0938 66.0508 41.1406L73.3984 40.2969ZM90.0977 38.082L91.5742 39.1016C91.6211 39.125 91.6621 39.1484 91.6973 39.1719C92.8809 39.8867 93.7012 40.7363 94.1582 41.7207C94.627 42.7051 94.6328 43.8125 94.1758 45.043C93.707 46.2734 92.8633 47.3105 91.6445 48.1543C90.8477 48.7168 89.8809 49.1211 88.7441 49.3672C87.6074 49.6016 86.4297 49.6895 85.2109 49.6309C85.1992 49.6426 85.1934 49.6484 85.1934 49.6484V49.666C83.6699 49.5723 82.9434 49.4668 83.0137 49.3496C82.4629 49.2324 81.9941 49.1152 81.6074 48.998L78.8652 47.7324C78.3262 47.3926 77.8574 47.0059 77.459 46.5723C77.4473 46.5488 77.4297 46.5312 77.4062 46.5195C77.3945 46.5078 77.3887 46.4844 77.3887 46.4492C77.3652 46.4492 77.3418 46.4375 77.3184 46.4141C77.3066 46.3906 77.3008 46.373 77.3008 46.3613C77.0898 46.1152 76.9727 45.8516 76.9492 45.5703V45.4473C76.9609 45.084 76.9844 44.6445 77.0195 44.1289C77.043 43.6133 77.125 43.1914 77.2656 42.8633C77.418 42.4883 77.6406 42.3711 77.9336 42.5117C78.2383 42.6406 78.4902 42.793 78.6895 42.9688C78.7129 43.0039 78.7363 43.0273 78.7598 43.0391C78.7832 43.0508 78.8066 43.0684 78.8301 43.0918C79.334 43.5254 79.9082 43.9004 80.5527 44.2168C81.9941 44.9082 83.7402 45.2363 85.791 45.2012C85.8613 45.166 85.9668 45.1074 86.1074 45.0254C86.5645 44.7676 86.6699 44.4102 86.4238 43.9531C86.4004 43.9414 86.3828 43.9238 86.3711 43.9004C86.3594 43.877 86.3477 43.8477 86.3359 43.8125C86.207 43.6602 84.9824 42.9395 82.6621 41.6504C80.4473 40.127 79.1758 39.1133 78.8477 38.6094C78.0625 37.4375 77.8281 36.2656 78.1445 35.0938C78.4609 33.9102 79.1582 32.8848 80.2363 32.0176C82.123 30.4707 85.1465 29.9082 89.3066 30.3301C89.8105 30.4824 90.2617 30.6348 90.6602 30.7871C90.8008 30.8457 91.0176 30.9453 91.3105 31.0859C91.5801 31.2383 91.9023 31.4023 92.2773 31.5781C92.7344 31.7773 92.9219 31.9941 92.8398 32.2285C92.8633 32.2637 92.8926 32.3047 92.9277 32.3516C93.1738 32.6797 93.3672 33.125 93.5078 33.6875C93.6484 34.25 93.5312 34.6953 93.1562 35.0234C93.1211 35.0586 93.0977 35.082 93.0859 35.0938C92.7578 35.3398 92.3008 35.3926 91.7148 35.252C91.0703 35.0762 90.4434 34.9297 89.834 34.8125L88.8145 34.5488C87.502 34.3848 86.541 34.3027 85.9316 34.3027C84.7012 34.7129 84.9883 35.5039 86.793 36.6758C86.9453 36.8164 88.0469 37.2852 90.0977 38.082ZM98.0781 35.7969C98.1367 34.7422 98.2305 33.8691 98.3594 33.1777C98.5 32.4629 98.6641 31.9062 98.8516 31.5078C99.0039 31.168 99.1855 30.9395 99.3965 30.8223C99.6777 30.6816 100.076 30.5879 100.592 30.541C101.107 30.4941 101.512 30.4883 101.805 30.5234C102.215 30.582 102.537 30.7285 102.771 30.9629C103.018 31.1855 103.105 31.6367 103.035 32.3164C102.918 33.4062 102.83 34.5488 102.771 35.7441C103.053 35.7559 103.334 35.7734 103.615 35.7969C104.072 35.8438 104.529 35.9375 104.986 36.0781C105.443 36.207 105.812 36.3887 106.094 36.623C106.293 36.7988 106.445 37.0859 106.551 37.4844C106.645 37.8359 106.68 38.2402 106.656 38.6973C106.621 39.1309 106.551 39.4824 106.445 39.752C106.316 40.0566 106.152 40.2031 105.953 40.1914C105.859 40.1914 105.76 40.1738 105.654 40.1387C105.572 40.127 105.455 40.0918 105.303 40.0332C104.6 39.7988 103.803 39.6582 102.912 39.6113H102.736C102.736 39.7285 102.742 39.8457 102.754 39.9629C102.824 42.7402 103.105 45.1953 103.598 47.3281C103.645 47.5508 103.697 47.7852 103.756 48.0312C103.826 48.2656 103.867 48.5 103.879 48.7344C103.879 49.168 103.721 49.4785 103.404 49.666C103.088 49.8535 102.719 49.959 102.297 49.9824C101.875 50.0059 101.371 49.9824 100.785 49.9121C100.211 49.8301 99.8359 49.7246 99.6602 49.5957C99.3438 49.373 99.1035 49.0391 98.9395 48.5938C98.7754 48.1367 98.6523 47.6914 98.5703 47.2578C98.3945 46.4375 98.2539 45.3887 98.1484 44.1113C98.0547 42.834 98.002 41.5156 97.9902 40.1562C97.9785 39.9336 97.9727 39.7109 97.9727 39.4883H97.8848C97.1934 39.5 96.5137 39.5645 95.8457 39.6816C95.6699 39.7168 95.5586 39.7344 95.5117 39.7344C95.4062 39.7344 95.3066 39.7168 95.2129 39.6816C95.1426 39.6465 95.0723 39.582 95.002 39.4883C94.9551 39.418 94.9082 39.3008 94.8613 39.1367C94.7793 38.8438 94.7441 38.5156 94.7559 38.1523C94.7559 37.7891 94.791 37.4551 94.8613 37.1504C94.9316 36.8223 95.1543 36.5645 95.5293 36.377C95.7402 36.2715 95.9805 36.1719 96.25 36.0781C96.4375 36.0312 96.7129 35.9727 97.0762 35.9023C97.2285 35.8789 97.498 35.8438 97.8848 35.7969H98.0781ZM119.066 36.4473C119.254 36.5059 119.395 36.5703 119.488 36.6406C119.84 36.8867 120.086 37.25 120.227 37.7305C120.379 38.1992 120.49 38.6621 120.561 39.1191C120.689 39.9863 120.76 41.0938 120.771 42.4414C120.783 43.7891 120.736 45.1836 120.631 46.625C120.537 48.0547 120.256 49.0566 119.787 49.6309C119.588 49.9824 119.348 50.2227 119.066 50.3516C118.762 50.5039 118.393 50.5918 117.959 50.6152C117.537 50.6504 117.162 50.6504 116.834 50.6152C116.365 50.5566 116.002 50.4043 115.744 50.1582C115.486 49.9121 115.416 49.4609 115.533 48.8047C114.572 49.543 113.811 49.8887 113.248 49.8418C112.357 49.7949 111.449 49.4258 110.523 48.7344C109.527 47.9961 108.789 47.041 108.309 45.8691C107.84 44.6855 107.523 43.502 107.359 42.3184C107.254 41.498 107.207 40.5371 107.219 39.4355C107.23 38.334 107.441 37.3906 107.852 36.6055C108.004 36.3359 108.221 36.1836 108.502 36.1484C108.971 36.0781 109.451 36.1484 109.943 36.3594C110.447 36.5586 110.822 36.7871 111.068 37.0449C111.186 37.1387 111.262 37.2559 111.297 37.3965C111.367 37.584 111.379 37.7891 111.332 38.0117C111.297 38.2344 111.256 38.4453 111.209 38.6445C111.033 39.3711 110.939 40.1035 110.928 40.8418C110.916 41.5684 110.928 42.2715 110.963 42.9512C111.115 43.6426 111.338 44.2051 111.631 44.6387C112.252 45.6934 112.955 46.2324 113.74 46.2559C114.525 46.2793 115.059 45.8164 115.34 44.8672C115.562 44.1055 115.668 43.1328 115.656 41.9492C115.656 41.9141 115.656 41.873 115.656 41.8262C115.586 40.8418 115.475 39.9043 115.322 39.0137C115.275 38.8145 115.205 38.5039 115.111 38.082C114.994 37.6133 115 37.3027 115.129 37.1504C115.164 37.1152 115.199 37.0801 115.234 37.0449C115.34 36.8223 115.51 36.6465 115.744 36.5176C116.131 36.3184 116.57 36.207 117.062 36.1836C117.426 36.1719 117.783 36.1895 118.135 36.2363C118.299 36.2246 118.451 36.2246 118.592 36.2363C118.768 36.248 118.926 36.3184 119.066 36.4473ZM125.236 42.1777C125.67 41.1934 126.227 40.5488 126.906 40.2441C127.598 39.9395 128.254 39.8867 128.875 40.0859C129.508 40.2734 130.029 40.6719 130.439 41.2812C130.85 41.8789 131.002 42.5762 130.896 43.373C130.779 44.0879 130.516 44.7441 130.105 45.3418C129.695 45.9395 129.068 46.3613 128.225 46.6074C126.947 46.9824 126.021 46.5781 125.447 45.3945C124.885 44.1992 124.814 43.127 125.236 42.1777ZM131.934 47.8203C132.027 48.1719 132.15 48.5352 132.303 48.9102C132.467 49.2852 132.701 49.5664 133.006 49.7539C133.182 49.8594 133.469 49.9473 133.867 50.0176C134.277 50.0996 134.693 50.1289 135.115 50.1055C135.537 50.082 135.9 49.9941 136.205 49.8418C136.521 49.6895 136.68 49.4375 136.68 49.0859C136.668 48.8867 136.633 48.6875 136.574 48.4883C136.516 48.2891 136.457 48.1016 136.398 47.9258C135.918 46.1562 135.637 44.1289 135.555 41.8438C135.484 39.5586 135.666 35.8672 136.1 30.7695C136.17 30.2188 136.088 29.8496 135.854 29.6621C135.619 29.4746 135.297 29.3574 134.887 29.3105C134.605 29.2754 134.289 29.2695 133.938 29.293C133.586 29.3164 133.281 29.3867 133.023 29.5039C132.801 29.6094 132.613 29.7969 132.461 30.0664C132.168 33.4648 131.975 35.3281 131.881 35.6562C131.811 35.6328 131.746 35.6152 131.688 35.6035C130.539 35.2637 129.332 35.2637 128.066 35.6035C126.613 36.002 125.312 36.7109 124.164 37.7305C123.988 37.8828 123.807 38.0527 123.619 38.2402C123.197 38.6621 122.822 39.1133 122.494 39.5938C122.178 40.0742 121.891 40.5723 121.633 41.0879C121.117 42.1309 120.883 43.2852 120.93 44.5508C120.965 45.418 121.141 46.1797 121.457 46.8359C121.773 47.5039 122.23 48.0547 122.828 48.4883C123.438 48.9219 124.088 49.2617 124.779 49.5078C125.693 49.8242 126.643 49.9414 127.627 49.8594C128.611 49.7656 129.52 49.4727 130.352 48.9805C130.926 48.6523 131.453 48.2656 131.934 47.8203ZM137.348 45.6758C137.219 43.9297 137.242 42.1543 137.418 40.3496C137.605 38.5449 137.893 37.3086 138.279 36.6406C138.678 35.9609 139.07 35.6387 139.457 35.6738C139.844 35.6973 140.213 35.7383 140.564 35.7969C140.881 35.8672 141.133 35.9316 141.32 35.9902C141.367 36.002 141.426 36.0312 141.496 36.0781C141.531 36.1016 141.578 36.1484 141.637 36.2188C141.637 36.2188 141.689 36.2715 141.795 36.377C141.818 36.4004 141.859 36.459 141.918 36.5527C141.953 36.5996 141.982 36.6699 142.006 36.7637C142.029 36.8809 142.053 36.998 142.076 37.1152C142.076 37.1387 142.094 37.25 142.129 37.4492C142.141 37.5898 142.064 38.7031 141.9 40.7891C141.748 42.8633 141.848 45.2773 142.199 48.0312C142.188 48.3242 142.152 48.6113 142.094 48.8926C142.035 49.1738 141.977 49.3672 141.918 49.4727C141.812 49.6367 141.596 49.7598 141.268 49.8418C141.115 49.877 140.945 49.9004 140.758 49.9121C140.582 49.9121 140.4 49.9062 140.213 49.8945C139.861 49.8828 139.486 49.8418 139.088 49.7715C138.795 49.7246 138.537 49.6602 138.314 49.5781C138.256 49.543 138.209 49.5137 138.174 49.4902C138.139 49.4785 138.086 49.4316 138.016 49.3496C137.98 49.3262 137.934 49.2734 137.875 49.1914C137.875 49.2031 137.834 49.1445 137.752 49.0156C137.717 48.9922 137.688 48.9219 137.664 48.8047C137.641 48.7227 137.611 48.6055 137.576 48.4531C137.564 48.3359 137.488 47.4102 137.348 45.6758ZM139.949 29.75C140.582 29.75 141.115 29.9609 141.549 30.3828C141.994 30.8047 142.217 31.3203 142.217 31.9297C142.217 32.5273 141.994 33.043 141.549 33.4766C141.115 33.8984 140.582 34.1094 139.949 34.1094C139.34 34.1094 138.812 33.8984 138.367 33.4766C137.934 33.043 137.717 32.5273 137.717 31.9297C137.717 31.3203 137.934 30.8047 138.367 30.3828C138.812 29.9609 139.34 29.75 139.949 29.75ZM143.553 41.6152C144.139 40.4902 144.777 39.5938 145.469 38.9258C145.738 38.668 145.914 38.5039 145.996 38.4336C147.098 37.4609 148.352 36.793 149.758 36.4297C150.941 36.1133 152.096 36.1074 153.221 36.4121C153.748 36.5762 154.275 36.8633 154.803 37.2734C155.33 37.6719 155.729 38.1172 155.998 38.6094C156.291 39.1719 156.473 39.875 156.543 40.7188C156.648 41.9609 156.537 43.0801 156.209 44.0762C155.998 44.6855 155.693 45.2773 155.295 45.8516C154.908 46.4141 154.504 46.9238 154.082 47.3809C153.449 48.0488 152.729 48.623 151.92 49.1035C151.123 49.5723 150.256 49.8477 149.318 49.9297C148.346 50 147.432 49.8887 146.576 49.5957C145.896 49.3613 145.27 49.0449 144.695 48.6465C144.133 48.2363 143.699 47.709 143.395 47.0645C143.078 46.4434 142.902 45.7168 142.867 44.8848C142.82 43.7012 143.049 42.6113 143.553 41.6152ZM146.787 42.8984C146.494 43.7891 146.693 44.709 147.385 45.6582C148.088 46.6074 149.043 46.8301 150.25 46.3262C151 46.0098 151.545 45.5645 151.885 44.9902C152.225 44.4043 152.4 43.7949 152.412 43.1621C152.436 41.7207 151.656 40.8535 150.074 40.5605C148.492 40.2676 147.396 41.0469 146.787 42.8984ZM158.494 29.2227C158.729 28.4844 159.162 28.0918 159.795 28.0449C161.67 27.9512 163.539 27.998 165.402 28.1855C167.277 28.3613 169.146 28.9355 171.01 29.9082C173.107 31.0215 174.783 32.4512 176.037 34.1973C177.104 35.6973 177.783 37.3438 178.076 39.1367C178.264 40.4141 178.035 41.6738 177.391 42.916C176.758 44.1582 176.066 45.1953 175.316 46.0273C174.438 46.9766 173.453 47.7324 172.363 48.2949C171.262 48.8691 170.049 49.2617 168.725 49.4727C167.061 49.7422 165.355 49.7949 163.609 49.6309C161.863 49.4551 160.123 49.25 158.389 49.0156C157.85 48.957 157.492 48.7988 157.316 48.541C157.141 48.2832 157.047 47.9668 157.035 47.5918C156.941 44.9785 156.977 41.8496 157.141 38.2051C157.316 34.5488 157.768 31.5547 158.494 29.2227ZM172.68 39.1367C172.609 38.2344 172.088 37.3906 171.115 36.6055C170.752 36.3359 170.336 36.0664 169.867 35.7969C168.508 35.0938 167.113 34.6484 165.684 34.4609C165.309 34.4023 164.951 34.3789 164.611 34.3906C164.225 34.4258 163.896 34.5664 163.627 34.8125C163.498 34.9297 163.375 35.375 163.258 36.1484C163.141 36.9219 163.041 37.7715 162.959 38.6973C162.877 39.6113 162.824 40.4668 162.801 41.2637C162.777 42.0605 162.801 42.5293 162.871 42.6699C162.906 42.7637 162.953 42.834 163.012 42.8809C163.609 43.1973 164.277 43.4375 165.016 43.6016C165.742 43.7539 166.451 43.8125 167.143 43.7773C168.057 43.7422 169.047 43.5664 170.113 43.25C171.191 42.9219 171.906 42.3184 172.258 41.4395C172.562 40.6895 172.703 39.9219 172.68 39.1367ZM193.51 40.1387C192.678 40.4082 192.303 41.6387 192.385 43.8301C192.502 44.6504 192.555 45.6113 192.543 46.7129C192.531 47.8145 192.314 48.7578 191.893 49.543C191.74 49.8125 191.529 49.9648 191.26 50C190.791 50.0703 190.305 50.0059 189.801 49.8066C189.297 49.5957 188.922 49.3613 188.676 49.1035C188.57 49.0098 188.5 48.8926 188.465 48.752C188.395 48.5645 188.377 48.3594 188.412 48.1367C188.459 47.9141 188.506 47.7031 188.553 47.5039C188.729 46.7773 188.822 46.0508 188.834 45.3242C188.846 44.5859 188.828 43.877 188.781 43.1973C188.641 42.5059 188.424 41.9434 188.131 41.5098C187.51 40.4551 186.859 39.916 186.18 39.8926C185.512 39.8691 185.043 40.332 184.773 41.2812C184.551 42.043 184.445 43.0156 184.457 44.1992V44.3223C184.527 45.3066 184.639 46.2441 184.791 47.1348C184.838 47.334 184.908 47.6387 185.002 48.0488C185.119 48.5293 185.113 48.8457 184.984 48.998C184.949 49.0332 184.914 49.0684 184.879 49.1035C184.773 49.3262 184.598 49.502 184.352 49.6309C183.965 49.8301 183.531 49.9414 183.051 49.9648C182.688 49.9766 182.33 49.959 181.979 49.9121C181.814 49.9238 181.662 49.9238 181.521 49.9121C181.334 49.9004 181.17 49.8301 181.029 49.7012C180.854 49.6426 180.713 49.5781 180.607 49.5078C180.268 49.2617 180.021 48.9043 179.869 48.4355C179.729 47.9551 179.623 47.4863 179.553 47.0293C179.424 46.1621 179.354 45.0547 179.342 43.707C179.33 42.3594 179.371 40.9707 179.465 39.541C179.57 38.0996 179.857 37.0918 180.326 36.5176C180.525 36.166 180.766 35.9258 181.047 35.7969C181.352 35.6445 181.715 35.5566 182.137 35.5332C182.559 35.498 182.934 35.498 183.262 35.5332C183.742 35.5918 184.105 35.7441 184.352 35.9902C184.609 36.2363 184.68 36.6875 184.562 37.3438C185.102 36.8047 185.781 36.5117 186.602 36.4648C187.422 36.4062 188.301 36.7227 189.238 37.4141C189.484 37.6016 189.719 37.8008 189.941 38.0117C190.574 37.0273 191.928 36.4824 194.002 36.377C194.881 36.4238 195.789 36.793 196.727 37.4844C197.723 38.2227 198.455 39.1836 198.924 40.3672C199.393 41.5391 199.709 42.7168 199.873 43.9004C199.99 44.7207 200.043 45.6816 200.031 46.7832C200.02 47.8848 199.803 48.8281 199.381 49.6133C199.229 49.8828 199.018 50.0352 198.748 50.0703C198.279 50.1406 197.793 50.0762 197.289 49.877C196.785 49.666 196.41 49.4316 196.164 49.1738C196.059 49.0801 195.988 48.9629 195.953 48.8223C195.883 48.6348 195.865 48.4297 195.9 48.207C195.947 47.9844 195.994 47.7734 196.041 47.5742C196.217 46.8477 196.311 46.1211 196.322 45.3945C196.334 44.6562 196.316 43.9473 196.27 43.2676C196.129 42.5762 195.912 42.0137 195.619 41.5801C195.045 40.3496 194.342 39.8691 193.51 40.1387ZM201.121 45.6758C200.992 43.9297 201.016 42.1543 201.191 40.3496C201.379 38.5449 201.666 37.3086 202.053 36.6406C202.451 35.9609 202.844 35.6387 203.23 35.6738C203.617 35.6973 203.986 35.7383 204.338 35.7969C204.654 35.8672 204.906 35.9316 205.094 35.9902C205.141 36.002 205.199 36.0312 205.27 36.0781C205.305 36.1016 205.352 36.1484 205.41 36.2188C205.41 36.2188 205.463 36.2715 205.568 36.377C205.592 36.4004 205.633 36.459 205.691 36.5527C205.727 36.5996 205.756 36.6699 205.779 36.7637C205.803 36.8809 205.826 36.998 205.85 37.1152C205.85 37.1387 205.867 37.25 205.902 37.4492C205.914 37.5898 205.838 38.7031 205.674 40.7891C205.521 42.8633 205.621 45.2773 205.973 48.0312C205.961 48.3242 205.926 48.6113 205.867 48.8926C205.809 49.1738 205.75 49.3672 205.691 49.4727C205.586 49.6367 205.369 49.7598 205.041 49.8418C204.889 49.877 204.719 49.9004 204.531 49.9121C204.355 49.9121 204.174 49.9062 203.986 49.8945C203.635 49.8828 203.26 49.8418 202.861 49.7715C202.568 49.7246 202.311 49.6602 202.088 49.5781C202.029 49.543 201.982 49.5137 201.947 49.4902C201.912 49.4785 201.859 49.4316 201.789 49.3496C201.754 49.3262 201.707 49.2734 201.648 49.1914C201.648 49.2031 201.607 49.1445 201.525 49.0156C201.49 48.9922 201.461 48.9219 201.438 48.8047C201.414 48.7227 201.385 48.6055 201.35 48.4531C201.338 48.3359 201.262 47.4102 201.121 45.6758ZM203.723 29.75C204.355 29.75 204.889 29.9609 205.322 30.3828C205.768 30.8047 205.99 31.3203 205.99 31.9297C205.99 32.5273 205.768 33.043 205.322 33.4766C204.889 33.8984 204.355 34.1094 203.723 34.1094C203.113 34.1094 202.586 33.8984 202.141 33.4766C201.707 33.043 201.49 32.5273 201.49 31.9297C201.49 31.3203 201.707 30.8047 202.141 30.3828C202.586 29.9609 203.113 29.75 203.723 29.75ZM209.664 35.7969C209.723 34.7422 209.816 33.8691 209.945 33.1777C210.086 32.4629 210.25 31.9062 210.438 31.5078C210.59 31.168 210.771 30.9395 210.982 30.8223C211.264 30.6816 211.662 30.5879 212.178 30.541C212.693 30.4941 213.098 30.4883 213.391 30.5234C213.801 30.582 214.123 30.7285 214.357 30.9629C214.604 31.1855 214.691 31.6367 214.621 32.3164C214.504 33.4062 214.416 34.5488 214.357 35.7441C214.639 35.7559 214.92 35.7734 215.201 35.7969C215.658 35.8438 216.115 35.9375 216.572 36.0781C217.029 36.207 217.398 36.3887 217.68 36.623C217.879 36.7988 218.031 37.0859 218.137 37.4844C218.23 37.8359 218.266 38.2402 218.242 38.6973C218.207 39.1309 218.137 39.4824 218.031 39.752C217.902 40.0566 217.738 40.2031 217.539 40.1914C217.445 40.1914 217.346 40.1738 217.24 40.1387C217.158 40.127 217.041 40.0918 216.889 40.0332C216.186 39.7988 215.389 39.6582 214.498 39.6113H214.322C214.322 39.7285 214.328 39.8457 214.34 39.9629C214.41 42.7402 214.691 45.1953 215.184 47.3281C215.23 47.5508 215.283 47.7852 215.342 48.0312C215.412 48.2656 215.453 48.5 215.465 48.7344C215.465 49.168 215.307 49.4785 214.99 49.666C214.674 49.8535 214.305 49.959 213.883 49.9824C213.461 50.0059 212.957 49.9824 212.371 49.9121C211.797 49.8301 211.422 49.7246 211.246 49.5957C210.93 49.373 210.689 49.0391 210.525 48.5938C210.361 48.1367 210.238 47.6914 210.156 47.2578C209.98 46.4375 209.84 45.3887 209.734 44.1113C209.641 42.834 209.588 41.5156 209.576 40.1562C209.564 39.9336 209.559 39.7109 209.559 39.4883H209.471C208.779 39.5 208.1 39.5645 207.432 39.6816C207.256 39.7168 207.145 39.7344 207.098 39.7344C206.992 39.7344 206.893 39.7168 206.799 39.6816C206.729 39.6465 206.658 39.582 206.588 39.4883C206.541 39.418 206.494 39.3008 206.447 39.1367C206.365 38.8438 206.33 38.5156 206.342 38.1523C206.342 37.7891 206.377 37.4551 206.447 37.1504C206.518 36.8223 206.74 36.5645 207.115 36.377C207.326 36.2715 207.566 36.1719 207.836 36.0781C208.023 36.0312 208.299 35.9727 208.662 35.9023C208.814 35.8789 209.084 35.8438 209.471 35.7969H209.664ZM221.002 49.7539C220.826 49.6953 220.686 49.6309 220.58 49.5605C220.24 49.3145 219.994 48.957 219.842 48.4883C219.689 48.0078 219.584 47.5391 219.525 47.082C219.396 46.2148 219.326 45.1074 219.314 43.7598C219.303 42.4121 219.344 41.0234 219.438 39.5938C219.543 38.1523 219.83 37.1445 220.299 36.5703C220.498 36.2188 220.738 35.9785 221.02 35.8496C221.324 35.6973 221.688 35.6094 222.109 35.5859C222.531 35.5508 222.906 35.5508 223.234 35.5859C223.715 35.6445 224.078 35.7969 224.324 36.043C224.582 36.2891 224.652 36.7402 224.535 37.3965C225.508 36.6582 226.762 36.4355 228.297 36.7285C229.832 37.0215 230.494 37.7598 230.283 38.9434C230.072 40.127 229.164 40.584 227.559 40.3145C225.953 40.0449 225.016 40.3848 224.746 41.334C224.523 42.0957 224.418 43.0684 224.43 44.252C224.43 44.2871 224.43 44.3281 224.43 44.375C224.5 45.3594 224.611 46.2969 224.764 47.1875C224.799 47.3867 224.869 47.6914 224.975 48.1016C225.092 48.582 225.086 48.8984 224.957 49.0508C224.922 49.0859 224.887 49.1211 224.852 49.1562C224.746 49.3789 224.57 49.5547 224.324 49.6836C223.938 49.8828 223.504 49.9941 223.023 50.0176C222.66 50.0293 222.303 50.0117 221.951 49.9648C221.787 49.9766 221.629 49.9766 221.477 49.9648C221.301 49.9531 221.143 49.8828 221.002 49.7539ZM230.969 37.6602C231.285 37.168 231.561 36.8105 231.795 36.5879C232.041 36.3652 232.387 36.0781 232.832 35.7266C233.324 35.5156 233.816 35.6562 234.309 36.1484C235.023 36.8633 235.621 37.8828 236.102 39.207C236.594 40.5312 237.168 41.5918 237.824 42.3887C238.023 42.6582 238.24 42.7109 238.475 42.5469C238.721 42.3711 238.926 42.1836 239.09 41.9844C239.57 41.4336 240.033 40.6602 240.479 39.6641C240.936 38.668 241.322 37.8184 241.639 37.1152C241.826 36.6816 242.031 36.3711 242.254 36.1836C242.488 35.9844 242.828 35.9844 243.273 36.1836C243.695 36.3945 244.047 36.6641 244.328 36.9922C244.621 37.3086 244.902 37.6836 245.172 38.1172C245.477 38.5977 245.553 39.2363 245.4 40.0332C245.201 41.0527 244.85 42.0605 244.346 43.0566C243.854 44.0527 243.379 44.9785 242.922 45.834C242.43 46.7129 241.914 47.5566 241.375 48.3652C240.848 49.1738 240.309 49.9766 239.758 50.7734C239.242 51.4766 238.727 52.1797 238.211 52.8828C237.695 53.5859 237.133 54.2188 236.523 54.7812C235.879 55.3789 235.281 55.7656 234.73 55.9414C234.32 56.0703 233.834 55.9824 233.271 55.6777C232.721 55.3848 232.334 55.0625 232.111 54.7109C231.889 54.3711 231.666 54.0078 231.443 53.6211C231.232 53.2344 231.244 52.8652 231.479 52.5137C231.666 52.2324 231.941 51.9453 232.305 51.6523C232.68 51.3711 232.996 51.0605 233.254 50.7207C233.488 50.4277 233.711 50.1875 233.922 50C234.145 49.8008 234.449 49.3789 234.836 48.7344C235.574 47.7266 235.562 46.6953 234.801 45.6406C234.496 45.1133 234.062 44.4746 233.5 43.7246C232.949 42.9629 232.504 42.3418 232.164 41.8613C231.93 41.5215 231.695 41.1699 231.461 40.8066C231.238 40.4316 231.045 40.0391 230.881 39.6289C230.717 39.2656 230.629 38.9434 230.617 38.6621C230.617 38.3691 230.734 38.0352 230.969 37.6602Z" fill="black"/>
</g>
<rect x="4.5" y="56.5" width="224" height="1" fill="white"/>
<rect x="4.5" y="56.5" width="224" height="1" stroke="black"/>
<rect x="241.5" y="56.5" width="4" height="1" fill="white"/>
<rect x="241.5" y="56.5" width="4" height="1" stroke="black"/>
<path d="M45.05 62.4V64.56C45.5767 64.6133 46.04 64.7567 46.44 64.99C46.84 65.2167 47.15 65.5267 47.37 65.92C47.59 66.3133 47.7 66.78 47.7 67.32C47.7 68.1333 47.4633 68.78 46.99 69.26C46.5233 69.74 45.8767 70.0133 45.05 70.08V72.4H44.19V70.08C43.6633 70.0333 43.2 69.8967 42.8 69.67C42.4 69.4367 42.09 69.1233 41.87 68.73C41.65 68.3367 41.54 67.8667 41.54 67.32C41.54 66.5067 41.7733 65.86 42.24 65.38C42.7133 64.9 43.3733 64.6267 44.22 64.56V62.4H45.05ZM44.22 65.29C43.6067 65.35 43.16 65.5533 42.88 65.9C42.6 66.24 42.46 66.7133 42.46 67.32C42.46 67.9267 42.6 68.4033 42.88 68.75C43.16 69.0967 43.6067 69.3 44.22 69.36V65.29ZM45.05 65.3V69.36C45.65 69.2933 46.09 69.0867 46.37 68.74C46.65 68.3933 46.79 67.92 46.79 67.32C46.79 66.72 46.6467 66.25 46.36 65.91C46.08 65.57 45.6433 65.3667 45.05 65.3ZM54.4961 64.54C55.1561 64.54 55.6861 64.77 56.0861 65.23C56.4928 65.69 56.6961 66.3833 56.6961 67.31C56.6961 68.2233 56.4928 68.9167 56.0861 69.39C55.6861 69.8633 55.1528 70.1 54.4861 70.1C54.0728 70.1 53.7294 70.0233 53.4561 69.87C53.1894 69.7167 52.9794 69.5333 52.8261 69.32H52.7661C52.7728 69.4333 52.7828 69.5767 52.7961 69.75C52.8161 69.9233 52.8261 70.0733 52.8261 70.2V72.4H51.9461V64.64H52.6661L52.7861 65.37H52.8261C52.9861 65.1367 53.1961 64.94 53.4561 64.78C53.7161 64.62 54.0628 64.54 54.4961 64.54ZM54.3361 65.28C53.7894 65.28 53.4028 65.4333 53.1761 65.74C52.9494 66.0467 52.8328 66.5133 52.8261 67.14V67.31C52.8261 67.97 52.9328 68.48 53.1461 68.84C53.3661 69.1933 53.7694 69.37 54.3561 69.37C54.6761 69.37 54.9428 69.2833 55.1561 69.11C55.3694 68.93 55.5261 68.6833 55.6261 68.37C55.7328 68.0567 55.7861 67.7 55.7861 67.3C55.7861 66.6867 55.6661 66.1967 55.4261 65.83C55.1928 65.4633 54.8294 65.28 54.3361 65.28ZM65.6084 67.31C65.6084 68.1967 65.3818 68.8833 64.9284 69.37C64.4818 69.8567 63.8751 70.1 63.1084 70.1C62.6351 70.1 62.2118 69.9933 61.8384 69.78C61.4718 69.56 61.1818 69.2433 60.9684 68.83C60.7551 68.41 60.6484 67.9033 60.6484 67.31C60.6484 66.4233 60.8684 65.74 61.3084 65.26C61.7551 64.78 62.3651 64.54 63.1384 64.54C63.6184 64.54 64.0451 64.65 64.4184 64.87C64.7918 65.0833 65.0818 65.3967 65.2884 65.81C65.5018 66.2167 65.6084 66.7167 65.6084 67.31ZM61.5584 67.31C61.5584 67.9433 61.6818 68.4467 61.9284 68.82C62.1818 69.1867 62.5818 69.37 63.1284 69.37C63.6684 69.37 64.0651 69.1867 64.3184 68.82C64.5718 68.4467 64.6984 67.9433 64.6984 67.31C64.6984 66.6767 64.5718 66.18 64.3184 65.82C64.0651 65.46 63.6651 65.28 63.1184 65.28C62.5718 65.28 62.1751 65.46 61.9284 65.82C61.6818 66.18 61.5584 66.6767 61.5584 67.31ZM70.7331 64.64V66.87H73.6431V64.64H74.5231V70H73.6431V67.61H70.7331V70H69.8531V64.64H70.7331ZM82.7703 65.38H81.0203V70H80.1503V65.38H78.4203V64.64H82.7703V65.38ZM88.6485 64.54C89.1018 64.54 89.4952 64.64 89.8285 64.84C90.1618 65.04 90.4152 65.3233 90.5885 65.69C90.7685 66.05 90.8585 66.4733 90.8585 66.96V67.49H87.1885C87.2018 68.0967 87.3552 68.56 87.6485 68.88C87.9485 69.1933 88.3652 69.35 88.8985 69.35C89.2385 69.35 89.5385 69.32 89.7985 69.26C90.0652 69.1933 90.3385 69.1 90.6185 68.98V69.75C90.3452 69.87 90.0752 69.9567 89.8085 70.01C89.5418 70.07 89.2252 70.1 88.8585 70.1C88.3452 70.1 87.8952 69.9967 87.5085 69.79C87.1218 69.5833 86.8185 69.2767 86.5985 68.87C86.3852 68.4633 86.2785 67.96 86.2785 67.36C86.2785 66.7733 86.3752 66.27 86.5685 65.85C86.7685 65.43 87.0452 65.1067 87.3985 64.88C87.7585 64.6533 88.1752 64.54 88.6485 64.54ZM88.6385 65.26C88.2185 65.26 87.8852 65.3967 87.6385 65.67C87.3985 65.9367 87.2552 66.31 87.2085 66.79H89.9385C89.9318 66.3367 89.8252 65.97 89.6185 65.69C89.4118 65.4033 89.0852 65.26 88.6385 65.26ZM95.953 64.64V66.87H98.863V64.64H99.743V70H98.863V67.61H95.953V70H95.073V64.64H95.953ZM108.27 64.64V69.26H109.05V71.86H108.2V70H104.47V71.86H103.63V69.26H104.06C104.52 68.6267 104.864 67.9067 105.09 67.1C105.324 66.2867 105.444 65.4667 105.45 64.64H108.27ZM107.42 65.33H106.23C106.197 65.7833 106.124 66.2533 106.01 66.74C105.904 67.22 105.76 67.68 105.58 68.12C105.407 68.56 105.204 68.94 104.97 69.26H107.42V65.33ZM120.304 64.54C120.964 64.54 121.494 64.77 121.894 65.23C122.301 65.69 122.504 66.3833 122.504 67.31C122.504 68.2233 122.301 68.9167 121.894 69.39C121.494 69.8633 120.961 70.1 120.294 70.1C119.881 70.1 119.537 70.0233 119.264 69.87C118.997 69.7167 118.787 69.5333 118.634 69.32H118.574C118.581 69.4333 118.591 69.5767 118.604 69.75C118.624 69.9233 118.634 70.0733 118.634 70.2V72.4H117.754V64.64H118.474L118.594 65.37H118.634C118.794 65.1367 119.004 64.94 119.264 64.78C119.524 64.62 119.871 64.54 120.304 64.54ZM120.144 65.28C119.597 65.28 119.211 65.4333 118.984 65.74C118.757 66.0467 118.641 66.5133 118.634 67.14V67.31C118.634 67.97 118.741 68.48 118.954 68.84C119.174 69.1933 119.577 69.37 120.164 69.37C120.484 69.37 120.751 69.2833 120.964 69.11C121.177 68.93 121.334 68.6833 121.434 68.37C121.541 68.0567 121.594 67.7 121.594 67.3C121.594 66.6867 121.474 66.1967 121.234 65.83C121.001 65.4633 120.637 65.28 120.144 65.28ZM128.786 64.55C129.44 64.55 129.923 64.6933 130.236 64.98C130.55 65.2667 130.706 65.7233 130.706 66.35V70H130.066L129.896 69.24H129.856C129.623 69.5333 129.376 69.75 129.116 69.89C128.856 70.03 128.503 70.1 128.056 70.1C127.57 70.1 127.166 69.9733 126.846 69.72C126.526 69.46 126.366 69.0567 126.366 68.51C126.366 67.9767 126.576 67.5667 126.996 67.28C127.416 66.9867 128.063 66.8267 128.936 66.8L129.846 66.77V66.45C129.846 66.0033 129.75 65.6933 129.556 65.52C129.363 65.3467 129.09 65.26 128.736 65.26C128.456 65.26 128.19 65.3033 127.936 65.39C127.683 65.47 127.446 65.5633 127.226 65.67L126.956 65.01C127.19 64.8833 127.466 64.7767 127.786 64.69C128.106 64.5967 128.44 64.55 128.786 64.55ZM129.836 67.38L129.046 67.41C128.38 67.4367 127.916 67.5433 127.656 67.73C127.403 67.9167 127.276 68.18 127.276 68.52C127.276 68.82 127.366 69.04 127.546 69.18C127.733 69.32 127.97 69.39 128.256 69.39C128.703 69.39 129.076 69.2667 129.376 69.02C129.683 68.7667 129.836 68.38 129.836 67.86V67.38ZM136.622 64.54C137.235 64.54 137.722 64.6633 138.082 64.91C138.448 65.1567 138.632 65.5033 138.632 65.95C138.632 66.2767 138.538 66.5367 138.352 66.73C138.172 66.9167 137.928 67.0533 137.622 67.14V67.18C137.835 67.24 138.032 67.3233 138.212 67.43C138.392 67.5367 138.535 67.68 138.642 67.86C138.755 68.0333 138.812 68.2533 138.812 68.52C138.812 68.9667 138.625 69.3433 138.252 69.65C137.885 69.95 137.308 70.1 136.522 70.1C136.135 70.1 135.785 70.07 135.472 70.01C135.158 69.95 134.898 69.8633 134.692 69.75V68.96C134.918 69.0667 135.185 69.1633 135.492 69.25C135.805 69.3367 136.145 69.38 136.512 69.38C136.912 69.38 137.248 69.3133 137.522 69.18C137.802 69.04 137.942 68.8033 137.942 68.47C137.942 67.87 137.432 67.57 136.412 67.57H135.692V66.85H136.272C136.732 66.85 137.098 66.79 137.372 66.67C137.652 66.5433 137.792 66.33 137.792 66.03C137.792 65.7767 137.685 65.5867 137.472 65.46C137.265 65.3333 136.965 65.27 136.572 65.27C136.278 65.27 136.018 65.3 135.792 65.36C135.572 65.4133 135.328 65.4967 135.062 65.61L134.752 64.91C135.312 64.6633 135.935 64.54 136.622 64.54ZM145.514 64.54C146.174 64.54 146.704 64.77 147.104 65.23C147.511 65.69 147.714 66.3833 147.714 67.31C147.714 68.2233 147.511 68.9167 147.104 69.39C146.704 69.8633 146.171 70.1 145.504 70.1C145.091 70.1 144.747 70.0233 144.474 69.87C144.207 69.7167 143.997 69.5333 143.844 69.32H143.784C143.791 69.4333 143.801 69.5767 143.814 69.75C143.834 69.9233 143.844 70.0733 143.844 70.2V72.4H142.964V64.64H143.684L143.804 65.37H143.844C144.004 65.1367 144.214 64.94 144.474 64.78C144.734 64.62 145.081 64.54 145.514 64.54ZM145.354 65.28C144.807 65.28 144.421 65.4333 144.194 65.74C143.967 66.0467 143.851 66.5133 143.844 67.14V67.31C143.844 67.97 143.951 68.48 144.164 68.84C144.384 69.1933 144.787 69.37 145.374 69.37C145.694 69.37 145.961 69.2833 146.174 69.11C146.387 68.93 146.544 68.6833 146.644 68.37C146.751 68.0567 146.804 67.7 146.804 67.3C146.804 66.6867 146.684 66.1967 146.444 65.83C146.211 65.4633 145.847 65.28 145.354 65.28ZM153.996 64.55C154.65 64.55 155.133 64.6933 155.446 64.98C155.76 65.2667 155.916 65.7233 155.916 66.35V70H155.276L155.106 69.24H155.066C154.833 69.5333 154.586 69.75 154.326 69.89C154.066 70.03 153.713 70.1 153.266 70.1C152.78 70.1 152.376 69.9733 152.056 69.72C151.736 69.46 151.576 69.0567 151.576 68.51C151.576 67.9767 151.786 67.5667 152.206 67.28C152.626 66.9867 153.273 66.8267 154.146 66.8L155.056 66.77V66.45C155.056 66.0033 154.96 65.6933 154.766 65.52C154.573 65.3467 154.3 65.26 153.946 65.26C153.666 65.26 153.4 65.3033 153.146 65.39C152.893 65.47 152.656 65.5633 152.436 65.67L152.166 65.01C152.4 64.8833 152.676 64.7767 152.996 64.69C153.316 64.5967 153.65 64.55 153.996 64.55ZM155.046 67.38L154.256 67.41C153.59 67.4367 153.126 67.5433 152.866 67.73C152.613 67.9167 152.486 68.18 152.486 68.52C152.486 68.82 152.576 69.04 152.756 69.18C152.943 69.32 153.18 69.39 153.466 69.39C153.913 69.39 154.286 69.2667 154.586 69.02C154.893 68.7667 155.046 68.38 155.046 67.86V67.38ZM160.142 66.78C160.142 65.6067 160.319 64.6933 160.672 64.04C161.025 63.3867 161.595 62.9733 162.382 62.8C162.815 62.7067 163.239 62.6233 163.652 62.55C164.065 62.4767 164.452 62.41 164.812 62.35L164.962 63.12C164.729 63.16 164.465 63.2033 164.172 63.25C163.879 63.2967 163.589 63.3467 163.302 63.4C163.015 63.4533 162.769 63.5 162.562 63.54C162.129 63.6333 161.785 63.86 161.532 64.22C161.279 64.58 161.135 65.1333 161.102 65.88H161.162C161.255 65.7533 161.382 65.6233 161.542 65.49C161.709 65.3567 161.905 65.2433 162.132 65.15C162.365 65.0567 162.629 65.01 162.922 65.01C163.615 65.01 164.139 65.2333 164.492 65.68C164.845 66.1267 165.022 66.7067 165.022 67.42C165.022 68.02 164.919 68.52 164.712 68.92C164.505 69.3133 164.215 69.61 163.842 69.81C163.475 70.0033 163.052 70.1 162.572 70.1C161.832 70.1 161.242 69.8167 160.802 69.25C160.362 68.6833 160.142 67.86 160.142 66.78ZM162.642 69.37C163.075 69.37 163.425 69.23 163.692 68.95C163.959 68.67 164.092 68.19 164.092 67.51C164.092 66.9633 163.989 66.5333 163.782 66.22C163.582 65.9 163.249 65.74 162.782 65.74C162.482 65.74 162.212 65.8067 161.972 65.94C161.739 66.0667 161.539 66.2133 161.372 66.38C161.212 66.5467 161.102 66.6867 161.042 66.8C161.042 67.1267 161.065 67.4433 161.112 67.75C161.159 68.0567 161.239 68.3333 161.352 68.58C161.472 68.82 161.635 69.0133 161.842 69.16C162.055 69.3 162.322 69.37 162.642 69.37ZM173.918 67.31C173.918 68.1967 173.692 68.8833 173.238 69.37C172.792 69.8567 172.185 70.1 171.418 70.1C170.945 70.1 170.522 69.9933 170.148 69.78C169.782 69.56 169.492 69.2433 169.278 68.83C169.065 68.41 168.958 67.9033 168.958 67.31C168.958 66.4233 169.178 65.74 169.618 65.26C170.065 64.78 170.675 64.54 171.448 64.54C171.928 64.54 172.355 64.65 172.728 64.87C173.102 65.0833 173.392 65.3967 173.598 65.81C173.812 66.2167 173.918 66.7167 173.918 67.31ZM169.868 67.31C169.868 67.9433 169.992 68.4467 170.238 68.82C170.492 69.1867 170.892 69.37 171.438 69.37C171.978 69.37 172.375 69.1867 172.628 68.82C172.882 68.4467 173.008 67.9433 173.008 67.31C173.008 66.6767 172.882 66.18 172.628 65.82C172.375 65.46 171.975 65.28 171.428 65.28C170.882 65.28 170.485 65.46 170.238 65.82C169.992 66.18 169.868 66.6767 169.868 67.31ZM181.765 65.38H180.015V70H179.145V65.38H177.415V64.64H181.765V65.38ZM188.841 64.64H189.801L187.511 67.22L189.991 70H188.971L186.551 67.28V70H185.671V64.64H186.551V67.24L188.841 64.64ZM195.844 64.55C196.497 64.55 196.981 64.6933 197.294 64.98C197.607 65.2667 197.764 65.7233 197.764 66.35V70H197.124L196.954 69.24H196.914C196.681 69.5333 196.434 69.75 196.174 69.89C195.914 70.03 195.561 70.1 195.114 70.1C194.627 70.1 194.224 69.9733 193.904 69.72C193.584 69.46 193.424 69.0567 193.424 68.51C193.424 67.9767 193.634 67.5667 194.054 67.28C194.474 66.9867 195.121 66.8267 195.994 66.8L196.904 66.77V66.45C196.904 66.0033 196.807 65.6933 196.614 65.52C196.421 65.3467 196.147 65.26 195.794 65.26C195.514 65.26 195.247 65.3033 194.994 65.39C194.741 65.47 194.504 65.5633 194.284 65.67L194.014 65.01C194.247 64.8833 194.524 64.7767 194.844 64.69C195.164 64.5967 195.497 64.55 195.844 64.55ZM196.894 67.38L196.104 67.41C195.437 67.4367 194.974 67.5433 194.714 67.73C194.461 67.9167 194.334 68.18 194.334 68.52C194.334 68.82 194.424 69.04 194.604 69.18C194.791 69.32 195.027 69.39 195.314 69.39C195.761 69.39 196.134 69.2667 196.434 69.02C196.741 68.7667 196.894 68.38 196.894 67.86V67.38Z" fill="#646464"/>
<path d="M180 0.999957C180 0.999957 244 -4.99361 244 19.9999C244 24.9999 244 24.9999 244 24.9999H180V0.999957Z" fill="#FDC305"/>
<defs>
<filter id="filter0_d" x="0.269943" y="26.7524" width="249.207" height="37.2465" filterUnits="userSpaceOnUse" color-interpolation-filters="sRGB">
<feFlood flood-opacity="0" result="BackgroundImageFix"/>
<feColorMatrix in="SourceAlpha" type="matrix" values="0 0 0 0 0 0 0 0 0 0 0 0 0 0 0 0 0 0 127 0"/>
<feOffset dy="4"/>
<feGaussianBlur stdDeviation="2"/>
<feColorMatrix type="matrix" values="0 0 0 0 0 0 0 0 0 0 0 0 0 0 0 0 0 0 0.25 0"/>
<feBlend mode="normal" in2="BackgroundImageFix" result="effect1_dropShadow"/>
<feBlend mode="normal" in="SourceGraphic" in2="effect1_dropShadow" result="shape"/>
</filter>
</defs>
</svg>
