<svg viewBox="0 0 242 73" xmlns="http://www.w3.org/2000/svg">
<rect x="0.5" y="56.1298" width="224" height="1" fill="white"/>
<rect x="0.5" y="56.1298" width="224" height="1" stroke="black"/>
<rect x="237.5" y="56.1298" width="4" height="1" fill="white"/>
<rect x="237.5" y="56.1298" width="4" height="1" stroke="black"/>
<path d="M41.05 62.0298V64.1898C41.5767 64.2431 42.04 64.3865 42.44 64.6198C42.84 64.8465 43.15 65.1565 43.37 65.5498C43.59 65.9431 43.7 66.4098 43.7 66.9498C43.7 67.7631 43.4633 68.4098 42.99 68.8898C42.5233 69.3698 41.8767 69.6431 41.05 69.7098V72.0298H40.19V69.7098C39.6633 69.6631 39.2 69.5265 38.8 69.2998C38.4 69.0665 38.09 68.7531 37.87 68.3598C37.65 67.9665 37.54 67.4965 37.54 66.9498C37.54 66.1365 37.7733 65.4898 38.24 65.0098C38.7133 64.5298 39.3733 64.2565 40.22 64.1898V62.0298H41.05ZM40.22 64.9198C39.6067 64.9798 39.16 65.1831 38.88 65.5298C38.6 65.8698 38.46 66.3431 38.46 66.9498C38.46 67.5565 38.6 68.0331 38.88 68.3798C39.16 68.7265 39.6067 68.9298 40.22 68.9898V64.9198ZM41.05 64.9298V68.9898C41.65 68.9231 42.09 68.7165 42.37 68.3698C42.65 68.0231 42.79 67.5498 42.79 66.9498C42.79 66.3498 42.6467 65.8798 42.36 65.5398C42.08 65.1998 41.6433 64.9965 41.05 64.9298ZM50.4961 64.1698C51.1561 64.1698 51.6861 64.3998 52.0861 64.8598C52.4928 65.3198 52.6961 66.0131 52.6961 66.9398C52.6961 67.8531 52.4928 68.5465 52.0861 69.0198C51.6861 69.4931 51.1528 69.7298 50.4861 69.7298C50.0728 69.7298 49.7294 69.6531 49.4561 69.4998C49.1894 69.3465 48.9794 69.1631 48.8261 68.9498H48.7661C48.7728 69.0631 48.7828 69.2065 48.7961 69.3798C48.8161 69.5531 48.8261 69.7031 48.8261 69.8298V72.0298H47.9461V64.2698H48.6661L48.7861 64.9998H48.8261C48.9861 64.7665 49.1961 64.5698 49.4561 64.4098C49.7161 64.2498 50.0628 64.1698 50.4961 64.1698ZM50.3361 64.9098C49.7894 64.9098 49.4028 65.0631 49.1761 65.3698C48.9494 65.6765 48.8328 66.1431 48.8261 66.7698V66.9398C48.8261 67.5998 48.9328 68.1098 49.1461 68.4698C49.3661 68.8231 49.7694 68.9998 50.3561 68.9998C50.6761 68.9998 50.9428 68.9131 51.1561 68.7398C51.3694 68.5598 51.5261 68.3131 51.6261 67.9998C51.7328 67.6865 51.7861 67.3298 51.7861 66.9298C51.7861 66.3165 51.6661 65.8265 51.4261 65.4598C51.1928 65.0931 50.8294 64.9098 50.3361 64.9098ZM61.6084 66.9398C61.6084 67.8265 61.3818 68.5131 60.9284 68.9998C60.4818 69.4865 59.8751 69.7298 59.1084 69.7298C58.6351 69.7298 58.2118 69.6231 57.8384 69.4098C57.4718 69.1898 57.1818 68.8731 56.9684 68.4598C56.7551 68.0398 56.6484 67.5331 56.6484 66.9398C56.6484 66.0531 56.8684 65.3698 57.3084 64.8898C57.7551 64.4098 58.3651 64.1698 59.1384 64.1698C59.6184 64.1698 60.0451 64.2798 60.4184 64.4998C60.7918 64.7131 61.0818 65.0265 61.2884 65.4398C61.5018 65.8465 61.6084 66.3465 61.6084 66.9398ZM57.5584 66.9398C57.5584 67.5731 57.6818 68.0765 57.9284 68.4498C58.1818 68.8165 58.5818 68.9998 59.1284 68.9998C59.6684 68.9998 60.0651 68.8165 60.3184 68.4498C60.5718 68.0765 60.6984 67.5731 60.6984 66.9398C60.6984 66.3065 60.5718 65.8098 60.3184 65.4498C60.0651 65.0898 59.6651 64.9098 59.1184 64.9098C58.5718 64.9098 58.1751 65.0898 57.9284 65.4498C57.6818 65.8098 57.5584 66.3065 57.5584 66.9398ZM66.7331 64.2698V66.4998H69.6431V64.2698H70.5231V69.6298H69.6431V67.2398H66.7331V69.6298H65.8531V64.2698H66.7331ZM78.7703 65.0098H77.0203V69.6298H76.1503V65.0098H74.4203V64.2698H78.7703V65.0098ZM84.6485 64.1698C85.1018 64.1698 85.4952 64.2698 85.8285 64.4698C86.1618 64.6698 86.4152 64.9531 86.5885 65.3198C86.7685 65.6798 86.8585 66.1031 86.8585 66.5898V67.1198H83.1885C83.2018 67.7265 83.3552 68.1898 83.6485 68.5098C83.9485 68.8231 84.3652 68.9798 84.8985 68.9798C85.2385 68.9798 85.5385 68.9498 85.7985 68.8898C86.0652 68.8231 86.3385 68.7298 86.6185 68.6098V69.3798C86.3452 69.4998 86.0752 69.5865 85.8085 69.6398C85.5418 69.6998 85.2252 69.7298 84.8585 69.7298C84.3452 69.7298 83.8952 69.6265 83.5085 69.4198C83.1218 69.2131 82.8185 68.9065 82.5985 68.4998C82.3852 68.0931 82.2785 67.5898 82.2785 66.9898C82.2785 66.4031 82.3752 65.8998 82.5685 65.4798C82.7685 65.0598 83.0452 64.7365 83.3985 64.5098C83.7585 64.2831 84.1752 64.1698 84.6485 64.1698ZM84.6385 64.8898C84.2185 64.8898 83.8852 65.0265 83.6385 65.2998C83.3985 65.5665 83.2552 65.9398 83.2085 66.4198H85.9385C85.9318 65.9665 85.8252 65.5998 85.6185 65.3198C85.4118 65.0331 85.0852 64.8898 84.6385 64.8898ZM91.953 64.2698V66.4998H94.863V64.2698H95.743V69.6298H94.863V67.2398H91.953V69.6298H91.073V64.2698H91.953ZM104.27 64.2698V68.8898H105.05V71.4898H104.2V69.6298H100.47V71.4898H99.6302V68.8898H100.06C100.52 68.2565 100.864 67.5365 101.09 66.7298C101.324 65.9165 101.444 65.0965 101.45 64.2698H104.27ZM103.42 64.9598H102.23C102.197 65.4131 102.124 65.8831 102.01 66.3698C101.904 66.8498 101.76 67.3098 101.58 67.7498C101.407 68.1898 101.204 68.5698 100.97 68.8898H103.42V64.9598ZM116.304 64.1698C116.964 64.1698 117.494 64.3998 117.894 64.8598C118.301 65.3198 118.504 66.0131 118.504 66.9398C118.504 67.8531 118.301 68.5465 117.894 69.0198C117.494 69.4931 116.961 69.7298 116.294 69.7298C115.881 69.7298 115.537 69.6531 115.264 69.4998C114.997 69.3465 114.787 69.1631 114.634 68.9498H114.574C114.581 69.0631 114.591 69.2065 114.604 69.3798C114.624 69.5531 114.634 69.7031 114.634 69.8298V72.0298H113.754V64.2698H114.474L114.594 64.9998H114.634C114.794 64.7665 115.004 64.5698 115.264 64.4098C115.524 64.2498 115.871 64.1698 116.304 64.1698ZM116.144 64.9098C115.597 64.9098 115.211 65.0631 114.984 65.3698C114.757 65.6765 114.641 66.1431 114.634 66.7698V66.9398C114.634 67.5998 114.741 68.1098 114.954 68.4698C115.174 68.8231 115.577 68.9998 116.164 68.9998C116.484 68.9998 116.751 68.9131 116.964 68.7398C117.177 68.5598 117.334 68.3131 117.434 67.9998C117.541 67.6865 117.594 67.3298 117.594 66.9298C117.594 66.3165 117.474 65.8265 117.234 65.4598C117.001 65.0931 116.637 64.9098 116.144 64.9098ZM124.786 64.1798C125.44 64.1798 125.923 64.3231 126.236 64.6098C126.55 64.8965 126.706 65.3531 126.706 65.9798V69.6298H126.066L125.896 68.8698H125.856C125.623 69.1631 125.376 69.3798 125.116 69.5198C124.856 69.6598 124.503 69.7298 124.056 69.7298C123.57 69.7298 123.166 69.6031 122.846 69.3498C122.526 69.0898 122.366 68.6865 122.366 68.1398C122.366 67.6065 122.576 67.1965 122.996 66.9098C123.416 66.6165 124.063 66.4565 124.936 66.4298L125.846 66.3998V66.0798C125.846 65.6331 125.75 65.3231 125.556 65.1498C125.363 64.9765 125.09 64.8898 124.736 64.8898C124.456 64.8898 124.19 64.9331 123.936 65.0198C123.683 65.0998 123.446 65.1931 123.226 65.2998L122.956 64.6398C123.19 64.5131 123.466 64.4065 123.786 64.3198C124.106 64.2265 124.44 64.1798 124.786 64.1798ZM125.836 67.0098L125.046 67.0398C124.38 67.0665 123.916 67.1731 123.656 67.3598C123.403 67.5465 123.276 67.8098 123.276 68.1498C123.276 68.4498 123.366 68.6698 123.546 68.8098C123.733 68.9498 123.97 69.0198 124.256 69.0198C124.703 69.0198 125.076 68.8965 125.376 68.6498C125.683 68.3965 125.836 68.0098 125.836 67.4898V67.0098ZM132.622 64.1698C133.235 64.1698 133.722 64.2931 134.082 64.5398C134.448 64.7865 134.632 65.1331 134.632 65.5798C134.632 65.9065 134.538 66.1665 134.352 66.3598C134.172 66.5465 133.928 66.6831 133.622 66.7698V66.8098C133.835 66.8698 134.032 66.9531 134.212 67.0598C134.392 67.1665 134.535 67.3098 134.642 67.4898C134.755 67.6631 134.812 67.8831 134.812 68.1498C134.812 68.5965 134.625 68.9731 134.252 69.2798C133.885 69.5798 133.308 69.7298 132.522 69.7298C132.135 69.7298 131.785 69.6998 131.472 69.6398C131.158 69.5798 130.898 69.4931 130.692 69.3798V68.5898C130.918 68.6965 131.185 68.7931 131.492 68.8798C131.805 68.9665 132.145 69.0098 132.512 69.0098C132.912 69.0098 133.248 68.9431 133.522 68.8098C133.802 68.6698 133.942 68.4331 133.942 68.0998C133.942 67.4998 133.432 67.1998 132.412 67.1998H131.692V66.4798H132.272C132.732 66.4798 133.098 66.4198 133.372 66.2998C133.652 66.1731 133.792 65.9598 133.792 65.6598C133.792 65.4065 133.685 65.2165 133.472 65.0898C133.265 64.9631 132.965 64.8998 132.572 64.8998C132.278 64.8998 132.018 64.9298 131.792 64.9898C131.572 65.0431 131.328 65.1265 131.062 65.2398L130.752 64.5398C131.312 64.2931 131.935 64.1698 132.622 64.1698ZM141.514 64.1698C142.174 64.1698 142.704 64.3998 143.104 64.8598C143.511 65.3198 143.714 66.0131 143.714 66.9398C143.714 67.8531 143.511 68.5465 143.104 69.0198C142.704 69.4931 142.171 69.7298 141.504 69.7298C141.091 69.7298 140.747 69.6531 140.474 69.4998C140.207 69.3465 139.997 69.1631 139.844 68.9498H139.784C139.791 69.0631 139.801 69.2065 139.814 69.3798C139.834 69.5531 139.844 69.7031 139.844 69.8298V72.0298H138.964V64.2698H139.684L139.804 64.9998H139.844C140.004 64.7665 140.214 64.5698 140.474 64.4098C140.734 64.2498 141.081 64.1698 141.514 64.1698ZM141.354 64.9098C140.807 64.9098 140.421 65.0631 140.194 65.3698C139.967 65.6765 139.851 66.1431 139.844 66.7698V66.9398C139.844 67.5998 139.951 68.1098 140.164 68.4698C140.384 68.8231 140.787 68.9998 141.374 68.9998C141.694 68.9998 141.961 68.9131 142.174 68.7398C142.387 68.5598 142.544 68.3131 142.644 67.9998C142.751 67.6865 142.804 67.3298 142.804 66.9298C142.804 66.3165 142.684 65.8265 142.444 65.4598C142.211 65.0931 141.847 64.9098 141.354 64.9098ZM149.996 64.1798C150.65 64.1798 151.133 64.3231 151.446 64.6098C151.76 64.8965 151.916 65.3531 151.916 65.9798V69.6298H151.276L151.106 68.8698H151.066C150.833 69.1631 150.586 69.3798 150.326 69.5198C150.066 69.6598 149.713 69.7298 149.266 69.7298C148.78 69.7298 148.376 69.6031 148.056 69.3498C147.736 69.0898 147.576 68.6865 147.576 68.1398C147.576 67.6065 147.786 67.1965 148.206 66.9098C148.626 66.6165 149.273 66.4565 150.146 66.4298L151.056 66.3998V66.0798C151.056 65.6331 150.96 65.3231 150.766 65.1498C150.573 64.9765 150.3 64.8898 149.946 64.8898C149.666 64.8898 149.4 64.9331 149.146 65.0198C148.893 65.0998 148.656 65.1931 148.436 65.2998L148.166 64.6398C148.4 64.5131 148.676 64.4065 148.996 64.3198C149.316 64.2265 149.65 64.1798 149.996 64.1798ZM151.046 67.0098L150.256 67.0398C149.59 67.0665 149.126 67.1731 148.866 67.3598C148.613 67.5465 148.486 67.8098 148.486 68.1498C148.486 68.4498 148.576 68.6698 148.756 68.8098C148.943 68.9498 149.18 69.0198 149.466 69.0198C149.913 69.0198 150.286 68.8965 150.586 68.6498C150.893 68.3965 151.046 68.0098 151.046 67.4898V67.0098ZM156.142 66.4098C156.142 65.2365 156.319 64.3231 156.672 63.6698C157.025 63.0165 157.595 62.6031 158.382 62.4298C158.815 62.3365 159.239 62.2531 159.652 62.1798C160.065 62.1065 160.452 62.0398 160.812 61.9798L160.962 62.7498C160.729 62.7898 160.465 62.8331 160.172 62.8798C159.879 62.9265 159.589 62.9765 159.302 63.0298C159.015 63.0831 158.769 63.1298 158.562 63.1698C158.129 63.2631 157.785 63.4898 157.532 63.8498C157.279 64.2098 157.135 64.7631 157.102 65.5098H157.162C157.255 65.3831 157.382 65.2531 157.542 65.1198C157.709 64.9865 157.905 64.8731 158.132 64.7798C158.365 64.6865 158.629 64.6398 158.922 64.6398C159.615 64.6398 160.139 64.8631 160.492 65.3098C160.845 65.7565 161.022 66.3365 161.022 67.0498C161.022 67.6498 160.919 68.1498 160.712 68.5498C160.505 68.9431 160.215 69.2398 159.842 69.4398C159.475 69.6331 159.052 69.7298 158.572 69.7298C157.832 69.7298 157.242 69.4465 156.802 68.8798C156.362 68.3131 156.142 67.4898 156.142 66.4098ZM158.642 68.9998C159.075 68.9998 159.425 68.8598 159.692 68.5798C159.959 68.2998 160.092 67.8198 160.092 67.1398C160.092 66.5931 159.989 66.1631 159.782 65.8498C159.582 65.5298 159.249 65.3698 158.782 65.3698C158.482 65.3698 158.212 65.4365 157.972 65.5698C157.739 65.6965 157.539 65.8431 157.372 66.0098C157.212 66.1765 157.102 66.3165 157.042 66.4298C157.042 66.7565 157.065 67.0731 157.112 67.3798C157.159 67.6865 157.239 67.9631 157.352 68.2098C157.472 68.4498 157.635 68.6431 157.842 68.7898C158.055 68.9298 158.322 68.9998 158.642 68.9998ZM169.918 66.9398C169.918 67.8265 169.692 68.5131 169.238 68.9998C168.792 69.4865 168.185 69.7298 167.418 69.7298C166.945 69.7298 166.522 69.6231 166.148 69.4098C165.782 69.1898 165.492 68.8731 165.278 68.4598C165.065 68.0398 164.958 67.5331 164.958 66.9398C164.958 66.0531 165.178 65.3698 165.618 64.8898C166.065 64.4098 166.675 64.1698 167.448 64.1698C167.928 64.1698 168.355 64.2798 168.728 64.4998C169.102 64.7131 169.392 65.0265 169.598 65.4398C169.812 65.8465 169.918 66.3465 169.918 66.9398ZM165.868 66.9398C165.868 67.5731 165.992 68.0765 166.238 68.4498C166.492 68.8165 166.892 68.9998 167.438 68.9998C167.978 68.9998 168.375 68.8165 168.628 68.4498C168.882 68.0765 169.008 67.5731 169.008 66.9398C169.008 66.3065 168.882 65.8098 168.628 65.4498C168.375 65.0898 167.975 64.9098 167.428 64.9098C166.882 64.9098 166.485 65.0898 166.238 65.4498C165.992 65.8098 165.868 66.3065 165.868 66.9398ZM177.765 65.0098H176.015V69.6298H175.145V65.0098H173.415V64.2698H177.765V65.0098ZM184.841 64.2698H185.801L183.511 66.8498L185.991 69.6298H184.971L182.551 66.9098V69.6298H181.671V64.2698H182.551V66.8698L184.841 64.2698ZM191.844 64.1798C192.497 64.1798 192.981 64.3231 193.294 64.6098C193.607 64.8965 193.764 65.3531 193.764 65.9798V69.6298H193.124L192.954 68.8698H192.914C192.681 69.1631 192.434 69.3798 192.174 69.5198C191.914 69.6598 191.561 69.7298 191.114 69.7298C190.627 69.7298 190.224 69.6031 189.904 69.3498C189.584 69.0898 189.424 68.6865 189.424 68.1398C189.424 67.6065 189.634 67.1965 190.054 66.9098C190.474 66.6165 191.121 66.4565 191.994 66.4298L192.904 66.3998V66.0798C192.904 65.6331 192.807 65.3231 192.614 65.1498C192.421 64.9765 192.147 64.8898 191.794 64.8898C191.514 64.8898 191.247 64.9331 190.994 65.0198C190.741 65.0998 190.504 65.1931 190.284 65.2998L190.014 64.6398C190.247 64.5131 190.524 64.4065 190.844 64.3198C191.164 64.2265 191.497 64.1798 191.844 64.1798ZM192.894 67.0098L192.104 67.0398C191.437 67.0665 190.974 67.1731 190.714 67.3598C190.461 67.5465 190.334 67.8098 190.334 68.1498C190.334 68.4498 190.424 68.6698 190.604 68.8098C190.791 68.9498 191.027 69.0198 191.314 69.0198C191.761 69.0198 192.134 68.8965 192.434 68.6498C192.741 68.3965 192.894 68.0098 192.894 67.4898V67.0098Z" fill="#646464"/>
<path d="M176 0.629748C176 0.629748 240 -5.36382 240 19.6297C240 24.6297 240 24.6297 240 24.6297H176V0.629748Z" fill="#FDC305"/>
<path d="M6.92578 41.5087C7.41797 43.5712 7.89844 45.1415 8.36719 46.2196C8.46094 46.4657 8.56641 46.7235 8.68359 46.9931C8.80078 47.2509 8.88281 47.5087 8.92969 47.7665C8.98828 48.247 8.78906 48.6161 8.33203 48.8739C7.875 49.12 7.33008 49.2899 6.69727 49.3837C6.07617 49.4774 5.56055 49.495 5.15039 49.4364C4.75195 49.3778 4.41797 49.2841 4.14844 49.1552C3.65625 48.956 3.26367 48.6103 2.9707 48.1181C2.67773 47.6259 2.44336 47.1454 2.26758 46.6767C1.9043 45.7743 1.58203 44.6142 1.30078 43.1962C1.01953 41.7782 0.791016 40.3075 0.615234 38.7841C0.439453 37.2489 0.328125 35.7724 0.28125 34.3544C0.246094 32.9247 0.292969 31.7587 0.421875 30.8564C0.527344 30.0829 0.703125 29.4267 0.949219 28.8876C1.11328 28.5243 1.36523 28.2431 1.70508 28.0439C2.08008 27.8446 2.38477 27.7157 2.61914 27.6571C2.86523 27.5868 3.20508 27.5517 3.63867 27.5517C4.27148 27.5634 4.76953 27.6806 5.13281 27.9032C5.50781 28.1142 5.67773 28.6064 5.64258 29.3798C5.52539 31.9579 5.71289 34.6532 6.20508 37.4657C7.74023 37.2665 9.23438 37.0732 10.6875 36.8857C12.1523 36.6982 13.3008 36.5634 14.1328 36.4814C14.0742 35.2274 14.0566 34.0321 14.0801 32.8954C14.1152 31.747 14.2031 30.7743 14.3438 29.9774C14.4258 29.4853 14.5605 28.9755 14.748 28.4482C14.9355 27.9091 15.252 27.4872 15.6973 27.1825C15.9316 27.0185 16.3477 26.8544 16.9453 26.6903C17.5547 26.5263 18.0645 26.4267 18.4746 26.3915C18.8965 26.3564 19.3535 26.4208 19.8457 26.5849C20.3379 26.7489 20.6074 27.0712 20.6543 27.5517C20.6543 27.8212 20.625 28.0966 20.5664 28.3778C20.5078 28.6591 20.4551 28.9286 20.4082 29.1864C19.8926 31.6591 19.7344 34.4716 19.9336 37.6239C20.1328 40.7646 20.5547 43.6181 21.1992 46.1845C21.375 46.9345 21.2988 47.456 20.9707 47.7489C20.6543 48.0419 20.1914 48.247 19.582 48.3642C19.1602 48.4462 18.791 48.4989 18.4746 48.5224C18.1582 48.5458 17.7949 48.4931 17.3848 48.3642C17.0215 48.2587 16.7168 48.0302 16.4707 47.6786C16.1309 47.2099 15.832 46.6005 15.5742 45.8505C15.2109 44.8075 14.8242 43.0263 14.4141 40.5067C13.5352 40.788 12.2871 41.0165 10.6699 41.1923C9.05273 41.3564 7.80469 41.4618 6.92578 41.5087ZM22.2715 41.245C22.8574 40.12 23.4961 39.2235 24.1875 38.5556C24.457 38.2978 24.6328 38.1337 24.7148 38.0634C25.8164 37.0907 27.0703 36.4228 28.4766 36.0595C29.6602 35.7431 30.8145 35.7372 31.9395 36.0419C32.4668 36.206 32.9941 36.4931 33.5215 36.9032C34.0488 37.3017 34.4473 37.747 34.7168 38.2392C35.0098 38.8017 35.1914 39.5048 35.2617 40.3485C35.3672 41.5907 35.2559 42.7099 34.9277 43.706C34.7168 44.3153 34.4121 44.9071 34.0137 45.4814C33.627 46.0439 33.2227 46.5536 32.8008 47.0107C32.168 47.6786 31.4473 48.2528 30.6387 48.7333C29.8418 49.2021 28.9746 49.4774 28.0371 49.5595C27.0645 49.6298 26.1504 49.5185 25.2949 49.2255C24.6152 48.9911 23.9883 48.6747 23.4141 48.2763C22.8516 47.8661 22.418 47.3388 22.1133 46.6942C21.7969 46.0732 21.6211 45.3466 21.5859 44.5146C21.5391 43.331 21.7676 42.2411 22.2715 41.245ZM25.5059 42.5282C25.2129 43.4189 25.4121 44.3388 26.1035 45.288C26.8066 46.2372 27.7617 46.4599 28.9688 45.956C29.7188 45.6396 30.2637 45.1942 30.6035 44.62C30.9434 44.0341 31.1191 43.4247 31.1309 42.7919C31.1543 41.3505 30.375 40.4833 28.793 40.1903C27.2109 39.8974 26.1152 40.6767 25.5059 42.5282ZM50.6074 39.7685C49.7754 40.038 49.4004 41.2685 49.4824 43.4599C49.5996 44.2802 49.6523 45.2411 49.6406 46.3427C49.6289 47.4442 49.4121 48.3876 48.9902 49.1728C48.8379 49.4423 48.627 49.5946 48.3574 49.6298C47.8887 49.7001 47.4023 49.6357 46.8984 49.4364C46.3945 49.2255 46.0195 48.9911 45.7734 48.7333C45.668 48.6396 45.5977 48.5224 45.5625 48.3817C45.4922 48.1942 45.4746 47.9892 45.5098 47.7665C45.5566 47.5439 45.6035 47.3329 45.6504 47.1337C45.8262 46.4071 45.9199 45.6806 45.9316 44.954C45.9434 44.2157 45.9258 43.5067 45.8789 42.8271C45.7383 42.1357 45.5215 41.5732 45.2285 41.1396C44.6074 40.0849 43.957 39.5458 43.2773 39.5224C42.6094 39.4989 42.1406 39.9618 41.8711 40.911C41.6484 41.6728 41.543 42.6454 41.5547 43.829V43.9521C41.625 44.9364 41.7363 45.8739 41.8887 46.7646C41.9355 46.9638 42.0059 47.2685 42.0996 47.6786C42.2168 48.1591 42.2109 48.4755 42.082 48.6278C42.0469 48.663 42.0117 48.6982 41.9766 48.7333C41.8711 48.956 41.6953 49.1317 41.4492 49.2607C41.0625 49.4599 40.6289 49.5712 40.1484 49.5946C39.7852 49.6064 39.4277 49.5888 39.0762 49.5419C38.9121 49.5536 38.7598 49.5536 38.6191 49.5419C38.4316 49.5302 38.2676 49.4599 38.127 49.331C37.9512 49.2724 37.8105 49.2079 37.7051 49.1376C37.3652 48.8915 37.1191 48.5341 36.9668 48.0653C36.8262 47.5849 36.7207 47.1161 36.6504 46.6591C36.5215 45.7919 36.4512 44.6845 36.4395 43.3368C36.4277 41.9892 36.4688 40.6005 36.5625 39.1708C36.668 37.7294 36.9551 36.7216 37.4238 36.1474C37.623 35.7958 37.8633 35.5556 38.1445 35.4267C38.4492 35.2743 38.8125 35.1864 39.2344 35.163C39.6562 35.1278 40.0312 35.1278 40.3594 35.163C40.8398 35.2216 41.2031 35.3739 41.4492 35.62C41.707 35.8661 41.7773 36.3173 41.6602 36.9735C42.1992 36.4345 42.8789 36.1415 43.6992 36.0946C44.5195 36.036 45.3984 36.3524 46.3359 37.0439C46.582 37.2314 46.8164 37.4306 47.0391 37.6415C47.6719 36.6571 49.0254 36.1122 51.0996 36.0067C51.9785 36.0536 52.8867 36.4228 53.8242 37.1142C54.8203 37.8524 55.5527 38.8134 56.0215 39.997C56.4902 41.1689 56.8066 42.3466 56.9707 43.5302C57.0879 44.3505 57.1406 45.3114 57.1289 46.413C57.1172 47.5146 56.9004 48.4579 56.4785 49.2431C56.3262 49.5126 56.1152 49.6649 55.8457 49.7001C55.377 49.7704 54.8906 49.706 54.3867 49.5067C53.8828 49.2958 53.5078 49.0614 53.2617 48.8036C53.1562 48.7099 53.0859 48.5927 53.0508 48.4521C52.9805 48.2646 52.9629 48.0595 52.998 47.8368C53.0449 47.6142 53.0918 47.4032 53.1387 47.204C53.3145 46.4774 53.4082 45.7509 53.4199 45.0243C53.4316 44.286 53.4141 43.5771 53.3672 42.8974C53.2266 42.206 53.0098 41.6435 52.7168 41.2099C52.1426 39.9794 51.4395 39.4989 50.6074 39.7685ZM61.9805 43.5653C62.0156 43.6825 62.0566 43.8114 62.1035 43.9521C62.4082 44.8075 63.082 45.4579 64.125 45.9032C65.1797 46.3485 66.1816 46.5185 67.1309 46.413C67.8809 46.3544 68.6309 45.9325 69.3809 45.1474C70.1426 44.3622 71.1211 44.4091 72.3164 45.288C72.8438 45.6278 72.7969 46.1669 72.1758 46.9052C71.5547 47.6435 71.0625 48.1415 70.6992 48.3993C70.4531 48.5751 70.2012 48.7274 69.9434 48.8564C69.2637 49.2079 68.5781 49.4189 67.8867 49.4892C67.1953 49.5478 66.5156 49.5419 65.8477 49.4716C64.9336 49.3896 64.0547 49.1845 63.2109 48.8564C62.5547 48.5985 61.9219 48.2587 61.3125 47.8368C60.7148 47.4149 60.1875 46.8935 59.7305 46.2724C58.875 45.1357 58.3008 43.8759 58.0078 42.4931C57.5508 40.3603 58.0781 38.579 59.5898 37.1493C60.3516 36.4228 61.207 35.8837 62.1562 35.5321C63.1172 35.1689 64.2598 34.8993 65.584 34.7235C66.9082 34.5478 68.25 34.8173 69.6094 35.5321C70.9805 36.2353 71.8301 37.2548 72.1582 38.5907C72.4863 39.9267 72.5449 40.8583 72.334 41.3857C72.123 41.913 71.7598 42.247 71.2441 42.3876C70.7402 42.5282 67.6523 42.9208 61.9805 43.5653ZM69.3984 39.9267C68.9062 38.8485 68.0156 38.3505 66.7266 38.4325C65.4375 38.5028 64.4355 38.6669 63.7207 38.9247C63.0059 39.1825 62.4785 39.745 62.1387 40.6122C62.1035 40.6708 62.0742 40.7235 62.0508 40.7704L69.3984 39.9267ZM86.0977 37.7118L87.5742 38.7314C87.6211 38.7548 87.6621 38.7782 87.6973 38.8017C88.8809 39.5165 89.7012 40.3661 90.1582 41.3505C90.627 42.3349 90.6328 43.4423 90.1758 44.6728C89.707 45.9032 88.8633 46.9403 87.6445 47.7841C86.8477 48.3466 85.8809 48.7509 84.7441 48.997C83.6074 49.2314 82.4297 49.3192 81.2109 49.2607C81.1992 49.2724 81.1934 49.2782 81.1934 49.2782V49.2958C79.6699 49.2021 78.9434 49.0966 79.0137 48.9794C78.4629 48.8622 77.9941 48.745 77.6074 48.6278L74.8652 47.3622C74.3262 47.0224 73.8574 46.6357 73.459 46.2021C73.4473 46.1786 73.4297 46.161 73.4062 46.1493C73.3945 46.1376 73.3887 46.1142 73.3887 46.079C73.3652 46.079 73.3418 46.0673 73.3184 46.0439C73.3066 46.0204 73.3008 46.0028 73.3008 45.9911C73.0898 45.745 72.9727 45.4814 72.9492 45.2001V45.0771C72.9609 44.7138 72.9844 44.2743 73.0195 43.7587C73.043 43.2431 73.125 42.8212 73.2656 42.4931C73.418 42.1181 73.6406 42.0009 73.9336 42.1415C74.2383 42.2704 74.4902 42.4228 74.6895 42.5985C74.7129 42.6337 74.7363 42.6571 74.7598 42.6689C74.7832 42.6806 74.8066 42.6982 74.8301 42.7216C75.334 43.1552 75.9082 43.5302 76.5527 43.8466C77.9941 44.538 79.7402 44.8661 81.791 44.831C81.8613 44.7958 81.9668 44.7372 82.1074 44.6552C82.5645 44.3974 82.6699 44.0399 82.4238 43.5829C82.4004 43.5712 82.3828 43.5536 82.3711 43.5302C82.3594 43.5067 82.3477 43.4774 82.3359 43.4423C82.207 43.2899 80.9824 42.5692 78.6621 41.2802C76.4473 39.7567 75.1758 38.7431 74.8477 38.2392C74.0625 37.0673 73.8281 35.8954 74.1445 34.7235C74.4609 33.5399 75.1582 32.5146 76.2363 31.6474C78.123 30.1005 81.1465 29.538 85.3066 29.9599C85.8105 30.1122 86.2617 30.2646 86.6602 30.4169C86.8008 30.4755 87.0176 30.5751 87.3105 30.7157C87.5801 30.8681 87.9023 31.0321 88.2773 31.2079C88.7344 31.4071 88.9219 31.6239 88.8398 31.8583C88.8633 31.8935 88.8926 31.9345 88.9277 31.9814C89.1738 32.3095 89.3672 32.7548 89.5078 33.3173C89.6484 33.8798 89.5312 34.3251 89.1562 34.6532C89.1211 34.6884 89.0977 34.7118 89.0859 34.7235C88.7578 34.9696 88.3008 35.0224 87.7148 34.8817C87.0703 34.706 86.4434 34.5595 85.834 34.4423L84.8145 34.1786C83.502 34.0146 82.541 33.9325 81.9316 33.9325C80.7012 34.3427 80.9883 35.1337 82.793 36.3056C82.9453 36.4462 84.0469 36.9149 86.0977 37.7118ZM94.0781 35.4267C94.1367 34.372 94.2305 33.4989 94.3594 32.8075C94.5 32.0927 94.6641 31.536 94.8516 31.1376C95.0039 30.7978 95.1855 30.5692 95.3965 30.4521C95.6777 30.3114 96.0762 30.2177 96.5918 30.1708C97.1074 30.1239 97.5117 30.1181 97.8047 30.1532C98.2148 30.2118 98.5371 30.3583 98.7715 30.5927C99.0176 30.8153 99.1055 31.2665 99.0352 31.9462C98.918 33.036 98.8301 34.1786 98.7715 35.3739C99.0527 35.3857 99.334 35.4032 99.6152 35.4267C100.072 35.4735 100.529 35.5673 100.986 35.7079C101.443 35.8368 101.812 36.0185 102.094 36.2528C102.293 36.4286 102.445 36.7157 102.551 37.1142C102.645 37.4657 102.68 37.87 102.656 38.3271C102.621 38.7607 102.551 39.1122 102.445 39.3817C102.316 39.6864 102.152 39.8329 101.953 39.8212C101.859 39.8212 101.76 39.8036 101.654 39.7685C101.572 39.7567 101.455 39.7216 101.303 39.663C100.6 39.4286 99.8027 39.288 98.9121 39.2411H98.7363C98.7363 39.3583 98.7422 39.4755 98.7539 39.5927C98.8242 42.37 99.1055 44.8251 99.5977 46.9579C99.6445 47.1806 99.6973 47.4149 99.7559 47.661C99.8262 47.8954 99.8672 48.1298 99.8789 48.3642C99.8789 48.7978 99.7207 49.1083 99.4043 49.2958C99.0879 49.4833 98.7188 49.5888 98.2969 49.6122C97.875 49.6357 97.3711 49.6122 96.7852 49.5419C96.2109 49.4599 95.8359 49.3544 95.6602 49.2255C95.3438 49.0028 95.1035 48.6689 94.9395 48.2235C94.7754 47.7665 94.6523 47.3212 94.5703 46.8876C94.3945 46.0673 94.2539 45.0185 94.1484 43.7411C94.0547 42.4638 94.002 41.1454 93.9902 39.786C93.9785 39.5634 93.9727 39.3407 93.9727 39.1181H93.8848C93.1934 39.1298 92.5137 39.1942 91.8457 39.3114C91.6699 39.3466 91.5586 39.3642 91.5117 39.3642C91.4062 39.3642 91.3066 39.3466 91.2129 39.3114C91.1426 39.2763 91.0723 39.2118 91.002 39.1181C90.9551 39.0478 90.9082 38.9306 90.8613 38.7665C90.7793 38.4735 90.7441 38.1454 90.7559 37.7821C90.7559 37.4189 90.791 37.0849 90.8613 36.7802C90.9316 36.4521 91.1543 36.1942 91.5293 36.0067C91.7402 35.9013 91.9805 35.8017 92.25 35.7079C92.4375 35.661 92.7129 35.6024 93.0762 35.5321C93.2285 35.5087 93.498 35.4735 93.8848 35.4267H94.0781ZM115.066 36.0771C115.254 36.1357 115.395 36.2001 115.488 36.2704C115.84 36.5165 116.086 36.8798 116.227 37.3603C116.379 37.829 116.49 38.2919 116.561 38.7489C116.689 39.6161 116.76 40.7235 116.771 42.0712C116.783 43.4189 116.736 44.8134 116.631 46.2548C116.537 47.6845 116.256 48.6864 115.787 49.2607C115.588 49.6122 115.348 49.8524 115.066 49.9814C114.762 50.1337 114.393 50.2216 113.959 50.245C113.537 50.2802 113.162 50.2802 112.834 50.245C112.365 50.1864 112.002 50.0341 111.744 49.788C111.486 49.5419 111.416 49.0907 111.533 48.4345C110.572 49.1728 109.811 49.5185 109.248 49.4716C108.357 49.4247 107.449 49.0556 106.523 48.3642C105.527 47.6259 104.789 46.6708 104.309 45.4989C103.84 44.3153 103.523 43.1317 103.359 41.9482C103.254 41.1278 103.207 40.1669 103.219 39.0653C103.23 37.9638 103.441 37.0204 103.852 36.2353C104.004 35.9657 104.221 35.8134 104.502 35.7782C104.971 35.7079 105.451 35.7782 105.943 35.9892C106.447 36.1884 106.822 36.4169 107.068 36.6747C107.186 36.7685 107.262 36.8857 107.297 37.0263C107.367 37.2138 107.379 37.4189 107.332 37.6415C107.297 37.8642 107.256 38.0751 107.209 38.2743C107.033 39.0009 106.939 39.7333 106.928 40.4716C106.916 41.1982 106.928 41.9013 106.963 42.581C107.115 43.2724 107.338 43.8349 107.631 44.2685C108.252 45.3232 108.955 45.8622 109.74 45.8857C110.525 45.9091 111.059 45.4462 111.34 44.497C111.562 43.7353 111.668 42.7626 111.656 41.579C111.656 41.5439 111.656 41.5028 111.656 41.456C111.586 40.4716 111.475 39.5341 111.322 38.6435C111.275 38.4442 111.205 38.1337 111.111 37.7118C110.994 37.2431 111 36.9325 111.129 36.7802C111.164 36.745 111.199 36.7099 111.234 36.6747C111.34 36.4521 111.51 36.2763 111.744 36.1474C112.131 35.9482 112.57 35.8368 113.062 35.8134C113.426 35.8017 113.783 35.8192 114.135 35.8661C114.299 35.8544 114.451 35.8544 114.592 35.8661C114.768 35.8778 114.926 35.9482 115.066 36.0771ZM121.236 41.8075C121.67 40.8232 122.227 40.1786 122.906 39.8739C123.598 39.5692 124.254 39.5165 124.875 39.7157C125.508 39.9032 126.029 40.3017 126.439 40.911C126.85 41.5087 127.002 42.206 126.896 43.0028C126.779 43.7177 126.516 44.3739 126.105 44.9716C125.695 45.5692 125.068 45.9911 124.225 46.2372C122.947 46.6122 122.021 46.2079 121.447 45.0243C120.885 43.829 120.814 42.7567 121.236 41.8075ZM127.934 47.4501C128.027 47.8017 128.15 48.1649 128.303 48.5399C128.467 48.9149 128.701 49.1962 129.006 49.3837C129.182 49.4892 129.469 49.5771 129.867 49.6474C130.277 49.7294 130.693 49.7587 131.115 49.7353C131.537 49.7118 131.9 49.6239 132.205 49.4716C132.521 49.3192 132.68 49.0673 132.68 48.7157C132.668 48.5165 132.633 48.3173 132.574 48.1181C132.516 47.9189 132.457 47.7314 132.398 47.5556C131.918 45.786 131.637 43.7587 131.555 41.4735C131.484 39.1884 131.666 35.497 132.1 30.3993C132.17 29.8485 132.088 29.4794 131.854 29.2919C131.619 29.1044 131.297 28.9872 130.887 28.9403C130.605 28.9052 130.289 28.8993 129.938 28.9228C129.586 28.9462 129.281 29.0165 129.023 29.1337C128.801 29.2392 128.613 29.4267 128.461 29.6962C128.168 33.0946 127.975 34.9579 127.881 35.286C127.811 35.2626 127.746 35.245 127.688 35.2333C126.539 34.8935 125.332 34.8935 124.066 35.2333C122.613 35.6317 121.312 36.3407 120.164 37.3603C119.988 37.5126 119.807 37.6825 119.619 37.87C119.197 38.2919 118.822 38.7431 118.494 39.2235C118.178 39.704 117.891 40.2021 117.633 40.7177C117.117 41.7607 116.883 42.9149 116.93 44.1806C116.965 45.0478 117.141 45.8095 117.457 46.4657C117.773 47.1337 118.23 47.6845 118.828 48.1181C119.438 48.5517 120.088 48.8915 120.779 49.1376C121.693 49.454 122.643 49.5712 123.627 49.4892C124.611 49.3954 125.52 49.1024 126.352 48.6103C126.926 48.2821 127.453 47.8954 127.934 47.4501ZM133.348 45.3056C133.219 43.5595 133.242 41.7841 133.418 39.9794C133.605 38.1747 133.893 36.9384 134.279 36.2704C134.678 35.5907 135.07 35.2685 135.457 35.3036C135.844 35.3271 136.213 35.3681 136.564 35.4267C136.881 35.497 137.133 35.5614 137.32 35.62C137.367 35.6317 137.426 35.661 137.496 35.7079C137.531 35.7314 137.578 35.7782 137.637 35.8485C137.637 35.8485 137.689 35.9013 137.795 36.0067C137.818 36.0302 137.859 36.0888 137.918 36.1825C137.953 36.2294 137.982 36.2997 138.006 36.3935C138.029 36.5107 138.053 36.6278 138.076 36.745C138.076 36.7685 138.094 36.8798 138.129 37.079C138.141 37.2196 138.064 38.3329 137.9 40.4189C137.748 42.4931 137.848 44.9071 138.199 47.661C138.188 47.954 138.152 48.2411 138.094 48.5224C138.035 48.8036 137.977 48.997 137.918 49.1024C137.812 49.2665 137.596 49.3896 137.268 49.4716C137.115 49.5067 136.945 49.5302 136.758 49.5419C136.582 49.5419 136.4 49.536 136.213 49.5243C135.861 49.5126 135.486 49.4716 135.088 49.4013C134.795 49.3544 134.537 49.2899 134.314 49.2079C134.256 49.1728 134.209 49.1435 134.174 49.12C134.139 49.1083 134.086 49.0614 134.016 48.9794C133.98 48.956 133.934 48.9032 133.875 48.8212C133.875 48.8329 133.834 48.7743 133.752 48.6454C133.717 48.622 133.688 48.5517 133.664 48.4345C133.641 48.3524 133.611 48.2353 133.576 48.0829C133.564 47.9657 133.488 47.0399 133.348 45.3056ZM135.949 29.3798C136.582 29.3798 137.115 29.5907 137.549 30.0126C137.994 30.4345 138.217 30.9501 138.217 31.5595C138.217 32.1571 137.994 32.6728 137.549 33.1064C137.115 33.5282 136.582 33.7392 135.949 33.7392C135.34 33.7392 134.812 33.5282 134.367 33.1064C133.934 32.6728 133.717 32.1571 133.717 31.5595C133.717 30.9501 133.934 30.4345 134.367 30.0126C134.812 29.5907 135.34 29.3798 135.949 29.3798ZM139.553 41.245C140.139 40.12 140.777 39.2235 141.469 38.5556C141.738 38.2978 141.914 38.1337 141.996 38.0634C143.098 37.0907 144.352 36.4228 145.758 36.0595C146.941 35.7431 148.096 35.7372 149.221 36.0419C149.748 36.206 150.275 36.4931 150.803 36.9032C151.33 37.3017 151.729 37.747 151.998 38.2392C152.291 38.8017 152.473 39.5048 152.543 40.3485C152.648 41.5907 152.537 42.7099 152.209 43.706C151.998 44.3153 151.693 44.9071 151.295 45.4814C150.908 46.0439 150.504 46.5536 150.082 47.0107C149.449 47.6786 148.729 48.2528 147.92 48.7333C147.123 49.2021 146.256 49.4774 145.318 49.5595C144.346 49.6298 143.432 49.5185 142.576 49.2255C141.896 48.9911 141.27 48.6747 140.695 48.2763C140.133 47.8661 139.699 47.3388 139.395 46.6942C139.078 46.0732 138.902 45.3466 138.867 44.5146C138.82 43.331 139.049 42.2411 139.553 41.245ZM142.787 42.5282C142.494 43.4189 142.693 44.3388 143.385 45.288C144.088 46.2372 145.043 46.4599 146.25 45.956C147 45.6396 147.545 45.1942 147.885 44.62C148.225 44.0341 148.4 43.4247 148.412 42.7919C148.436 41.3505 147.656 40.4833 146.074 40.1903C144.492 39.8974 143.396 40.6767 142.787 42.5282ZM154.494 28.8524C154.729 28.1142 155.162 27.7216 155.795 27.6747C157.67 27.581 159.539 27.6278 161.402 27.8153C163.277 27.9911 165.146 28.5653 167.01 29.538C169.107 30.6513 170.783 32.081 172.037 33.8271C173.104 35.3271 173.783 36.9735 174.076 38.7665C174.264 40.0439 174.035 41.3036 173.391 42.5458C172.758 43.788 172.066 44.8251 171.316 45.6571C170.438 46.6064 169.453 47.3622 168.363 47.9247C167.262 48.4989 166.049 48.8915 164.725 49.1024C163.061 49.372 161.355 49.4247 159.609 49.2607C157.863 49.0849 156.123 48.8798 154.389 48.6454C153.85 48.5868 153.492 48.4286 153.316 48.1708C153.141 47.913 153.047 47.5966 153.035 47.2216C152.941 44.6083 152.977 41.4794 153.141 37.8349C153.316 34.1786 153.768 31.1845 154.494 28.8524ZM168.68 38.7665C168.609 37.8642 168.088 37.0204 167.115 36.2353C166.752 35.9657 166.336 35.6962 165.867 35.4267C164.508 34.7235 163.113 34.2782 161.684 34.0907C161.309 34.0321 160.951 34.0087 160.611 34.0204C160.225 34.0556 159.896 34.1962 159.627 34.4423C159.498 34.5595 159.375 35.0048 159.258 35.7782C159.141 36.5517 159.041 37.4013 158.959 38.3271C158.877 39.2411 158.824 40.0966 158.801 40.8935C158.777 41.6903 158.801 42.1591 158.871 42.2997C158.906 42.3935 158.953 42.4638 159.012 42.5107C159.609 42.8271 160.277 43.0673 161.016 43.2314C161.742 43.3837 162.451 43.4423 163.143 43.4071C164.057 43.372 165.047 43.1962 166.113 42.8798C167.191 42.5517 167.906 41.9482 168.258 41.0692C168.562 40.3192 168.703 39.5517 168.68 38.7665ZM189.51 39.7685C188.678 40.038 188.303 41.2685 188.385 43.4599C188.502 44.2802 188.555 45.2411 188.543 46.3427C188.531 47.4442 188.314 48.3876 187.893 49.1728C187.74 49.4423 187.529 49.5946 187.26 49.6298C186.791 49.7001 186.305 49.6357 185.801 49.4364C185.297 49.2255 184.922 48.9911 184.676 48.7333C184.57 48.6396 184.5 48.5224 184.465 48.3817C184.395 48.1942 184.377 47.9892 184.412 47.7665C184.459 47.5439 184.506 47.3329 184.553 47.1337C184.729 46.4071 184.822 45.6806 184.834 44.954C184.846 44.2157 184.828 43.5067 184.781 42.8271C184.641 42.1357 184.424 41.5732 184.131 41.1396C183.51 40.0849 182.859 39.5458 182.18 39.5224C181.512 39.4989 181.043 39.9618 180.773 40.911C180.551 41.6728 180.445 42.6454 180.457 43.829V43.9521C180.527 44.9364 180.639 45.8739 180.791 46.7646C180.838 46.9638 180.908 47.2685 181.002 47.6786C181.119 48.1591 181.113 48.4755 180.984 48.6278C180.949 48.663 180.914 48.6982 180.879 48.7333C180.773 48.956 180.598 49.1317 180.352 49.2607C179.965 49.4599 179.531 49.5712 179.051 49.5946C178.688 49.6064 178.33 49.5888 177.979 49.5419C177.814 49.5536 177.662 49.5536 177.521 49.5419C177.334 49.5302 177.17 49.4599 177.029 49.331C176.854 49.2724 176.713 49.2079 176.607 49.1376C176.268 48.8915 176.021 48.5341 175.869 48.0653C175.729 47.5849 175.623 47.1161 175.553 46.6591C175.424 45.7919 175.354 44.6845 175.342 43.3368C175.33 41.9892 175.371 40.6005 175.465 39.1708C175.57 37.7294 175.857 36.7216 176.326 36.1474C176.525 35.7958 176.766 35.5556 177.047 35.4267C177.352 35.2743 177.715 35.1864 178.137 35.163C178.559 35.1278 178.934 35.1278 179.262 35.163C179.742 35.2216 180.105 35.3739 180.352 35.62C180.609 35.8661 180.68 36.3173 180.562 36.9735C181.102 36.4345 181.781 36.1415 182.602 36.0946C183.422 36.036 184.301 36.3524 185.238 37.0439C185.484 37.2314 185.719 37.4306 185.941 37.6415C186.574 36.6571 187.928 36.1122 190.002 36.0067C190.881 36.0536 191.789 36.4228 192.727 37.1142C193.723 37.8524 194.455 38.8134 194.924 39.997C195.393 41.1689 195.709 42.3466 195.873 43.5302C195.99 44.3505 196.043 45.3114 196.031 46.413C196.02 47.5146 195.803 48.4579 195.381 49.2431C195.229 49.5126 195.018 49.6649 194.748 49.7001C194.279 49.7704 193.793 49.706 193.289 49.5067C192.785 49.2958 192.41 49.0614 192.164 48.8036C192.059 48.7099 191.988 48.5927 191.953 48.4521C191.883 48.2646 191.865 48.0595 191.9 47.8368C191.947 47.6142 191.994 47.4032 192.041 47.204C192.217 46.4774 192.311 45.7509 192.322 45.0243C192.334 44.286 192.316 43.5771 192.27 42.8974C192.129 42.206 191.912 41.6435 191.619 41.2099C191.045 39.9794 190.342 39.4989 189.51 39.7685ZM197.121 45.3056C196.992 43.5595 197.016 41.7841 197.191 39.9794C197.379 38.1747 197.666 36.9384 198.053 36.2704C198.451 35.5907 198.844 35.2685 199.23 35.3036C199.617 35.3271 199.986 35.3681 200.338 35.4267C200.654 35.497 200.906 35.5614 201.094 35.62C201.141 35.6317 201.199 35.661 201.27 35.7079C201.305 35.7314 201.352 35.7782 201.41 35.8485C201.41 35.8485 201.463 35.9013 201.568 36.0067C201.592 36.0302 201.633 36.0888 201.691 36.1825C201.727 36.2294 201.756 36.2997 201.779 36.3935C201.803 36.5107 201.826 36.6278 201.85 36.745C201.85 36.7685 201.867 36.8798 201.902 37.079C201.914 37.2196 201.838 38.3329 201.674 40.4189C201.521 42.4931 201.621 44.9071 201.973 47.661C201.961 47.954 201.926 48.2411 201.867 48.5224C201.809 48.8036 201.75 48.997 201.691 49.1024C201.586 49.2665 201.369 49.3896 201.041 49.4716C200.889 49.5067 200.719 49.5302 200.531 49.5419C200.355 49.5419 200.174 49.536 199.986 49.5243C199.635 49.5126 199.26 49.4716 198.861 49.4013C198.568 49.3544 198.311 49.2899 198.088 49.2079C198.029 49.1728 197.982 49.1435 197.947 49.12C197.912 49.1083 197.859 49.0614 197.789 48.9794C197.754 48.956 197.707 48.9032 197.648 48.8212C197.648 48.8329 197.607 48.7743 197.525 48.6454C197.49 48.622 197.461 48.5517 197.438 48.4345C197.414 48.3524 197.385 48.2353 197.35 48.0829C197.338 47.9657 197.262 47.0399 197.121 45.3056ZM199.723 29.3798C200.355 29.3798 200.889 29.5907 201.322 30.0126C201.768 30.4345 201.99 30.9501 201.99 31.5595C201.99 32.1571 201.768 32.6728 201.322 33.1064C200.889 33.5282 200.355 33.7392 199.723 33.7392C199.113 33.7392 198.586 33.5282 198.141 33.1064C197.707 32.6728 197.49 32.1571 197.49 31.5595C197.49 30.9501 197.707 30.4345 198.141 30.0126C198.586 29.5907 199.113 29.3798 199.723 29.3798ZM205.664 35.4267C205.723 34.372 205.816 33.4989 205.945 32.8075C206.086 32.0927 206.25 31.536 206.438 31.1376C206.59 30.7978 206.771 30.5692 206.982 30.4521C207.264 30.3114 207.662 30.2177 208.178 30.1708C208.693 30.1239 209.098 30.1181 209.391 30.1532C209.801 30.2118 210.123 30.3583 210.357 30.5927C210.604 30.8153 210.691 31.2665 210.621 31.9462C210.504 33.036 210.416 34.1786 210.357 35.3739C210.639 35.3857 210.92 35.4032 211.201 35.4267C211.658 35.4735 212.115 35.5673 212.572 35.7079C213.029 35.8368 213.398 36.0185 213.68 36.2528C213.879 36.4286 214.031 36.7157 214.137 37.1142C214.23 37.4657 214.266 37.87 214.242 38.3271C214.207 38.7607 214.137 39.1122 214.031 39.3817C213.902 39.6864 213.738 39.8329 213.539 39.8212C213.445 39.8212 213.346 39.8036 213.24 39.7685C213.158 39.7567 213.041 39.7216 212.889 39.663C212.186 39.4286 211.389 39.288 210.498 39.2411H210.322C210.322 39.3583 210.328 39.4755 210.34 39.5927C210.41 42.37 210.691 44.8251 211.184 46.9579C211.23 47.1806 211.283 47.4149 211.342 47.661C211.412 47.8954 211.453 48.1298 211.465 48.3642C211.465 48.7978 211.307 49.1083 210.99 49.2958C210.674 49.4833 210.305 49.5888 209.883 49.6122C209.461 49.6357 208.957 49.6122 208.371 49.5419C207.797 49.4599 207.422 49.3544 207.246 49.2255C206.93 49.0028 206.689 48.6689 206.525 48.2235C206.361 47.7665 206.238 47.3212 206.156 46.8876C205.98 46.0673 205.84 45.0185 205.734 43.7411C205.641 42.4638 205.588 41.1454 205.576 39.786C205.564 39.5634 205.559 39.3407 205.559 39.1181H205.471C204.779 39.1298 204.1 39.1942 203.432 39.3114C203.256 39.3466 203.145 39.3642 203.098 39.3642C202.992 39.3642 202.893 39.3466 202.799 39.3114C202.729 39.2763 202.658 39.2118 202.588 39.1181C202.541 39.0478 202.494 38.9306 202.447 38.7665C202.365 38.4735 202.33 38.1454 202.342 37.7821C202.342 37.4189 202.377 37.0849 202.447 36.7802C202.518 36.4521 202.74 36.1942 203.115 36.0067C203.326 35.9013 203.566 35.8017 203.836 35.7079C204.023 35.661 204.299 35.6024 204.662 35.5321C204.814 35.5087 205.084 35.4735 205.471 35.4267H205.664ZM217.002 49.3837C216.826 49.3251 216.686 49.2607 216.58 49.1903C216.24 48.9442 215.994 48.5868 215.842 48.1181C215.689 47.6376 215.584 47.1689 215.525 46.7118C215.396 45.8446 215.326 44.7372 215.314 43.3896C215.303 42.0419 215.344 40.6532 215.438 39.2235C215.543 37.7821 215.83 36.7743 216.299 36.2001C216.498 35.8485 216.738 35.6083 217.02 35.4794C217.324 35.3271 217.688 35.2392 218.109 35.2157C218.531 35.1806 218.906 35.1806 219.234 35.2157C219.715 35.2743 220.078 35.4267 220.324 35.6728C220.582 35.9189 220.652 36.37 220.535 37.0263C221.508 36.288 222.762 36.0653 224.297 36.3583C225.832 36.6513 226.494 37.3896 226.283 38.5732C226.072 39.7567 225.164 40.2138 223.559 39.9442C221.953 39.6747 221.016 40.0146 220.746 40.9638C220.523 41.7255 220.418 42.6982 220.43 43.8817C220.43 43.9169 220.43 43.9579 220.43 44.0048C220.5 44.9892 220.611 45.9267 220.764 46.8173C220.799 47.0165 220.869 47.3212 220.975 47.7314C221.092 48.2118 221.086 48.5282 220.957 48.6806C220.922 48.7157 220.887 48.7509 220.852 48.786C220.746 49.0087 220.57 49.1845 220.324 49.3134C219.938 49.5126 219.504 49.6239 219.023 49.6474C218.66 49.6591 218.303 49.6415 217.951 49.5946C217.787 49.6064 217.629 49.6064 217.477 49.5946C217.301 49.5829 217.143 49.5126 217.002 49.3837ZM226.969 37.2899C227.285 36.7978 227.561 36.4403 227.795 36.2177C228.041 35.995 228.387 35.7079 228.832 35.3564C229.324 35.1454 229.816 35.286 230.309 35.7782C231.023 36.4931 231.621 37.5126 232.102 38.8368C232.594 40.161 233.168 41.2216 233.824 42.0185C234.023 42.288 234.24 42.3407 234.475 42.1767C234.721 42.0009 234.926 41.8134 235.09 41.6142C235.57 41.0634 236.033 40.2899 236.479 39.2939C236.936 38.2978 237.322 37.4482 237.639 36.745C237.826 36.3114 238.031 36.0009 238.254 35.8134C238.488 35.6142 238.828 35.6142 239.273 35.8134C239.695 36.0243 240.047 36.2939 240.328 36.622C240.621 36.9384 240.902 37.3134 241.172 37.747C241.477 38.2274 241.553 38.8661 241.4 39.663C241.201 40.6825 240.85 41.6903 240.346 42.6864C239.854 43.6825 239.379 44.6083 238.922 45.4638C238.43 46.3427 237.914 47.1864 237.375 47.995C236.848 48.8036 236.309 49.6064 235.758 50.4032C235.242 51.1064 234.727 51.8095 234.211 52.5126C233.695 53.2157 233.133 53.8485 232.523 54.411C231.879 55.0087 231.281 55.3954 230.73 55.5712C230.32 55.7001 229.834 55.6122 229.271 55.3075C228.721 55.0146 228.334 54.6923 228.111 54.3407C227.889 54.0009 227.666 53.6376 227.443 53.2509C227.232 52.8642 227.244 52.495 227.479 52.1435C227.666 51.8622 227.941 51.5751 228.305 51.2821C228.68 51.0009 228.996 50.6903 229.254 50.3505C229.488 50.0575 229.711 49.8173 229.922 49.6298C230.145 49.4306 230.449 49.0087 230.836 48.3642C231.574 47.3564 231.562 46.3251 230.801 45.2704C230.496 44.7431 230.062 44.1044 229.5 43.3544C228.949 42.5927 228.504 41.9716 228.164 41.4911C227.93 41.1513 227.695 40.7997 227.461 40.4364C227.238 40.0614 227.045 39.6689 226.881 39.2587C226.717 38.8954 226.629 38.5732 226.617 38.2919C226.617 37.9989 226.734 37.6649 226.969 37.2899Z" fill="black"/>
</svg>
