<?xml version="1.0" encoding="utf-8"?><svg viewBox="0 0 250 73" xmlns="http://www.w3.org/2000/svg" xmlns:xlink="http://www.w3.org/1999/xlink"><style>:root>svg{display:none}:root>svg:target{display:block}</style><svg viewBox="0 0 250 73" id="logo" xmlns="http://www.w3.org/2000/svg"><g filter="url(#afilter0_d)"><path d="M10.926 41.879c.492 2.062.972 3.633 1.441 4.71.094.247.2.505.317.774.117.258.199.516.246.774.058.48-.14.85-.598 1.107-.457.246-1.002.416-1.635.51-.62.094-1.136.111-1.547.053a3.52 3.52 0 01-1.002-.282c-.492-.199-.884-.544-1.177-1.037a9.03 9.03 0 01-.703-1.441c-.364-.902-.686-2.063-.967-3.48a55.21 55.21 0 01-.686-4.413 54.935 54.935 0 01-.334-4.43c-.035-1.43.012-2.595.14-3.497.106-.774.282-1.43.528-1.97.164-.363.416-.644.756-.843.375-.2.68-.328.914-.387.246-.07.586-.105 1.02-.105.632.012 1.13.129 1.494.351.375.211.545.704.51 1.477-.118 2.578.07 5.273.562 8.086 1.535-.2 3.03-.393 4.482-.58 1.465-.188 2.614-.322 3.446-.404a53.329 53.329 0 01-.053-3.586c.035-1.149.123-2.121.264-2.918a8.975 8.975 0 01.404-1.53 2.47 2.47 0 01.95-1.265c.234-.164.65-.328 1.247-.492.61-.165 1.12-.264 1.53-.3.421-.034.878.03 1.37.194.493.164.762.486.81.967 0 .27-.03.545-.089.826-.058.281-.11.55-.158.809-.515 2.472-.674 5.285-.474 8.437.199 3.14.62 5.994 1.265 8.56.176.75.1 1.272-.228 1.565-.317.293-.78.498-1.389.615a9.652 9.652 0 01-1.107.159c-.317.023-.68-.03-1.09-.159-.364-.105-.668-.334-.914-.685-.34-.469-.639-1.078-.897-1.828-.363-1.043-.75-2.824-1.16-5.344-.879.281-2.127.51-3.744.685-1.617.165-2.865.27-3.744.317zm15.345-.264c.586-1.125 1.225-2.021 1.916-2.69.27-.257.446-.421.528-.491a9.018 9.018 0 013.762-2.004c1.183-.317 2.338-.323 3.463-.018.527.164 1.054.451 1.582.861.527.399.925.844 1.195 1.336.293.563.474 1.266.545 2.11.105 1.242-.006 2.361-.334 3.357a7.305 7.305 0 01-.914 1.776A13.655 13.655 0 0136.8 47.38a9.994 9.994 0 01-2.162 1.722 6.117 6.117 0 01-2.602.827 6.855 6.855 0 01-2.742-.334 7.664 7.664 0 01-1.88-.95 4.084 4.084 0 01-1.302-1.581c-.316-.622-.492-1.348-.527-2.18-.047-1.184.182-2.274.686-3.27zm3.235 1.283c-.293.891-.094 1.811.598 2.76.703.95 1.658 1.172 2.865.668.75-.316 1.295-.761 1.634-1.336.34-.586.516-1.195.528-1.828.023-1.441-.756-2.309-2.338-2.602-1.582-.292-2.678.487-3.287 2.338zm25.101-2.76c-.832.27-1.207 1.5-1.125 3.692.118.82.17 1.781.159 2.883-.012 1.102-.229 2.045-.65 2.83-.153.27-.364.422-.634.457-.468.07-.955.006-1.459-.193-.504-.211-.879-.446-1.125-.704a.68.68 0 01-.21-.351 1.195 1.195 0 01-.053-.615c.047-.223.093-.434.14-.633.176-.727.27-1.453.282-2.18a25.092 25.092 0 00-.053-2.127c-.14-.691-.357-1.254-.65-1.687-.622-1.055-1.272-1.594-1.952-1.617-.668-.024-1.136.439-1.406 1.388-.223.762-.328 1.735-.316 2.918v.123c.07.985.181 1.922.334 2.813.046.199.117.504.21.914.118.48.112.797-.017.949l-.105.105a1.149 1.149 0 01-.528.528c-.386.2-.82.31-1.3.334a6.5 6.5 0 01-1.073-.053 2.976 2.976 0 01-.457 0 .78.78 0 01-.492-.21 1.788 1.788 0 01-.422-.194c-.34-.246-.586-.604-.738-1.073-.14-.48-.246-.949-.317-1.406-.128-.867-.199-1.974-.21-3.322-.012-1.348.029-2.736.123-4.166.105-1.441.392-2.45.86-3.023.2-.352.44-.592.721-.721.305-.152.669-.24 1.09-.264a5.983 5.983 0 011.125 0c.48.059.844.211 1.09.457.258.246.328.697.211 1.354.54-.54 1.219-.832 2.04-.88.82-.058 1.698.259 2.636.95.246.188.48.387.703.598.633-.985 1.986-1.53 4.06-1.635.88.047 1.788.416 2.725 1.107a6.482 6.482 0 012.198 2.883c.468 1.172.785 2.35.949 3.533.117.82.17 1.782.158 2.883-.012 1.102-.229 2.045-.65 2.83-.153.27-.364.422-.633.457-.469.07-.955.006-1.46-.193-.503-.211-.878-.445-1.124-.703a.679.679 0 01-.211-.352 1.196 1.196 0 01-.053-.615c.047-.223.094-.434.14-.633.177-.726.27-1.453.282-2.18a25.134 25.134 0 00-.053-2.126c-.14-.692-.357-1.254-.65-1.688-.574-1.23-1.277-1.71-2.11-1.441zm11.374 3.797c.035.118.076.247.123.387.304.856.978 1.506 2.021 1.951 1.055.446 2.057.616 3.006.51.75-.058 1.5-.48 2.25-1.265.762-.786 1.74-.739 2.935.14.528.34.48.88-.14 1.617-.621.739-1.114 1.237-1.477 1.495a5.638 5.638 0 01-.756.457 5.718 5.718 0 01-2.056.632 10.76 10.76 0 01-2.04-.017 9.607 9.607 0 01-2.636-.615 9.314 9.314 0 01-1.898-1.02 6.9 6.9 0 01-1.583-1.564 9.482 9.482 0 01-1.722-3.78c-.457-2.133.07-3.914 1.582-5.343a7.431 7.431 0 012.566-1.618c.961-.363 2.104-.633 3.428-.808 1.324-.176 2.666.093 4.025.808 1.372.703 2.221 1.723 2.55 3.059.327 1.336.386 2.267.175 2.795-.211.527-.574.861-1.09 1.002-.504.14-3.592.533-9.263 1.177zm7.417-3.638c-.492-1.078-1.382-1.576-2.671-1.494-1.29.07-2.291.234-3.006.492-.715.258-1.243.82-1.582 1.687a2.372 2.372 0 00-.088.159l7.347-.844zm16.7-2.215l1.476 1.02c.047.023.088.046.123.07 1.184.715 2.004 1.564 2.461 2.549.469.984.475 2.092.018 3.322-.469 1.23-1.313 2.267-2.532 3.111-.796.563-1.763.967-2.9 1.213a14.081 14.081 0 01-3.533.264l-.018.017v.018c-1.523-.094-2.25-.2-2.18-.316-.55-.118-1.019-.235-1.406-.352l-2.742-1.266a6.873 6.873 0 01-1.406-1.16.115.115 0 00-.053-.053c-.012-.011-.017-.035-.017-.07-.024 0-.047-.011-.07-.035a.134.134 0 01-.018-.053 1.378 1.378 0 01-.352-.79v-.124c.012-.363.035-.803.07-1.318.024-.516.106-.938.247-1.266.152-.375.375-.492.668-.351.304.129.556.281.755.457a.2.2 0 00.07.07c.024.012.048.03.071.053a8.092 8.092 0 001.723 1.125c1.441.691 3.187 1.02 5.238.984a6.26 6.26 0 00.316-.176c.457-.257.563-.615.317-1.072a.115.115 0 01-.053-.053.692.692 0 01-.035-.087c-.129-.153-1.354-.873-3.674-2.163-2.215-1.523-3.486-2.537-3.814-3.04-.785-1.172-1.02-2.344-.704-3.516.317-1.184 1.014-2.21 2.092-3.076 1.887-1.547 4.91-2.11 9.07-1.688.505.152.956.305 1.354.457.14.059.358.158.65.299.27.152.592.316.967.492.457.2.645.416.563.65.023.036.053.077.088.124.246.328.44.773.58 1.336.14.562.023 1.007-.352 1.335l-.07.07c-.328.247-.785.3-1.371.159a25.34 25.34 0 00-1.881-.44l-1.02-.263c-1.312-.164-2.273-.246-2.882-.246-1.23.41-.944 1.2.861 2.373.152.14 1.254.61 3.305 1.406zm7.98-2.285c.059-1.055.153-1.928.281-2.62.141-.714.305-1.27.493-1.67.152-.339.334-.568.544-.685.282-.14.68-.234 1.196-.281.515-.047.92-.053 1.213-.018.41.059.732.206.966.44.247.223.334.674.264 1.353a59.738 59.738 0 00-.264 3.428c.282.012.563.03.844.053.457.047.914.14 1.371.281.457.129.826.31 1.108.545.199.176.351.463.457.861.094.352.129.756.105 1.213-.035.434-.105.785-.211 1.055-.129.305-.293.451-.492.44a.95.95 0 01-.299-.053 1.764 1.764 0 01-.351-.106c-.703-.234-1.5-.375-2.391-.422h-.176c0 .117.006.235.018.352.07 2.777.351 5.232.844 7.365.047.223.099.457.158.703.07.235.111.469.123.703 0 .434-.158.744-.475.932a2.396 2.396 0 01-1.107.316c-.422.024-.926 0-1.512-.07-.574-.082-.95-.187-1.125-.316-.316-.223-.556-.557-.72-1.002a8.796 8.796 0 01-.37-1.336c-.175-.82-.316-1.87-.422-3.147a61.361 61.361 0 01-.158-3.955 12.724 12.724 0 01-.017-.668h-.088c-.692.012-1.371.077-2.04.194a2.38 2.38 0 01-.333.052.843.843 0 01-.3-.052.633.633 0 01-.21-.194 1.338 1.338 0 01-.14-.351 3.255 3.255 0 01-.106-.985c0-.363.035-.697.105-1.002.07-.328.293-.585.668-.773.211-.105.452-.205.721-.299.188-.047.463-.105.826-.176.153-.023.422-.058.809-.105h.193zm20.988.65c.188.059.329.123.422.194.352.246.598.609.739 1.09.152.468.263.931.334 1.388.128.867.199 1.975.21 3.322a51.33 51.33 0 01-.14 4.184c-.094 1.43-.375 2.432-.844 3.006-.199.351-.439.592-.721.72-.304.153-.673.24-1.107.264a5.982 5.982 0 01-1.125 0c-.469-.058-.832-.21-1.09-.457-.258-.246-.328-.697-.211-1.353-.961.738-1.722 1.084-2.285 1.037-.891-.047-1.799-.416-2.725-1.108a6.616 6.616 0 01-2.214-2.865 15.336 15.336 0 01-.95-3.55c-.105-.821-.152-1.782-.14-2.884.011-1.101.222-2.044.633-2.83.152-.27.369-.421.65-.457.469-.07.949 0 1.441.211.504.2.879.428 1.125.686a.635.635 0 01.229.352c.07.187.082.392.035.615a8.515 8.515 0 01-.123.633 9.935 9.935 0 00-.281 2.197c-.012.726 0 1.43.035 2.11.152.69.375 1.253.668 1.687.621 1.054 1.324 1.593 2.109 1.617.785.023 1.319-.44 1.6-1.389.222-.761.328-1.734.316-2.918v-.123a28.607 28.607 0 00-.334-2.812c-.047-.2-.117-.51-.211-.932-.117-.469-.111-.78.018-.932l.105-.105a1.17 1.17 0 01.51-.527c.387-.2.826-.311 1.318-.334a6.53 6.53 0 011.073.052c.164-.011.316-.011.457 0a.76.76 0 01.474.211zm6.17 5.73c.434-.984.991-1.628 1.67-1.933.692-.304 1.348-.357 1.969-.158.633.187 1.154.586 1.564 1.195.411.598.563 1.295.457 2.092a4.8 4.8 0 01-.791 1.969c-.41.598-1.037 1.02-1.88 1.265-1.278.375-2.204-.029-2.778-1.212-.562-1.196-.633-2.268-.211-3.217zm6.698 5.643c.093.352.216.715.369 1.09.164.375.398.656.703.844.176.105.463.193.861.264.41.082.826.11 1.248.087.422-.023.785-.11 1.09-.263a.781.781 0 00.475-.756 2.662 2.662 0 00-.106-.598 14.57 14.57 0 00-.176-.562c-.48-1.77-.761-3.797-.843-6.082-.071-2.285.111-5.977.545-11.075.07-.55-.012-.92-.246-1.107-.235-.187-.557-.305-.967-.351a5.013 5.013 0 00-.949-.018 2.625 2.625 0 00-.915.21c-.222.106-.41.294-.562.563-.293 3.399-.486 5.262-.58 5.59a1.639 1.639 0 00-.193-.053c-1.149-.34-2.356-.34-3.622 0a9.652 9.652 0 00-3.902 2.127 10.59 10.59 0 00-.545.51 9.43 9.43 0 00-1.125 1.354c-.316.48-.603.978-.861 1.494-.516 1.043-.75 2.197-.703 3.463.035.867.211 1.629.527 2.285a4.26 4.26 0 001.371 1.652c.61.434 1.26.774 1.951 1.02a6.87 6.87 0 002.848.351 6.497 6.497 0 002.725-.879 8.614 8.614 0 001.582-1.16zm5.414-2.144a31.145 31.145 0 01.07-5.326c.187-1.805.475-3.041.861-3.71.399-.68.791-1.001 1.178-.966.387.023.756.064 1.107.123.317.07.569.135.756.193a.603.603 0 01.317.229l.158.158c.023.023.064.082.123.176a.613.613 0 01.088.21l.07.352c0 .024.018.135.053.334.012.14-.065 1.254-.229 3.34-.152 2.074-.052 4.488.299 7.242a5.23 5.23 0 01-.105.862c-.059.28-.117.474-.176.58-.106.164-.322.287-.65.369a3.163 3.163 0 01-.51.07 8.74 8.74 0 01-.545-.017 8.017 8.017 0 01-1.125-.123 4.147 4.147 0 01-.774-.194 3.735 3.735 0 01-.14-.088.482.482 0 01-.158-.14.66.66 0 01-.141-.159c0 .012-.041-.047-.123-.175-.035-.024-.064-.094-.088-.211a7.859 7.859 0 01-.088-.352 441.37 441.37 0 01-.228-2.777zm2.601-15.926c.633 0 1.166.21 1.6.633.445.422.668.937.668 1.547 0 .597-.223 1.113-.668 1.547-.434.421-.967.632-1.6.632a2.223 2.223 0 01-1.582-.632 2.115 2.115 0 01-.65-1.547c0-.61.217-1.125.65-1.547a2.223 2.223 0 011.582-.633zm3.604 11.865c.586-1.125 1.224-2.021 1.916-2.69.269-.257.445-.421.527-.491a9.023 9.023 0 013.762-2.004c1.183-.317 2.338-.323 3.463-.018.527.164 1.054.451 1.582.861.527.399.926.844 1.195 1.336.293.563.475 1.266.545 2.11.105 1.242-.006 2.361-.334 3.357a7.323 7.323 0 01-.914 1.776 13.678 13.678 0 01-1.213 1.529 9.988 9.988 0 01-2.162 1.722 6.117 6.117 0 01-2.602.827 6.856 6.856 0 01-2.742-.334 7.674 7.674 0 01-1.881-.95 4.08 4.08 0 01-1.3-1.581c-.317-.622-.493-1.348-.528-2.18-.047-1.184.182-2.274.686-3.27zm3.234 1.283c-.293.891-.094 1.811.598 2.76.703.95 1.658 1.172 2.865.668.75-.316 1.295-.761 1.635-1.336.34-.586.515-1.195.527-1.828.024-1.441-.756-2.309-2.338-2.602-1.582-.292-2.678.487-3.287 2.338zm11.707-13.675c.235-.739.668-1.131 1.301-1.178a37.315 37.315 0 015.607.14c1.875.176 3.744.75 5.608 1.723 2.097 1.113 3.773 2.543 5.027 4.29a11.662 11.662 0 012.039 4.939c.188 1.277-.041 2.537-.685 3.779-.633 1.242-1.325 2.28-2.075 3.111a10.68 10.68 0 01-2.953 2.268 11.84 11.84 0 01-3.638 1.178c-1.664.27-3.37.322-5.116.158a154.52 154.52 0 01-5.22-.615c-.539-.059-.897-.217-1.073-.475-.175-.258-.269-.574-.281-.95-.094-2.613-.058-5.741.106-9.386.175-3.656.627-6.65 1.353-8.982zm14.186 9.914c-.071-.903-.592-1.746-1.565-2.532-.363-.27-.779-.539-1.248-.808a12.636 12.636 0 00-4.183-1.336 5.688 5.688 0 00-1.073-.07 1.637 1.637 0 00-.984.422c-.129.117-.252.562-.369 1.335a41.746 41.746 0 00-.299 2.55 42.59 42.59 0 00-.158 2.566c-.024.796 0 1.265.07 1.406a.473.473 0 00.141.21 7.93 7.93 0 002.004.722c.726.152 1.435.21 2.127.175.914-.035 1.904-.21 2.97-.527 1.078-.328 1.793-.932 2.145-1.81.304-.75.445-1.518.422-2.303zm20.83 1.002c-.832.27-1.207 1.5-1.125 3.691.117.82.17 1.781.158 2.883-.012 1.102-.229 2.045-.65 2.83-.153.27-.364.422-.633.457-.469.07-.955.006-1.459-.193-.504-.211-.879-.446-1.125-.704a.675.675 0 01-.211-.351 1.2 1.2 0 01-.053-.615c.047-.223.094-.434.141-.633a9.928 9.928 0 00.281-2.18 24.965 24.965 0 00-.053-2.127c-.14-.691-.357-1.254-.65-1.687-.621-1.055-1.272-1.594-1.951-1.617-.668-.024-1.137.439-1.407 1.388-.222.762-.328 1.735-.316 2.918v.123c.07.985.182 1.922.334 2.813.047.199.117.504.211.914.117.48.111.797-.018.949l-.105.105a1.15 1.15 0 01-.527.528c-.387.2-.821.31-1.301.334a6.495 6.495 0 01-1.072-.053 2.988 2.988 0 01-.458 0 .783.783 0 01-.492-.21 1.815 1.815 0 01-.422-.194c-.339-.246-.586-.604-.738-1.073-.14-.48-.246-.949-.316-1.406-.129-.867-.199-1.974-.211-3.322a55.934 55.934 0 01.123-4.166c.105-1.441.392-2.45.861-3.023.199-.352.44-.592.721-.721.305-.152.668-.24 1.09-.264a5.982 5.982 0 011.125 0c.48.059.843.211 1.09.457.257.246.328.697.21 1.354.54-.54 1.219-.832 2.04-.88.82-.058 1.699.259 2.636.95.246.188.481.387.703.598.633-.985 1.987-1.53 4.061-1.635.879.047 1.787.416 2.725 1.107a6.484 6.484 0 012.197 2.883c.469 1.172.785 2.35.949 3.533.117.82.17 1.782.158 2.883-.011 1.102-.228 2.045-.65 2.83-.152.27-.363.422-.633.457-.469.07-.955.006-1.459-.193-.504-.211-.879-.445-1.125-.703a.681.681 0 01-.211-.352 1.2 1.2 0 01-.053-.615c.047-.223.094-.434.141-.633.176-.726.27-1.453.281-2.18a25.395 25.395 0 00-.052-2.126c-.141-.692-.358-1.254-.651-1.688-.574-1.23-1.277-1.71-2.109-1.441zm7.611 5.537a31.247 31.247 0 01.07-5.326c.188-1.805.475-3.041.862-3.71.398-.68.791-1.001 1.177-.966.387.023.756.064 1.108.123.316.07.568.135.756.193a.615.615 0 01.176.088c.035.024.082.07.14.14l.158.159c.024.023.065.082.123.176a.576.576 0 01.088.21l.071.352c0 .024.017.135.052.334.012.14-.064 1.254-.228 3.34-.153 2.074-.053 4.488.299 7.242-.012.293-.047.58-.106.862-.058.28-.117.474-.176.58-.105.164-.322.287-.65.369a3.132 3.132 0 01-.51.07c-.176 0-.357-.006-.545-.017a8.05 8.05 0 01-1.125-.123 4.135 4.135 0 01-.773-.194 3.18 3.18 0 01-.141-.088.482.482 0 01-.158-.14.683.683 0 01-.141-.159c0 .012-.041-.047-.123-.175-.035-.024-.064-.094-.087-.211a6.673 6.673 0 01-.088-.352 483.84 483.84 0 01-.229-2.777zm2.602-15.926c.632 0 1.166.21 1.599.633.446.422.668.937.668 1.547 0 .597-.222 1.113-.668 1.547-.433.421-.967.632-1.599.632-.61 0-1.137-.21-1.582-.632a2.112 2.112 0 01-.651-1.547c0-.61.217-1.125.651-1.547a2.221 2.221 0 011.582-.633zm5.941 6.047c.059-1.055.152-1.928.281-2.62.141-.714.305-1.27.493-1.67.152-.339.333-.568.544-.685.282-.14.68-.234 1.196-.281.515-.047.92-.053 1.213-.018.41.059.732.206.966.44.247.223.334.674.264 1.353a59.738 59.738 0 00-.264 3.428c.282.012.563.03.844.053.457.047.914.14 1.371.281.457.129.826.31 1.108.545.199.176.351.463.457.861.093.352.129.756.105 1.213-.035.434-.105.785-.211 1.055-.129.305-.293.451-.492.44a.95.95 0 01-.299-.053 1.764 1.764 0 01-.351-.106c-.703-.234-1.5-.375-2.391-.422h-.176c0 .117.006.235.018.352.07 2.777.351 5.232.844 7.365.046.223.099.457.158.703.07.235.111.469.123.703 0 .434-.158.744-.475.932a2.396 2.396 0 01-1.107.316c-.422.024-.926 0-1.512-.07-.574-.082-.949-.187-1.125-.316-.316-.223-.557-.557-.721-1.002a8.807 8.807 0 01-.369-1.336c-.176-.82-.316-1.87-.422-3.147a62.019 62.019 0 01-.158-3.955 12.406 12.406 0 01-.017-.668h-.088c-.692.012-1.371.077-2.039.194a2.383 2.383 0 01-.334.052.843.843 0 01-.299-.052.633.633 0 01-.211-.194 1.336 1.336 0 01-.141-.351 3.249 3.249 0 01-.105-.985c0-.363.035-.697.105-1.002.071-.328.293-.585.668-.773.211-.105.451-.205.721-.299.187-.047.463-.105.826-.176.152-.023.422-.058.809-.105h.193zm11.338 13.957a1.792 1.792 0 01-.422-.194c-.34-.245-.586-.603-.738-1.072a8.016 8.016 0 01-.317-1.406c-.129-.867-.199-1.975-.211-3.322-.011-1.348.03-2.737.124-4.166.105-1.442.392-2.45.861-3.024.199-.351.439-.592.721-.72.304-.153.668-.24 1.089-.264a6 6 0 011.125 0c.481.059.844.21 1.09.457.258.246.328.697.211 1.354.973-.739 2.227-.962 3.762-.669 1.535.294 2.197 1.032 1.986 2.215-.211 1.184-1.119 1.641-2.724 1.372-1.606-.27-2.543.07-2.813 1.019-.223.762-.328 1.734-.316 2.918v.123c.07.984.181 1.922.334 2.813.035.199.105.503.211.914.117.48.111.796-.018.949l-.105.105a1.153 1.153 0 01-.528.528c-.386.199-.82.31-1.301.334a6.511 6.511 0 01-1.072-.053 3.177 3.177 0 01-.474 0 .765.765 0 01-.475-.211zm9.967-12.094c.316-.492.592-.85.826-1.072.246-.223.592-.51 1.037-.861.492-.211.984-.07 1.477.421.714.715 1.312 1.735 1.793 3.059.492 1.324 1.066 2.385 1.722 3.182.199.27.416.322.651.158.246-.176.451-.363.615-.563.48-.55.943-1.324 1.389-2.32.457-.996.843-1.846 1.16-2.549.187-.433.392-.744.615-.931.234-.2.574-.2 1.019 0 .422.21.774.48 1.055.808.293.317.574.692.844 1.125.305.48.381 1.12.228 1.916a11.608 11.608 0 01-1.054 3.024 98.288 98.288 0 01-1.424 2.777 38.225 38.225 0 01-1.547 2.531c-.527.809-1.066 1.612-1.617 2.408l-1.547 2.11a13.166 13.166 0 01-1.688 1.898c-.644.598-1.242.985-1.793 1.16-.41.13-.896.041-1.459-.263-.55-.293-.937-.615-1.16-.967-.222-.34-.445-.703-.668-1.09-.211-.387-.199-.756.036-1.107.187-.282.462-.569.826-.862.375-.28.691-.592.949-.931a5.85 5.85 0 01.668-.721c.223-.2.527-.621.914-1.266.738-1.007.726-2.039-.035-3.093-.305-.528-.739-1.166-1.301-1.916-.551-.762-.996-1.383-1.336-1.864-.234-.34-.469-.691-.703-1.054a8.401 8.401 0 01-.58-1.178c-.164-.363-.252-.686-.264-.967 0-.293.117-.627.352-1.002z"/></g><path fill="#fff" d="M4.5 56.5h224v1H4.5z"/><path stroke="#000" d="M4.5 56.5h224v1H4.5z"/><path fill="#fff" d="M241.5 56.5h4v1h-4z"/><path stroke="#000" d="M241.5 56.5h4v1h-4z"/><path d="M45.05 62.4v2.16c.527.053.99.197 1.39.43.4.227.71.537.93.93.22.393.33.86.33 1.4 0 .813-.237 1.46-.71 1.94-.467.48-1.113.753-1.94.82v2.32h-.86v-2.32a3.392 3.392 0 01-1.39-.41c-.4-.233-.71-.547-.93-.94-.22-.393-.33-.863-.33-1.41 0-.813.233-1.46.7-1.94.473-.48 1.133-.753 1.98-.82V62.4h.83zm-.83 2.89c-.613.06-1.06.263-1.34.61-.28.34-.42.813-.42 1.42s.14 1.083.42 1.43c.28.347.727.55 1.34.61v-4.07zm.83.01v4.06c.6-.067 1.04-.273 1.32-.62s.42-.82.42-1.42-.143-1.07-.43-1.41c-.28-.34-.717-.543-1.31-.61zm9.446-.76c.66 0 1.19.23 1.59.69.407.46.61 1.153.61 2.08 0 .913-.203 1.607-.61 2.08-.4.473-.933.71-1.6.71-.413 0-.757-.077-1.03-.23a1.966 1.966 0 01-.63-.55h-.06l.03.43a4 4 0 01.03.45v2.2h-.88v-7.76h.72l.12.73h.04c.16-.233.37-.43.63-.59.26-.16.607-.24 1.04-.24zm-.16.74c-.547 0-.933.153-1.16.46-.227.307-.343.773-.35 1.4v.17c0 .66.107 1.17.32 1.53.22.353.623.53 1.21.53.32 0 .587-.087.8-.26.213-.18.37-.427.47-.74.107-.313.16-.67.16-1.07 0-.613-.12-1.103-.36-1.47-.233-.367-.597-.55-1.09-.55zm11.272 2.03c0 .887-.226 1.573-.68 2.06-.446.487-1.053.73-1.82.73-.473 0-.896-.107-1.27-.32a2.316 2.316 0 01-.87-.95c-.213-.42-.32-.927-.32-1.52 0-.887.22-1.57.66-2.05.447-.48 1.057-.72 1.83-.72.48 0 .907.11 1.28.33.374.213.664.527.87.94.214.407.32.907.32 1.5zm-4.05 0c0 .633.124 1.137.37 1.51.254.367.654.55 1.2.55.54 0 .937-.183 1.19-.55.254-.373.38-.877.38-1.51s-.126-1.13-.38-1.49c-.253-.36-.653-.54-1.2-.54-.546 0-.943.18-1.19.54-.246.36-.37.857-.37 1.49zm9.175-2.67v2.23h2.91v-2.23h.88V70h-.88v-2.39h-2.91V70h-.88v-5.36h.88zm12.037.74h-1.75V70h-.87v-4.62h-1.73v-.74h4.35v.74zm5.879-.84c.453 0 .846.1 1.18.3.333.2.586.483.76.85.18.36.27.783.27 1.27v.53h-3.67c.013.607.166 1.07.46 1.39.3.313.716.47 1.25.47.34 0 .64-.03.9-.09.266-.067.54-.16.82-.28v.77c-.274.12-.544.207-.81.26-.267.06-.584.09-.95.09-.514 0-.964-.103-1.35-.31a2.202 2.202 0 01-.91-.92c-.214-.407-.32-.91-.32-1.51 0-.587.096-1.09.29-1.51.2-.42.476-.743.83-.97.36-.227.776-.34 1.25-.34zm-.01.72c-.42 0-.754.137-1 .41-.24.267-.384.64-.43 1.12h2.73c-.007-.453-.114-.82-.32-1.1-.207-.287-.534-.43-.98-.43zm7.314-.62v2.23h2.91v-2.23h.88V70h-.88v-2.39h-2.91V70h-.88v-5.36h.88zm12.317 0v4.62h.78v2.6h-.85V70h-3.73v1.86h-.84v-2.6h.43a6.73 6.73 0 001.03-2.16 9.098 9.098 0 00.36-2.46h2.82zm-.85.69h-1.19a9.074 9.074 0 01-.22 1.41c-.106.48-.25.94-.43 1.38-.173.44-.376.82-.61 1.14h2.45v-3.93zm12.884-.79c.66 0 1.19.23 1.59.69.407.46.61 1.153.61 2.08 0 .913-.203 1.607-.61 2.08-.4.473-.933.71-1.6.71-.413 0-.757-.077-1.03-.23a1.96 1.96 0 01-.63-.55h-.06l.03.43a4 4 0 01.03.45v2.2h-.88v-7.76h.72l.12.73h.04c.16-.233.37-.43.63-.59.26-.16.607-.24 1.04-.24zm-.16.74c-.547 0-.933.153-1.16.46-.227.307-.343.773-.35 1.4v.17c0 .66.107 1.17.32 1.53.22.353.623.53 1.21.53.32 0 .587-.087.8-.26.213-.18.37-.427.47-.74.107-.313.16-.67.16-1.07 0-.613-.12-1.103-.36-1.47-.233-.367-.597-.55-1.09-.55zm8.642-.73c.654 0 1.137.143 1.45.43.314.287.47.743.47 1.37V70h-.64l-.17-.76h-.04c-.233.293-.48.51-.74.65s-.613.21-1.06.21c-.486 0-.89-.127-1.21-.38-.32-.26-.48-.663-.48-1.21 0-.533.21-.943.63-1.23.42-.293 1.067-.453 1.94-.48l.91-.03v-.32c0-.447-.096-.757-.29-.93-.193-.173-.466-.26-.82-.26-.28 0-.546.043-.8.13a5.26 5.26 0 00-.71.28l-.27-.66c.234-.127.51-.233.83-.32.32-.093.654-.14 1-.14zm1.05 2.83l-.79.03c-.666.027-1.13.133-1.39.32-.253.187-.38.45-.38.79 0 .3.09.52.27.66.187.14.424.21.71.21.447 0 .82-.123 1.12-.37.307-.253.46-.64.46-1.16v-.48zm6.786-2.84c.613 0 1.1.123 1.46.37.366.247.55.593.55 1.04 0 .327-.094.587-.28.78-.18.187-.424.323-.73.41v.04c.213.06.41.143.59.25.18.107.323.25.43.43.113.173.17.393.17.66 0 .447-.187.823-.56 1.13-.367.3-.944.45-1.73.45a5.6 5.6 0 01-1.05-.09 2.66 2.66 0 01-.78-.26v-.79c.226.107.493.203.8.29.313.087.653.13 1.02.13.4 0 .736-.067 1.01-.2.28-.14.42-.377.42-.71 0-.6-.51-.9-1.53-.9h-.72v-.72h.58c.46 0 .826-.06 1.1-.18.28-.127.42-.34.42-.64a.621.621 0 00-.32-.57c-.207-.127-.507-.19-.9-.19-.294 0-.554.03-.78.09-.22.053-.464.137-.73.25l-.31-.7a4.588 4.588 0 011.87-.37zm8.892 0c.66 0 1.19.23 1.59.69.407.46.61 1.153.61 2.08 0 .913-.203 1.607-.61 2.08-.4.473-.933.71-1.6.71-.413 0-.757-.077-1.03-.23a1.96 1.96 0 01-.63-.55h-.06l.03.43a4 4 0 01.03.45v2.2h-.88v-7.76h.72l.12.73h.04c.16-.233.37-.43.63-.59.26-.16.607-.24 1.04-.24zm-.16.74c-.547 0-.933.153-1.16.46-.227.307-.343.773-.35 1.4v.17c0 .66.107 1.17.32 1.53.22.353.623.53 1.21.53.32 0 .587-.087.8-.26.213-.18.37-.427.47-.74.107-.313.16-.67.16-1.07 0-.613-.12-1.103-.36-1.47-.233-.367-.597-.55-1.09-.55zm8.642-.73c.654 0 1.137.143 1.45.43.314.287.47.743.47 1.37V70h-.64l-.17-.76h-.04c-.233.293-.48.51-.74.65s-.613.21-1.06.21c-.486 0-.89-.127-1.21-.38-.32-.26-.48-.663-.48-1.21 0-.533.21-.943.63-1.23.42-.293 1.067-.453 1.94-.48l.91-.03v-.32c0-.447-.096-.757-.29-.93-.193-.173-.466-.26-.82-.26-.28 0-.546.043-.8.13a5.26 5.26 0 00-.71.28l-.27-.66c.234-.127.51-.233.83-.32.32-.093.654-.14 1-.14zm1.05 2.83l-.79.03c-.666.027-1.13.133-1.39.32-.253.187-.38.45-.38.79 0 .3.09.52.27.66.187.14.424.21.71.21.447 0 .82-.123 1.12-.37.307-.253.46-.64.46-1.16v-.48zm5.096-.6c0-1.173.177-2.087.53-2.74.353-.653.923-1.067 1.71-1.24a35.43 35.43 0 011.27-.25c.413-.073.8-.14 1.16-.2l.15.77c-.233.04-.497.083-.79.13-.293.047-.583.097-.87.15-.287.053-.533.1-.74.14-.433.093-.777.32-1.03.68-.253.36-.397.913-.43 1.66h.06c.093-.127.22-.257.38-.39.167-.133.363-.247.59-.34.233-.093.497-.14.79-.14.693 0 1.217.223 1.57.67.353.447.53 1.027.53 1.74 0 .6-.103 1.1-.31 1.5-.207.393-.497.69-.87.89-.367.193-.79.29-1.27.29-.74 0-1.33-.283-1.77-.85-.44-.567-.66-1.39-.66-2.47zm2.5 2.59c.433 0 .783-.14 1.05-.42.267-.28.4-.76.4-1.44 0-.547-.103-.977-.31-1.29-.2-.32-.533-.48-1-.48-.3 0-.57.067-.81.2a2.6 2.6 0 00-.6.44c-.16.167-.27.307-.33.42 0 .327.023.643.07.95.047.307.127.583.24.83.12.24.283.433.49.58.213.14.48.21.8.21zm11.276-2.06c0 .887-.226 1.573-.68 2.06-.446.487-1.053.73-1.82.73-.473 0-.896-.107-1.27-.32a2.324 2.324 0 01-.87-.95c-.213-.42-.32-.927-.32-1.52 0-.887.22-1.57.66-2.05.447-.48 1.057-.72 1.83-.72.48 0 .907.11 1.28.33.374.213.664.527.87.94.214.407.32.907.32 1.5zm-4.05 0c0 .633.124 1.137.37 1.51.254.367.654.55 1.2.55.54 0 .937-.183 1.19-.55.254-.373.38-.877.38-1.51s-.126-1.13-.38-1.49c-.253-.36-.653-.54-1.2-.54-.546 0-.943.18-1.19.54-.246.36-.37.857-.37 1.49zm11.897-1.93h-1.75V70h-.87v-4.62h-1.73v-.74h4.35v.74zm7.076-.74h.96l-2.29 2.58 2.48 2.78h-1.02l-2.42-2.72V70h-.88v-5.36h.88v2.6l2.29-2.6zm7.003-.09c.653 0 1.137.143 1.45.43.313.287.47.743.47 1.37V70h-.64l-.17-.76h-.04c-.233.293-.48.51-.74.65s-.613.21-1.06.21c-.487 0-.89-.127-1.21-.38-.32-.26-.48-.663-.48-1.21 0-.533.21-.943.63-1.23.42-.293 1.067-.453 1.94-.48l.91-.03v-.32c0-.447-.097-.757-.29-.93-.193-.173-.467-.26-.82-.26-.28 0-.547.043-.8.13a5.26 5.26 0 00-.71.28l-.27-.66c.233-.127.51-.233.83-.32.32-.093.653-.14 1-.14zm1.05 2.83l-.79.03c-.667.027-1.13.133-1.39.32-.253.187-.38.45-.38.79 0 .3.09.52.27.66.187.14.423.21.71.21.447 0 .82-.123 1.12-.37.307-.253.46-.64.46-1.16v-.48z" fill="#646464"/><path d="M180 1s64-5.994 64 19v5h-64V1z" fill="#FDC305"/><defs><filter id="afilter0_d" x=".27" y="26.752" width="249.207" height="37.246" filterUnits="userSpaceOnUse" color-interpolation-filters="sRGB"><feFlood flood-opacity="0" result="BackgroundImageFix"/><feColorMatrix in="SourceAlpha" values="0 0 0 0 0 0 0 0 0 0 0 0 0 0 0 0 0 0 127 0"/><feOffset dy="4"/><feGaussianBlur stdDeviation="2"/><feColorMatrix values="0 0 0 0 0 0 0 0 0 0 0 0 0 0 0 0 0 0 0.25 0"/><feBlend in2="BackgroundImageFix" result="effect1_dropShadow"/><feBlend in="SourceGraphic" in2="effect1_dropShadow" result="shape"/></filter></defs></svg></svg>