<?xml version="1.0" encoding="utf-8"?><svg viewBox="0 0 242 73" xmlns="http://www.w3.org/2000/svg" xmlns:xlink="http://www.w3.org/1999/xlink"><style>:root>svg{display:none}:root>svg:target{display:block}</style><svg viewBox="0 0 242 73" id="logo" xmlns="http://www.w3.org/2000/svg"><path fill="#fff" d="M.5 56.13h224v1H.5z"/><path stroke="#000" d="M.5 56.13h224v1H.5z"/><path fill="#fff" d="M237.5 56.13h4v1h-4z"/><path stroke="#000" d="M237.5 56.13h4v1h-4z"/><path d="M41.05 62.03v2.16c.527.053.99.197 1.39.43.4.227.71.536.93.93.22.393.33.86.33 1.4 0 .813-.237 1.46-.71 1.94-.467.48-1.113.753-1.94.82v2.32h-.86v-2.32a3.392 3.392 0 01-1.39-.41c-.4-.233-.71-.547-.93-.94-.22-.394-.33-.864-.33-1.41 0-.814.233-1.46.7-1.94.473-.48 1.133-.754 1.98-.82v-2.16h.83zm-.83 2.89c-.613.06-1.06.263-1.34.61-.28.34-.42.813-.42 1.42 0 .606.14 1.083.42 1.43.28.347.727.55 1.34.61v-4.07zm.83.01v4.06c.6-.067 1.04-.273 1.32-.62s.42-.82.42-1.42-.143-1.07-.43-1.41c-.28-.34-.717-.544-1.31-.61zm9.446-.76c.66 0 1.19.23 1.59.69.407.46.61 1.153.61 2.08 0 .913-.203 1.606-.61 2.08-.4.473-.933.71-1.6.71-.413 0-.757-.077-1.03-.23a1.966 1.966 0 01-.63-.55h-.06l.03.43a4 4 0 01.03.45v2.2h-.88v-7.76h.72l.12.73h.04c.16-.234.37-.43.63-.59.26-.16.607-.24 1.04-.24zm-.16.74c-.547 0-.933.153-1.16.46-.227.306-.343.773-.35 1.4v.17c0 .66.107 1.17.32 1.53.22.353.623.53 1.21.53.32 0 .587-.087.8-.26.213-.18.37-.427.47-.74.107-.314.16-.67.16-1.07 0-.614-.12-1.104-.36-1.47-.233-.367-.597-.55-1.09-.55zm11.272 2.03c0 .886-.226 1.573-.68 2.06-.446.487-1.053.73-1.82.73-.473 0-.896-.107-1.27-.32a2.316 2.316 0 01-.87-.95c-.213-.42-.32-.927-.32-1.52 0-.887.22-1.57.66-2.05.447-.48 1.057-.72 1.83-.72.48 0 .907.11 1.28.33.374.213.664.526.87.94.214.407.32.907.32 1.5zm-4.05 0c0 .633.124 1.136.37 1.51.254.367.654.55 1.2.55.54 0 .937-.183 1.19-.55.254-.374.38-.877.38-1.51s-.126-1.13-.38-1.49c-.253-.36-.653-.54-1.2-.54-.546 0-.943.18-1.19.54-.246.36-.37.856-.37 1.49zm9.175-2.67v2.23h2.91v-2.23h.88v5.36h-.88v-2.39h-2.91v2.39h-.88v-5.36h.88zm12.037.74h-1.75v4.62h-.87v-4.62h-1.73v-.74h4.35v.74zm5.879-.84c.453 0 .846.1 1.18.3.333.2.586.483.76.85.18.36.27.783.27 1.27v.53h-3.67c.013.606.166 1.07.46 1.39.3.313.716.47 1.25.47.34 0 .64-.03.9-.09.266-.067.54-.16.82-.28v.77c-.274.12-.544.207-.81.26-.267.06-.584.09-.95.09-.514 0-.964-.104-1.35-.31a2.202 2.202 0 01-.91-.92c-.214-.407-.32-.91-.32-1.51 0-.587.096-1.09.29-1.51.2-.42.476-.743.83-.97.36-.227.776-.34 1.25-.34zm-.01.72c-.42 0-.754.136-1 .41-.24.267-.384.64-.43 1.12h2.73c-.007-.454-.114-.82-.32-1.1-.207-.287-.534-.43-.98-.43zm7.314-.62v2.23h2.91v-2.23h.88v5.36h-.88v-2.39h-2.91v2.39h-.88v-5.36h.88zm12.317 0v4.62h.78v2.6h-.85v-1.86h-3.73v1.86h-.84v-2.6h.43a6.73 6.73 0 001.03-2.16 9.098 9.098 0 00.36-2.46h2.82zm-.85.69h-1.19a9.074 9.074 0 01-.22 1.41c-.106.48-.25.94-.43 1.38-.173.44-.376.82-.61 1.14h2.45v-3.93zm12.884-.79c.66 0 1.19.23 1.59.69.407.46.61 1.153.61 2.08 0 .913-.203 1.606-.61 2.08-.4.473-.933.71-1.6.71-.413 0-.757-.077-1.03-.23a1.96 1.96 0 01-.63-.55h-.06l.03.43a4 4 0 01.03.45v2.2h-.88v-7.76h.72l.12.73h.04c.16-.234.37-.43.63-.59.26-.16.607-.24 1.04-.24zm-.16.74c-.547 0-.933.153-1.16.46-.227.306-.343.773-.35 1.4v.17c0 .66.107 1.17.32 1.53.22.353.623.53 1.21.53.32 0 .587-.087.8-.26.213-.18.37-.427.47-.74.107-.314.16-.67.16-1.07 0-.614-.12-1.104-.36-1.47-.233-.367-.597-.55-1.09-.55zm8.642-.73c.654 0 1.137.143 1.45.43.314.287.47.743.47 1.37v3.65h-.64l-.17-.76h-.04c-.233.293-.48.51-.74.65s-.613.21-1.06.21c-.486 0-.89-.127-1.21-.38-.32-.26-.48-.663-.48-1.21 0-.534.21-.944.63-1.23.42-.293 1.067-.453 1.94-.48l.91-.03v-.32c0-.447-.096-.757-.29-.93-.193-.174-.466-.26-.82-.26-.28 0-.546.043-.8.13a5.26 5.26 0 00-.71.28l-.27-.66c.234-.127.51-.234.83-.32.32-.093.654-.14 1-.14zm1.05 2.83l-.79.03c-.666.026-1.13.133-1.39.32-.253.186-.38.45-.38.79 0 .3.09.52.27.66.187.14.424.21.71.21.447 0 .82-.123 1.12-.37.307-.254.46-.64.46-1.16v-.48zm6.786-2.84c.613 0 1.1.123 1.46.37.366.246.55.593.55 1.04 0 .326-.094.587-.28.78-.18.186-.424.323-.73.41v.04c.213.06.41.143.59.25.18.106.323.25.43.43.113.173.17.393.17.66 0 .447-.187.823-.56 1.13-.367.3-.944.45-1.73.45a5.6 5.6 0 01-1.05-.09 2.66 2.66 0 01-.78-.26v-.79c.226.106.493.203.8.29.313.087.653.13 1.02.13.4 0 .736-.067 1.01-.2.28-.14.42-.377.42-.71 0-.6-.51-.9-1.53-.9h-.72v-.72h.58c.46 0 .826-.06 1.1-.18.28-.127.42-.34.42-.64a.621.621 0 00-.32-.57c-.207-.127-.507-.19-.9-.19-.294 0-.554.03-.78.09-.22.053-.464.136-.73.25l-.31-.7a4.588 4.588 0 011.87-.37zm8.892 0c.66 0 1.19.23 1.59.69.407.46.61 1.153.61 2.08 0 .913-.203 1.606-.61 2.08-.4.473-.933.71-1.6.71-.413 0-.757-.077-1.03-.23a1.96 1.96 0 01-.63-.55h-.06l.03.43a4 4 0 01.03.45v2.2h-.88v-7.76h.72l.12.73h.04c.16-.234.37-.43.63-.59.26-.16.607-.24 1.04-.24zm-.16.74c-.547 0-.933.153-1.16.46-.227.306-.343.773-.35 1.4v.17c0 .66.107 1.17.32 1.53.22.353.623.53 1.21.53.32 0 .587-.087.8-.26.213-.18.37-.427.47-.74.107-.314.16-.67.16-1.07 0-.614-.12-1.104-.36-1.47-.233-.367-.597-.55-1.09-.55zm8.642-.73c.654 0 1.137.143 1.45.43.314.287.47.743.47 1.37v3.65h-.64l-.17-.76h-.04c-.233.293-.48.51-.74.65s-.613.21-1.06.21c-.486 0-.89-.127-1.21-.38-.32-.26-.48-.663-.48-1.21 0-.534.21-.944.63-1.23.42-.293 1.067-.453 1.94-.48l.91-.03v-.32c0-.447-.096-.757-.29-.93-.193-.174-.466-.26-.82-.26-.28 0-.546.043-.8.13a5.26 5.26 0 00-.71.28l-.27-.66c.234-.127.51-.234.83-.32.32-.093.654-.14 1-.14zm1.05 2.83l-.79.03c-.666.026-1.13.133-1.39.32-.253.186-.38.45-.38.79 0 .3.09.52.27.66.187.14.424.21.71.21.447 0 .82-.123 1.12-.37.307-.254.46-.64.46-1.16v-.48zm5.096-.6c0-1.173.177-2.087.53-2.74.353-.654.923-1.067 1.71-1.24a35.43 35.43 0 011.27-.25c.413-.074.8-.14 1.16-.2l.15.77c-.233.04-.497.083-.79.13-.293.046-.583.096-.87.15-.287.053-.533.1-.74.14-.433.093-.777.32-1.03.68-.253.36-.397.913-.43 1.66h.06c.093-.127.22-.257.38-.39.167-.133.363-.247.59-.34.233-.094.497-.14.79-.14.693 0 1.217.223 1.57.67.353.447.53 1.026.53 1.74 0 .6-.103 1.1-.31 1.5-.207.393-.497.69-.87.89-.367.193-.79.29-1.27.29-.74 0-1.33-.284-1.77-.85-.44-.567-.66-1.39-.66-2.47zm2.5 2.59c.433 0 .783-.14 1.05-.42.267-.28.4-.76.4-1.44 0-.547-.103-.977-.31-1.29-.2-.32-.533-.48-1-.48-.3 0-.57.066-.81.2a2.6 2.6 0 00-.6.44c-.16.166-.27.306-.33.42 0 .326.023.643.07.95.047.306.127.583.24.83.12.24.283.433.49.58.213.14.48.21.8.21zm11.276-2.06c0 .886-.226 1.573-.68 2.06-.446.487-1.053.73-1.82.73-.473 0-.896-.107-1.27-.32a2.324 2.324 0 01-.87-.95c-.213-.42-.32-.927-.32-1.52 0-.887.22-1.57.66-2.05.447-.48 1.057-.72 1.83-.72.48 0 .907.11 1.28.33.374.213.664.526.87.94.214.407.32.907.32 1.5zm-4.05 0c0 .633.124 1.136.37 1.51.254.367.654.55 1.2.55.54 0 .937-.183 1.19-.55.254-.374.38-.877.38-1.51s-.126-1.13-.38-1.49c-.253-.36-.653-.54-1.2-.54-.546 0-.943.18-1.19.54-.246.36-.37.856-.37 1.49zm11.897-1.93h-1.75v4.62h-.87v-4.62h-1.73v-.74h4.35v.74zm7.076-.74h.96l-2.29 2.58 2.48 2.78h-1.02l-2.42-2.72v2.72h-.88v-5.36h.88v2.6l2.29-2.6zm7.003-.09c.653 0 1.137.143 1.45.43.313.287.47.743.47 1.37v3.65h-.64l-.17-.76h-.04c-.233.293-.48.51-.74.65s-.613.21-1.06.21c-.487 0-.89-.127-1.21-.38-.32-.26-.48-.663-.48-1.21 0-.534.21-.944.63-1.23.42-.293 1.067-.453 1.94-.48l.91-.03v-.32c0-.447-.097-.757-.29-.93-.193-.174-.467-.26-.82-.26-.28 0-.547.043-.8.13a5.26 5.26 0 00-.71.28l-.27-.66c.233-.127.51-.234.83-.32.32-.093.653-.14 1-.14zm1.05 2.83l-.79.03c-.667.026-1.13.133-1.39.32-.253.186-.38.45-.38.79 0 .3.09.52.27.66.187.14.423.21.71.21.447 0 .82-.123 1.12-.37.307-.254.46-.64.46-1.16v-.48z" fill="#646464"/><path d="M176 .63s64-5.994 64 19v5h-64v-24z" fill="#FDC305"/><path d="M6.926 41.509c.492 2.062.972 3.633 1.441 4.71.094.247.2.505.317.774.117.258.199.516.246.773.058.481-.14.85-.598 1.108-.457.246-1.002.416-1.635.51-.62.093-1.136.111-1.547.052a3.52 3.52 0 01-1.002-.28c-.492-.2-.884-.546-1.177-1.038a9.03 9.03 0 01-.703-1.441c-.364-.903-.686-2.063-.967-3.48a55.206 55.206 0 01-.686-4.413 54.937 54.937 0 01-.334-4.43c-.035-1.43.012-2.595.14-3.498.106-.773.282-1.43.528-1.968.164-.364.416-.645.756-.844.375-.2.68-.328.914-.387.246-.07.586-.105 1.02-.105.632.011 1.13.129 1.494.351.375.211.545.703.51 1.477-.118 2.578.07 5.273.562 8.086 1.535-.2 3.03-.393 4.482-.58 1.465-.188 2.614-.323 3.446-.405a53.33 53.33 0 01-.053-3.586c.035-1.148.123-2.12.264-2.918a8.977 8.977 0 01.404-1.529 2.47 2.47 0 01.95-1.265c.234-.165.65-.329 1.247-.493.61-.164 1.12-.263 1.53-.299.421-.035.878.03 1.37.194.493.164.762.486.81.967 0 .27-.03.545-.089.826-.058.281-.11.55-.158.808-.515 2.473-.674 5.286-.474 8.438.199 3.14.62 5.994 1.265 8.56.176.75.1 1.272-.228 1.565-.317.293-.78.498-1.389.615a9.652 9.652 0 01-1.107.158c-.317.024-.68-.029-1.09-.158-.364-.105-.668-.334-.914-.685-.34-.47-.639-1.079-.897-1.829-.363-1.043-.75-2.824-1.16-5.343-.879.281-2.127.51-3.744.685-1.617.164-2.865.27-3.744.317zm15.345-.264c.586-1.125 1.225-2.021 1.916-2.69.27-.257.446-.421.528-.492a9.018 9.018 0 013.762-2.004c1.183-.316 2.337-.322 3.462-.017.528.164 1.055.451 1.583.861.527.399.925.844 1.195 1.336.293.563.474 1.266.545 2.11.105 1.242-.006 2.36-.334 3.357a7.305 7.305 0 01-.914 1.775 13.655 13.655 0 01-1.213 1.53 9.994 9.994 0 01-2.162 1.722 6.118 6.118 0 01-2.602.827 6.855 6.855 0 01-2.742-.335 7.664 7.664 0 01-1.88-.949 4.083 4.083 0 01-1.302-1.582c-.316-.62-.492-1.347-.527-2.18-.047-1.183.182-2.273.686-3.269zm3.235 1.283c-.293.89-.094 1.81.598 2.76.703.95 1.658 1.172 2.865.668.75-.316 1.295-.762 1.634-1.336.34-.586.516-1.195.528-1.828.023-1.442-.756-2.309-2.338-2.602-1.582-.293-2.678.487-3.287 2.338zm25.101-2.76c-.832.27-1.207 1.5-1.125 3.692.118.82.17 1.781.159 2.883-.012 1.101-.229 2.045-.65 2.83-.153.27-.364.422-.634.457-.468.07-.955.006-1.459-.194-.504-.21-.879-.445-1.125-.703a.68.68 0 01-.21-.351 1.195 1.195 0 01-.053-.615c.047-.223.093-.434.14-.633.176-.727.27-1.453.282-2.18a25.091 25.091 0 00-.053-2.127c-.14-.691-.357-1.254-.65-1.687-.622-1.055-1.272-1.594-1.952-1.618-.668-.023-1.136.44-1.406 1.389-.223.762-.328 1.734-.316 2.918v.123c.07.984.181 1.922.334 2.813.046.199.117.504.21.914.118.48.112.796-.017.949l-.105.105a1.15 1.15 0 01-.528.528c-.386.199-.82.31-1.3.334a6.5 6.5 0 01-1.073-.053 2.976 2.976 0 01-.457 0 .78.78 0 01-.492-.211 1.788 1.788 0 01-.422-.193c-.34-.246-.586-.604-.738-1.073-.14-.48-.246-.949-.317-1.406-.128-.867-.199-1.974-.21-3.322-.012-1.348.029-2.737.123-4.166.105-1.442.392-2.45.86-3.024.2-.351.44-.591.721-.72.305-.153.669-.24 1.09-.264a5.983 5.983 0 011.125 0c.48.059.844.21 1.09.457.258.246.328.697.211 1.354.54-.54 1.219-.832 2.04-.88.82-.058 1.698.258 2.636.95.246.187.48.387.703.598.633-.985 1.986-1.53 4.06-1.635.88.047 1.788.416 2.725 1.107a6.482 6.482 0 012.198 2.883c.468 1.172.785 2.35.949 3.533.117.82.17 1.781.158 2.883-.012 1.102-.229 2.045-.65 2.83-.153.27-.364.422-.633.457-.469.07-.955.006-1.46-.193-.503-.211-.878-.446-1.124-.703a.679.679 0 01-.211-.352 1.196 1.196 0 01-.053-.615c.047-.223.094-.434.14-.633.177-.727.27-1.453.282-2.18a25.134 25.134 0 00-.053-2.127c-.14-.691-.357-1.253-.65-1.687-.574-1.23-1.277-1.711-2.11-1.441zm11.373 3.797c.036.117.077.246.123.387.305.855.979 1.506 2.022 1.951 1.055.446 2.057.616 3.006.51.75-.059 1.5-.48 2.25-1.266.762-.785 1.74-.738 2.935.141.528.34.48.879-.14 1.617-.621.739-1.114 1.236-1.477 1.494a5.649 5.649 0 01-.756.457 5.718 5.718 0 01-2.056.633 10.76 10.76 0 01-2.04-.017 9.607 9.607 0 01-2.636-.616 9.32 9.32 0 01-1.898-1.02 6.903 6.903 0 01-1.583-1.564 9.482 9.482 0 01-1.722-3.779c-.457-2.133.07-3.914 1.582-5.344a7.431 7.431 0 012.566-1.617c.961-.363 2.104-.633 3.428-.808 1.324-.176 2.666.093 4.025.808 1.372.703 2.221 1.723 2.55 3.059.327 1.336.386 2.267.175 2.795-.211.527-.574.861-1.09 1.002-.504.14-3.592.533-9.264 1.177zm7.418-3.638c-.492-1.078-1.382-1.577-2.671-1.495-1.29.07-2.291.235-3.006.493-.715.258-1.242.82-1.582 1.687a2.348 2.348 0 00-.088.158l7.347-.843zm16.7-2.215l1.476 1.02c.047.023.088.046.123.07 1.184.715 2.004 1.564 2.461 2.548.469.985.475 2.092.018 3.323-.469 1.23-1.313 2.267-2.532 3.111-.796.563-1.763.967-2.9 1.213a14.086 14.086 0 01-3.533.264l-.018.017v.018c-1.523-.094-2.25-.2-2.18-.317-.55-.117-1.019-.234-1.406-.351l-2.742-1.266a6.873 6.873 0 01-1.406-1.16.115.115 0 00-.053-.053c-.012-.011-.017-.035-.017-.07-.024 0-.047-.012-.07-.035a.134.134 0 01-.018-.053 1.378 1.378 0 01-.352-.79v-.124c.012-.363.035-.803.07-1.318.024-.516.106-.938.247-1.266.152-.375.375-.492.668-.352.304.13.556.282.755.458a.199.199 0 00.07.07c.024.012.048.03.071.053a8.092 8.092 0 001.723 1.125c1.441.691 3.187 1.02 5.238.984a6.26 6.26 0 00.316-.176c.457-.258.563-.615.317-1.072a.115.115 0 01-.053-.053.704.704 0 01-.035-.088c-.129-.152-1.354-.873-3.674-2.162-2.215-1.523-3.486-2.537-3.814-3.04-.785-1.173-1.02-2.345-.704-3.517.317-1.183 1.014-2.208 2.092-3.076 1.887-1.546 4.91-2.109 9.07-1.687.505.152.956.305 1.354.457.14.058.358.158.65.299.27.152.592.316.967.492.457.2.645.416.563.65.023.035.053.076.088.123.246.328.44.774.58 1.336.14.563.023 1.008-.352 1.336l-.07.07c-.328.247-.785.3-1.371.159a25.388 25.388 0 00-1.881-.44l-1.02-.263c-1.312-.164-2.273-.247-2.882-.247-1.23.41-.944 1.202.861 2.374.152.14 1.254.609 3.305 1.406zm7.98-2.285c.059-1.055.153-1.928.281-2.62.141-.714.305-1.271.493-1.67.152-.34.334-.568.544-.685.282-.14.68-.234 1.196-.281.515-.047.92-.053 1.213-.018.41.059.732.205.966.44.247.222.335.674.264 1.353a59.208 59.208 0 00-.263 3.428c.28.012.562.03.843.053.457.047.914.14 1.371.28.457.13.826.312 1.108.546.199.176.351.463.457.861.094.352.129.756.105 1.213-.035.434-.105.785-.211 1.055-.129.304-.293.45-.492.44a.95.95 0 01-.299-.053 1.77 1.77 0 01-.351-.106c-.703-.234-1.5-.375-2.39-.422h-.177c0 .117.006.234.018.352.07 2.777.352 5.232.844 7.365.046.223.1.457.158.703.07.234.111.469.123.703 0 .434-.158.744-.475.932a2.4 2.4 0 01-1.107.316c-.422.024-.926 0-1.512-.07-.574-.082-.95-.188-1.125-.317-.316-.222-.556-.556-.72-1.002a8.792 8.792 0 01-.37-1.335c-.175-.82-.316-1.87-.422-3.147a61.361 61.361 0 01-.158-3.955 12.724 12.724 0 01-.017-.668h-.088a13.06 13.06 0 00-2.04.193 2.38 2.38 0 01-.333.053.843.843 0 01-.3-.053.633.633 0 01-.21-.193 1.338 1.338 0 01-.14-.352 3.255 3.255 0 01-.106-.984c0-.363.035-.697.105-1.002.07-.328.293-.586.668-.773.211-.106.452-.205.721-.3.188-.046.463-.105.826-.175.153-.023.422-.058.809-.105h.193zm20.988.65c.188.059.329.123.422.193.352.246.598.61.739 1.09.152.469.263.932.334 1.389.128.867.199 1.974.21 3.322a51.33 51.33 0 01-.14 4.184c-.094 1.43-.375 2.431-.844 3.006-.199.351-.439.591-.721.72-.304.153-.673.24-1.107.264a5.982 5.982 0 01-1.125 0c-.469-.059-.832-.21-1.09-.457-.258-.246-.328-.697-.211-1.353-.961.738-1.722 1.084-2.285 1.037-.891-.047-1.799-.416-2.725-1.108a6.616 6.616 0 01-2.214-2.865 15.337 15.337 0 01-.95-3.55c-.105-.821-.152-1.782-.14-2.884.011-1.101.222-2.045.633-2.83.152-.27.369-.422.65-.457.469-.07.949 0 1.441.211.504.2.879.428 1.125.686a.635.635 0 01.229.351c.07.188.082.393.035.615a8.515 8.515 0 01-.123.633 9.935 9.935 0 00-.281 2.198c-.012.726 0 1.43.035 2.109.152.691.375 1.254.668 1.688.621 1.054 1.324 1.593 2.109 1.617.785.023 1.319-.44 1.6-1.389.222-.762.328-1.734.316-2.918v-.123a28.607 28.607 0 00-.334-2.813c-.047-.199-.117-.51-.211-.931-.117-.469-.111-.78.018-.932l.105-.105a1.17 1.17 0 01.51-.528c.387-.199.826-.31 1.318-.334.364-.011.721.006 1.073.053.164-.012.316-.012.457 0a.76.76 0 01.474.211zm6.17 5.73c.434-.984.991-1.628 1.67-1.933.692-.305 1.348-.358 1.969-.158.633.187 1.154.586 1.564 1.195.411.598.563 1.295.457 2.092a4.8 4.8 0 01-.791 1.969c-.41.597-1.037 1.02-1.88 1.265-1.278.375-2.204-.03-2.778-1.213-.562-1.195-.633-2.267-.211-3.217zm6.698 5.643c.093.352.216.715.369 1.09.164.375.398.656.703.844.176.105.463.193.861.263.41.082.826.112 1.248.088.422-.023.785-.111 1.09-.263a.781.781 0 00.475-.756 2.662 2.662 0 00-.106-.598 14.57 14.57 0 00-.176-.562c-.48-1.77-.761-3.797-.843-6.082-.071-2.286.111-5.977.545-11.075.07-.55-.012-.92-.246-1.107-.235-.188-.557-.305-.967-.352a5.013 5.013 0 00-.949-.017 2.625 2.625 0 00-.915.21c-.222.106-.41.294-.562.563-.293 3.399-.486 5.262-.58 5.59a1.639 1.639 0 00-.193-.053c-1.149-.34-2.356-.34-3.622 0a9.65 9.65 0 00-3.902 2.127 10.59 10.59 0 00-.545.51 9.434 9.434 0 00-1.125 1.354c-.316.48-.603.978-.861 1.494-.516 1.043-.75 2.197-.703 3.463.035.867.211 1.629.527 2.285a4.26 4.26 0 001.371 1.652c.61.434 1.26.773 1.951 1.02a6.87 6.87 0 002.848.351 6.498 6.498 0 002.725-.879 8.614 8.614 0 001.582-1.16zm5.414-2.144a31.145 31.145 0 01.07-5.327c.187-1.804.475-3.04.861-3.709.399-.68.791-1.002 1.178-.966.387.023.756.064 1.107.123.317.07.569.134.756.193a.6.6 0 01.317.229l.158.158c.023.023.064.082.123.175a.613.613 0 01.088.212l.07.351c0 .024.018.135.053.334.012.14-.065 1.254-.229 3.34-.152 2.074-.052 4.488.299 7.242a5.23 5.23 0 01-.105.861c-.059.282-.117.475-.176.58-.106.165-.322.288-.65.37a3.174 3.174 0 01-.51.07 8.74 8.74 0 01-.545-.018 8.017 8.017 0 01-1.125-.123 4.155 4.155 0 01-.774-.193 3.735 3.735 0 01-.14-.088.482.482 0 01-.158-.14.66.66 0 01-.141-.159c0 .012-.041-.047-.123-.176-.035-.023-.064-.093-.088-.21a7.894 7.894 0 01-.088-.352c-.012-.117-.088-1.043-.228-2.777zm2.601-15.926c.633 0 1.166.21 1.6.633.445.421.668.937.668 1.546 0 .598-.223 1.114-.668 1.547-.434.422-.967.633-1.6.633a2.223 2.223 0 01-1.582-.633 2.115 2.115 0 01-.65-1.547c0-.609.217-1.125.65-1.546a2.223 2.223 0 011.582-.633zm3.604 11.865c.586-1.125 1.224-2.021 1.916-2.69.269-.257.445-.421.527-.492a9.023 9.023 0 013.762-2.004c1.183-.316 2.338-.322 3.463-.017.527.164 1.054.451 1.582.861.527.399.926.844 1.195 1.336.293.563.475 1.266.545 2.11.105 1.242-.006 2.36-.334 3.357a7.323 7.323 0 01-.914 1.775 13.678 13.678 0 01-1.213 1.53 9.988 9.988 0 01-2.162 1.722 6.118 6.118 0 01-2.602.827 6.856 6.856 0 01-2.742-.335 7.674 7.674 0 01-1.881-.949 4.08 4.08 0 01-1.3-1.582c-.317-.62-.493-1.347-.528-2.18-.047-1.183.182-2.273.686-3.269zm3.234 1.283c-.293.89-.094 1.81.598 2.76.703.95 1.658 1.172 2.865.668.75-.316 1.295-.762 1.635-1.336.34-.586.515-1.195.527-1.828.024-1.442-.756-2.309-2.338-2.602-1.582-.293-2.678.487-3.287 2.338zm11.707-13.676c.235-.738.668-1.13 1.301-1.177a37.315 37.315 0 015.607.14c1.875.176 3.744.75 5.608 1.723 2.097 1.113 3.773 2.543 5.027 4.29a11.661 11.661 0 012.039 4.938c.188 1.278-.041 2.538-.685 3.78-.633 1.242-1.325 2.28-2.075 3.111a10.68 10.68 0 01-2.953 2.268 11.837 11.837 0 01-3.638 1.177c-1.664.27-3.37.323-5.116.159a154.52 154.52 0 01-5.22-.616c-.539-.058-.897-.216-1.073-.474-.175-.258-.269-.574-.281-.95-.094-2.613-.058-5.742.106-9.386.175-3.656.627-6.65 1.353-8.983zm14.186 9.915c-.071-.903-.592-1.747-1.565-2.532-.363-.27-.779-.539-1.248-.808a12.633 12.633 0 00-4.183-1.336 5.688 5.688 0 00-1.073-.07 1.637 1.637 0 00-.984.421c-.129.117-.252.563-.369 1.336a41.746 41.746 0 00-.299 2.55 42.59 42.59 0 00-.158 2.566c-.024.796 0 1.265.07 1.406a.473.473 0 00.141.21 7.93 7.93 0 002.004.721c.726.153 1.435.211 2.127.176.914-.035 1.904-.21 2.97-.527 1.078-.328 1.793-.932 2.145-1.81.304-.75.445-1.518.422-2.303zm20.83 1.002c-.832.269-1.207 1.5-1.125 3.69.117.821.17 1.782.158 2.884-.012 1.101-.229 2.045-.65 2.83-.153.27-.364.422-.633.457-.469.07-.955.006-1.459-.194-.504-.21-.879-.445-1.125-.703a.675.675 0 01-.211-.351 1.2 1.2 0 01-.053-.615c.047-.223.094-.434.141-.633a9.928 9.928 0 00.281-2.18 24.964 24.964 0 00-.053-2.127c-.14-.691-.357-1.254-.65-1.687-.621-1.055-1.272-1.594-1.951-1.618-.668-.023-1.137.44-1.407 1.389-.222.762-.328 1.734-.316 2.918v.123c.07.984.182 1.922.334 2.813.047.199.117.504.211.914.117.48.111.796-.018.949l-.105.105a1.151 1.151 0 01-.527.528c-.387.199-.821.31-1.301.334a6.495 6.495 0 01-1.072-.053 2.988 2.988 0 01-.458 0 .783.783 0 01-.492-.211 1.815 1.815 0 01-.422-.193c-.339-.246-.586-.604-.738-1.073-.14-.48-.246-.949-.316-1.406-.129-.867-.199-1.974-.211-3.322a55.934 55.934 0 01.123-4.166c.105-1.442.392-2.45.861-3.024.199-.351.44-.591.721-.72.305-.153.668-.24 1.09-.264a5.982 5.982 0 011.125 0c.48.059.843.21 1.09.457.257.246.328.697.21 1.354.54-.54 1.219-.832 2.04-.88.82-.058 1.699.258 2.636.95.246.187.481.387.703.598.633-.985 1.987-1.53 4.061-1.635.879.047 1.787.416 2.725 1.107a6.483 6.483 0 012.197 2.883c.469 1.172.785 2.35.949 3.533.117.82.17 1.781.158 2.883-.011 1.102-.228 2.045-.65 2.83-.152.27-.363.422-.633.457-.469.07-.955.006-1.459-.193-.504-.211-.879-.446-1.125-.703a.681.681 0 01-.211-.352 1.2 1.2 0 01-.053-.615c.047-.223.094-.434.141-.633.176-.727.27-1.453.281-2.18a25.395 25.395 0 00-.052-2.127c-.141-.691-.358-1.253-.651-1.687-.574-1.23-1.277-1.711-2.109-1.441zm7.611 5.537a31.247 31.247 0 01.07-5.327c.188-1.804.475-3.04.862-3.709.398-.68.791-1.002 1.177-.966.387.023.756.064 1.108.123.316.07.568.134.756.193a.613.613 0 01.316.229l.158.158c.024.023.065.082.123.175a.576.576 0 01.088.212l.071.351c0 .024.017.135.052.334.012.14-.064 1.254-.228 3.34-.153 2.074-.053 4.488.299 7.242-.012.293-.047.58-.106.861-.058.282-.117.475-.176.58-.105.165-.322.288-.65.37a3.143 3.143 0 01-.51.07c-.176 0-.357-.006-.545-.018a8.05 8.05 0 01-1.125-.123 4.143 4.143 0 01-.773-.193 3.18 3.18 0 01-.141-.088.482.482 0 01-.158-.14.683.683 0 01-.141-.159c0 .012-.041-.047-.123-.176-.035-.023-.064-.093-.087-.21a6.699 6.699 0 01-.088-.352c-.012-.117-.088-1.043-.229-2.777zm2.602-15.926c.632 0 1.166.21 1.599.633.446.421.668.937.668 1.546 0 .598-.222 1.114-.668 1.547-.433.422-.967.633-1.599.633-.61 0-1.137-.21-1.582-.633a2.112 2.112 0 01-.651-1.547c0-.609.217-1.125.651-1.546a2.221 2.221 0 011.582-.633zm5.941 6.047c.059-1.055.152-1.928.281-2.62.141-.714.305-1.271.493-1.67.152-.34.333-.568.544-.685.282-.14.68-.234 1.196-.281.515-.047.92-.053 1.213-.018.41.059.732.205.966.44.247.222.334.674.264 1.353a59.738 59.738 0 00-.264 3.428c.282.012.563.03.844.053.457.047.914.14 1.371.28.457.13.826.312 1.108.546.199.176.351.463.457.861.093.352.129.756.105 1.213-.035.434-.105.785-.211 1.055-.129.304-.293.45-.492.44a.95.95 0 01-.299-.053 1.77 1.77 0 01-.351-.106c-.703-.234-1.5-.375-2.391-.422h-.176c0 .117.006.234.018.352.07 2.777.351 5.232.844 7.365.046.223.099.457.158.703.07.234.111.469.123.703 0 .434-.158.744-.475.932a2.396 2.396 0 01-1.107.316c-.422.024-.926 0-1.512-.07-.574-.082-.949-.188-1.125-.317-.316-.222-.557-.556-.721-1.002a8.802 8.802 0 01-.369-1.335c-.176-.82-.316-1.87-.422-3.147a62.019 62.019 0 01-.158-3.955 12.406 12.406 0 01-.017-.668h-.088c-.692.012-1.371.076-2.039.193a2.383 2.383 0 01-.334.053.843.843 0 01-.299-.053.633.633 0 01-.211-.193 1.336 1.336 0 01-.141-.352 3.25 3.25 0 01-.105-.984c0-.363.035-.697.105-1.002.071-.328.293-.586.668-.773.211-.106.451-.205.721-.3.187-.046.463-.105.826-.175.152-.023.422-.058.809-.105h.193zm11.338 13.957a1.792 1.792 0 01-.422-.194c-.34-.246-.586-.603-.738-1.072a8.016 8.016 0 01-.317-1.406c-.129-.867-.199-1.975-.211-3.322-.011-1.348.03-2.737.124-4.166.105-1.442.392-2.45.861-3.024.199-.352.439-.592.721-.72.304-.153.668-.24 1.089-.264a6 6 0 011.125 0c.481.058.844.21 1.09.457.258.246.328.697.211 1.353.973-.738 2.227-.96 3.762-.668 1.535.293 2.197 1.032 1.986 2.215-.211 1.184-1.119 1.64-2.724 1.371-1.606-.27-2.543.07-2.813 1.02-.223.761-.328 1.734-.316 2.918v.123c.07.984.181 1.922.334 2.812.035.2.105.504.211.914.117.48.111.797-.018.95l-.105.105a1.153 1.153 0 01-.528.527c-.386.2-.82.31-1.301.334a6.511 6.511 0 01-1.072-.052 3.177 3.177 0 01-.474 0 .765.765 0 01-.475-.211zm9.967-12.094c.316-.492.592-.85.826-1.072.246-.223.592-.51 1.037-.862.492-.21.984-.07 1.477.422.714.715 1.312 1.735 1.793 3.059.492 1.324 1.066 2.385 1.722 3.181.199.27.416.323.651.159.246-.176.451-.364.615-.563.48-.55.943-1.324 1.389-2.32.457-.996.843-1.846 1.16-2.549.187-.434.392-.744.615-.932.234-.199.574-.199 1.019 0 .422.211.774.48 1.055.809.293.316.574.691.844 1.125.305.48.381 1.12.228 1.916a11.608 11.608 0 01-1.054 3.023 98.288 98.288 0 01-1.424 2.778 38.225 38.225 0 01-1.547 2.531c-.527.809-1.066 1.611-1.617 2.408l-1.547 2.11a13.171 13.171 0 01-1.688 1.898c-.644.598-1.242.984-1.793 1.16-.41.13-.896.041-1.459-.264-.55-.292-.937-.615-1.16-.966-.222-.34-.445-.703-.668-1.09-.211-.387-.199-.756.036-1.107.187-.282.462-.569.826-.862.375-.281.691-.592.949-.931a5.85 5.85 0 01.668-.721c.223-.2.527-.621.914-1.266.738-1.008.726-2.039-.035-3.094-.305-.527-.739-1.166-1.301-1.916-.551-.761-.996-1.382-1.336-1.863-.234-.34-.469-.691-.703-1.055a8.401 8.401 0 01-.58-1.177c-.164-.364-.252-.686-.264-.967 0-.293.117-.627.352-1.002z"/></svg></svg>