<?xml version="1.0" encoding="utf-8"?><svg viewBox="0 0 25 26" xmlns="http://www.w3.org/2000/svg" xmlns:xlink="http://www.w3.org/1999/xlink"><style>:root>svg{display:none}:root>svg:target{display:block}</style><svg fill="none" viewBox="0 0 19 14" id="email" xmlns="http://www.w3.org/2000/svg"><path fill-rule="evenodd" clip-rule="evenodd" d="M1.072 1h15.98v2.473L9.063 8.26l-7.99-4.787V1zm7.99 8.425l8.99-5.386V0H.073v4.04l8.99 5.385zM0 6.284v7.68h18.125v-7.68h-1v6.68H1v-6.68H0z" fill="#000"/></svg><svg viewBox="0 0 25 25" id="skype" xmlns="http://www.w3.org/2000/svg"><path fill-rule="evenodd" clip-rule="evenodd" d="M13 2c-.897 0-1.767.118-2.594.34A5 5 0 003.34 9.407C3.12 10.232 3 11.102 3 12c0 5.523 4.477 10 10 10 .897 0 1.767-.118 2.594-.34a5 5 0 007.066-7.066c.222-.827.34-1.697.34-2.594 0-5.523-4.477-10-10-10z"/><path d="M13.212 17.234c2.304 0 3.564-1.314 3.564-2.898 0-1.854-1.566-2.43-2.988-2.97-1.098-.414-2.106-.756-2.106-1.692 0-.756.576-1.404 1.818-1.404.864 0 1.548.36 2.214.864l.792-1.062c-.756-.594-1.818-1.098-3.024-1.098-2.124 0-3.384 1.224-3.384 2.772 0 1.656 1.494 2.322 2.862 2.826 1.08.414 2.232.846 2.232 1.854 0 .846-.63 1.53-1.926 1.53-1.17 0-2.052-.468-2.898-1.152l-.81 1.08c.936.774 2.268 1.35 3.654 1.35z" fill="#fff"/></svg><svg viewBox="0 0 25 25" id="telegram" xmlns="http://www.w3.org/2000/svg"><path d="M22.937 3.613L19.433 22.5l-7.47-6-3.487-2-5.976-2 20.437-8.887z" fill="#C4C4C4" stroke="#C1C1C1" stroke-width="2" stroke-linejoin="round"/><path stroke="#000" stroke-linejoin="round" d="M10.648 21.186l2.558-2.541M21 6l-9.5 11.5-1 4-2-6.5L21 6z"/></svg><svg viewBox="0 0 25 25" fill="none" id="telegram1" xmlns="http://www.w3.org/2000/svg"><path stroke="#000" stroke-width=".8" stroke-linejoin="round" d="M10.717 21.717l4-4M13 16l-2.5 6-2-8"/><path d="M24.489 2.353l-3.575 20.415-8.229-6.263 8.23-10.45-12.322 8.069L2 11.554l22.489-9.2z" stroke="#000" stroke-width=".8" stroke-linejoin="round"/></svg><svg viewBox="0 0 25 26" id="viber" xmlns="http://www.w3.org/2000/svg"><path fill-rule="evenodd" clip-rule="evenodd" d="M12.5 21c7.995 0 9.5-2.037 9.5-9.5S20.495 2 12.5 2 3 4.037 3 11.5c0 6.588 1.173 8.948 6.948 9.41l-.03 3.328 2.085-3.24.497.002z"/><path d="M9.948 20.91l1 .01a1 1 0 00-.92-1.006l-.08.997zm-.03 3.328l-1-.008a1 1 0 001.842.55l-.841-.542zm2.085-3.24l.011-1a1 1 0 00-.852.458l.84.541zM21 11.5c0 3.769-.41 5.74-1.476 6.858C18.471 19.463 16.51 20 12.5 20v2c3.985 0 6.774-.481 8.472-2.261C22.657 17.973 23 15.195 23 11.5h-2zM12.5 3c4.01 0 5.97.537 7.024 1.642C20.591 5.759 21 7.732 21 11.5h2c0-3.695-.343-6.473-2.028-8.239C19.274 1.481 16.484 1 12.5 1v2zM4 11.5c0-3.769.41-5.74 1.475-6.858C6.53 3.537 8.49 3 12.5 3V1c-3.985 0-6.774.481-8.472 2.261C2.343 5.027 2 7.805 2 11.5h2zm6.028 8.414c-2.794-.224-4.142-.886-4.897-1.98C4.313 16.748 4 14.811 4 11.5H2c0 3.277.273 5.814 1.485 7.57 1.276 1.85 3.402 2.599 6.383 2.837l.16-1.993zm.89 4.333l.03-3.328-2-.017-.03 3.328 2 .017zm.244-3.79l-2.085 3.24 1.683 1.082 2.084-3.24-1.682-1.083zM12.5 20c-.165 0-.327 0-.486-.003l-.022 2c.166.002.336.003.508.003v-2z"/><path d="M12.5 15.348c5 1 3.59 3 0 3a6.5 6.5 0 01-6.5-6.5c0-3.59 2-4 3.5 0-3.5 2 1.5 6.5 3 3.5zM11.325 8.183h1.1l.795.35 1 .5.84.752.601 1.057.059 1.19-.008 1.507.008-.007v-1.5l-.059-1.19-.601-1.057-.84-.753-1-.5-.795-.349H11.22h.105z" fill="#fff"/><path d="M12.425 8.183H11.22h1.205zm0 0l.795.35 1 .5.84.752.601 1.057.059 1.19m0 0v1.5l-.008.007.008-1.507z" stroke="#fff" stroke-width="1.5" stroke-linejoin="round"/><path d="M12.442 4.58l1.574.128 1.226.6 1.442.842 1.29 1.191.985 1.606.222 1.735.165 2.187.01-.008-.175-2.179-.222-1.735-.985-1.606-1.29-1.19-1.442-.843-1.226-.6-1.725-.14.15.012z" fill="#fff"/><path d="M14.016 4.708l-1.574-.128-.15-.013 1.724.14zm0 0l1.226.6 1.442.842 1.29 1.191.985 1.606.222 1.735m0 0l.175 2.179-.01.008-.165-2.187z" stroke="#fff" stroke-width="1.5" stroke-linejoin="round"/></svg><svg viewBox="0 0 25 25" id="whatsapp" xmlns="http://www.w3.org/2000/svg"><path fill-rule="evenodd" clip-rule="evenodd" d="M12 23c5.523 0 10-4.477 10-10S17.523 3 12 3 2 7.477 2 13c0 1.98.576 3.827 1.57 5.38l-.07.12-1.875 3.006 3.787-.983A9.962 9.962 0 0012 23z"/><path d="M3.57 18.38l.648.376a.75.75 0 00-.017-.78l-.632.404zm-.07.12l.636.397a.787.787 0 00.013-.021L3.5 18.5zm-1.875 3.006l-.636-.397a.75.75 0 00.824 1.123l-.188-.726zm3.787-.983l.494-.564a.75.75 0 00-.683-.162l.189.726zM21.25 13A9.25 9.25 0 0112 22.25v1.5c5.937 0 10.75-4.813 10.75-10.75h-1.5zM12 3.75A9.25 9.25 0 0121.25 13h1.5c0-5.937-4.813-10.75-10.75-10.75v1.5zM2.75 13A9.25 9.25 0 0112 3.75v-1.5C6.063 2.25 1.25 7.063 1.25 13h1.5zm1.451 4.976A9.203 9.203 0 012.75 13h-1.5c0 2.128.62 4.114 1.687 5.784l1.264-.808zm-.052.9l.07-.12-1.299-.751-.07.12 1.3.75zm-1.888 3.027l1.875-3.006-1.272-.794L.989 21.11l1.272.794zm2.962-2.106l-3.786.983.376 1.452 3.787-.983-.377-1.452zM12 22.25a9.212 9.212 0 01-6.094-2.291l-.989 1.128A10.712 10.712 0 0012 23.75v-1.5z"/><path d="M13.897 15.505c.994.11 6.183 3.204.054 4.03-4.117-.459-7.548-4.498-7.12-8.34.428-3.842 2.983-4.195 4.03-.054-4.252 2.042 2.704 7.345 3.036 4.364z" fill="#fff"/></svg></svg>