<?xml version="1.0" encoding="utf-8"?><svg viewBox="0 0 27 34" xmlns="http://www.w3.org/2000/svg" xmlns:xlink="http://www.w3.org/1999/xlink"><style>:root>svg{display:none}:root>svg:target{display:block}</style><svg viewBox="0 0 24 16" id="arrow-up" xmlns="http://www.w3.org/2000/svg"><path d="M12 0l12 16-12-8.736L0 16 12 0z"/></svg><svg fill="none" viewBox="0 0 20 16" id="email" xmlns="http://www.w3.org/2000/svg"><path fill-rule="evenodd" clip-rule="evenodd" d="M1.08 1h17.84v3.072L10 9.622l-8.92-5.55V1zM10 10.799l9.92-6.17V0H.08v4.628L10 10.8zm-9.948-3.6v8.728h19.896V7.2h-1v7.728H1.052V7.2h-1z" fill="#000"/></svg><svg viewBox="0 0 27 34" id="footer-logo-htmlacademy" xmlns="http://www.w3.org/2000/svg"><path d="M13.643.016L13.5 0 0 1.407v24.606L13.5 34 27 26.013V1.407L13.643.016zm11.591 25L13.5 31.956 1.766 25.015V14.93l11.685 6.916.02 1.253-8.017-4.743-.011 1.225 8.046 4.809.02 1.286-8.045-4.758-.01 1.226L13.5 26.95l8.124-4.833V16.91l3.62-2.15-.01 10.256zm0-11.564l-3.22 1.88-1.482.875-7.065-4.187-.011 1.225 6.04 3.573-.053.031-.13.076-.86.492-4.986-2.948-.011 1.225 3.936 2.328-.933.61-.021.012-2.971-1.742-.011 1.225 1.947 1.135-1.988 1.186-11.618-6.872 11.638-6.958 11.8 6.834zm0-1.225L13.44 5.31 1.766 12.22V2.99L13.5 1.764 25.234 2.99v9.237z"/></svg><svg fill="none" viewBox="0 0 20 20" id="skype" xmlns="http://www.w3.org/2000/svg"><g filter="url(#dfilter0_b)"><circle cx="5" cy="5" r="5" fill="url(#dpaint0_linear)"/></g><g filter="url(#dfilter1_b)"><circle cx="15" cy="15" r="5" transform="rotate(-180 15 15)" fill="url(#dpaint1_linear)"/></g><g filter="url(#dfilter2_bi)"><circle cx="10" cy="10" r="10" fill="#0F54BB"/></g><path d="M10.502 15.234c2.304 0 3.564-1.314 3.564-2.898 0-1.854-1.566-2.43-2.988-2.97-1.098-.414-2.106-.756-2.106-1.692 0-.756.576-1.404 1.818-1.404.864 0 1.548.36 2.214.864l.792-1.062c-.756-.594-1.818-1.098-3.024-1.098-2.124 0-3.384 1.224-3.384 2.772 0 1.656 1.494 2.322 2.862 2.826 1.08.414 2.232.846 2.232 1.854 0 .846-.63 1.53-1.926 1.53-1.17 0-2.052-.468-2.898-1.152l-.81 1.08c.936.774 2.268 1.35 3.654 1.35z" fill="#fff"/><defs><filter id="dfilter0_b" x="-4" y="-4" width="18" height="18" filterUnits="userSpaceOnUse" color-interpolation-filters="sRGB"><feFlood flood-opacity="0" result="BackgroundImageFix"/><feGaussianBlur in="BackgroundImage" stdDeviation="2"/><feComposite in2="SourceAlpha" operator="in" result="effect1_backgroundBlur"/><feBlend in="SourceGraphic" in2="effect1_backgroundBlur" result="shape"/></filter><filter id="dfilter1_b" x="6" y="6" width="18" height="18" filterUnits="userSpaceOnUse" color-interpolation-filters="sRGB"><feFlood flood-opacity="0" result="BackgroundImageFix"/><feGaussianBlur in="BackgroundImage" stdDeviation="2"/><feComposite in2="SourceAlpha" operator="in" result="effect1_backgroundBlur"/><feBlend in="SourceGraphic" in2="effect1_backgroundBlur" result="shape"/></filter><filter id="dfilter2_bi" x="-4" y="-4" width="28" height="28" filterUnits="userSpaceOnUse" color-interpolation-filters="sRGB"><feFlood flood-opacity="0" result="BackgroundImageFix"/><feGaussianBlur in="BackgroundImage" stdDeviation="2"/><feComposite in2="SourceAlpha" operator="in" result="effect1_backgroundBlur"/><feBlend in="SourceGraphic" in2="effect1_backgroundBlur" result="shape"/><feColorMatrix in="SourceAlpha" values="0 0 0 0 0 0 0 0 0 0 0 0 0 0 0 0 0 0 127 0" result="hardAlpha"/><feOffset dy="4"/><feGaussianBlur stdDeviation="2"/><feComposite in2="hardAlpha" operator="arithmetic" k2="-1" k3="1"/><feColorMatrix values="0 0 0 0 0 0 0 0 0 0 0 0 0 0 0 0 0 0 0.25 0"/><feBlend in2="shape" result="effect2_innerShadow"/></filter><linearGradient id="dpaint0_linear" x1="2" y1="-2.5" x2="5" y2="10" gradientUnits="userSpaceOnUse"><stop offset=".438" stop-color="#2E6CC9"/><stop offset="1" stop-color="#77AEFF" stop-opacity="0"/></linearGradient><linearGradient id="dpaint1_linear" x1="12" y1="7.5" x2="15" y2="20" gradientUnits="userSpaceOnUse"><stop offset=".495" stop-color="#3A72C6"/><stop offset="1" stop-color="#77AEFF" stop-opacity="0"/></linearGradient></defs></svg><svg viewBox="0 0 25 25" id="telegram" xmlns="http://www.w3.org/2000/svg"><path d="M22.937 3.613L19.433 22.5l-7.47-6-3.487-2-5.976-2 20.437-8.887z" fill="#C4C4C4" stroke="#C1C1C1" stroke-width="2" stroke-linejoin="round"/><path stroke="#000" stroke-linejoin="round" d="M10.648 21.186l2.558-2.541M21 6l-9.5 11.5-1 4-2-6.5L21 6z"/></svg><svg fill="none" viewBox="0 0 21 20" id="whatsapp" xmlns="http://www.w3.org/2000/svg"><path fill-rule="evenodd" clip-rule="evenodd" d="M20.375 10c0 5.523-4.477 10-10 10a9.962 9.962 0 01-6.588-2.477L0 18.506 1.875 15.5l.07-.12A9.953 9.953 0 01.374 10c0-5.523 4.477-10 10-10s10 4.477 10 10zm-8.05 5.535c6.13-.826.94-3.92-.053-4.03-.332 2.981-7.288-2.322-3.035-4.364C8.189 3 5.634 3.353 5.206 7.195c-.428 3.842 3.003 7.881 7.12 8.34z" fill="#61DB5F"/></svg></svg>