<?xml version="1.0" encoding="utf-8"?><svg viewBox="0 0 27 34" xmlns="http://www.w3.org/2000/svg" xmlns:xlink="http://www.w3.org/1999/xlink"><style>:root>svg{display:none}:root>svg:target{display:block}</style><svg viewBox="0 0 24 16" id="arrow-up" xmlns="http://www.w3.org/2000/svg"><path d="M12 0l12 16-12-8.736L0 16 12 0z"/></svg><svg fill="none" viewBox="0 0 20 16" id="email" xmlns="http://www.w3.org/2000/svg"><path fill-rule="evenodd" clip-rule="evenodd" d="M1.08 1h17.84v3.072L10 9.622l-8.92-5.55V1zM10 10.799l9.92-6.17V0H.08v4.628L10 10.8zm-9.948-3.6v8.728h19.896V7.2h-1v7.728H1.052V7.2h-1z" fill="#000"/></svg><svg viewBox="0 0 27 34" id="footer-logo-htmlacademy" xmlns="http://www.w3.org/2000/svg"><path d="M13.643.016L13.5 0 0 1.407v24.606L13.5 34 27 26.013V1.407L13.643.016zm11.591 25L13.5 31.956 1.766 25.015V14.93l11.685 6.916.02 1.253-8.017-4.743-.011 1.225 8.046 4.809.02 1.286-8.045-4.758-.01 1.226L13.5 26.95l8.124-4.833V16.91l3.62-2.15-.01 10.256zm0-11.564l-3.22 1.88-1.482.875-7.065-4.187-.011 1.225 6.04 3.573-.053.031-.13.076-.86.492-4.986-2.948-.011 1.225 3.936 2.328-.933.61-.021.012-2.971-1.742-.011 1.225 1.947 1.135-1.988 1.186-11.618-6.872 11.638-6.958 11.8 6.834zm0-1.225L13.44 5.31 1.766 12.22V2.99L13.5 1.764 25.234 2.99v9.237z"/></svg><svg fill="none" viewBox="0 0 20 20" id="github-icon" xmlns="http://www.w3.org/2000/svg"><g clip-path="url(#dclip0)"><path fill-rule="evenodd" clip-rule="evenodd" d="M10.113.236c-5.522 0-10 4.59-10 10.254 0 4.53 2.866 8.373 6.84 9.729.5.094.682-.223.682-.495 0-.243-.008-.888-.013-1.743-2.782.62-3.369-1.375-3.369-1.375-.455-1.184-1.11-1.5-1.11-1.5-.908-.636.068-.623.068-.623 1.004.073 1.532 1.057 1.532 1.057.892 1.566 2.34 1.114 2.91.852.091-.663.349-1.115.635-1.371-2.22-.259-4.555-1.139-4.555-5.067 0-1.12.39-2.035 1.03-2.752-.103-.26-.447-1.301.097-2.713 0 0 .84-.276 2.75 1.051a9.353 9.353 0 012.504-.345c.85.004 1.705.118 2.504.345 1.909-1.327 2.747-1.051 2.747-1.051.545 1.412.202 2.454.1 2.713.64.717 1.028 1.633 1.028 2.752 0 3.938-2.339 4.805-4.567 5.059.36.316.68.942.68 1.899 0 1.37-.013 2.476-.013 2.812 0 .275.18.594.688.494 3.97-1.36 6.833-5.2 6.833-9.728 0-5.663-4.478-10.254-10.001-10.254" fill="#646464"/></g><defs><clipPath id="dclip0"><path fill="#fff" d="M0 0h20v20H0z"/></clipPath></defs></svg><svg viewBox="0 0 21 21" id="skype" xmlns="http://www.w3.org/2000/svg"><path fill-rule="evenodd" clip-rule="evenodd" d="M16.65 3.991a8.924 8.924 0 00-7.18-2.58c-.252.024-.5.058-.743.101A5.111 5.111 0 005.265.324 5.104 5.104 0 001.82 1.821 5.103 5.103 0 00.324 5.265a5.11 5.11 0 001.188 3.462 9.004 9.004 0 00-.142 1.594 8.924 8.924 0 002.621 6.33 8.924 8.924 0 007.181 2.58c.253-.023.501-.058.744-.101a5.109 5.109 0 003.461 1.188 5.104 5.104 0 003.445-1.496 5.105 5.105 0 001.496-3.445 5.11 5.11 0 00-1.188-3.462 8.977 8.977 0 00.143-1.594 8.924 8.924 0 00-2.622-6.33z" fill="#00ACEC"/><path fill-rule="evenodd" clip-rule="evenodd" d="M14.622 7.115c0-.717-.545-1.304-1.373-1.716-.86-.428-2.04-.673-3.212-.673-2.08 0-4.507.92-4.507 3.409 0 1.03.35 1.733.928 2.236.562.49 1.332.776 2.195.99l1.685.41v.001l.15.037c.83.206 1.336.332 1.336.855 0 .223-.132.424-.367.57-.256.16-.628.256-1.087.256-1.112 0-1.636-.533-2.09-.994-.403-.41-.758-.77-1.38-.77-.438 0-.766.148-.993.384-.258.266-.377.638-.377 1.025 0 .789.58 1.495 1.509 1.998.892.483 2.117.783 3.449.783 1.209 0 2.451-.33 3.342-1.019.774-.598 1.282-1.46 1.282-2.605 0-1.083-.524-1.81-1.268-2.316-.717-.487-1.633-.76-2.466-.95l-1.196-.275h-.001c-.425-.094-.793-.179-1.041-.313-.202-.11-.322-.26-.322-.5 0-.207.111-.362.309-.468.255-.136.643-.2 1.125-.2.928 0 1.353.381 1.727.718.349.314.66.595 1.234.595v-.001c.438 0 .79-.175 1.035-.448.242-.27.374-.635.374-1.02z" fill="#FFFFFE"/></svg><svg viewBox="0 0 25 25" id="telegram" xmlns="http://www.w3.org/2000/svg"><path d="M22.937 3.613L19.433 22.5l-7.47-6-3.487-2-5.976-2 20.437-8.887z" fill="#C4C4C4" stroke="#C1C1C1" stroke-width="2" stroke-linejoin="round"/><path stroke="#000" stroke-linejoin="round" d="M10.648 21.186l2.558-2.541M21 6l-9.5 11.5-1 4-2-6.5L21 6z"/></svg><svg fill="none" viewBox="0 0 21 20" id="whatsapp" xmlns="http://www.w3.org/2000/svg"><path fill-rule="evenodd" clip-rule="evenodd" d="M20.375 10c0 5.523-4.477 10-10 10a9.962 9.962 0 01-6.588-2.477L0 18.506 1.875 15.5l.07-.12A9.953 9.953 0 01.374 10c0-5.523 4.477-10 10-10s10 4.477 10 10zm-8.05 5.535c6.13-.826.94-3.92-.053-4.03-.332 2.981-7.288-2.322-3.035-4.364C8.189 3 5.634 3.353 5.206 7.195c-.428 3.842 3.003 7.881 7.12 8.34z" fill="#61DB5F"/></svg></svg>