<?xml version="1.0" encoding="utf-8"?><svg viewBox="0 0 322 72" xmlns="http://www.w3.org/2000/svg" xmlns:xlink="http://www.w3.org/1999/xlink"><style>:root>svg{display:none}:root>svg:target{display:block}</style><svg viewBox="0 0 24 16" id="arrow-up" xmlns="http://www.w3.org/2000/svg"><path d="M12 0l12 16-12-8.736L0 16 12 0z"/></svg><svg viewBox="0 0 202 72" id="bem" xmlns="http://www.w3.org/2000/svg"><path d="M14.81 71.646C11 70.37 8.168 68.284 6.312 65.391c-1.856-2.917-2.567-6.449-2.133-10.596l1.012-7.412c.12-1.013.145-1.953.072-2.82-.24-2.725-1.868-4.22-4.881-4.485l.687-7.485c4.46-.193 7.051-2.869 7.774-8.028l1.158-8.317C11.423 8.413 16.291 3.242 24.608.735l1.7 6.003c-4.05 1.567-6.473 5.231-7.268 10.993l-1.157 8.28c-.82 4.653-3.508 8.137-8.064 10.451 1.663 1.23 2.88 2.784 3.652 4.665.771 1.856 1.049 3.965.832 6.328l-1.121 8.534-.145 2.061c-.169 3.905 1.157 6.497 3.978 7.775l-2.206 5.821zm50.01-56.88H42.04l-1.772 10.197 6.907.036c5.761.024 10.281 1.519 13.56 4.484s4.737 6.907 4.375 11.825c-.385 5.23-2.579 9.425-6.58 12.584-4.003 3.157-9.101 4.737-15.297 4.737H23.705l9.149-52.65h33.485l-1.519 8.787zM38.748 33.714l-2.82 16.2 7.738.036c2.797 0 5.195-.783 7.196-2.35 2.025-1.592 3.242-3.725 3.652-6.4.314-2.195-.132-3.955-1.338-5.28-1.205-1.35-3.025-2.074-5.46-2.17l-8.968-.036zm41.513 7.377c.048 3.23.747 5.617 2.097 7.16 1.35 1.542 3.423 2.362 6.22 2.458 4.604.17 8.184-2.037 10.74-6.617 1.012-1.832 1.952-4.303 2.82-7.413l-16.526.036 1.555-8.787h15.839l.216-3.146c.073-3.423-.566-6.05-1.916-7.883-1.35-1.832-3.326-2.796-5.93-2.893-3.11-.144-5.665.64-7.666 2.35-2.001 1.688-3.315 4.183-3.942 7.486l-10.559.072c.53-3.712 1.832-7.003 3.906-9.872 2.097-2.868 4.773-5.062 8.027-6.58 3.279-1.544 6.847-2.279 10.704-2.207 3.52.073 6.569.892 9.149 2.46 2.579 1.542 4.604 3.796 6.074 6.761 1.496 2.966 2.352 6.304 2.568 10.017.145 3.303-.216 7.184-1.085 11.644-1.446 7.352-4.351 13.09-8.715 17.212-4.339 4.123-9.57 6.123-15.693 6.003-5.569-.097-9.98-1.772-13.235-5.026-3.255-3.28-4.978-7.703-5.171-13.272l10.523.037zm58.797-35.112l6.473 38.077 19.635-38.077h14.103l-9.148 52.65h-10.632l2.604-15.007 5.134-23.432-20.177 38.439h-7.269l-7.051-39.777-3.399 25.927-2.423 13.85h-10.595l9.149-52.65h13.596zm36.377 59.773c4.051-1.567 6.473-5.231 7.269-10.993l1.157-8.317c.82-4.652 3.544-8.112 8.172-10.378-1.735-1.18-2.989-2.724-3.76-4.628-.772-1.905-1.049-4.038-.832-6.4l1.121-8.535.145-2.06c.169-3.882-1.145-6.474-3.942-7.775L187.08.952c3.88 1.302 6.701 3.411 8.461 6.328 1.784 2.893 2.459 6.365 2.025 10.415l-1.012 7.377c-.121 1.036-.145 1.976-.073 2.82.242 2.772 1.869 4.291 4.882 4.556l-.687 7.486c-4.484.24-7.075 2.904-7.775 7.991l-.976 7.196c-1.23 8.51-6.16 14.066-14.79 16.67l-1.7-6.039z" fill="#302626"/></svg><svg viewBox="0 0 63 72" id="bootstrap" xmlns="http://www.w3.org/2000/svg"><path d="M0 64.138h2.376c1.083 0 1.87.156 2.358.47.49.313.734.81.734 1.493 0 .463-.108.843-.322 1.14-.214.297-.499.476-.854.536v.053c.484.11.833.315 1.047.615.214.3.322.7.322 1.2 0 .707-.252 1.258-.755 1.654-.503.396-1.187.594-2.05.594H0v-7.755zm1.619 3.071h.94c.438 0 .756-.069.953-.206.197-.138.295-.366.295-.684 0-.297-.107-.51-.32-.64-.215-.129-.554-.193-1.017-.193H1.62v1.723zm0 1.305v2.022h1.055c.446 0 .775-.087.988-.26.213-.174.318-.439.318-.796 0-.643-.453-.966-1.358-.966H1.62zm12.498-.509c0 1.284-.314 2.27-.94 2.96-.627.69-1.525 1.035-2.695 1.035s-2.068-.345-2.695-1.035c-.627-.69-.94-1.68-.94-2.97 0-1.291.314-2.277.943-2.958.629-.68 1.53-1.021 2.703-1.021 1.173 0 2.07.343 2.692 1.029.621.686.932 1.673.932 2.96zm-5.573 0c0 .867.162 1.52.486 1.958.324.438.808.657 1.452.657 1.292 0 1.938-.871 1.938-2.615 0-1.747-.643-2.62-1.928-2.62-.644 0-1.13.22-1.457.66-.327.441-.49 1.094-.49 1.96zm14.086 0c0 1.284-.313 2.27-.94 2.96-.626.69-1.524 1.035-2.694 1.035s-2.069-.345-2.695-1.035c-.627-.69-.94-1.68-.94-2.97 0-1.291.314-2.277.943-2.958.629-.68 1.529-1.021 2.703-1.021 1.173 0 2.07.343 2.692 1.029.62.686.931 1.673.931 2.96zm-5.572 0c0 .867.161 1.52.486 1.958.323.438.807.657 1.451.657 1.292 0 1.938-.871 1.938-2.615 0-1.747-.643-2.62-1.928-2.62-.644 0-1.13.22-1.457.66-.327.441-.49 1.094-.49 1.96zm10.1 3.888H25.54v-6.386h-2.073v-1.37h5.766v1.37h-2.074v6.386zm7.755-2.153c0 .7-.247 1.252-.744 1.655-.496.403-1.186.605-2.07.605-.815 0-1.536-.156-2.162-.467v-1.528c.515.234.951.398 1.308.494.357.096.683.143.98.143.355 0 .627-.069.816-.206.19-.138.286-.343.286-.616a.69.69 0 00-.126-.406 1.405 1.405 0 00-.368-.342c-.162-.11-.492-.285-.99-.525-.466-.222-.816-.436-1.05-.642a2.405 2.405 0 01-.558-.715 2.07 2.07 0 01-.21-.955c0-.686.23-1.225.688-1.618.458-.393 1.09-.589 1.898-.589.397 0 .776.048 1.136.143.36.096.738.23 1.131.403l-.523 1.279a7.59 7.59 0 00-1.01-.356 3.202 3.202 0 00-.786-.1c-.307 0-.541.072-.705.217a.722.722 0 00-.246.568.71.71 0 00.1.379 1.1 1.1 0 00.315.313c.145.101.487.282 1.026.544.714.347 1.204.694 1.468 1.042.264.348.396.774.396 1.28zm4.33 2.153h-1.618v-6.386H35.55v-1.37h5.766v1.37h-2.073v6.386zm4.868-2.976v2.976h-1.619v-7.755h2.225c1.038 0 1.805.192 2.303.575.498.384.747.967.747 1.748 0 .457-.123.862-.37 1.218-.248.355-.598.633-1.05.835a306.692 306.692 0 002.246 3.379h-1.797l-1.823-2.976h-.862zm0-1.336h.523c.511 0 .89-.087 1.133-.26.244-.174.366-.446.366-.817 0-.368-.125-.63-.374-.786-.249-.155-.634-.233-1.157-.233h-.49v2.096zm10.117 4.312l-.554-1.846H50.89l-.554 1.846h-1.744l2.694-7.787h1.98l2.705 7.787h-1.743zm-.94-3.225c-.512-1.673-.8-2.619-.865-2.838a8.053 8.053 0 01-.139-.52c-.114.453-.443 1.572-.987 3.358h1.99zm8.92-2.111c0 .834-.257 1.473-.77 1.914-.514.443-1.244.664-2.191.664h-.695v2.758h-1.619v-7.755h2.44c.925 0 1.63.202 2.112.607.482.405.723 1.01.723 1.812zm-3.656 1.23h.533c.498 0 .87-.1 1.117-.3.248-.2.371-.49.371-.871 0-.386-.104-.671-.31-.855-.208-.184-.533-.276-.975-.276h-.736v2.303zM36.786 31.76c-1.132-.378-2.762-.44-4.89-.44H24.25v11.6h8.237c1.429 0 2.432-.145 3.01-.254a7.132 7.132 0 002.554-.972c.684-.431 1.246-1.084 1.687-1.91.44-.826.662-1.79.662-2.871 0-1.267-.32-2.309-.958-3.242-.638-.935-1.524-1.533-2.657-1.91zm-1.174-4.995c1.125-.34 1.973-.954 2.543-1.741.57-.787.855-1.8.855-2.99 0-1.126-.266-2.131-.798-2.989-.533-.857-1.293-1.439-2.28-1.755-.989-.316-2.684-.47-5.086-.47h-6.595v10.44h7.142c1.962 0 3.368-.231 4.22-.495zM61.37 8.193C61.37 3.668 57.757 0 53.302 0H8.906C4.45 0 .839 3.668.839 8.193v45.092c0 4.525 3.612 8.193 8.067 8.193h44.396c4.455 0 8.067-3.668 8.067-8.193V8.193zM43.992 41.335c-.66 1.367-1.478 2.42-2.45 3.162a10.279 10.279 0 01-3.66 1.797 21.397 21.397 0 01-5.394.684H19.683V12.76h12.6c2.554 0 4.602.36 6.145 1.046a7.962 7.962 0 013.627 3.18c.873 1.428 1.311 2.927 1.311 4.486 0 1.451-.388 2.82-1.163 4.101-.775 1.282-1.946 2.317-3.512 3.104 2.022.602 3.577 1.63 4.663 3.082 1.087 1.451 1.63 3.165 1.63 5.142 0 1.59-.33 3.068-.992 4.434z" fill="#5B4282"/></svg><svg viewBox="0 0 52 72" id="css3" xmlns="http://www.w3.org/2000/svg"><path d="M40.2 2.239h-4.287l4.459 4.838v2.304h-9.184V6.684h4.458l-4.458-4.839V-.46H40.2v2.699zm-10.833 0H25.08l4.459 4.838v2.304h-9.184V6.684h4.458l-4.458-4.839V-.46h9.012v2.699zm-10.727.11h-4.626v4.222h4.627v2.81h-7.916V-.46h7.915v2.81z" fill="#131313"/><path d="M4.65 66.195L0 13.935h51.097l-4.655 52.252L25.517 72 4.65 66.195z" fill="#1572B6"/><path d="M25.549 67.977l17.094-4.739 4.021-45.053H25.55v49.792z" fill="#33A9DC"/><path d="M25.548 37.289h8.558l.592-6.622h-9.15v-6.468h16.217l-.155 1.735-1.59 17.822H25.549v-6.467z" fill="#fff"/><path d="M25.587 54.085l-.028.008-7.203-1.945-.46-5.158h-6.492l.907 10.154 13.247 3.677.03-.008v-6.728z" fill="#EBEBEB"/><path d="M33.557 43.482l-.78 8.661-7.212 1.947v6.728l13.257-3.674.098-1.093 1.125-12.569h-6.488z" fill="#fff"/><path d="M25.57 24.2v6.466H9.95l-.13-1.453-.295-3.279L9.37 24.2h16.2zm-.022 13.09v6.467h-7.11l-.13-1.453-.295-3.28-.155-1.734h7.69z" fill="#EBEBEB"/></svg><svg fill="none" viewBox="0 0 20 16" id="email" xmlns="http://www.w3.org/2000/svg"><path fill-rule="evenodd" clip-rule="evenodd" d="M1.08 1h17.84v3.072L10 9.622l-8.92-5.55V1zM10 10.799l9.92-6.17V0H.08v4.628L10 10.8zm-9.948-3.6v8.728h19.896V7.2h-1v7.728H1.052V7.2h-1z" fill="#000"/></svg><svg viewBox="0 0 48 48" id="figma" xmlns="http://www.w3.org/2000/svg"><path d="M0 24C0 10.745 10.745 0 24 0s24 10.745 24 24-10.745 24-24 24S0 37.255 0 24z" fill="#333"/><path d="M19.2 38.4a4.8 4.8 0 004.8-4.8v-4.8h-4.8a4.8 4.8 0 000 9.6z" fill="#0ACF83"/><path d="M14.4 24a4.8 4.8 0 014.8-4.8H24v9.6h-4.8a4.8 4.8 0 01-4.8-4.8z" fill="#A259FF"/><path d="M14.4 14.4a4.8 4.8 0 014.8-4.8H24v9.6h-4.8a4.8 4.8 0 01-4.8-4.8z" fill="#F24E1E"/><path d="M24 9.6h4.8a4.8 4.8 0 110 9.6H24V9.6z" fill="#FF7262"/><path d="M33.6 24a4.8 4.8 0 11-9.6 0 4.8 4.8 0 019.6 0z" fill="#1ABCFE"/></svg><svg viewBox="0 0 158 72" id="flex" xmlns="http://www.w3.org/2000/svg"><path d="M13.395 6.61c4.71-.95 10.3-1.442 16.769-1.477 6.504-.07 12.234.668 17.191 2.215 1.23.351 2.514.861 3.85 1.529 1.371.633 2.39 1.564 3.059 2.795.703 1.371 1.054 3.568 1.054 6.592 0 3.023-1.283 4.447-3.85 4.271a8.102 8.102 0 01-2.161-.422 29.304 29.304 0 00-2.057-.738c-4.64-1.477-9.492-2.479-14.555-3.006-5.027-.527-9.756-.685-14.185-.474-.528 3.445-1.02 8.753-1.477 15.925 3.762.07 7.822.211 12.182.422s7.154.422 8.385.633c2.601.422 3.691 2.004 3.27 4.746-.388 2.742-1.003 4.588-1.847 5.537-1.09 1.23-4.06 1.916-8.912 2.057-4.851.105-9.175.035-12.972-.211.316 6.012 1.037 11.303 2.162 15.873.176.738.369 1.512.58 2.32.246.809.369 1.6.369 2.373-.07 1.442-.861 2.426-2.373 2.953-1.477.493-3.182.721-5.115.686-1.934-.035-3.34-.228-4.22-.58a14.923 14.923 0 01-2.478-1.266c-1.37-.808-2.373-1.986-3.005-3.533a30.777 30.777 0 01-1.372-4.482C1.055 58.57.65 55.072.475 50.853.299 46.6.316 42.24.527 37.775c.211-4.5.598-8.806 1.16-12.92.598-4.148 1.319-7.488 2.163-10.02.738-2.25 1.564-4.024 2.478-5.325C7.066 8.49 7.98 7.787 9.07 7.4a18.657 18.657 0 012.11-.421 48.449 48.449 0 002.215-.37zm55.898 10.124c-.738 7.243-1.002 15.205-.791 23.89.21 8.648 1.02 16.294 2.426 22.938.105.704.246 1.442.422 2.215.175.739.298 1.477.369 2.215 0 1.301-.457 2.25-1.371 2.848-.914.562-1.97.896-3.164 1.002a11.942 11.942 0 01-3.534-.317c-1.16-.28-1.986-.632-2.478-1.054-.914-.703-1.6-1.758-2.057-3.164a32.173 32.173 0 01-1.054-4.114c-.493-2.566-.88-5.835-1.16-9.808a277.252 277.252 0 01-.475-12.393 229.89 229.89 0 01.21-12.234c.176-3.902.475-7.049.897-9.44.352-2.25.791-4.007 1.319-5.273.421-1.055.949-1.775 1.582-2.162.773-.422 1.652-.668 2.636-.738 1.02-.106 1.934-.088 2.742.052 1.16.14 2.075.58 2.743 1.319.703.703.949 2.109.738 4.218zm15.926 37.073c.105.351.228.738.369 1.16.914 2.566 2.935 4.517 6.064 5.853 3.164 1.336 6.17 1.846 9.018 1.53 2.25-.176 4.5-1.442 6.75-3.797 2.285-2.356 5.221-2.215 8.806.422 1.583 1.02 1.442 2.636-.421 4.851-1.864 2.215-3.34 3.71-4.43 4.483-.738.527-1.494.984-2.268 1.37-2.039 1.055-4.095 1.688-6.17 1.9a32.275 32.275 0 01-6.117-.054 28.82 28.82 0 01-7.91-1.845 27.938 27.938 0 01-5.695-3.059c-1.793-1.265-3.375-2.83-4.746-4.693A28.449 28.449 0 0173.3 50.59c-1.371-6.399.21-11.742 4.746-16.031 2.285-2.18 4.851-3.797 7.7-4.852 2.882-1.09 6.31-1.898 10.282-2.426 3.973-.527 7.998.282 12.077 2.426 4.113 2.11 6.662 5.168 7.646 9.176.985 4.008 1.16 6.803.527 8.385-.632 1.582-1.723 2.584-3.269 3.005-1.512.422-10.776 1.6-27.791 3.534zm22.254-10.916c-1.477-3.235-4.149-4.729-8.016-4.483-3.867.211-6.873.703-9.018 1.477-2.144.773-3.726 2.46-4.746 5.062a7.183 7.183 0 00-.263.475l22.043-2.531zm20.777-12.604c2.391 4.078 5.818 8.965 10.284 14.66 4.359-6.117 7.329-11.338 8.911-15.662.633-1.617 1.424-2.478 2.373-2.584.985-.14 2.373.282 4.166 1.266 1.828.949 2.514 2.443 2.057 4.482.035 1.301-.194 2.813-.685 4.535-.493 1.934-1.39 4.325-2.69 7.172-1.301 2.813-3.392 6.188-6.275 10.125 2.39 2.18 4.71 4.026 6.96 5.537.493.352 1.002.704 1.53 1.055a6.832 6.832 0 011.424 1.16c.738.844.826 1.793.263 2.848-.527 1.055-1.037 1.81-1.53 2.267-.456.422-1.159.932-2.108 1.53-.949.562-1.758.896-2.426 1.002-1.16.21-2.32.035-3.48-.528a21.367 21.367 0 01-3.059-1.845c-1.196-.809-3.094-2.444-5.696-4.905-2.46 2.496-4.043 4.096-4.745 4.8a23.695 23.695 0 01-2.743 2.32c-1.019.738-2.127 1.107-3.322 1.107-.668 0-1.248-.14-1.74-.422-.457-.316-1.072-.756-1.846-1.318-.738-.563-1.476-1.301-2.214-2.215-.704-.95-.774-1.899-.212-2.848.316-.492.703-.95 1.16-1.37.493-.458.949-.897 1.371-1.32 1.899-1.863 3.868-4.095 5.907-6.697a111.987 111.987 0 01-5.96-7.752c-1.793-2.566-3.11-4.746-3.954-6.539a36.334 36.334 0 01-.897-2.056 10.35 10.35 0 01-.58-2.215c-.106-.984.018-1.846.369-2.584.493-.844.967-1.582 1.424-2.215.457-.633 1.107-1.213 1.951-1.74 1.161-.738 2.233-1.125 3.217-1.16.985-.07 1.916.633 2.795 2.11z" fill="#2642D6"/></svg><svg viewBox="0 0 27 34" id="footer-logo-htmlacademy" xmlns="http://www.w3.org/2000/svg"><path d="M13.643.016L13.5 0 0 1.407v24.606L13.5 34 27 26.013V1.407L13.643.016zm11.591 25L13.5 31.956 1.766 25.015V14.93l11.685 6.916.02 1.253-8.017-4.743-.011 1.225 8.046 4.809.02 1.286-8.045-4.758-.01 1.226L13.5 26.95l8.124-4.833V16.91l3.62-2.15-.01 10.256zm0-11.564l-3.22 1.88-1.482.875-7.065-4.187-.011 1.225 6.04 3.573-.053.031-.13.076-.86.492-4.986-2.948-.011 1.225 3.936 2.328-.933.61-.021.012-2.971-1.742-.011 1.225 1.947 1.135-1.988 1.186-11.618-6.872 11.638-6.958 11.8 6.834zm0-1.225L13.44 5.31 1.766 12.22V2.99L13.5 1.764 25.234 2.99v9.237z"/></svg><svg viewBox="0 0 20 20" id="github-icon" xmlns="http://www.w3.org/2000/svg"><path fill-rule="evenodd" clip-rule="evenodd" d="M10.113.236c-5.522 0-10 4.59-10 10.254 0 4.53 2.866 8.373 6.84 9.729.5.094.682-.223.682-.495 0-.243-.008-.888-.013-1.743-2.782.62-3.369-1.375-3.369-1.375-.455-1.184-1.11-1.5-1.11-1.5-.908-.636.068-.623.068-.623 1.004.073 1.532 1.057 1.532 1.057.892 1.566 2.34 1.114 2.91.852.091-.663.349-1.115.635-1.371-2.22-.259-4.555-1.139-4.555-5.067 0-1.12.39-2.035 1.03-2.752-.103-.26-.447-1.301.097-2.713 0 0 .84-.276 2.75 1.051a9.353 9.353 0 012.504-.345c.85.004 1.705.118 2.504.345 1.909-1.327 2.747-1.051 2.747-1.051.545 1.412.202 2.454.1 2.713.64.717 1.028 1.633 1.028 2.752 0 3.938-2.339 4.805-4.567 5.059.36.316.68.942.68 1.899 0 1.37-.013 2.476-.013 2.812 0 .275.18.594.688.494 3.97-1.36 6.833-5.2 6.833-9.728 0-5.663-4.478-10.254-10.001-10.254" fill="#943496"/></svg><svg viewBox="0 0 237 72" id="grid" xmlns="http://www.w3.org/2000/svg"><path d="M54.008 4.057c2.844.664 5.093 1.494 6.75 2.49 1.943 1.217 2.915 2.656 2.915 4.316 0 1.918-.162 3.356-.486 4.315-.324.922-.954 2.232-1.89 3.928-1.368 2.435-2.681 3.652-3.941 3.652-1.152 0-2.286-.184-3.402-.553a377.356 377.356 0 00-3.24-1.162c-2.195-.738-5.2-1.033-9.015-.885-3.816.11-7.397.94-10.744 2.49-3.348 1.549-6.21 3.965-8.585 7.247-2.376 3.283-2.556 8.724-.54 16.322 1.26 4.463 4.031 7.857 8.315 10.18 4.319 2.324 10.456 2.546 18.41.665-4.967-1.587-7.756-2.583-8.368-2.988-.828-.59-1.476-1.236-1.944-1.937a4.893 4.893 0 01-.81-1.936c-.324-1.992-.18-4.057.432-6.197.468-1.77 2.034-2.434 4.697-1.992 2.7.406 5.651 1.273 8.855 2.6a83.853 83.853 0 019.124 4.316c2.88 1.586 4.787 2.675 5.723 3.265 2.268 1.549 2.034 4.038-.702 7.469-2.7 3.393-4.84 5.68-6.424 6.86a27.81 27.81 0 01-3.348 2.103c-2.987 1.623-6.01 2.582-9.07 2.877-3.024.258-6.047.24-9.07-.055a39.567 39.567 0 01-11.5-2.822 38.13 38.13 0 01-8.423-4.703c-2.664-1.955-5.003-4.352-7.019-7.192-3.78-5.201-6.299-10.992-7.559-17.373-2.051-9.849.27-18.056 6.965-24.621 3.348-3.357 7.127-5.865 11.338-7.525 4.247-1.66 8.35-2.822 12.31-3.486a65.783 65.783 0 0110.15-.774c3.456 0 6.821.369 10.096 1.106zm16.521 15.05c.18-2.361.468-3.929.864-4.703.432-.812 1.854-1.937 4.266-3.375C82.1 7.229 89.552 5.09 98.01 4.61c8.495-.517 15.784 1.955 21.866 7.414 2.808 2.545 5.022 5.827 6.642 9.848 1.655 3.983 1.583 7.801-.217 11.453-.72 1.549-1.728 2.822-3.023 3.818a17.292 17.292 0 00-3.347 3.374c-.829 1.18-1.206 2.435-1.134 3.763.036.959.216 1.863.539 2.71a9.688 9.688 0 001.081 2.325 9.612 9.612 0 001.511 2.047c.648.7 1.296 1.31 1.944 1.825.54.443 1.277.996 2.214 1.66.503.332 1.295.83 2.375 1.494.36.258.738.498 1.134.72.432.22.846.46 1.242.719 1.043.59 1.817 1.032 2.321 1.328 1.548.995 1.8 2.25.756 3.762-.828 1.254-1.998 2.582-3.509 3.983-1.512 1.402-2.915 2.509-4.212 3.32-1.691 1.107-3.581 1.217-5.668.332-2.053-1.438-4.805-4.15-8.261-8.133-3.419-4.02-6.137-7.156-8.153-9.406-1.187-1.18-2.699-1.955-4.535-2.324-1.835-.405-3.473.074-4.913 1.439-1.548 1.475-2.177 4.15-1.89 8.023.324 3.836.666 6.713 1.026 8.63.18 1.181.036 1.956-.432 2.324-.432.332-1.133.554-2.105.664a16.948 16.948 0 01-3.348.111 15.675 15.675 0 00-2.97.055 29.376 29.376 0 01-2.429-.332c-.792-.184-1.475-.608-2.051-1.272-1.188-1.291-2.502-4.408-3.942-9.35-1.403-4.98-2.303-8.41-2.7-10.292l-.215-.995-.216-1.107c-.936-4.463-1.746-9.277-2.43-14.44-.684-5.201-.828-10.2-.432-14.994zm34.77-.277c-4.247-1.254-8.656-1.051-13.228.609-2.195.848-3.707 2.36-4.535 4.536-.468 1.291-.54 3.283-.216 5.976.36 2.692.954 4.537 1.782 5.533 1.764 2.028 4.247 2.913 7.45 2.655a44.84 44.84 0 004.752-.719 20.997 20.997 0 004.643-1.604c2.412-1.144 4.139-3.08 5.183-5.81 1.08-2.73.738-5.33-1.026-7.801-1.331-1.697-2.933-2.822-4.805-3.375zm30.559 42.99c.035-2.324 1.205-3.486 3.509-3.486.288 0 .989.037 2.106.11 1.151.038 1.925.056 2.322.056-.18-2.656-.325-6.75-.432-12.283 0-2.656.089-5.957.269-9.904.217-3.467.486-6.768.81-9.903.72-6.27 1.44-10.476 2.159-12.615-1.583-.147-2.537-.24-2.861-.277-.36-.036-1.602-.147-3.726-.332-.251 0-.611-.037-1.079-.11-.108 0-.396-.056-.864-.166-1.116-.222-1.89-.96-2.322-2.213-.395-1.033-.269-2.38.379-4.04.648-1.66 1.223-2.821 1.728-3.485.755-.885 2.375-1.512 4.858-1.881 2.341-.295 4.985-.387 7.937-.277 2.915.111 5.669.332 8.261.664 2.375.332 4.301.646 5.776.94.252.038.649.185 1.189.443.288.148.665.37 1.133.664l1.08.83c.18.148.522.443 1.026.886.216.22.755 2.028 1.619 5.422-.071 1.992-.791 3.08-2.16 3.264a25.497 25.497 0 01-4.102.221c-.72 0-1.98-.037-3.779-.11-.613 5.79-1.027 10.07-1.242 12.836-.252 2.692-.45 5.883-.594 9.571a103.646 103.646 0 000 9.461c.179 5.68.413 9.867.701 12.56 1.656.258 2.773.424 3.348.498l1.188.11c.432.038.81.056 1.133.056.54.074 1.188.147 1.944.221.288.037.54.092.756.166.215.037.414.056.593.056 1.081.258 1.873 1.014 2.376 2.268l-.54 4.869c-.432 1.401-.864 2.36-1.296 2.877-.719.885-2.339 1.512-4.859 1.881a28.93 28.93 0 01-3.779.332c-1.367 0-2.753-.018-4.157-.055-2.591-.037-5.363-.258-8.315-.664-2.231-.259-4.156-.553-5.776-.886-.54-.184-.918-.35-1.134-.497-.216-.074-.612-.295-1.188-.664a40.863 40.863 0 01-1.08-.83c.037.037-.288-.24-.971-.83-.217-.148-.613-1.033-1.189-2.656-.539-1.623-.791-2.656-.755-3.098zm40.06-55.218c.72-2.323 2.053-3.559 3.996-3.707a111.84 111.84 0 0117.222.443c5.759.553 11.501 2.36 17.223 5.422 6.443 3.504 11.591 8.004 15.442 13.5 3.275 4.722 5.363 9.904 6.263 15.547.575 4.02-.126 7.986-2.106 11.896-1.943 3.91-4.067 7.174-6.37 9.793-2.7 2.988-5.724 5.367-9.071 7.137-3.384 1.808-7.109 3.043-11.176 3.707-5.111.849-10.349 1.014-15.711.498a464.145 464.145 0 01-16.036-1.936c-1.655-.185-2.754-.683-3.293-1.494-.54-.812-.828-1.808-.863-2.988-.288-8.225-.18-18.074.323-29.545.54-11.508 1.926-20.932 4.157-28.273zm43.57 31.205c-.215-2.84-1.817-5.495-4.804-7.967a39.492 39.492 0 00-3.834-2.545c-4.174-2.213-8.458-3.615-12.85-4.205a17.037 17.037 0 00-3.293-.221c-1.187.11-2.195.553-3.023 1.328-.396.369-.774 1.77-1.134 4.205-.36 2.434-.666 5.108-.918 8.022-.252 2.877-.414 5.57-.486 8.078-.072 2.508 0 3.984.216 4.426.108.295.252.517.432.664 1.836.996 3.887 1.752 6.155 2.269 2.231.48 4.409.664 6.533.553 2.807-.11 5.849-.664 9.124-1.66 3.312-1.033 5.507-2.932 6.587-5.699.936-2.36 1.368-4.776 1.295-7.248z" fill="#9D4B45"/></svg><svg viewBox="0 0 36 72" id="gulp" xmlns="http://www.w3.org/2000/svg"><path d="M17.85 56.816a39.489 39.489 0 01-9.045-1.01 17.42 17.42 0 01-2.587-.8l2.09 3.571.818 11.16c0 1.253 3.975 2.265 8.877 2.265 4.9 0 8.876-1.012 8.876-2.265l.648-11.28 1.977-3.462c-.847.339-1.72.61-2.61.81-2.965.684-6 1.024-9.043 1.01zm11.721-36.314A88.153 88.153 0 0118 21.173a88.155 88.155 0 01-11.571-.671c-1.22-.148-2.424-.4-3.6-.751a5.213 5.213 0 01-.888-.368L3.857 37.03a17.248 17.248 0 011.07-2.728c.288-.58.611-1.14.967-1.68.335-.51.706-.997 1.11-1.455.367-.419.771-.802 1.21-1.145a5.745 5.745 0 011.251-.748c.396-.17.822-.257 1.253-.257.488.003.966.138 1.383.39.507.322.934.755 1.25 1.266.084.118.142.253.17.396.023.124.035.251.036.378.013.237-.058.471-.201.66a.602.602 0 01-.476.243.609.609 0 01-.468-.258 5.041 5.041 0 01-.483-.758 1.83 1.83 0 00-.553-.646 1.165 1.165 0 00-.656-.2c-.43.023-.841.182-1.175.455a6.817 6.817 0 00-1.237 1.203c-.436.54-.829 1.112-1.175 1.713a17.845 17.845 0 00-.992 1.972c-.279.645-.508 1.311-.687 1.99a7.073 7.073 0 00-.257 1.762c0 .179.013.357.036.535.02.172.065.34.134.499a1 1 0 00.257.367c.12.099.271.15.427.144.232-.01.46-.078.66-.195.273-.147.531-.32.772-.514.279-.224.545-.464.797-.718a12.859 12.859 0 001.358-1.597 4.66 4.66 0 00.4-.655l.731-2.186c.06-.204.183-.383.35-.514a.77.77 0 01.445-.15.68.68 0 01.218.037.539.539 0 01.335.321.772.772 0 01.051.293c.001.282-.025.562-.08.838-.051.261-.118.519-.2.772-.08.248-.17.498-.27.748s-.197.513-.29.787a1.777 1.777 0 00-.114.293l-.2.62c-.08.242-.165.52-.258.833l-.283.939c-.097.318-.19.631-.277.938-.088.307-.167.585-.24.833l-.177.623c-.046.167-.077.257-.087.298a2.197 2.197 0 01-.33.674c-.072.097-.159.184-.257.257a.479.479 0 01-.29.108.41.41 0 01-.365-.167 1.17 1.17 0 01-.113-.615v-.131a1.319 1.319 0 010-.139 3.29 3.29 0 01.149-.558c.073-.273.16-.581.257-.926.098-.344.207-.7.329-1.07l.319-.99c-.278.31-.579.62-.903.926a9.744 9.744 0 01-.997.828 5.939 5.939 0 01-1.029.6 2.44 2.44 0 01-.998.23 1.79 1.79 0 01-.946-.24c-.049-.03-.093-.063-.136-.096l1.067 11.19c.278.698 5.508 2.408 12.407 2.408 6.9 0 12.134-1.713 12.407-2.41l1.543-13.304-.368.34a16.1 16.1 0 01-1.244 1.053 5.624 5.624 0 01-1.142.684 2.975 2.975 0 01-1.193.242 1.448 1.448 0 01-.923-.257.867.867 0 01-.327-.715v-.07a.461.461 0 010-.079c.037-.229.12-.448.244-.643.156-.261.328-.513.515-.753.198-.261.41-.525.635-.792.224-.268.433-.52.625-.759.17-.21.33-.428.475-.656a.986.986 0 00.188-.483.218.218 0 00-.08-.177.41.41 0 00-.257-.065 1.47 1.47 0 00-.648.162c-.237.118-.46.265-.66.437-.228.193-.44.403-.636.628a9.28 9.28 0 00-1.075 1.507c-.149.26-.276.498-.38.712l-.134.288c-.058.123-.12.263-.188.42-.066.155-.138.314-.216.477-.075.172-.144.327-.208.466l-.17.39c-.05.115-.084.194-.105.237-.02.043-.063.148-.129.317-.06.154-.129.335-.208.545l-.257.655-.244.651-.2.54c-.057.154-.096.257-.111.316-.051.156-.113.308-.186.455a1.884 1.884 0 01-.244.378 1.112 1.112 0 01-.314.258.803.803 0 01-.396.097.774.774 0 01-.468-.133.606.606 0 01-.185-.515c0-.128.016-.256.047-.38.031-.131.07-.26.118-.386a5.65 5.65 0 01.146-.373c.052-.116.096-.236.137-.35.283-.62.57-1.242.864-1.864.293-.622.574-1.24.843-1.851.057-.129.108-.257.162-.378l-.049.049c-.323.311-.667.601-1.028.869-.313.235-.65.436-1.006.599a2.376 2.376 0 01-.97.224 1.257 1.257 0 01-.537-.103.9.9 0 01-.344-.278 1.115 1.115 0 01-.185-.42c0-.053-.02-.112-.029-.169a9.652 9.652 0 01-.277.208c-.301.216-.622.4-.96.553a2.123 2.123 0 01-.848.209.803.803 0 01-.612-.258 1.24 1.24 0 01-.234-.856c.006-.335.049-.669.126-.995-.15.26-.322.506-.514.735a4.487 4.487 0 01-.7.68 3.505 3.505 0 01-.88.496c-.337.129-.697.193-1.059.19-.168 0-.336-.021-.498-.064a1.05 1.05 0 01-.42-.224 1.124 1.124 0 01-.29-.424 1.746 1.746 0 01-.11-.666s0-.1.03-.283c.046-.293.113-.582.2-.864.114-.395.285-.909.515-1.543.23-.635.562-1.394.998-2.278.08-.202.211-.38.38-.515a.79.79 0 01.697-.12.73.73 0 01.221.102.549.549 0 01.165.178.481.481 0 01.062.257c0 .06-.008.12-.024.177a2.125 2.125 0 01-.17.414c-.085.172-.186.367-.303.587-.116.219-.238.456-.365.712-.128.253-.248.517-.357.79-.11.271-.204.55-.283.832a3.599 3.599 0 00-.134.823c0 .107.027.213.08.306a.275.275 0 00.257.14c.352-.005.694-.122.975-.335.322-.237.61-.517.856-.833.265-.337.502-.695.71-1.07.212-.38.389-.73.53-1.047.1-.22.186-.447.256-.678.074-.228.16-.45.258-.669a2.05 2.05 0 01.306-.514.543.543 0 01.432-.206.532.532 0 01.447.213c.112.148.17.33.165.515-.01.158-.046.313-.106.46a18.985 18.985 0 01-.607 1.473 15.76 15.76 0 00-.35.87c-.1.283-.186.571-.257.864a3.235 3.235 0 00-.105.786.3.3 0 00.345.335c.21-.013.416-.07.604-.167.269-.13.523-.287.758-.471.067-.051.134-.103.198-.157.067-.286.153-.567.258-.84.183-.484.369-.965.558-1.443l.514-1.312 2.378-5.999c.068-.208.201-.389.381-.514a.906.906 0 01.483-.15c.162 0 .318.056.443.158a.61.61 0 01.2.514c-.002.12-.024.24-.067.352-.05.136-.106.27-.17.401a112.333 112.333 0 00-1.05 2.445c-.206.496-.418 1.01-.634 1.544l-.635 1.566c-.205.514-.4.995-.58 1.445l-.469 1.185c-.065.163-.121.33-.17.499a1.83 1.83 0 00-.082.514.456.456 0 00.046.224.187.187 0 00.18.085c.144-.01.284-.049.412-.116a4.28 4.28 0 00.535-.306c.192-.127.39-.272.596-.437.206-.165.412-.336.617-.514.204-.172.4-.348.587-.53l.499-.489a.35.35 0 01.12-.08c.088-.256.17-.514.24-.77l.172-.476c.075-.206.161-.408.257-.605.086-.183.193-.356.319-.514A.498.498 0 0126.19 36a.616.616 0 01.455.144.578.578 0 01.142.424 1.58 1.58 0 01-.016.178c0 .08-.023.167-.038.257-.016.09-.034.175-.052.257-.012.06-.03.12-.051.177.193-.21.403-.42.627-.627a6.45 6.45 0 01.7-.563 4.04 4.04 0 01.738-.409c.238-.102.494-.156.753-.157.174 0 .347.025.514.075.163.046.317.12.455.218.134.096.245.22.327.363a.996.996 0 01.126.514c-.006.282-.072.56-.193.815a5.889 5.889 0 01-.483.87c-.194.29-.403.574-.628.85-.224.276-.435.528-.632.754l-.497.576a.868.868 0 00-.208.321.258.258 0 00.072.183.33.33 0 00.237.07.908.908 0 00.393-.15c.253-.155.495-.327.725-.514.312-.245.707-.573 1.186-.985.329-.283.712-.62 1.146-1.003l2.078-19.234c-.283.15-.58.273-.887.368-1.18.345-2.386.59-3.608.73zM18 15.942c-8.98 0-16.257 1.004-16.257 2.243 0 1.24 7.257 2.237 16.257 2.237 9 0 16.257-1.003 16.257-2.242 0-1.24-7.288-2.237-16.257-2.237zm6.49 2.899c0 .29-.864.514-1.93.514-1.068 0-1.932-.236-1.932-.514s.864-.515 1.931-.515c1.067 0 1.924.219 1.924.51l.007.005z" fill="#DA4648"/><path d="M21.009 18.602a.087.087 0 00-.016.046c0 .188.697.34 1.543.34s1.543-.152 1.543-.34l2.031-8.229 8.08-8.53c.17-.192-.175-.791-.751-1.305-.576-.515-1.198-.687-1.391-.492l-8.591 9.06-2.448 9.45z" fill="#DA4648"/></svg><svg viewBox="0 0 52 72" id="html5" xmlns="http://www.w3.org/2000/svg"><path d="M4.65 66.196L0 13.936h51.097l-4.655 52.252L25.517 72 4.65 66.196z" fill="#E44D26"/><path d="M25.548 67.764l16.98-4.708 3.996-44.754H25.548v49.462z" fill="#F16529"/><path d="M25.548 37.73h-8.5l-.587-6.58h9.087v-6.424H9.44l.153 1.724 1.58 17.703h14.375v-6.424zm0 16.683l-.028.007-7.154-1.932-.458-5.123H11.46l.9 10.087 13.16 3.653.03-.008v-6.684z" fill="#EBEBEB"/><path d="M4.665-.217h3.264V3.01h2.987V-.217h3.265v9.768h-3.265v-3.27H7.93v3.27H4.665V-.217zm13.809 3.24H15.6v-3.24h9.014v3.24H21.74V9.55h-3.265V3.023zm7.57-3.24h3.405l2.094 3.433 2.092-3.433h3.406v9.768h-3.253V4.71l-2.245 3.472h-.057L29.24 4.71V9.55h-3.195V-.217zm12.622 0h3.265v6.54h4.592v3.229h-7.857V-.217z"/><path d="M25.526 37.73v6.423h7.911l-.745 8.331-7.166 1.935v6.683l13.17-3.65.097-1.086 1.51-16.912.156-1.725H25.526zm0-13.004v6.424h15.518l.128-1.444.294-3.256.154-1.724H25.526z" fill="#fff"/></svg><svg viewBox="0 0 322 72" id="javascript" xmlns="http://www.w3.org/2000/svg"><path d="M10.32 48.053c0-2.592-.887-4.461-2.66-5.563-1.747-1.102-4.3-1.653-7.661-1.653v-9.648c1.666 0 3.144-.12 4.435-.363 1.317-.268 2.419-.685 3.306-1.25a5.403 5.403 0 001.976-2.258c.456-.914.658-2.016.604-3.305v-12.82c0-1.987.255-3.682.766-5.079.512-1.44 1.44-2.58 2.742-3.467 1.344-.913 3.158-1.584 5.444-2.016C21.556.199 24.456 0 27.979 0v9.072c-.986.021-1.97.115-2.943.282-.86.163-1.584.457-2.218.887a4.028 4.028 0 00-1.37 1.694c-.323.726-.485 1.666-.485 2.822V26.81c-.16 5.04-3.306 8.01-9.432 8.95v.483c3.09.457 5.472 1.44 7.095 2.903 1.623 1.463 2.42 3.48 2.339 6.005v12.053c0 1.156.161 2.097.484 2.822.322.726.777 1.29 1.37 1.694.62.432 1.359.726 2.218.887.887.163 1.868.255 2.944.282V72c-3.521 0-6.423-.216-8.708-.645-2.285-.43-4.098-1.102-5.443-2.016-1.318-.887-2.232-2.045-2.742-3.468-.51-1.422-.766-3.13-.766-5.119v-12.7h-.002zm301.019 12.7c0 1.986-.254 3.694-.766 5.118-.511 1.425-1.44 2.58-2.782 3.468-1.317.913-3.117 1.584-5.4 2.016-2.282.432-5.175.645-8.71.645v-9.11c1.075-.033 2.042-.123 2.903-.283.861-.16 1.584-.457 2.177-.887.619-.403 1.089-.968 1.411-1.694.35-.725.524-1.666.524-2.822V45.151c-.08-2.526.699-4.529 2.339-6.005 1.64-1.476 3.992-2.445 7.056-2.903v-.483c-6.101-.94-9.216-3.924-9.393-8.95V14.757c0-1.155-.173-2.096-.524-2.822a3.823 3.823 0 00-1.411-1.694c-.576-.429-1.318-.725-2.178-.887a18.387 18.387 0 00-2.903-.282V0c3.521 0 6.423.216 8.708.645 2.285.43 4.085 1.102 5.4 2.016 1.343.887 2.271 2.042 2.782 3.468.511 1.396.766 3.09.766 5.079v12.82c-.029 1.29.173 2.39.605 3.305.432.914 1.088 1.666 1.976 2.258.887.564 1.975.979 3.265 1.25 1.318.241 2.808.362 4.476.362v9.648c-3.36 0-5.926.55-7.7 1.654-1.746 1.101-2.621 2.956-2.621 5.562v12.701" fill="#558"/><path d="M45.223 63.25c-.916 0-1.728-.063-2.399-.19-.682-.109-1.276-.26-1.778-.459v-4.31c.646.17 1.304.296 1.967.378.75.111 1.506.166 2.264.162.673 0 1.344-.09 1.994-.269a4.422 4.422 0 001.833-.916c.557-.45 1.008-1.068 1.348-1.872.34-.803.513-1.797.513-3.018V13.358h5.04v38.87c0 1.873-.27 3.522-.807 4.906-.521 1.382-1.257 2.524-2.21 3.422-.936.916-2.067 1.59-3.396 2.022-1.296.45-3.102.674-4.701.674l.332-.003zm35.83-14.578h-.216a18.347 18.347 0 01-1.778 2.103 8.71 8.71 0 01-1.94 1.428 8.66 8.66 0 01-2.344.835c-.861.18-1.872.27-2.991.27-1.238 0-2.38-.182-3.423-.54a7.257 7.257 0 01-2.722-1.589c-.754-.72-1.347-1.653-1.778-2.736-.432-1.113-.648-2.425-.648-3.934 0-2.946 1.033-5.21 3.099-6.79 2.084-1.582 5.246-2.445 9.485-2.589l4.958-.19v-1.872c0-1.203-.135-2.21-.403-3.018-.252-.806-.63-1.44-1.132-1.94-.485-.504-1.094-.864-1.833-1.08-.72-.216-1.545-.322-2.48-.322a13.106 13.106 0 00-4.177.646 26.75 26.75 0 00-3.692 1.563l-1.725-3.692c1.329-.72 2.81-1.33 4.446-1.834a17.407 17.407 0 015.147-.754c1.833 0 3.413.19 4.743.566 1.348.36 2.453.943 3.315 1.75.864.793 1.537 1.807 1.967 3.047.43 1.24.648 2.74.648 4.5v20.265h-3.54l-.986-4.093zm-8.003.66a8.853 8.853 0 003.045-.513 6.67 6.67 0 002.425-1.537c.683-.7 1.213-1.572 1.59-2.613.395-1.06.593-2.3.593-3.72v-2.668l-3.853.19c-1.617.072-2.974.252-4.07.539-1.095.286-1.975.69-2.64 1.212a4.306 4.306 0 00-1.402 1.86c-.288.72-.432 1.536-.432 2.452 0 1.653.432 2.88 1.294 3.637.864.773 2.016 1.16 3.448 1.16h.002zM89.695 23.18h5.066l5.362 16.463.701 2.304.807 2.857.727 2.736.458 1.967h.187l.458-1.967.727-2.736.807-2.857.701-2.304 5.363-16.465h5.065l-10.105 29.59h-6.227L89.695 23.18zm46.471 25.492h-.216a18.346 18.346 0 01-1.778 2.103 8.696 8.696 0 01-1.94 1.428 8.655 8.655 0 01-2.344.835c-.861.18-1.872.27-2.991.27-1.238 0-2.38-.182-3.423-.54a7.254 7.254 0 01-2.721-1.589c-.755-.72-1.348-1.653-1.779-2.736-.432-1.113-.648-2.425-.648-3.934 0-2.946 1.033-5.21 3.099-6.79 2.084-1.582 5.246-2.445 9.485-2.589l4.958-.19v-1.872c0-1.203-.135-2.21-.403-3.018-.252-.806-.629-1.44-1.132-1.94-.485-.504-1.094-.864-1.833-1.08-.72-.216-1.545-.322-2.48-.322a13.103 13.103 0 00-4.177.646c-1.276.432-2.506.95-3.692 1.563l-1.725-3.692c1.329-.72 2.811-1.33 4.447-1.834a17.402 17.402 0 015.146-.754c1.833 0 3.413.19 4.743.566 1.348.36 2.453.943 3.315 1.75.864.793 1.537 1.807 1.967 3.047.431 1.24.648 2.74.648 4.5v20.265h-3.528l-.998-4.093zm-8.003.673a8.85 8.85 0 003.045-.513 6.668 6.668 0 002.425-1.537c.683-.7 1.213-1.572 1.59-2.613.395-1.06.593-2.3.593-3.72v-2.668l-3.853.19c-1.617.072-2.974.252-4.069.539-1.096.286-1.976.69-2.641 1.212a4.3 4.3 0 00-1.401 1.86c-.288.72-.432 1.536-.432 2.452 0 1.653.432 2.88 1.293 3.637.864.773 2.016 1.16 3.448 1.16h.002zm42.758-7.115c0 1.728-.314 3.304-.943 4.688a9.492 9.492 0 01-2.641 3.476c-1.149.952-2.552 1.68-4.205 2.183-1.653.486-3.514.728-5.579.728-1.994 0-3.862-.163-5.604-.486-1.725-.306-3.171-.763-4.339-1.375V46.65l2.074.864 2.479.727 2.669.539c.907.125 1.82.189 2.736.19 2.874 0 4.994-.539 6.359-1.617 1.382-1.08 2.073-2.624 2.073-4.637 0-.97-.135-1.815-.403-2.535-.252-.72-.71-1.373-1.374-1.967-.648-.61-1.517-1.195-2.613-1.75-1.095-.577-2.48-1.196-4.15-1.873-1.584-.629-2.991-1.296-4.176-2.047-1.152-.755-2.139-1.584-2.909-2.535a9.733 9.733 0 01-1.699-3.18c-.36-1.184-.539-2.534-.539-4.041 0-1.581.288-2.991.864-4.231a8.638 8.638 0 012.425-3.125c1.043-.864 2.281-1.518 3.718-1.967 1.437-.45 3.053-.674 4.795-.674 2.139 0 4.061.206 5.768.62 1.706.394 3.225.907 4.554 1.536l-1.805 4.205c-1.152-.522-2.497-.97-3.989-1.348a17.626 17.626 0 00-4.579-.593c-2.192 0-3.888.512-5.094 1.536-1.204 1.008-1.806 2.372-1.806 4.095 0 1.008.136 1.916.404 2.669.269.737.72 1.41 1.348 2.021.629.594 1.44 1.16 2.479 1.7a45.057 45.057 0 003.826 1.67c1.635.648 3.063 1.296 4.284 1.994 1.239.683 2.273 1.44 3.099 2.304a8.475 8.475 0 011.859 2.991c.432 1.132.66 2.52.66 4.067l-.026-.027zm18.26 11.046c-1.814 0-3.513-.28-5.093-.835a10.699 10.699 0 01-4.123-2.695c-1.152-1.238-2.083-2.81-2.736-4.716-.665-1.922-.996-4.23-.996-6.912 0-2.822.341-5.21 1.008-7.168.683-1.976 1.617-3.575 2.802-4.795 1.204-1.239 2.592-2.139 4.205-2.693 1.613-.554 3.315-.835 5.147-.835a18.27 18.27 0 014.095.458c1.348.306 2.47.682 3.37 1.132l-1.44 4.15a14.62 14.62 0 00-1.374-.513 13.277 13.277 0 00-1.563-.458 13.102 13.102 0 00-1.589-.324 8.826 8.826 0 00-1.484-.135c-2.822 0-4.877.907-6.17 2.736-1.293 1.796-1.94 4.6-1.94 8.407 0 3.791.648 6.566 1.94 8.327 1.296 1.728 3.312 2.614 5.956 2.614 1.44 0 2.765-.163 3.934-.486 1.185-.34 2.264-.72 3.234-1.185v4.366c-.986.527-2.037.926-3.126 1.185-1.094.27-2.516.404-4.114.404l.057-.03zm26.723-30.638l1.751.08a12.5 12.5 0 011.67.19l-.648 4.527-1.562-.216a10.873 10.873 0 00-1.484-.108c-1.131 0-2.164.233-3.099.701-.936.45-1.728 1.105-2.424 1.967-.666.844-1.186 1.87-1.563 3.072-.36 1.185-.538 2.505-.538 3.96v15.952h-4.905V23.181h3.989l.593 5.415h.216l1.428-2.237a10.168 10.168 0 011.726-1.872c.642-.554 1.37-1 2.155-1.32.792-.341 1.771-.513 2.779-.513M229.69 52.767h-4.906V23.178h4.905v29.59h.001zm-4.474-39.951c.557-.485 1.238-.727 2.048-.727.394 0 .763.062 1.104.19.346.1.661.285.916.539.269.252.475.575.619.97.161.377.242.835.242 1.374 0 1.042-.288 1.823-.864 2.344-.557.504-1.231.755-2.022.755-.806 0-1.512-.38-2.069-.882-.538-.504-.792-1.284-.792-2.282.003-1.015.274-1.796.812-2.281h.006zM252.181 53.306c-1.059 0-2.021-.115-2.883-.35a11.06 11.06 0 01-2.344-.916 9.412 9.412 0 01-1.833-1.375 13.293 13.293 0 01-1.401-1.643h-.324l.161 1.75.108 1.44.053 1.16v12.639h-4.904V23.178h3.989l.701 3.989h.216c.412-.626.88-1.213 1.401-1.751a7.823 7.823 0 011.806-1.429 9.467 9.467 0 012.344-.97c.864-.252 1.833-.377 2.909-.377 1.689 0 3.226.323 4.608.97a9.299 9.299 0 013.529 2.91c.988 1.276 1.751 2.88 2.304 4.77.553 1.889.807 4.114.807 6.63 0 2.534-.27 4.76-.807 6.681-.538 1.904-1.303 3.504-2.304 4.795-.97 1.293-2.16 2.273-3.528 2.938-1.382.648-3.26.97-4.947.97l.339.002zm-.944-26.598c-1.365 0-2.525.206-3.476.619a5.447 5.447 0 00-2.291 1.886c-.576.844-1.008 1.895-1.294 3.168-.269 1.257-.422 2.739-.458 4.447v1.104c0 1.815.116 3.432.35 4.85.252 1.401.666 2.588 1.239 3.557a5.947 5.947 0 002.344 2.183c.971.485 2.183.727 3.638.727 2.425 0 4.204-.979 5.335-2.937 1.149-1.959 1.725-4.77 1.725-8.434 0-3.737-.576-6.53-1.725-8.381-1.132-1.85-2.929-2.775-5.39-2.775l.003-.015zm28.555 22.583c.324 0 .682-.029 1.08-.055l1.185-.135 1.008-.19.727-.19v3.72a6.83 6.83 0 01-.89.323c-.36.108-.754.196-1.185.27-.445.09-.895.154-1.348.19-.456.053-.914.08-1.373.079a10.68 10.68 0 01-3.099-.432 5.844 5.844 0 01-2.48-1.482c-.683-.701-1.221-1.642-1.617-2.83-.395-1.203-.593-2.712-.593-4.527V26.867h-4.176v-2.183l4.176-2.102 2.102-6.198h2.83v6.791h7.437v3.692h-7.437v17.165c0 1.728.278 3.053.835 3.934.576.864 1.509 1.32 2.802 1.32"/></svg><svg viewBox="0 0 257 72" id="jquery" xmlns="http://www.w3.org/2000/svg"><path d="M73.015 28.132v-.004l-2.042 7.234 2.04-7.234.002.004zm10.5 15.707l-2.25-.014 2.25.014zm-.58 10.806h.002l-13.477.05 13.477-.05h-.002zm2.826-10.793l-2.25-.013 2.25.014zm-1.645 9.873l2.348-8.955-2.348 8.955zm49.626-41.234l-4.374 20.562 4.374-20.562zm-11.243 0l-3.319 15.36 3.319-15.36z" fill="#131B28"/><path d="M132.993 11.565h-9.352c-.518 0-1.035.416-1.145.923L115.855 43.2a1.23 1.23 0 01-1.143.921h-6.622c-6.547 0-5.791-4.529-4.45-10.736l.04-.187.794-4.23.342-1.74 3.02-14.737c.104-.509-.225-.926-.754-.926h-9.6c-.518 0-1.033.416-1.14.925l-4.126 19.572-.195.925c-2.378 10.854-1.748 21.206 11.174 21.53l.375.007h20.284a1.227 1.227 0 001.14-.925l8.748-41.12a.727.727 0 00-.136-.655.733.733 0 00-.612-.27l-.001.011zm37.31 32.676c.519 0 .859.416.753.924l-.909 4.438.156-5.362zm-1.06 9.804l.908-4.442-.909 4.444.001-.002zm-1.139.934l-17.235.083 17.235-.083z" fill="#131B28"/><path d="M145.289 38.523c-.008-.486.546-1.323 1.066-1.323l-1.168-.019c-.527 5.293.112 1.344.112 1.344l-.01-.002zm6.432 16.538l-.18.001.18-.001zm18.582-10.82c.519 0 .859.416.753.924l-1.057 5.175.304-6.1zm-14.142 10.821h-.038.038zm-2.308-.005h-.133.133zm-.701.003h-.221.221zm-.712 0h-.194.194zm1.28-.003h-.567.567zM156.112 55.05l-2.257.009 2.257-.008zm11.997-.071l-11.965.073 11.965-.073zm1.134-.932l.76-3.719-.761 3.721.001-.002zm-16.311 1.013h-.495.495zm-1.395.002h-.667.667zm.707-.001h-.527.527zM15.435 38.635l1.463-6.44-1.661 7.362-1.594 7.498 1.397-6.573.405-1.847h-.01zm17.39-27.178H22.552a1.248 1.248 0 00-1.154.92l-1.947 8.599a.721.721 0 00.736.92h10.35a1.237 1.237 0 001.148-.923l1.882-8.595c.11-.506-.223-.922-.743-.922v.001zm-2.225 14.3v-.001l-3.013 13.936L30.6 25.757zM.751 71.932l8.47.068c-2.825-.009-5.65-.032-8.474-.069l.004.002zm17.59-46.177l-1.466 6.44 1.455-6.44h.01z" fill="#131B28"/><path d="M29.846 24.833H19.494c-.517 0-1.038.417-1.152.923l-2.907 12.881-.405 1.847-2.793 13.147c-.137.614-.303 1.22-.499 1.818 0 0-1.935 5.754-5.175 5.69l-3.233-.052a1.237 1.237 0 00-1.161.902l-2.146 9.01a.72.72 0 00.72.929l8.474.068c8.123 0 12.402-4.5 15.146-17.438L30.6 25.762c.11-.506-.225-.922-.745-.922l-.009-.007zm147.052 29.703a.73.73 0 01-.747-.925l7.787-36.477" fill="#131B28"/><path d="M187.721 53.61l3.15-15.57-3.15 15.57zm-11.456.463c-.063-.254-.026-.877.084-1.386l3.696-17.325-3.893 18.225a.735.735 0 00.746.925h.945c-.519 0-1.515-.208-1.578-.45v.011zM187.107 54.337c-.282.115-.94.209-1.46.209h.945c.518 0 1.03-.417 1.132-.926l.188-.925c-.103.508-.522 1.53-.805 1.642zm2.191-8.5l1.391-6.872-1.391 6.872zM220.025 19.578l.428 1.772c.118.506-.21.92-.728.92l.3-2.692zm-32.116 33.106l1.386-6.86-1.386 6.86zM219.6 17.775l.424 1.816-.424-1.816zm-28.913 21.19l.383-1.836 1.485-6.955-1.682 7.88-.186.913v-.002z" fill="#131B28"/><path d="M184.067 16.538l-.323 1.52-3.696 17.325 4.019-18.834v-.011zm36.385 4.814l-.428-1.771-.639-2.734c-.84-3.267-3.307-5.153-8.668-5.153l-8.344-.009-7.684-.009h-8.647a1.222 1.222 0 00-1.139.923l-.96 4.538-7.589 35.552c-.11.509-.146 1.132-.084 1.386.061.255 1.057.45 1.578.45h7.801c.519 0 1.176-.093 1.459-.208.282-.114.702-1.134.805-1.642l2.962-14.643 3.167-14.85a1.225 1.225 0 011.14-.92l24.544-.012c.517 0 .846-.413.728-.92l-.002.023zm31.596-16.027l-1.89.006h-7.856a2.014 2.014 0 00-1.478.78l-17.37 25.45c-.292.43-.628.365-.742-.14l-1.278-5.607a1.25 1.25 0 00-1.155-.92h-11.167c-.52 0-.827.407-.675.907l5.004 17.53c.143.599.152 1.221.024 1.823l-2.182 8.485c-.13.504.191.916.709.916h11.025c.517 0 1.049-.412 1.177-.916l2.183-8.485c.128-.503.49-1.254.803-1.67l28.195-37.431c.313-.417.144-.754-.376-.749l-2.959.02h.008zM163.323 27.28c-.068.554-.585.968-1.105.968h-14.159c-.489 0-.738-.333-.666-.743.005-.011.006-.022.014-.034-.006-.01-.006-.027-.002-.042l.066-.241c1.352-3.596 4.106-5.955 9.283-5.955 5.828 0 6.966 2.847 6.57 6.05l-.001-.003zm-4.154-16.343c-18.174 0-22.48 11.032-24.896 22.166-2.416 11.348-2.208 21.96 16.599 21.96H152.934l.22-.002.7-.001 2.295-.008 11.965-.073a1.226 1.226 0 001.128-.928l1.818-8.884a.733.733 0 00-.754-.925h-16.909c-6.724 0-8.721-1.8-7.985-7.04h27.027a1.15 1.15 0 001.012-.698.972.972 0 00.066-.236c4.009-15.135 2.857-25.328-14.333-25.328l-.015-.003zM73.271 27.223l-4.337 15.37a1.328 1.328 0 01-1.201.908H56.93c-8.194 0-10.19-6.407-8.194-15.86 1.995-9.668 5.907-15.678 13.97-16.286 11.021-.833 13.225 6.918 10.575 15.867h-.01zm7.408 15.724s5.093-12.375 6.25-19.508C88.504 13.877 83.718.011 65.228.011c-18.385 0-26.37 13.24-29.416 27.63-3.046 14.496.945 27.21 19.238 27.105l27.9-.113a1.305 1.305 0 001.182-.918l2.348-8.955a.698.698 0 00-.706-.919l-4.5-.027c-.442-.003-.694-.288-.64-.667a.89.89 0 01.054-.211l-.009.01zm91.013-8.277a.617.617 0 01-.62.62.62.62 0 11.62-.62z" fill="#131B28"/></svg><svg viewBox="0 0 152 72" id="less" xmlns="http://www.w3.org/2000/svg"><path fill-rule="evenodd" clip-rule="evenodd" d="M145.561 29.562c-.72-1.559-1.068-3.403-1.142-5.14-.185-4.273-.028-8.562-.221-12.835-.173-3.827-1.538-7.275-5.213-9.248C135.75.602 132 .429 128.4.389v6.829c1.2.04.905.078 1.198.094 4.834.237 6.454 1.77 6.516 6.567.045 3.567.014 7.135.072 10.7.07 4.327.716 8.456 4.672 11.187.068.047.062.218.1.418-2.014 1.43-3.607 3.272-4.07 5.786a41.252 41.252 0 00-.648 6.184c-.116 3.741.003 7.491-.104 11.233-.084 2.93-1.472 4.305-4.324 4.958-1.074.247-2.212.335-3.412.487v6.813c2.4-.144 3.62-.239 5.264-.417 6.188-.67 9.671-3.889 10.385-9.891.223-1.882.198-3.8.24-5.7.079-3.563.039-7.143.358-10.684.325-3.613 2.953-5.61 6.553-5.41V32.4c-2.4.43-4.612-.608-5.639-2.839zM32.777 44.122c-.001-13.86-.377-27.718-.377-41.576V.366c-3.6 0-7.471-.035-11.27.017-1.541.02-2.9.152-4.43.361-5.852.797-8.673 3.544-9.71 9.374-.3 1.683-.24 3.431-.265 5.152-.047 3.271.047 6.544-.006 9.814-.066 4.118-2.007 7.31-6.207 7.552-.148.009.688.18-.512.284v6.366c4.8.753 6.328 2.691 6.647 7.15.05.71.063 1.427.07 2.141.041 3.984-.004 7.974.176 11.951.169 3.712.993 7.028 4.501 8.976 3.276 1.82 7.806 1.967 10.206 2.062v-6.797c0-.058-.252-.11-.486-.125-5.207-.318-6.38-1.732-6.412-6.942-.02-3.45.128-6.9.072-10.35-.07-4.334-.703-8.446-4.627-11.189-.06-.042-.001-.22-.02-.46 2.639-1.667 4.041-4.219 4.423-7.312.211-1.707.282-3.437.312-5.159.06-3.568-.004-7.139.094-10.704.068-2.506 1.668-4.332 3.709-4.742 1.934-.39 2.935-.378 6.535-.56v2.468c0 12.372-.44 24.742-.376 37.114.023 4.238.492 8.415 5.034 10.245 2.47.995 5.116 1.3 7.953 1.97.474-2.774.629-5.076 1.016-7.353-5.228-1.5-6.05-2.278-6.05-7.548zM64.786 20.25c-8.808-4.212-19.498-.53-23.6 8.305-3.088 6.653-2.978 13.5-.259 20.247 1.475 3.657 4.14 6.396 7.768 8.006 7.085 3.145 14.255 2.38 21.398.173.385-.12.877-.862.83-1.255-.243-1.994-.647-3.968-1.009-6.026-1.7.429-3.12.867-4.573 1.14-3.836.72-7.681.72-11.414-.765-3.687-1.464-6.162-5.676-5.547-9.276h25.047c.306-3.6.185-8.55-1.348-12.643-1.368-3.66-3.73-6.2-7.293-7.906zm-.053 14.55h-16.46c.009-4.8 3.917-9.108 9.045-9.01 4.504.087 7.619 4.21 7.415 9.01zm67.329 14.735c.591-6.065-1.24-9.478-6.64-12.113-1.916-.935-3.948-1.627-5.9-2.494-1.46-.648-2.93-1.304-4.296-2.125-1.329-.798-1.886-2.123-1.689-3.674.193-1.533 1.178-2.543 2.601-2.831 1.725-.35 3.532-.65 5.266-.509 2.45.2 4.867.828 7.396 1.29l1.598-6.981c-3.421-.521-6.611-1.194-9.834-1.449-3.584-.282-7.075.313-10.356 2.004-6.932 3.573-7.06 14.54-.689 18.14 1.903 1.075 3.94 1.915 5.92 2.855 2.084.993 4.244 1.856 6.239 3.005 1.514.873 2.055 2.395 1.65 4.17-.376 1.65-1.625 2.386-3.093 2.526-2.232.213-4.521.417-6.731.154-2.66-.317-5.264-1.125-7.989-1.741l-1.39 6.948c6.4 2.402 12.732 2.796 19.126 1.378 5.351-1.185 8.399-4.315 8.811-8.553zM97.964 38.192c-2.35-1.246-4.879-2.156-7.305-3.267-1.506-.69-3.101-1.289-4.428-2.245-2.553-1.84-2.077-5.367.895-6.31 1.705-.542 3.634-.71 5.425-.576 2.441.184 4.85.815 7.395 1.276l1.509-6.656c-1.292-.351-2.462-.734-3.661-.986-4.765-1.003-9.556-1.392-14.249.258-4.032 1.418-6.829 4.07-7.382 8.532-.62 4.982 1.033 8.916 5.635 11.282 1.842.948 3.816 1.636 5.696 2.514 1.877.876 3.794 1.713 5.537 2.812 1.333.84 1.859 2.262 1.483 3.906-.373 1.63-1.56 2.45-3.04 2.603-2.231.229-4.522.441-6.732.183-2.672-.312-5.284-1.122-8.057-1.746-.41 1.936-.89 3.886-1.188 5.862-.065.43.414 1.256.817 1.396 6.46 2.24 13.037 2.56 19.608.625 3.924-1.154 6.668-3.661 7.222-7.947.627-4.866-.533-9.053-5.18-11.516z" fill="#2A4D80"/></svg><svg viewBox="0 0 56 72" id="owl" xmlns="http://www.w3.org/2000/svg"><path d="M55.82 0H0v72h55.82V0z" fill="#fff"/><path d="M27.339 71.197L3.034.052l23.778 6.731.527 64.414z" fill="#4BC248"/><path d="M28.084 72.544L-.202 6.659H29.06l-.976 65.886z" fill="#4BC248"/><path d="M28.298 71.25L52.603.103 28.824 6.835l-.526 64.414z" fill="#4BC248"/><path d="M27.553 72.597L55.839 6.71H26.577l.976 65.887z" fill="#4BC248"/><path d="M17.798 36.404c7.372 0 13.348-5.976 13.348-13.348 0-7.372-5.976-13.348-13.348-13.348-7.372 0-13.349 5.976-13.349 13.348 0 7.372 5.977 13.348 13.349 13.348z" fill="#fff"/><path d="M39.236 36.404c7.372 0 13.348-5.976 13.348-13.348 0-7.372-5.976-13.348-13.348-13.348-7.372 0-13.348 5.976-13.348 13.348 0 7.372 5.976 13.348 13.348 13.348z" fill="#fff"/><path d="M17.798 27.101a4.45 4.45 0 100-8.899 4.45 4.45 0 000 8.9zM39.236 27.101a4.45 4.45 0 100-8.899 4.45 4.45 0 000 8.9z"/><path d="M28.189 52.438l-6.114-16.58 12.393.062-6.28 16.518z" fill="#fff"/></svg><svg viewBox="0 0 28 27" id="photoshop" xmlns="http://www.w3.org/2000/svg"><path d="M1.167 1.167h25.666v24.966H1.167V1.167z" fill="#0C0824"/><path d="M1.167 1.154h25.666v24.692H1.167V1.154zM0 27h28V0H0v27zm18.877-15.923c-.922 0-1.237.462-1.237.843 0 .415.21.704 1.447 1.338 1.832.877 2.4 1.719 2.4 2.954 0 1.846-1.423 2.838-3.348 2.838a5.124 5.124 0 01-2.392-.494c-.082-.035-.093-.092-.093-.185v-1.698c0-.116.058-.15.14-.092.7.445 1.514.68 2.345.68.922 0 1.307-.38 1.307-.9 0-.415-.268-.784-1.447-1.384-1.657-.785-2.345-1.583-2.345-2.908 0-1.489 1.178-2.723 3.22-2.723.71-.03 1.42.08 2.088.324a.257.257 0 01.117.23v1.582c0 .092-.058.15-.175.116a3.975 3.975 0 00-2.03-.52l.003-.001zM8.843 12.45c.268.022.478.022.945.022 1.365 0 2.648-.472 2.648-2.307 0-1.466-.922-2.203-2.473-2.203-.467 0-.91.022-1.12.034v4.454zM6.766 6.318c0-.081.163-.139.257-.139a70.549 70.549 0 013.01-.057c3.232 0 4.492 1.753 4.492 3.993 0 2.93-2.147 4.188-4.783 4.188-.443 0-.595-.023-.91-.023v4.431c0 .092-.035.139-.14.139H6.907c-.093 0-.14-.035-.14-.139V6.323l-.001-.005z" fill="#31C5F0"/></svg><svg viewBox="0 0 122 62" id="php" xmlns="http://www.w3.org/2000/svg"><path d="M61 .039C27.26.039-.094 13.901-.094 31-.094 48.099 27.26 61.961 61 61.961S122.094 48.099 122.094 31C122.094 13.901 94.74.039 61 .039zM45.103 37.032c-1.458 1.364-3.077 1.927-4.86 2.507-1.783.581-4.052.461-6.811.461h-6.253l-1.733 10h-7.301l6.515-34H38.7c4.224 0 7.305 1.215 9.242 3.432 1.937 2.217 2.519 5.364 1.747 9.337-.319 1.637-.856 3.159-1.614 4.515a15.118 15.118 0 01-2.972 3.748zM66.414 40l2.881-14.42c.328-1.688.208-2.942-.361-3.555-.57-.614-1.782-1.025-3.635-1.025h-5.79l-3.731 19h-7.244l6.515-33h7.244l-1.732 9h6.453c4.061 0 6.861.815 8.402 2.231 1.541 1.416 2.003 3.356 1.387 6.528L73.772 40h-7.358zm40.259-11.178c-.318 1.637-.856 3.133-1.613 4.488-.758 1.357-1.748 2.598-2.971 3.722-1.458 1.364-3.078 1.927-4.86 2.507-1.782.581-4.053.461-6.812.461h-6.253l-1.732 10h-7.301l6.514-34h14.041c4.224 0 7.305 1.215 9.241 3.432 1.935 2.217 2.518 5.418 1.746 9.39zM92.919 21h-5.001l-2.727 14h4.442c2.942 0 5.136-.29 6.576-1.4 1.442-1.108 2.413-2.828 2.918-5.421.484-2.491.264-4.434-.66-5.458C97.542 21.697 95.693 21 92.919 21zm-56.985 0h-5.002l-2.727 14h4.441c2.943 0 5.136-.29 6.577-1.4 1.441-1.108 2.413-2.828 2.917-5.421.484-2.491.264-4.434-.66-5.458S38.708 21 35.934 21z" fill="#6181B6"/></svg><svg fill="none" viewBox="0 0 40 60" id="pin-home" xmlns="http://www.w3.org/2000/svg"><path d="M20 60c-.61-.008-.95-.294-1.428-.735-.33-.303-.715-.934-.715-.934l-15-28.38h34.286l-15 28.38s-.357.631-.672.934c-.483.463-.846.743-1.471.735z" fill="#EF5353"/><ellipse cx="20" cy="20.033" rx="20" ry="20.033" fill="#EF5353"/><ellipse cx="20" cy="20.868" rx="15.714" ry="15.86" fill="#fff"/><path d="M9.437 17.364L20 9.589l10.563 7.775H9.437zM11 19.214h18v6.571H11z" fill="#fff" stroke="#000" stroke-width="2"/></svg><svg viewBox="0 0 96 72" id="sass" xmlns="http://www.w3.org/2000/svg"><path d="M45.276 54.438c-.045.09-.09.162 0 0zm37.368-13.05c-3.018 0-5.994.69-8.7 2.025-.885-1.785-1.8-3.345-1.95-4.515-.18-1.365-.375-2.175-.165-3.795s1.155-3.915 1.14-4.08c-.015-.165-.21-.99-2.145-1.005-1.935-.015-3.6.375-3.795.885a18.27 18.27 0 00-.795 2.865c-.345 1.755-3.867 8.025-5.862 11.295-.66-1.275-1.215-2.4-1.335-3.3-.18-1.365-.375-2.175-.165-3.795s1.155-3.915 1.14-4.08c-.015-.165-.21-.99-2.142-1.005-1.932-.015-3.6.375-3.795.885-.195.51-.405 1.71-.795 2.865-.39 1.155-5.085 11.595-6.312 14.31-.63 1.38-1.17 2.49-1.56 3.24-.06.12-.105.195-.135.255.045-.075.075-.15.075-.12-.33.645-.525 1.005-.525 1.005v.015c-.255.48-.54.915-.675.915-.09 0-.285-1.26.045-2.985.705-3.63 2.37-9.27 2.355-9.465-.015-.105.315-1.08-1.095-1.605-1.365-.495-1.86.33-1.98.33-.12 0-.21.3-.21.3s1.515-6.36-2.91-6.36c-2.76 0-6.6 3.03-8.487 5.775-1.185.645-3.75 2.04-6.45 3.525-1.035.57-2.1 1.155-3.105 1.71-.075-.075-.135-.15-.21-.225-5.37-5.73-15.282-9.78-14.862-17.475.15-2.805 1.125-10.17 19.062-19.11 14.7-7.32 26.451-5.31 28.476-.84 2.91 6.375-6.285 18.24-21.549 19.95-5.82.645-8.877-1.605-9.642-2.445-.795-.885-.915-.93-1.215-.765-.495.27-.18 1.05 0 1.515.45 1.185 2.325 3.285 5.52 4.335 2.805.915 9.627 1.425 17.874-1.77 9.267-3.57 16.482-13.515 14.364-21.84C57.975.348 43.947-2.427 30.684 2.283 22.78 5.088 14.232 9.498 8.085 15.243.78 22.083-.387 28.038.093 30.528c1.71 8.835 13.887 14.595 18.76 18.855-.24.135-.466.255-.676.375-2.445 1.215-11.727 6.075-14.052 11.205-2.625 5.82.435 9.99 2.442 10.56 6.27 1.74 12.687-1.395 16.137-6.54 3.45-5.145 3.03-11.865 1.44-14.925-.015-.045-.045-.075-.06-.12.63-.375 1.275-.75 1.92-1.125 1.245-.735 2.46-1.41 3.525-1.995-.6 1.62-1.035 3.57-1.26 6.39-.27 3.3 1.095 7.575 2.865 9.255.78.735 1.722.75 2.31.75 2.07 0 3-1.71 4.035-3.75 1.275-2.49 2.4-5.385 2.4-5.385s-1.41 7.83 2.445 7.83c1.41 0 2.82-1.815 3.45-2.745v.015s.03-.06.105-.18c.15-.225.225-.36.225-.36v-.045c.57-.975 1.815-3.21 3.69-6.9 2.43-4.77 4.752-10.725 4.752-10.725.225 1.308.537 2.601.93 3.87.42 1.425 1.305 2.985 2.01 4.5-.57.78-.915 1.23-.915 1.23 0 .012.006.021.015.03-.45.6-.96 1.245-1.485 1.875-1.917 2.28-4.2 4.89-4.5 5.64-.36.885-.27 1.545.42 2.055.51.39 1.41.45 2.355.375 1.725-.12 2.94-.54 3.525-.81a12.333 12.333 0 003.03-1.59c1.875-1.38 3.015-3.36 2.91-5.97-.06-1.44-.525-2.88-1.095-4.23.165-.24.345-.495.51-.75 2.967-4.335 5.265-9.093 5.265-9.093.225 1.308.534 2.601.93 3.87.36 1.215 1.065 2.55 1.71 3.855-2.79 2.265-4.515 4.89-5.112 6.615-1.11 3.195-.24 4.635 1.395 4.965.735.15 1.785-.195 2.565-.525a11.953 11.953 0 003.237-1.665c1.875-1.38 3.69-3.315 3.567-5.94-.045-1.185-.375-2.37-.81-3.51 2.355-.99 5.415-1.53 9.315-1.08 8.352.975 9.987 6.195 9.672 8.37-.315 2.175-2.07 3.39-2.655 3.75-.585.36-.765.495-.72.765.075.39.345.375.84.285.69-.12 4.38-1.77 4.545-5.805.24-5.1-4.665-10.71-13.35-10.665l-.006.003zM18.267 63.093c-2.76 3.015-6.627 4.155-8.292 3.195-1.785-1.038-1.08-5.475 2.322-8.688 2.07-1.95 4.74-3.75 6.51-4.86.405-.24.99-.6 1.71-1.035.12-.075.18-.105.18-.105.135-.09.285-.165.435-.255 1.242 4.56.045 8.58-2.865 11.745v.003zm20.154-13.71c-.96 2.355-2.982 8.355-4.215 8.04-1.05-.27-1.695-4.845-.21-9.345.75-2.265 2.34-4.965 3.285-6.015 1.515-1.695 3.18-2.235 3.57-1.56.525.885-1.83 7.41-2.43 8.88zm16.65 7.95c-.405.21-.78.345-.96.24-.135-.075.165-.36.165-.36s2.085-2.235 2.91-3.255c.48-.6 1.035-1.305 1.635-2.085 0 .075.015.15.015.24-.018 2.685-2.598 4.5-3.768 5.22h.003zm12.84-2.925c-.3-.21-.255-.915.75-3.105.39-.855 1.29-2.295 2.85-3.675a5.41 5.41 0 01.285 1.62c-.015 3.375-2.43 4.635-3.885 5.16z"/></svg><svg viewBox="0 0 21 21" id="skype" xmlns="http://www.w3.org/2000/svg"><path fill-rule="evenodd" clip-rule="evenodd" d="M16.65 3.991a8.924 8.924 0 00-7.18-2.58c-.252.024-.5.058-.743.101A5.111 5.111 0 005.265.324 5.104 5.104 0 001.82 1.821 5.103 5.103 0 00.324 5.265a5.11 5.11 0 001.188 3.462 9.004 9.004 0 00-.142 1.594 8.924 8.924 0 002.621 6.33 8.924 8.924 0 007.181 2.58c.253-.023.501-.058.744-.101a5.109 5.109 0 003.461 1.188 5.104 5.104 0 003.445-1.496 5.105 5.105 0 001.496-3.445 5.11 5.11 0 00-1.188-3.462 8.977 8.977 0 00.143-1.594 8.924 8.924 0 00-2.622-6.33z" fill="#00ACEC"/><path fill-rule="evenodd" clip-rule="evenodd" d="M14.622 7.115c0-.717-.545-1.304-1.373-1.716-.86-.428-2.04-.673-3.212-.673-2.08 0-4.507.92-4.507 3.409 0 1.03.35 1.733.928 2.236.562.49 1.332.776 2.195.99l1.685.41v.001l.15.037c.83.206 1.336.332 1.336.855 0 .223-.132.424-.367.57-.256.16-.628.256-1.087.256-1.112 0-1.636-.533-2.09-.994-.403-.41-.758-.77-1.38-.77-.438 0-.766.148-.993.384-.258.266-.377.638-.377 1.025 0 .789.58 1.495 1.509 1.998.892.483 2.117.783 3.449.783 1.209 0 2.451-.33 3.342-1.019.774-.598 1.282-1.46 1.282-2.605 0-1.083-.524-1.81-1.268-2.316-.717-.487-1.633-.76-2.466-.95l-1.196-.275h-.001c-.425-.094-.793-.179-1.041-.313-.202-.11-.322-.26-.322-.5 0-.207.111-.362.309-.468.255-.136.643-.2 1.125-.2.928 0 1.353.381 1.727.718.349.314.66.595 1.234.595v-.001c.438 0 .79-.175 1.035-.448.242-.27.374-.635.374-1.02z" fill="#FFFFFE"/></svg><svg viewBox="0 0 25 25" id="telegram" xmlns="http://www.w3.org/2000/svg"><path d="M22.937 3.613L19.433 22.5l-7.47-6-3.487-2-5.976-2 20.437-8.887z" fill="#C4C4C4" stroke="#C1C1C1" stroke-width="2" stroke-linejoin="round"/><path stroke="#000" stroke-linejoin="round" d="M10.648 21.186l2.558-2.541M21 6l-9.5 11.5-1 4-2-6.5L21 6z"/></svg><svg fill="none" viewBox="0 0 21 20" id="whatsapp" xmlns="http://www.w3.org/2000/svg"><path fill-rule="evenodd" clip-rule="evenodd" d="M20.375 10c0 5.523-4.477 10-10 10a9.962 9.962 0 01-6.588-2.477L0 18.506 1.875 15.5l.07-.12A9.953 9.953 0 01.374 10c0-5.523 4.477-10 10-10s10 4.477 10 10zm-8.05 5.535c6.13-.826.94-3.92-.053-4.03-.332 2.981-7.288-2.322-3.035-4.364C8.189 3 5.634 3.353 5.206 7.195c-.428 3.842 3.003 7.881 7.12 8.34z" fill="#61DB5F"/></svg></svg>