<?xml version="1.0" encoding="utf-8"?><svg viewBox="0 0 27 34" xmlns="http://www.w3.org/2000/svg" xmlns:xlink="http://www.w3.org/1999/xlink"><style>:root>svg{display:none}:root>svg:target{display:block}</style><svg viewBox="0 0 24 16" id="arrow-up" xmlns="http://www.w3.org/2000/svg"><path d="M12 0l12 16-12-8.736L0 16 12 0z"/></svg><svg fill="none" viewBox="0 0 20 16" id="email" xmlns="http://www.w3.org/2000/svg"><path fill-rule="evenodd" clip-rule="evenodd" d="M1.08 1h17.84v3.072L10 9.622l-8.92-5.55V1zM10 10.799l9.92-6.17V0H.08v4.628L10 10.8zm-9.948-3.6v8.728h19.896V7.2h-1v7.728H1.052V7.2h-1z" fill="#000"/></svg><svg viewBox="0 0 27 34" id="footer-logo-htmlacademy" xmlns="http://www.w3.org/2000/svg"><path d="M13.643.016L13.5 0 0 1.407v24.606L13.5 34 27 26.013V1.407L13.643.016zm11.591 25L13.5 31.956 1.766 25.015V14.93l11.685 6.916.02 1.253-8.017-4.743-.011 1.225 8.046 4.809.02 1.286-8.045-4.758-.01 1.226L13.5 26.95l8.124-4.833V16.91l3.62-2.15-.01 10.256zm0-11.564l-3.22 1.88-1.482.875-7.065-4.187-.011 1.225 6.04 3.573-.053.031-.13.076-.86.492-4.986-2.948-.011 1.225 3.936 2.328-.933.61-.021.012-2.971-1.742-.011 1.225 1.947 1.135-1.988 1.186-11.618-6.872 11.638-6.958 11.8 6.834zm0-1.225L13.44 5.31 1.766 12.22V2.99L13.5 1.764 25.234 2.99v9.237z"/></svg><svg viewBox="0 0 22 22" id="skype" xmlns="http://www.w3.org/2000/svg"><path fill-rule="evenodd" clip-rule="evenodd" d="M8.406 1.34C9.233 1.118 10.103 1 11 1c5.523 0 10 4.477 10 10 0 .897-.118 1.767-.34 2.594a5 5 0 01-7.066 7.066c-.827.222-1.697.34-2.594.34-5.523 0-10-4.477-10-10 0-.897.118-1.767.34-2.594A5 5 0 018.407 1.34zm6.37 11.996c0 1.584-1.26 2.898-3.564 2.898-1.386 0-2.718-.576-3.654-1.35l.81-1.08c.846.684 1.728 1.152 2.898 1.152 1.296 0 1.926-.684 1.926-1.53 0-.999-1.13-1.432-2.202-1.842l-.03-.012c-1.368-.504-2.862-1.17-2.862-2.826 0-1.548 1.26-2.772 3.384-2.772 1.206 0 2.268.504 3.024 1.098l-.792 1.062c-.666-.504-1.35-.864-2.214-.864-1.242 0-1.818.648-1.818 1.404 0 .9.933 1.251 1.982 1.645l.124.047.042.016c1.41.536 2.946 1.118 2.946 2.954z"/></svg><svg viewBox="0 0 25 25" id="telegram" xmlns="http://www.w3.org/2000/svg"><path d="M22.937 3.613L19.433 22.5l-7.47-6-3.487-2-5.976-2 20.437-8.887z" fill="#C4C4C4" stroke="#C1C1C1" stroke-width="2" stroke-linejoin="round"/><path stroke="#000" stroke-linejoin="round" d="M10.648 21.186l2.558-2.541M21 6l-9.5 11.5-1 4-2-6.5L21 6z"/></svg><svg viewBox="0 0 21 20" id="whatsapp" xmlns="http://www.w3.org/2000/svg"><path fill-rule="evenodd" clip-rule="evenodd" d="M21 10c0 5.523-4.477 10-10 10a9.962 9.962 0 01-6.588-2.477l-3.787.983L2.5 15.5l.07-.12A9.953 9.953 0 011 10C1 4.477 5.477 0 11 0s10 4.477 10 10zm-8.05 5.535c6.13-.826.94-3.92-.053-4.03-.332 2.981-7.288-2.322-3.035-4.364C8.814 3 6.259 3.353 5.83 7.195c-.428 3.842 3.003 7.881 7.12 8.34z"/></svg></svg>