<?xml version="1.0" encoding="utf-8"?>
<svg version="1.1" xmlns="http://www.w3.org/2000/svg" xmlns:sketchjs="https://sketch.io/dtd/">
<g sketchjs:tool="fancyText" style="mix-blend-mode: source-over;" transform="matrix(1,0,0,1,-4.000000000099988,7.999999999900012)">
	<g sketchjs:uid="2" style="paint-order: fill stroke markers;">
		<path d="M 46.033203125 44.748046875L 46.033203125 44.748046875Q 46.185546875 45.052734375 46.033203125 46.3857421875Q 45.880859375 47.71875 45.5380859375 49.2421875Q 45.1953125 50.765625 44.8525390625 52.0986328125Q 44.509765625 53.431640625 44.357421875 53.66015625L 44.357421875 53.66015625Q 43.9765625 53.66015625 43.5576171875 53.6220703125Q 43.138671875 53.583984375 42.7578125 53.583984375L 42.7578125 53.583984375Q 42.376953125 53.583984375 41.919921875 53.5078125L 41.919921875 53.5078125Q 41.69140625 56.70703125 41.38671875 59.4873046875Q 41.08203125 62.267578125 40.77734375 64.248046875Q 40.47265625 66.228515625 40.244140625 67.4091796875Q 40.015625 68.58984375 39.787109375 68.58984375L 39.787109375 68.58984375Q 39.177734375 68.7421875 38.4541015625 68.0947265625Q 37.73046875 67.447265625 37.044921875 66.533203125Q 36.359375 65.619140625 35.826171875 64.5908203125Q 35.29296875 63.5625 35.216796875 62.80078125L 35.216796875 62.80078125Q 35.140625 61.27734375 35.1025390625 59.5634765625Q 35.064453125 57.849609375 34.98828125 56.40234375L 34.98828125 56.40234375Q 34.912109375 54.7265625 34.912109375 53.05078125L 34.912109375 53.05078125Q 33.46484375 52.8984375 32.09375 52.7841796875Q 30.72265625 52.669921875 29.3515625 52.517578125L 29.3515625 52.517578125Q 28.666015625 52.365234375 27.98046875 52.3271484375Q 27.294921875 52.2890625 26.685546875 52.13671875L 26.685546875 52.13671875Q 26.533203125 55.640625 26.380859375 58.611328125Q 26.228515625 61.58203125 26.0380859375 63.791015625Q 25.84765625 66 25.6572265625 67.2568359375Q 25.466796875 68.513671875 25.23828125 68.58984375L 25.23828125 68.58984375Q 24.62890625 68.666015625 23.791015625 68.056640625Q 22.953125 67.447265625 22.2294921875 66.533203125Q 21.505859375 65.619140625 20.9345703125 64.62890625Q 20.36328125 63.638671875 20.287109375 62.876953125L 20.287109375 62.876953125Q 20.134765625 60.896484375 19.982421875 58.8017578125Q 19.830078125 56.70703125 19.677734375 54.955078125L 19.677734375 54.955078125Q 19.525390625 52.8984375 19.373046875 50.91796875L 19.373046875 50.91796875Q 18.763671875 50.841796875 18.154296875 50.689453125L 18.154296875 50.689453125Q 17.62109375 50.537109375 17.0498046875 50.4609375Q 16.478515625 50.384765625 16.021484375 50.232421875L 16.021484375 50.232421875Q 15.716796875 50.080078125 15.18359375 49.5849609375Q 14.650390625 49.08984375 14.1171875 48.48046875Q 13.583984375 47.87109375 13.203125 47.2998046875Q 12.822265625 46.728515625 12.822265625 46.423828125L 12.822265625 46.423828125Q 12.822265625 46.271484375 14.5361328125 46.04296875Q 16.25 45.814453125 19.068359375 45.662109375L 19.068359375 45.662109375Q 18.763671875 41.244140625 18.4970703125 36.6357421875Q 18.23046875 32.02734375 18.078125 28.0283203125Q 17.92578125 24.029296875 17.92578125 21.0205078125Q 17.92578125 18.01171875 18.154296875 16.869140625L 18.154296875 16.869140625Q 18.458984375 15.26953125 19.6396484375 13.7841796875Q 20.8203125 12.298828125 22.19140625 11.15625Q 23.5625 10.013671875 24.78125 9.404296875Q 26 8.794921875 26.380859375 9.0234375L 26.380859375 9.0234375Q 26.609375 9.251953125 26.7998046875 10.8515625Q 26.990234375 12.451171875 27.1044921875 15.1171875Q 27.21875 17.783203125 27.21875 21.287109375Q 27.21875 24.791015625 27.21875 28.7138671875Q 27.21875 32.63671875 27.1044921875 36.8642578125Q 26.990234375 41.091796875 26.9140625 45.205078125L 26.9140625 45.205078125Q 28.89453125 45.052734375 30.8369140625 44.9765625Q 32.779296875 44.900390625 34.68359375 44.748046875L 34.68359375 44.748046875Q 34.607421875 40.40625 34.5693359375 35.912109375Q 34.53125 31.41796875 34.53125 27.533203125Q 34.53125 23.6484375 34.68359375 20.75390625Q 34.8359375 17.859375 35.064453125 16.716796875L 35.064453125 16.716796875Q 35.4453125 15.1171875 36.7021484375 13.669921875Q 37.958984375 12.22265625 39.3681640625 11.1181640625Q 40.77734375 10.013671875 42.0341796875 9.48046875Q 43.291015625 8.947265625 43.671875 9.251953125L 43.671875 9.251953125Q 44.052734375 9.48046875 44.12890625 12.7939453125Q 44.205078125 16.107421875 44.0146484375 21.134765625Q 43.82421875 26.162109375 43.4814453125 32.3701171875Q 43.138671875 38.578125 42.681640625 44.595703125L 42.681640625 44.595703125Q 45.728515625 44.595703125 46.033203125 44.748046875ZZM 77.111328125 19.916015625L 77.111328125 19.916015625Q 77.1875 21.05859375 76.8447265625 23.34375Q 76.501953125 25.62890625 75.740234375 27.9140625Q 74.978515625 30.19921875 73.7978515625 31.9130859375Q 72.6171875 33.626953125 71.09375 33.626953125L 71.09375 33.626953125Q 70.33203125 33.626953125 69.798828125 32.712890625Q 69.265625 31.798828125 68.884765625 30.3515625Q 68.50390625 28.904296875 68.275390625 27.1142578125Q 68.046875 25.32421875 67.8564453125 23.6484375Q 67.666015625 21.97265625 67.5517578125 20.5634765625Q 67.4375 19.154296875 67.361328125 18.46875L 67.361328125 18.46875Q 67.056640625 18.01171875 66.2568359375 17.5166015625Q 65.45703125 17.021484375 64.84765625 17.021484375L 64.84765625 17.021484375Q 64.162109375 17.021484375 63.2099609375 18.31640625Q 62.2578125 19.611328125 61.419921875 21.36328125Q 60.58203125 23.115234375 60.048828125 24.8291015625Q 59.515625 26.54296875 59.591796875 27.45703125L 59.591796875 27.45703125Q 59.591796875 28.06640625 60.7724609375 29.58984375Q 61.953125 31.11328125 63.705078125 33.169921875Q 65.45703125 35.2265625 67.513671875 37.6259765625Q 69.5703125 40.025390625 71.322265625 42.38671875Q 73.07421875 44.748046875 74.29296875 46.880859375Q 75.51171875 49.013671875 75.587890625 50.537109375L 75.587890625 50.537109375Q 75.740234375 52.365234375 74.7880859375 55.2216796875Q 73.8359375 58.078125 72.388671875 60.744140625Q 70.94140625 63.41015625 69.3037109375 65.3525390625Q 67.666015625 67.294921875 66.37109375 67.37109375L 66.37109375 67.37109375Q 65.533203125 67.447265625 64.162109375 66.6474609375Q 62.791015625 65.84765625 61.19140625 64.552734375Q 59.591796875 63.2578125 57.9541015625 61.6962890625Q 56.31640625 60.134765625 54.9072265625 58.611328125Q 53.498046875 57.087890625 52.5458984375 55.8310546875Q 51.59375 54.57421875 51.44140625 53.96484375L 51.44140625 53.96484375Q 51.13671875 53.05078125 51.0986328125 51.4892578125Q 51.060546875 49.927734375 51.2509765625 48.4423828125Q 51.44140625 46.95703125 51.7841796875 45.8525390625Q 52.126953125 44.748046875 52.66015625 44.748046875L 52.66015625 44.748046875Q 53.041015625 44.748046875 53.9169921875 45.73828125Q 54.79296875 46.728515625 55.935546875 48.251953125Q 57.078125 49.775390625 58.4111328125 51.5654296875Q 59.744140625 53.35546875 60.962890625 54.87890625Q 62.181640625 56.40234375 63.171875 57.4306640625Q 64.162109375 58.458984375 64.771484375 58.3828125L 64.771484375 58.3828125Q 65.228515625 58.3828125 65.76171875 57.6591796875Q 66.294921875 56.935546875 66.751953125 55.9072265625Q 67.208984375 54.87890625 67.513671875 53.8125Q 67.818359375 52.74609375 67.818359375 52.13671875L 67.818359375 52.13671875Q 67.7421875 51.22265625 66.3330078125 49.5087890625Q 64.923828125 47.794921875 62.8291015625 45.6240234375Q 60.734375 43.453125 58.3349609375 41.091796875Q 55.935546875 38.73046875 53.8408203125 36.5595703125Q 51.74609375 34.388671875 50.3369140625 32.63671875Q 48.927734375 30.884765625 48.8515625 29.970703125L 48.8515625 29.970703125Q 48.775390625 29.056640625 49.384765625 27.1142578125Q 49.994140625 25.171875 51.0224609375 22.734375Q 52.05078125 20.296875 53.345703125 17.783203125Q 54.640625 15.26953125 56.01171875 13.13671875Q 57.3828125 11.00390625 58.677734375 9.6708984375Q 59.97265625 8.337890625 60.962890625 8.337890625L 60.962890625 8.337890625Q 62.2578125 8.337890625 63.93359375 8.9091796875Q 65.609375 9.48046875 67.3994140625 10.4326171875Q 69.189453125 11.384765625 70.9033203125 12.603515625Q 72.6171875 13.822265625 73.98828125 15.0791015625Q 75.359375 16.3359375 76.197265625 17.5927734375Q 77.03515625 18.849609375 77.111328125 19.916015625ZZM 90.212890625 9.404296875L 90.212890625 9.404296875Q 91.736328125 9.708984375 94.40234375 11.1943359375Q 97.068359375 12.6796875 99.7724609375 14.5458984375Q 102.4765625 16.412109375 104.533203125 18.2021484375Q 106.58984375 19.9921875 106.970703125 20.75390625L 106.970703125 20.75390625Q 107.275390625 21.515625 107.19921875 23.572265625Q 107.123046875 25.62890625 106.7421875 28.5615234375Q 106.361328125 31.494140625 105.751953125 34.998046875Q 105.142578125 38.501953125 104.380859375 42.0439453125Q 103.619140625 45.5859375 102.7431640625 48.8994140625Q 101.8671875 52.212890625 100.953125 54.7265625L 100.953125 54.7265625Q 100.572265625 55.9453125 99.27734375 57.392578125Q 97.982421875 58.83984375 96.23046875 60.2490234375Q 94.478515625 61.658203125 92.5361328125 62.876953125Q 90.59375 64.095703125 88.8798828125 64.93359375Q 87.166015625 65.771484375 85.8330078125 66.076171875Q 84.5 66.380859375 84.04296875 65.923828125L 84.04296875 65.923828125Q 83.5859375 65.466796875 83.0908203125 62.9912109375Q 82.595703125 60.515625 82.138671875 56.7451171875Q 81.681640625 52.974609375 81.30078125 48.2900390625Q 80.919921875 43.60546875 80.615234375 38.73046875Q 80.310546875 33.85546875 80.1201171875 29.1708984375Q 79.9296875 24.486328125 79.8916015625 20.7158203125Q 79.853515625 16.9453125 80.005859375 14.3935546875Q 80.158203125 11.841796875 80.5390625 11.30859375L 80.5390625 11.30859375Q 80.84375 10.927734375 82.1005859375 10.546875Q 83.357421875 10.166015625 84.9189453125 9.861328125Q 86.48046875 9.556640625 88.00390625 9.404296875Q 89.52734375 9.251953125 90.212890625 9.404296875ZZM 89.755859375 19.078125L 89.755859375 19.078125Q 89.22265625 19.458984375 88.994140625 21.4013671875Q 88.765625 23.34375 88.6513671875 26.0478515625Q 88.537109375 28.751953125 88.537109375 31.798828125Q 88.537109375 34.845703125 88.4609375 37.359375L 88.4609375 37.359375Q 88.30859375 43.91015625 88.3466796875 47.6806640625Q 88.384765625 51.451171875 88.4990234375 53.3173828125Q 88.61328125 55.18359375 88.841796875 55.6787109375Q 89.0703125 56.173828125 89.451171875 56.173828125L 89.451171875 56.173828125Q 89.755859375 56.173828125 90.4794921875 55.716796875Q 91.203125 55.259765625 92.041015625 54.57421875Q 92.87890625 53.888671875 93.640625 53.0888671875Q 94.40234375 52.2890625 94.70703125 51.6796875L 94.70703125 51.6796875Q 95.01171875 51.0703125 95.46875 49.2802734375Q 95.92578125 47.490234375 96.3828125 45.0908203125Q 96.83984375 42.69140625 97.296875 39.9873046875Q 97.75390625 37.283203125 98.0966796875 34.8076171875Q 98.439453125 32.33203125 98.6298828125 30.3896484375Q 98.8203125 28.447265625 98.8203125 27.609375L 98.8203125 27.609375Q 98.744140625 26.009765625 97.525390625 24.333984375Q 96.306640625 22.658203125 94.7451171875 21.36328125Q 93.18359375 20.068359375 91.6982421875 19.3828125Q 90.212890625 18.697265625 89.755859375 19.078125Z" sketchjs:uid="3" style="fill: #000000; stroke: #000000; stroke-width: 2.34; stroke-miterlimit: 10; paint-order: stroke fill markers;"/>
		</g>
</g>
<path sketchjs:tool="pencil" style="fill: none; stroke: #000000; mix-blend-mode: source-over; stroke-dasharray: none; stroke-dashoffset: 0; stroke-linecap: round; stroke-linejoin: miter; stroke-miterlimit: 4; stroke-opacity: 1; stroke-width: 2;" d="M8.03 1.85 C8.03 1.85 8.03 1.85 8.03 1.85 8.03 1.85 8.61 1.85 9.03 1.85 9.76 1.85 10.96 1.85 12.03 1.85 13.27 1.85 14.93 1.85 16.03 1.85 16.81 1.85 17.36 1.85 18.03 1.85 18.7 1.85 19.48 1.85 20.03 1.85 20.42 1.85 20.64 1.85 21.03 1.85 21.58 1.85 22.48 1.85 23.03 1.85 23.42 1.85 23.7 1.85 24.03 1.85 24.36 1.85 24.7 1.85 25.03 1.85 25.36 1.85 25.7 1.85 26.03 1.85 26.36 1.85 26.7 1.85 27.03 1.85 27.36 1.85 27.7 1.85 28.03 1.85 28.36 1.85 28.64 1.85 29.03 1.85 29.58 1.85 30.48 1.85 31.03 1.85 31.42 1.85 31.7 1.85 32.03 1.85 32.36 1.85 32.7 1.85 33.03 1.85 33.36 1.85 33.7 1.85 34.03 1.85 34.36 1.85 34.7 1.85 35.03 1.85 35.36 1.85 35.7 1.85 36.03 1.85 36.36 1.85 36.61 1.85 37.03 1.85 37.76 1.85 39.13 1.85 40.03 1.85 40.76 1.85 41.36 1.85 42.03 1.85 42.7 1.85 43.48 1.85 44.03 1.85 44.42 1.85 44.7 1.85 45.03 1.85 45.36 1.85 45.7 1.85 46.03 1.85 46.36 1.85 46.7 1.85 47.03 1.85 47.36 1.85 47.64 1.85 48.03 1.85 48.58 1.85 49.36 1.85 50.03 1.85 50.7 1.85 51.48 1.85 52.03 1.85 52.42 1.85 52.7 1.85 53.03 1.85 53.36 1.85 53.7 1.85 54.03 1.85 54.36 1.85 54.7 1.85 55.03 1.85 55.36 1.85 55.61 1.85 56.03 1.85 56.76 1.85 58.3 1.85 59.03 1.85 59.45 1.85 59.64 1.85 60.03 1.85 60.58 1.85 61.48 1.85 62.03 1.85 62.42 1.85 62.7 1.85 63.03 1.85 63.36 1.85 63.7 1.85 64.03 1.85 64.36 1.85 64.7 1.85 65.03 1.85 65.36 1.85 65.7 1.85 66.03 1.85 66.36 1.85 66.64 1.85 67.03 1.85 67.58 1.85 68.36 1.85 69.03 1.85 69.7 1.85 70.48 1.85 71.03 1.85 71.42 1.85 71.64 1.85 72.03 1.85 72.58 1.85 73.48 1.85 74.03 1.85 74.42 1.85 74.7 1.85 75.03 1.85 75.36 1.85 75.64 1.85 76.03 1.85 76.58 1.85 77.47 1.78 78.03 1.85 78.45 1.9 78.77 2.05 79.12 2.13 79.45 2.2 79.76 2.26 80.08 2.31 80.4 2.36 80.73 2.4 81.06 2.44 81.39 2.48 81.72 2.51 82.05 2.54 82.38 2.57 82.65 2.6 83.04 2.62 83.59 2.65 84.37 2.69 85.03 2.71 85.7 2.74 86.48 2.76 87.03 2.77 87.42 2.78 87.7 2.78 88.03 2.79 88.36 2.8 88.7 2.8 89.03 2.81 89.36 2.81 89.7 2.82 90.03 2.82 90.36 2.82 90.64 2.83 91.03 2.83 91.58 2.83 92.36 2.84 93.03 2.84 93.7 2.84 94.36 2.84 95.03 2.84 95.7 2.84 96.48 2.85 97.03 2.85 97.42 2.85 97.84 2.82 98.03 2.85 98.11 2.86 98.13 2.87 98.19 2.9 98.29 2.95 98.43 3.02 98.56 3.16 98.8 3.4 99.15 3.99 99.36 4.36 99.52 4.64 99.63 4.88 99.74 5.15 99.86 5.43 99.95 5.72 100.04 6.02 100.13 6.32 100.21 6.64 100.28 6.95 100.35 7.27 100.42 7.59 100.47 7.91 100.53 8.23 100.57 8.55 100.61 8.88 100.65 9.21 100.68 9.54 100.71 9.87 100.74 10.2 100.76 10.47 100.79 10.86 100.83 11.41 100.87 12.31 100.89 12.86 100.91 13.25 100.91 13.53 100.92 13.86 100.93 14.19 100.94 14.53 100.95 14.86 100.96 15.19 100.96 15.52 100.97 15.85 100.98 16.18 100.98 16.52 100.99 16.85 100.99 17.18 101 17.52 101 17.85 101 18.18 101.01 18.52 101.01 18.85 101.01 19.18 101.01 19.52 101.01 19.85 101.01 20.18 101.02 20.52 101.02 20.85 101.02 21.18 101.02 21.46 101.02 21.85 101.02 22.4 101.02 23.3 101.02 23.85 101.02 24.24 101.03 24.52 101.03 24.85 101.03 25.18 101.03 25.52 101.03 25.85 101.03 26.18 101.03 26.52 101.03 26.85 101.03 27.18 101.03 27.52 101.03 27.85 101.03 28.18 101.03 28.52 101.03 28.85 101.03 29.18 101.03 29.52 101.03 29.85 101.03 30.18 101.03 30.46 101.03 30.85 101.03 31.4 101.03 32.18 101.03 32.85 101.03 33.52 101.03 34.3 101.03 34.85 101.03 35.24 101.03 35.52 101.03 35.85 101.03 36.18 101.03 36.52 101.03 36.85 101.03 37.18 101.03 37.52 101.03 37.85 101.03 38.18 101.03 38.52 101.03 38.85 101.03 39.18 101.03 39.52 101.03 39.85 101.03 40.18 101.03 40.52 101.03 40.85 101.03 41.18 101.03 41.52 101.03 41.85 101.03 42.18 101.03 42.52 101.03 42.85 101.03 43.18 101.07 43.51 101.03 43.85 100.99 44.21 100.84 44.52 100.76 44.94 100.65 45.49 100.54 46.35 100.47 46.89 100.42 47.27 100.39 47.54 100.36 47.87 100.33 48.2 100.3 48.53 100.28 48.86 100.26 49.19 100.28 49.52 100.22 49.86 100.15 50.23 99.97 50.62 99.88 50.98 99.8 51.31 99.74 51.6 99.68 51.92 99.62 52.24 99.61 52.56 99.52 52.89 99.42 53.26 99.2 53.68 99.08 54.05 98.98 54.37 98.95 54.6 98.83 54.96 98.65 55.51 98.25 56.48 98.07 57.04 97.95 57.41 97.92 57.73 97.82 57.96 97.76 58.11 97.68 58.16 97.61 58.3 97.5 58.51 97.36 58.83 97.25 59.11 97.14 59.4 97.05 59.7 96.96 60 96.87 60.31 96.8 60.62 96.73 60.94 96.66 61.26 96.61 61.58 96.56 61.9 96.51 62.22 96.47 62.55 96.43 62.88 96.39 63.21 96.36 63.54 96.33 63.87 96.3 64.2 96.31 64.65 96.26 64.86 96.24 64.96 96.21 64.98 96.17 65.08 96.1 65.28 96.02 65.67 95.9 65.98 95.76 66.35 95.48 66.78 95.33 67.15 95.2 67.46 95.12 67.72 95.03 68.02 94.94 68.32 94.89 68.58 94.78 68.95 94.61 69.51 94.21 70.47 94.04 71.03 93.93 71.4 93.99 71.66 93.8 71.95 93.54 72.34 92.91 72.73 92.41 73.02 91.91 73.31 91.26 73.53 90.8 73.7 90.46 73.82 90.2 73.89 89.9 73.97 89.59 74.05 89.33 74.12 88.96 74.19 88.43 74.29 87.54 74.39 87 74.45 86.62 74.49 86.35 74.52 86.02 74.55 85.69 74.58 85.35 74.61 85.02 74.63 84.69 74.65 84.42 74.66 84.03 74.68 83.48 74.7 82.7 74.73 82.03 74.75 81.36 74.77 80.58 74.78 80.03 74.79 79.64 74.8 79.36 74.8 79.03 74.81 78.7 74.81 78.36 74.82 78.03 74.82 77.7 74.82 77.42 74.83 77.03 74.83 76.48 74.83 75.7 74.84 75.03 74.84 74.36 74.84 73.58 74.84 73.03 74.84 72.64 74.84 72.36 74.85 72.03 74.85 71.7 74.85 71.42 74.85 71.03 74.85 70.48 74.85 69.58 74.85 69.03 74.85 68.64 74.85 68.36 74.85 68.03 74.85 67.7 74.85 67.36 74.85 67.03 74.85 66.7 74.85 66.36 74.85 66.03 74.85 65.7 74.85 65.36 74.85 65.03 74.85 64.7 74.85 64.36 74.85 64.03 74.85 63.7 74.85 63.36 74.85 63.03 74.85 62.7 74.85 62.36 74.85 62.03 74.85 61.7 74.85 61.36 74.85 61.03 74.85 60.7 74.85 60.36 74.85 60.03 74.85 59.7 74.85 59.36 74.85 59.03 74.85 58.7 74.85 58.36 74.85 58.03 74.85 57.7 74.85 57.36 74.85 57.03 74.85 56.7 74.85 56.36 74.85 56.03 74.85 55.7 74.85 55.36 74.85 55.03 74.85 54.7 74.85 54.36 74.85 54.03 74.85 53.7 74.85 53.36 74.85 53.03 74.85 52.7 74.85 52.36 74.85 52.03 74.85 51.7 74.85 51.36 74.85 51.03 74.85 50.7 74.85 50.42 74.85 50.03 74.85 49.48 74.85 48.58 74.85 48.03 74.85 47.64 74.85 47.36 74.85 47.03 74.85 46.7 74.85 46.36 74.85 46.03 74.85 45.7 74.85 45.36 74.85 45.03 74.85 44.7 74.85 44.36 74.85 44.03 74.85 43.7 74.85 43.36 74.85 43.03 74.85 42.7 74.85 42.42 74.85 42.03 74.85 41.48 74.85 40.58 74.85 40.03 74.85 39.64 74.85 39.42 74.85 39.03 74.85 38.48 74.85 37.58 74.85 37.03 74.85 36.64 74.85 36.36 74.85 36.03 74.85 35.7 74.85 35.42 74.85 35.03 74.85 34.48 74.85 33.58 74.85 33.03 74.85 32.64 74.85 32.42 74.85 32.03 74.85 31.48 74.85 30.7 74.85 30.03 74.85 29.36 74.85 28.7 74.85 28.03 74.85 27.36 74.85 26.58 74.85 26.03 74.85 25.64 74.85 25.36 74.85 25.03 74.85 24.7 74.85 24.36 74.85 24.03 74.85 23.7 74.85 23.36 74.85 23.03 74.85 22.7 74.85 22.42 74.85 22.03 74.85 21.48 74.85 20.58 74.85 20.03 74.85 19.64 74.85 19.42 74.85 19.03 74.85 18.48 74.85 17.58 74.85 17.03 74.85 16.64 74.85 16.36 74.85 16.03 74.85 15.7 74.85 15.36 74.85 15.03 74.85 14.7 74.85 14.36 74.85 14.03 74.85 13.7 74.85 13.36 74.85 13.03 74.85 12.7 74.85 12.36 74.85 12.03 74.85 11.7 74.85 11.36 74.85 11.03 74.85 10.7 74.85 10.36 74.85 10.03 74.85 9.7 74.85 9.36 74.85 9.03 74.85 8.7 74.85 8.36 74.85 8.03 74.85 7.7 74.85 7.36 74.85 7.03 74.85 6.7 74.85 6.42 74.85 6.03 74.85 5.48 74.85 4.32 74.9 4.03 74.85 3.95 74.84 3.94 74.83 3.88 74.8 3.78 74.75 3.63 74.66 3.51 74.55 3.36 74.42 3.2 74.24 3.06 74.06 2.91 73.86 2.76 73.63 2.63 73.39 2.49 73.14 2.38 72.87 2.27 72.59 2.16 72.3 2.07 72 1.98 71.7 1.89 71.39 1.82 71.08 1.75 70.77 1.68 70.45 1.62 70.13 1.57 69.81 1.52 69.49 1.48 69.16 1.44 68.83 1.4 68.5 1.37 68.23 1.34 67.84 1.29 67.29 1.24 66.4 1.21 65.85 1.19 65.46 1.18 65.18 1.17 64.85 1.16 64.52 1.14 64.18 1.13 63.85 1.12 63.52 1.12 63.18 1.11 62.85 1.1 62.52 1.1 62.18 1.09 61.85 1.08 61.52 1.07 61.24 1.07 60.85 1.06 60.3 1.06 59.52 1.06 58.85 1.06 58.18 1.05 57.4 1.05 56.85 1.05 56.46 1.04 56.18 1.04 55.85 1.04 55.52 1.07 55.03 1.04 54.85 1.03 54.78 1.01 54.77 0.99 54.7 0.94 54.52 0.83 54.08 0.76 53.77 0.69 53.45 0.63 53.12 0.58 52.8 0.53 52.48 0.48 52.16 0.44 51.83 0.4 51.5 0.37 51.17 0.34 50.84 0.31 50.51 0.28 50.18 0.26 49.85 0.24 49.52 0.22 49.18 0.2 48.85 0.18 48.52 0.17 48.24 0.16 47.85 0.14 47.3 0.12 46.4 0.11 45.85 0.1 45.46 0.1 45.18 0.09 44.85 0.08 44.52 0.08 44.18 0.07 43.85 0.07 43.52 0.06 43.18 0.06 42.85 0.06 42.52 0.06 42.18 0.06 41.85 0.06 41.52 0.05 41.18 0.05 40.85 0.05 40.52 0.04 40.24 0.04 39.85 0.04 39.3 0.04 38.4 0.04 37.85 0.04 37.46 0.04 37.24 0.04 36.85 0.04 36.3 0.03 35.4 0.03 34.85 0.03 34.46 0.03 34.18 0.03 33.85 0.03 33.52 0.03 33.18 0.03 32.85 0.03 32.52 0.03 32.24 0.03 31.85 0.03 31.3 0.03 30.4 0.03 29.85 0.03 29.46 0.03 29.24 0.03 28.85 0.03 28.3 0.03 27.4 0.03 26.85 0.03 26.46 0.03 26.18 0.03 25.85 0.03 25.52 0.03 25.18 0.03 24.85 0.03 24.52 0.03 24.18 0.03 23.85 0.03 23.52 0.03 23.18 0.03 22.85 0.03 22.52 0.03 22.18 0.03 21.85 0.03 21.52 0.03 21.24 0.03 20.85 0.03 20.3 0.03 19.52 0.03 18.85 0.03 18.18 0.03 17.4 0.03 16.85 0.03 16.46 0.03 16.18 0.03 15.85 0.03 15.52 0.03 15.18 0.03 14.85 0.03 14.52 0.03 14.18 0.03 13.85 0.03 13.52 0.03 13.24 0.03 12.85 0.03 12.3 -0.04 11.41 0.03 10.85 0.08 10.43 0.22 10.11 0.3 9.76 0.37 9.43 0.43 9.12 0.48 8.8 0.53 8.48 0.58 8.16 0.62 7.83 0.66 7.5 0.69 7.17 0.72 6.84 0.75 6.51 0.78 6.18 0.8 5.85 0.82 5.52 0.81 5.05 0.86 4.85 0.88 4.76 0.9 4.74 0.94 4.65 1.05 4.42 1.35 3.86 1.58 3.48 1.82 3.09 2.15 2.69 2.35 2.34 2.51 2.06 2.54 1.8 2.73 1.56 2.96 1.27 3.4 0.96 3.71 0.75 3.96 0.58 4.18 0.46 4.43 0.34 4.69 0.21 5.26 0 5.26 0 5.26 0 5.26 0 5.26 0 5.26 0 5.26 0 5.26 0 " transform="matrix(1,0,0,1,6.9694207,7.1479975)"/>
</svg>