<svg viewBox="0 0 202 72" xmlns="http://www.w3.org/2000/svg">
<path d="M14.8098 71.6464C11.0009 70.3688 8.16832 68.2835 6.31207 65.3906C4.45582 62.4737 3.74465 58.942 4.17859 54.7955L5.19109 47.3826C5.31162 46.3701 5.33573 45.43 5.26341 44.5621C5.02234 41.838 3.39511 40.3434 0.381714 40.0781L1.06876 32.5929C5.52859 32.4 8.12011 29.7241 8.84332 24.5652L10.0005 16.2483C11.4228 8.41342 16.2924 3.24243 24.6094 0.735291L26.3089 6.73797C22.2589 8.30493 19.8362 11.9692 19.0406 17.7308L17.8835 26.0117C17.0638 30.6643 14.3759 34.1478 9.81966 36.4621C11.4831 37.6915 12.7005 39.2464 13.4719 41.1268C14.2434 42.9831 14.5206 45.0924 14.3035 47.4549L13.1826 55.9889L13.038 58.05C12.8692 61.9554 14.1951 64.5469 17.0157 65.8246L14.8098 71.6464ZM64.8201 14.7657H42.0389L40.2669 24.9629L47.1737 24.9991C52.9352 25.0232 57.4554 26.5178 60.734 29.4831C64.0125 32.4483 65.471 36.3897 65.1094 41.3077C64.7237 46.5389 62.53 50.7335 58.5281 53.8915C54.5263 57.0495 49.4277 58.6286 43.2321 58.6286H23.7054L32.854 5.97859H66.3389L64.8201 14.7657ZM38.7483 33.7138L35.9277 49.9138L43.6661 49.95C46.4625 49.95 48.8612 49.1666 50.862 47.5995C52.8871 46.0085 54.1045 43.875 54.5143 41.1991C54.8277 39.0054 54.3817 37.2455 53.1763 35.9197C51.971 34.5697 50.1509 33.8464 47.7161 33.75L38.7483 33.7138ZM80.2607 41.0906C80.3089 44.321 81.008 46.7077 82.358 48.2505C83.708 49.7934 85.7812 50.6129 88.5777 50.7094C93.1822 50.8781 96.762 48.6723 99.3174 44.092C100.33 42.2598 101.27 39.7889 102.138 36.6791L85.6125 36.7152L87.1674 27.9281H103.006L103.222 24.7822C103.295 21.3589 102.656 18.7312 101.306 16.8991C99.9563 15.067 97.9795 14.1027 95.3759 14.0063C92.2661 13.8617 89.7108 14.6451 87.7098 16.3567C85.7089 18.0443 84.3951 20.5394 83.7683 23.842L73.2094 23.9143C73.7397 20.2018 75.0415 16.9112 77.1148 14.0424C79.212 11.1737 81.888 8.97994 85.1424 7.46119C88.4209 5.91833 91.9889 5.18306 95.846 5.25538C99.3657 5.3277 102.415 6.14734 104.995 7.71431C107.574 9.25717 109.599 11.5112 111.069 14.4763C112.565 17.4415 113.421 20.7804 113.637 24.4929C113.782 27.7955 113.421 31.6768 112.552 36.1366C111.106 43.4893 108.201 49.2268 103.837 53.3491C99.4983 57.4715 94.2669 59.4723 88.1437 59.3518C82.575 59.2554 78.1634 57.58 74.9089 54.3255C71.6545 51.0469 69.9308 46.6232 69.738 41.0545L80.2607 41.0906ZM139.058 5.97859L145.531 44.0558L165.166 5.97859H179.269L170.121 58.6286H159.489L162.093 43.6219L167.227 20.1898L147.05 58.6286H139.781L132.73 18.8518L129.331 44.7791L126.908 58.6286H116.313L125.462 5.97859H139.058ZM175.435 65.7523C179.486 64.1852 181.908 60.521 182.704 54.7594L183.861 46.4424C184.681 41.7898 187.405 38.3304 192.033 36.0643C190.298 34.8831 189.044 33.3402 188.273 31.4357C187.501 29.5312 187.224 27.3978 187.441 25.0352L188.562 16.5014L188.707 14.4402C188.876 10.5589 187.562 7.96743 184.765 6.66565L187.08 0.952254C190.96 2.25404 193.781 4.36342 195.541 7.28038C197.325 10.1732 198 13.6446 197.566 17.6946L196.554 25.0715C196.433 26.108 196.409 27.0483 196.481 27.892C196.723 30.6643 198.35 32.1831 201.363 32.4483L200.676 39.9335C196.192 40.1746 193.601 42.8384 192.901 47.9251L191.925 55.121C190.695 63.6309 185.765 69.1875 177.135 71.7911L175.435 65.7523Z" fill="#302626"/>
</svg>
