<svg viewBox="0 0 63 72" xmlns="http://www.w3.org/2000/svg">
<path d="M0 64.1378H2.3761C3.45879 64.1378 4.24511 64.2944 4.73392 64.6076C5.22331 64.9208 5.46771 65.4184 5.46771 66.101C5.46771 66.5644 5.36036 66.9443 5.14622 67.2413C4.93208 67.5382 4.64713 67.7168 4.29194 67.7772V67.8299C4.77618 67.9396 5.12509 68.1449 5.33923 68.4453C5.55337 68.7457 5.66072 69.1453 5.66072 69.6441C5.66072 70.3517 5.40947 70.9033 4.90581 71.2994C4.40272 71.6955 3.71919 71.8933 2.85577 71.8933H0V64.1378ZM1.6189 67.2094H2.55883C2.99739 67.2094 3.31546 67.1403 3.5119 67.0029C3.70891 66.8649 3.80713 66.6369 3.80713 66.3185C3.80713 66.0216 3.70034 65.8087 3.4862 65.6794C3.27206 65.55 2.93343 65.4857 2.47032 65.4857H1.6189V67.2094ZM1.6189 68.5143V70.5356H2.67418C3.11959 70.5356 3.44851 70.4491 3.66151 70.2757C3.87451 70.1023 3.98015 69.8373 3.98015 69.48C3.98015 68.8368 3.52732 68.5143 2.62222 68.5143H1.6189ZM14.1167 68.0051C14.1167 69.2886 13.8032 70.2757 13.1768 70.9653C12.5503 71.6549 11.6521 72 10.482 72C9.31196 72 8.41371 71.6549 7.78728 70.9653C7.16027 70.2757 6.84734 69.2857 6.84734 67.9947C6.84734 66.7036 7.16142 65.7182 7.79013 65.0373C8.41885 64.3564 9.31938 64.016 10.4929 64.016C11.6664 64.016 12.5635 64.3593 13.1853 65.0449C13.806 65.731 14.1167 66.7181 14.1167 68.0051ZM8.54448 68.0051C8.54448 68.8716 8.70608 69.5241 9.03043 69.9625C9.35421 70.401 9.83788 70.6202 10.482 70.6202C11.7737 70.6202 12.4196 69.7485 12.4196 68.0051C12.4196 66.2582 11.7771 65.3847 10.4923 65.3847C9.84816 65.3847 9.36221 65.6046 9.035 66.0453C8.7078 66.4861 8.54448 67.1386 8.54448 68.0051ZM22.6303 68.0051C22.6303 69.2886 22.3168 70.2757 21.6904 70.9653C21.064 71.6549 20.1657 72 18.9957 72C17.8256 72 16.9274 71.6549 16.3009 70.9653C15.6739 70.2757 15.361 69.2857 15.361 67.9947C15.361 66.7036 15.6751 65.7182 16.3038 65.0373C16.9325 64.3564 17.833 64.016 19.0065 64.016C20.18 64.016 21.0771 64.3593 21.699 65.0449C22.3191 65.731 22.6303 66.7181 22.6303 68.0051ZM17.0575 68.0051C17.0575 68.8716 17.2192 69.5241 17.5435 69.9625C17.8673 70.401 18.351 70.6202 18.9951 70.6202C20.2868 70.6202 20.9326 69.7485 20.9326 68.0051C20.9326 66.2582 20.2902 65.3847 19.0054 65.3847C18.3612 65.3847 17.8753 65.6046 17.5481 66.0453C17.2209 66.4861 17.0575 67.1386 17.0575 68.0051ZM27.1581 71.8933H25.5392V65.5065H23.4658V64.1378H29.2316V65.5065H27.1581V71.8933ZM34.9134 69.7398C34.9134 70.4404 34.6656 70.992 34.1693 71.3951C33.6731 71.7982 32.9827 72 32.0988 72C31.2839 72 30.5632 71.844 29.9368 71.5331V70.0055C30.4519 70.2386 30.8881 70.4033 31.245 70.499C31.6019 70.5947 31.928 70.6423 32.2244 70.6423C32.5796 70.6423 32.852 70.5733 33.0415 70.4358C33.2317 70.2978 33.3265 70.093 33.3265 69.8204C33.3265 69.6685 33.2848 69.5333 33.2014 69.4144C33.1181 69.2961 32.9953 69.1819 32.8331 69.0723C32.6709 68.9626 32.3414 68.7875 31.8435 68.5474C31.377 68.3247 31.0269 68.1107 30.7939 67.9053C30.5604 67.7 30.3742 67.4617 30.2349 67.1896C30.0955 66.917 30.0259 66.5986 30.0259 66.235C30.0259 65.5489 30.2549 65.0095 30.7128 64.6168C31.1708 64.2242 31.8035 64.0282 32.6115 64.0282C33.0084 64.0282 33.387 64.0757 33.7473 64.1714C34.1077 64.2671 34.4846 64.4011 34.878 64.5745L34.3555 65.8528C33.9484 65.6834 33.6114 65.5645 33.3448 65.4973C33.0781 65.43 32.8165 65.3963 32.559 65.3963C32.2524 65.3963 32.0177 65.4688 31.8538 65.6138C31.6899 65.7588 31.6082 65.9479 31.6082 66.1816C31.6082 66.3266 31.6413 66.4531 31.7076 66.5609C31.7738 66.6688 31.8789 66.7732 32.0234 66.8741C32.1678 66.975 32.5099 67.156 33.0495 67.4182C33.7633 67.765 34.2527 68.1124 34.5171 68.4604C34.7815 68.8084 34.9134 69.2341 34.9134 69.7398ZM39.2436 71.8933H37.6247V65.5065H35.5513V64.1378H41.3171V65.5065H39.2436V71.8933ZM44.1112 68.9174V71.8933H42.4923V64.1378H44.717C45.7546 64.1378 46.5221 64.3298 47.02 64.7131C47.518 65.0971 47.767 65.68 47.767 66.4612C47.767 66.9176 47.6436 67.323 47.3964 67.6786C47.1491 68.0341 46.799 68.3125 46.3468 68.5137C47.4957 70.2572 48.2443 71.3835 48.5927 71.8927H46.7962L44.9734 68.9168H44.1112V68.9174ZM44.1112 67.5806H44.6337C45.1453 67.5806 45.5233 67.4941 45.7672 67.3207C46.011 67.1473 46.1326 66.8747 46.1326 66.5035C46.1326 66.1358 46.0082 65.8742 45.7592 65.7182C45.5102 65.5628 45.1248 65.4851 44.6023 65.4851H44.1112V67.5806ZM54.2277 71.8933L53.6738 70.0472H50.89L50.3361 71.8933H48.5915L51.2863 64.1065H53.2655L55.9711 71.8933H54.2277ZM53.2872 68.668C52.7756 66.9954 52.4872 66.0494 52.4227 65.8302C52.3581 65.6109 52.3124 65.4375 52.2845 65.3105C52.1697 65.7629 51.8408 66.8823 51.2971 68.668H53.2872ZM62.208 66.5569C62.208 67.3915 61.951 68.03 61.4377 68.4714C60.9243 68.9139 60.1939 69.1349 59.2466 69.1349H58.5522V71.8933H56.9333V64.1378H59.3722C60.2984 64.1378 61.0025 64.3402 61.4851 64.745C61.967 65.1504 62.208 65.7542 62.208 66.5569ZM58.5522 67.7876H59.085C59.5829 67.7876 59.9552 67.6878 60.2025 67.4878C60.4498 67.2877 60.5731 66.9971 60.5731 66.6155C60.5731 66.2298 60.4692 65.945 60.2625 65.7611C60.0552 65.5773 59.7303 65.4851 59.2883 65.4851H58.5516L58.5522 67.7876ZM36.7864 31.7592C35.654 31.3805 34.0237 31.319 31.8955 31.319H24.2515V42.9186H32.4882C33.9169 42.9186 34.9203 42.7742 35.4982 42.6651C36.5163 42.4807 37.3677 42.1258 38.0518 41.6931C38.736 41.2616 39.2984 40.6091 39.7393 39.7832C40.1795 38.9573 40.4005 37.9928 40.4005 36.9117C40.4005 35.6451 40.0813 34.6034 39.4429 33.6696C38.805 32.7353 37.9194 32.1373 36.7864 31.7592ZM35.6124 26.7644C36.7373 26.4245 37.5853 25.8097 38.1546 25.0227C38.7251 24.2357 39.0101 23.223 39.0101 22.0335C39.0101 20.9066 38.7439 19.902 38.2117 19.0443C37.6795 18.187 36.9195 17.6053 35.9321 17.2887C34.9431 16.9731 33.2483 16.8194 30.8465 16.8194H24.2515V27.2591H31.3935C33.355 27.2591 34.7609 27.0277 35.6124 26.7644ZM61.3691 8.19281C61.3691 3.6678 57.7573 0 53.3021 0H8.90595C4.45069 0 0.838858 3.6678 0.838858 8.19281V53.2852C0.838858 57.8102 4.45069 61.478 8.90595 61.478H53.3021C57.7573 61.478 61.3691 57.8102 61.3691 53.2852V8.19281ZM43.9924 41.3352C43.3317 42.7017 42.514 43.7555 41.5415 44.4967C40.5684 45.2374 39.3481 45.9154 37.8811 46.2935C36.4141 46.6722 34.6165 46.9785 32.4882 46.9785H19.6832V12.7596H32.2832C34.8375 12.7596 36.8852 13.1192 38.4282 13.8059C39.9717 14.4931 41.1794 15.558 42.0548 16.9859C42.9285 18.4144 43.366 19.9125 43.366 21.4721C43.366 22.9232 42.9776 24.2913 42.2033 25.5731C41.4278 26.8549 40.2572 27.8901 38.6914 28.6772C40.7129 29.2792 42.2678 30.3075 43.3545 31.7586C44.4412 33.2103 44.9848 34.9241 44.9848 36.9007C44.9843 38.491 44.6542 39.9694 43.9924 41.3352Z" fill="#5B4282"/>
</svg>
