<svg viewBox="0 0 52 72" xmlns="http://www.w3.org/2000/svg">
<path d="M40.2004 2.23897H35.9129L40.3717 7.07749V9.3809H31.1882V6.68381H35.6464L31.1882 1.84529V-0.460449H40.2004V2.23897V2.23897ZM29.3673 2.23897H25.0798L29.5386 7.07749V9.3809H20.3545V6.68381H24.8133L20.3545 1.84529V-0.460449H29.3673V2.23897V2.23897ZM18.6405 2.34929H14.0139V6.57116H18.6405V9.3809H10.7251V-0.460449H18.6405V2.34929V2.34929Z" fill="#131313"/>
<path d="M4.65038 66.1953L0 13.9355H51.0968L46.4424 66.1866L25.5171 72L4.65038 66.1953V66.1953Z" fill="#1572B6"/>
<path d="M25.549 67.9772L42.6426 63.238L46.6641 18.1852H25.549V67.9772Z" fill="#33A9DC"/>
<path d="M25.5483 37.289H34.1059L34.6976 30.6667H25.5483V24.1995H41.7652L41.6101 25.9345L40.0209 43.7557H25.5483V37.289V37.289Z" fill="white"/>
<path d="M25.5873 54.0848L25.5588 54.0929L18.3565 52.1477L17.8955 46.9899H11.4044L12.3108 57.1442L25.5576 60.8214L25.5878 60.8127V54.0848H25.5873Z" fill="#EBEBEB"/>
<path d="M33.5566 43.4822L32.7773 52.1431L25.5646 54.09V60.8185L38.8224 57.1442L38.92 56.0514L40.0453 43.4822H33.5566V43.4822Z" fill="white"/>
<path d="M25.5709 24.1995V30.6662H9.94985L9.81978 29.2128L9.52539 25.9345L9.37036 24.1995H25.5709ZM25.5483 37.2896V43.7568H18.4371L18.3077 42.3035L18.0127 39.0246L17.8577 37.2896H25.5483V37.2896Z" fill="#EBEBEB"/>
</svg>
