<svg viewBox="0 0 158 72" xmlns="http://www.w3.org/2000/svg">
<path d="M13.3945 6.60938C18.1055 5.66016 23.6953 5.16798 30.164 5.13282C36.668 5.06251 42.3984 5.80079 47.3555 7.34766C48.5859 7.69923 49.8691 8.209 51.205 8.87696C52.5762 9.50977 53.5957 10.4414 54.2637 11.6719C54.9668 13.043 55.3184 15.2403 55.3184 18.2637C55.3184 21.2871 54.0351 22.7109 51.4687 22.5351C50.7656 22.5 50.0449 22.3594 49.3066 22.1132C48.6035 21.832 47.918 21.5859 47.25 21.375C42.6094 19.8984 37.7578 18.8965 32.6953 18.3691C27.668 17.8418 22.9394 17.6837 18.5097 17.8945C17.9824 21.3399 17.4902 26.6484 17.0332 33.8203C20.7949 33.8906 24.8555 34.0313 29.2149 34.2422C33.5743 34.4531 36.3691 34.6641 37.5996 34.875C40.2012 35.2969 41.291 36.8789 40.8691 39.6212C40.4824 42.3632 39.8672 44.209 39.0234 45.1582C37.9336 46.3887 34.9628 47.0743 30.1113 47.2149C25.2597 47.3203 20.9356 47.25 17.1387 47.0039C17.455 53.0156 18.1757 58.3066 19.3007 62.8769C19.4765 63.6153 19.6699 64.3887 19.8809 65.1972C20.1269 66.0059 20.25 66.7969 20.25 67.5703C20.1797 69.0118 19.3887 69.9962 17.8769 70.5234C16.4003 71.0156 14.6953 71.2441 12.7618 71.209C10.8281 71.1738 9.42185 70.9805 8.54295 70.6289C7.66404 70.2774 6.83786 69.8555 6.06443 69.3632C4.69334 68.5547 3.69138 67.3769 3.05857 65.8301C2.46092 64.2832 2.00388 62.7891 1.68748 61.3476C1.05467 58.5703 0.650368 55.0722 0.474587 50.8535C0.298806 46.5996 0.316384 42.2403 0.527322 37.7754C0.738259 33.2754 1.12498 28.9688 1.68748 24.8555C2.28513 20.707 3.00584 17.3672 3.84959 14.8359C4.58786 12.5859 5.41404 10.8106 6.3281 9.50977C7.06638 8.49025 7.98045 7.78712 9.07029 7.40039C9.73826 7.22462 10.4414 7.084 11.1797 6.97852C11.918 6.87306 12.6562 6.75001 13.3945 6.60938ZM69.293 16.7344C68.5547 23.9766 68.291 31.9394 68.5019 40.6231C68.7128 49.2715 69.5215 56.918 70.9277 63.5625C71.0332 64.2656 71.1738 65.0039 71.3496 65.7774C71.5253 66.5156 71.6484 67.2539 71.7187 67.9922C71.7187 69.293 71.2618 70.2422 70.3476 70.8399C69.4336 71.4024 68.3788 71.7363 67.1836 71.8418C65.9882 71.9121 64.8106 71.8066 63.6503 71.5254C62.4902 71.2441 61.664 70.8926 61.1719 70.4707C60.2578 69.7676 59.5722 68.7129 59.1152 67.3066C58.6582 65.9004 58.3066 64.5293 58.0606 63.1934C57.5684 60.6269 57.1816 57.3575 56.9003 53.3847C56.6543 49.3769 56.4961 45.2462 56.4257 40.9922C56.3906 36.7382 56.4609 32.6601 56.6368 28.7578C56.8125 24.8555 57.1113 21.709 57.5332 19.3184C57.8847 17.0684 58.3243 15.3106 58.8515 14.045C59.2734 12.9903 59.8007 12.2695 60.4336 11.8828C61.207 11.4609 62.0859 11.2149 63.0703 11.1445C64.0899 11.0391 65.0038 11.0566 65.8125 11.1973C66.9726 11.3379 67.8868 11.7774 68.5547 12.5156C69.2578 13.2188 69.5038 14.625 69.293 16.7344ZM85.2187 53.8066C85.3243 54.1582 85.4472 54.545 85.5879 54.9668C86.5019 57.5332 88.5234 59.4844 91.6524 60.8203C94.8163 62.1563 97.8222 62.666 100.67 62.3496C102.92 62.1738 105.17 60.9082 107.42 58.5528C109.705 56.1972 112.641 56.3379 116.226 58.9746C117.809 59.9941 117.668 61.6113 115.805 63.8262C113.941 66.041 112.465 67.5351 111.375 68.3087C110.637 68.8359 109.881 69.293 109.107 69.6797C107.068 70.7344 105.012 71.3672 102.937 71.5781C100.863 71.7539 98.8243 71.7363 96.8203 71.5254C94.0781 71.2793 91.4413 70.6641 88.9101 69.6797C86.9413 68.9063 85.043 67.8868 83.2149 66.6212C81.4219 65.3555 79.8399 63.791 78.4687 61.9278C75.9024 58.5176 74.1797 54.7382 73.3007 50.5899C71.9297 44.1914 73.5118 38.8476 78.0469 34.5587C80.332 32.3789 82.8984 30.7618 85.7461 29.707C88.6288 28.6172 92.0566 27.8087 96.0293 27.2813C100.002 26.7539 104.027 27.5625 108.106 29.707C112.219 31.8164 114.768 34.875 115.752 38.8828C116.737 42.8906 116.912 45.6856 116.279 47.2676C115.647 48.8496 114.556 49.8516 113.01 50.2734C111.498 50.6953 102.234 51.8731 85.2187 53.8066ZM107.473 42.8906C105.996 39.6563 103.324 38.1621 99.457 38.4082C95.5899 38.6191 92.584 39.1113 90.4394 39.8847C88.2949 40.6582 86.7129 42.3457 85.6934 44.9472C85.5879 45.1231 85.5 45.2813 85.4297 45.4219L107.473 42.8906ZM128.25 30.2871C130.641 34.3653 134.068 39.2519 138.534 44.9472C142.893 38.8301 145.863 33.6094 147.445 29.2851C148.078 27.668 148.869 26.8066 149.818 26.7012C150.803 26.5606 152.191 26.9825 153.984 27.9668C155.812 28.916 156.498 30.4101 156.041 32.4493C156.076 33.75 155.847 35.2618 155.356 36.9844C154.863 38.918 153.966 41.3087 152.666 44.1563C151.365 46.9688 149.274 50.3438 146.391 54.2813C148.781 56.4609 151.101 58.3066 153.351 59.8184C153.844 60.17 154.353 60.5215 154.881 60.8731C155.443 61.2246 155.918 61.6113 156.305 62.0332C157.043 62.8769 157.131 63.8262 156.568 64.8809C156.041 65.9356 155.531 66.6914 155.038 67.1484C154.582 67.5703 153.879 68.0801 152.93 68.6778C151.981 69.2403 151.172 69.5743 150.504 69.6797C149.344 69.8906 148.184 69.7149 147.024 69.1524C145.899 68.5899 144.879 67.9746 143.965 67.3066C142.769 66.4981 140.871 64.8632 138.269 62.4024C135.809 64.8984 134.226 66.4981 133.524 67.2012C132.75 67.9746 131.836 68.7481 130.781 69.5215C129.762 70.2597 128.654 70.6289 127.459 70.6289C126.791 70.6289 126.211 70.4882 125.719 70.207C125.262 69.8906 124.647 69.4512 123.873 68.8887C123.135 68.3262 122.397 67.5879 121.659 66.6738C120.955 65.7246 120.885 64.7754 121.447 63.8262C121.763 63.334 122.15 62.8769 122.607 62.4551C123.1 61.9981 123.556 61.5587 123.978 61.1368C125.877 59.2734 127.846 57.041 129.885 54.4394C127.705 51.8379 125.719 49.2539 123.925 46.6875C122.132 44.1212 120.815 41.9414 119.971 40.1484C119.654 39.4805 119.356 38.795 119.074 38.0918C118.793 37.3535 118.6 36.6153 118.494 35.8769C118.388 34.8926 118.512 34.0313 118.863 33.293C119.356 32.4493 119.83 31.7109 120.287 31.0781C120.744 30.4453 121.394 29.8653 122.238 29.3379C123.399 28.5996 124.471 28.2129 125.455 28.1778C126.44 28.1075 127.371 28.8106 128.25 30.2871Z" fill="#2642D6"/>
</svg>
