<svg viewBox="0 0 20 20" xmlns="http://www.w3.org/2000/svg">
<path fill-rule="evenodd" clip-rule="evenodd" d="M10.1126 0.236389C4.59068 0.236389 0.11364 4.82668 0.11364 10.49C0.11364 15.0197 2.97863 18.8625 6.95258 20.2188C7.45276 20.3127 7.63502 19.9961 7.63502 19.7239C7.63502 19.4811 7.6267 18.836 7.6217 17.9806C4.83994 18.6001 4.25321 16.606 4.25321 16.606C3.79839 15.422 3.14258 15.1067 3.14258 15.1067C2.23461 14.4702 3.21124 14.483 3.21124 14.483C4.21492 14.5559 4.74298 15.5398 4.74298 15.5398C5.63514 17.1064 7.08366 16.6537 7.65333 16.3918C7.74446 15.7292 8.00204 15.2774 8.28833 15.021C6.06791 14.7624 3.73306 13.8823 3.73306 9.95369C3.73306 8.8346 4.12296 7.91901 4.76254 7.20225C4.65976 6.94285 4.31646 5.90055 4.86033 4.48878C4.86033 4.48878 5.70006 4.21316 7.61047 5.54003C8.40817 5.31263 9.26371 5.19872 10.1138 5.19488C10.9632 5.19872 11.8187 5.31263 12.6176 5.54003C14.5268 4.21316 15.3649 4.48878 15.3649 4.48878C15.9104 5.90055 15.5671 6.94285 15.4643 7.20225C16.1052 7.91901 16.4926 8.8346 16.4926 9.95369C16.4926 13.8925 14.154 14.759 11.9261 15.0129C12.2856 15.3294 12.6052 15.9549 12.6052 16.9119C12.6052 18.2823 12.5931 19.3881 12.5931 19.7239C12.5931 19.9987 12.7729 20.3178 13.2805 20.2175C17.2511 18.8587 20.1136 15.0184 20.1136 10.49C20.1136 4.82668 15.6362 0.236389 10.1126 0.236389" fill="#943496"/>
</svg>
