<svg viewBox="0 0 237 72" xmlns="http://www.w3.org/2000/svg">
<path d="M54.0083 4.05736C56.8519 4.72129 59.1014 5.5512 60.7571 6.54712C62.7008 7.76432 63.6726 9.20285 63.6726 10.8627C63.6726 12.7807 63.5106 14.2193 63.1867 15.1783C62.8627 16.1004 62.2328 17.4098 61.2971 19.1065C59.9292 21.541 58.6155 22.7581 57.3558 22.7581C56.204 22.7581 55.0702 22.5737 53.9544 22.2049C52.8386 21.7992 51.7588 21.4118 50.7149 21.043C48.5193 20.3053 45.5139 20.0102 41.6985 20.1577C37.8832 20.2685 34.3018 21.0983 30.9545 22.6475C27.6071 24.1967 24.7456 26.6127 22.3701 29.8954C19.9945 33.1783 19.8145 38.6189 21.8301 46.2171C23.0899 50.6803 25.8614 54.0737 30.1447 56.3975C34.4639 58.7213 40.6008 58.9426 48.5553 57.0615C43.5883 55.4754 40.7988 54.4794 40.1868 54.0737C39.359 53.4836 38.7111 52.8381 38.2432 52.1373C37.8473 51.584 37.5773 50.9384 37.4333 50.2007C37.1094 48.2091 37.2534 46.1435 37.8653 44.004C38.3331 42.2335 39.8989 41.5697 42.5624 42.0123C45.262 42.418 48.2134 43.2848 51.4168 44.6127C54.6203 45.9036 57.6617 47.3422 60.5412 48.9282C63.4207 50.5143 65.3284 51.6025 66.2641 52.1927C68.5318 53.7417 68.2978 56.2315 65.5623 59.6619C62.8627 63.0553 60.7212 65.3422 59.1375 66.5225C58.0216 67.334 56.9058 68.0348 55.79 68.6249C52.8026 70.2479 49.7792 71.2069 46.7197 71.502C43.6962 71.7602 40.6727 71.7417 37.6493 71.4466C33.6541 71.0779 29.8207 70.1373 26.1493 68.6249C23.1979 67.4446 20.3904 65.877 17.7268 63.922C15.0633 61.9672 12.7238 59.5697 10.7081 56.7295C6.9288 51.5286 4.40925 45.7377 3.14949 39.3566C1.09785 29.5082 3.41943 21.3012 10.1142 14.7357C13.4616 11.3791 17.241 8.87087 21.4522 7.21105C25.6994 5.5512 29.8027 4.38932 33.762 3.72539C37.0734 3.209 40.4568 2.9508 43.9122 2.9508C47.3675 2.9508 50.733 3.31965 54.0083 4.05736ZM70.5294 19.1065C70.7093 16.7459 70.9973 15.1783 71.3933 14.4036C71.8252 13.5922 73.247 12.4672 75.6585 11.0287C82.1013 7.22949 89.552 5.09014 98.0105 4.61063C106.505 4.09424 113.794 6.56555 119.876 12.0246C122.684 14.5697 124.898 17.8524 126.518 21.8729C128.173 25.8565 128.101 29.6741 126.301 33.3258C125.581 34.875 124.573 36.1475 123.278 37.1435C122.019 38.1024 120.903 39.2275 119.931 40.5184C119.102 41.6987 118.725 42.9528 118.797 44.2807C118.833 45.2397 119.013 46.1435 119.336 46.9918C119.588 47.8033 119.949 48.5778 120.417 49.3155C120.849 50.0901 121.352 50.7725 121.928 51.3626C122.576 52.0635 123.224 52.6721 123.872 53.1885C124.412 53.6311 125.149 54.1843 126.086 54.8484C126.589 55.1803 127.381 55.6783 128.461 56.3422C128.821 56.6004 129.199 56.8401 129.595 57.0615C130.027 57.2827 130.441 57.5225 130.837 57.7807C131.88 58.3708 132.654 58.8135 133.158 59.1086C134.706 60.1045 134.958 61.3586 133.914 62.8708C133.086 64.1249 131.916 65.4528 130.405 66.8545C128.893 68.2561 127.49 69.3626 126.193 70.1741C124.502 71.2807 122.612 71.3914 120.525 70.5062C118.472 69.0676 115.72 66.3566 112.264 62.373C108.845 58.3524 106.127 55.2171 104.111 52.9672C102.924 51.7869 101.412 51.0123 99.5762 50.6434C97.7405 50.2377 96.1028 50.7172 94.6631 52.0819C93.1154 53.5574 92.4855 56.2315 92.7734 60.1045C93.0973 63.9406 93.4393 66.8176 93.7992 68.7357C93.9792 69.916 93.8353 70.6905 93.3673 71.0594C92.9354 71.3914 92.2335 71.6127 91.2617 71.7233C90.1458 71.8708 89.0301 71.9078 87.9142 71.834C86.8344 71.7603 85.8446 71.7787 84.9448 71.8893C84.1529 71.8156 83.3431 71.7049 82.5152 71.5574C81.7234 71.373 81.0395 70.9488 80.4636 70.2848C79.2758 68.9938 77.9621 65.877 76.5223 60.9344C75.1186 55.9548 74.2187 52.5246 73.8229 50.6434C73.7508 50.3115 73.6789 49.9795 73.6068 49.6475C73.5349 49.2787 73.4628 48.9098 73.3909 48.541C72.455 44.0779 71.6452 39.2643 70.9613 34.1004C70.2774 28.8996 70.1334 23.9016 70.5294 19.1065ZM105.299 18.8299C101.052 17.5758 96.6426 17.7787 92.0715 19.4386C89.8759 20.2869 88.3642 21.7992 87.5363 23.9754C87.0685 25.2663 86.9964 27.2582 87.3204 29.9508C87.6803 32.6434 88.2742 34.4877 89.1021 35.4836C90.8657 37.5122 93.3493 38.3975 96.5527 38.1393C98.1005 37.9918 99.6842 37.7521 101.304 37.42C102.96 37.0512 104.507 36.5164 105.947 35.8156C108.359 34.6721 110.086 32.7357 111.13 30.0062C112.21 27.2766 111.868 24.6761 110.104 22.2049C108.773 20.5082 107.171 19.3832 105.299 18.8299ZM135.858 61.8196C135.893 59.4958 137.063 58.334 139.367 58.334C139.655 58.334 140.356 58.3708 141.473 58.4446C142.624 58.4816 143.398 58.5 143.795 58.5C143.615 55.8442 143.47 51.75 143.363 46.2171C143.363 43.5614 143.452 40.2603 143.632 36.3135C143.849 32.8463 144.118 29.545 144.442 26.4098C145.162 20.1393 145.882 15.9344 146.601 13.7951C145.018 13.6475 144.064 13.5553 143.74 13.5184C143.38 13.4816 142.138 13.3708 140.014 13.1865C139.763 13.1865 139.403 13.1495 138.935 13.0758C138.827 13.0758 138.539 13.0204 138.071 12.9098C136.955 12.6885 136.181 11.9508 135.749 10.6967C135.354 9.66391 135.48 8.31761 136.128 6.65776C136.776 4.99794 137.351 3.83604 137.856 3.17211C138.611 2.28686 140.231 1.65982 142.714 1.29096C145.055 0.995881 147.699 0.903668 150.651 1.01432C153.566 1.12498 156.32 1.34628 158.912 1.67826C161.287 2.01022 163.213 2.32375 164.688 2.61883C164.94 2.65572 165.337 2.80326 165.877 3.06145C166.165 3.209 166.542 3.43031 167.01 3.72539C167.01 3.72539 167.369 4.00202 168.09 4.55531C168.27 4.70285 168.612 4.99794 169.116 5.44056C169.332 5.66187 169.871 7.46925 170.735 10.8627C170.664 12.8545 169.944 13.9426 168.575 14.1271C167.208 14.3115 165.84 14.3852 164.473 14.3483C163.753 14.3483 162.493 14.3115 160.694 14.2377C160.081 20.0287 159.667 24.3074 159.452 27.0737C159.2 29.7664 159.002 32.957 158.858 36.6455C158.714 39.8545 158.714 43.0082 158.858 46.1065C159.037 51.7869 159.271 55.9734 159.559 58.6659C161.215 58.9242 162.332 59.0901 162.907 59.1639C163.302 59.2007 163.699 59.2377 164.095 59.2746C164.527 59.3115 164.905 59.3299 165.228 59.3299C165.768 59.4036 166.416 59.4774 167.172 59.5512C167.46 59.5881 167.712 59.6434 167.928 59.7172C168.143 59.7541 168.342 59.7725 168.521 59.7725C169.602 60.0307 170.394 60.7869 170.897 62.041L170.357 66.9098C169.925 68.3114 169.493 69.2705 169.061 69.7869C168.342 70.6721 166.722 71.2991 164.202 71.6681C163.05 71.8524 161.791 71.9631 160.423 72C159.056 72 157.67 71.9816 156.266 71.9446C153.675 71.9078 150.903 71.6865 147.951 71.2807C145.72 71.0225 143.795 70.7275 142.175 70.3954C141.635 70.2111 141.257 70.0451 141.041 69.8976C140.825 69.8237 140.429 69.6025 139.853 69.2335C139.601 69.0492 139.241 68.7725 138.773 68.4036C138.81 68.4406 138.485 68.1639 137.802 67.5737C137.585 67.4262 137.189 66.541 136.613 64.918C136.074 63.2951 135.822 62.2623 135.858 61.8196ZM175.918 6.60244C176.638 4.27867 177.971 3.04302 179.914 2.89546C185.673 2.60039 191.414 2.74792 197.136 3.33809C202.895 3.89138 208.637 5.69876 214.359 8.76023C220.802 12.2643 225.95 16.7643 229.801 22.2603C233.076 26.9816 235.164 32.1639 236.064 37.8073C236.639 41.8278 235.938 45.793 233.958 49.7029C232.015 53.6127 229.891 56.877 227.588 59.4958C224.888 62.4836 221.864 64.8626 218.517 66.6331C215.133 68.4406 211.408 69.6761 207.341 70.3402C202.23 71.1885 196.992 71.3545 191.63 70.8381C186.267 70.2848 180.921 69.6393 175.594 68.9016C173.939 68.7172 172.84 68.2193 172.301 67.4078C171.761 66.5963 171.473 65.6004 171.438 64.42C171.15 56.1947 171.258 46.3463 171.761 34.875C172.301 23.3668 173.687 13.9426 175.918 6.60244ZM219.488 37.8073C219.273 34.9672 217.671 32.3115 214.684 29.8401C213.568 28.9918 212.289 28.1435 210.85 27.2951C206.676 25.0819 202.392 23.6803 198 23.0901C196.848 22.9057 195.751 22.832 194.707 22.8688C193.52 22.9795 192.512 23.4222 191.684 24.1967C191.288 24.5656 190.91 25.9672 190.55 28.4016C190.19 30.836 189.884 33.5102 189.632 36.4242C189.38 39.3012 189.218 41.9938 189.146 44.502C189.074 47.0102 189.146 48.4856 189.362 48.9282C189.47 49.2233 189.614 49.4446 189.794 49.5922C191.63 50.5881 193.681 51.3442 195.949 51.8606C198.18 52.3402 200.358 52.5246 202.482 52.4139C205.289 52.3033 208.331 51.75 211.606 50.7541C214.918 49.7213 217.113 47.8217 218.193 45.0553C219.129 42.6947 219.561 40.2787 219.488 37.8073Z" fill="#9D4B45"/>
</svg>
