<svg viewBox="0 0 36 72" xmlns="http://www.w3.org/2000/svg">
<path d="M17.8508 56.8157C14.8065 56.8286 11.7709 56.4897 8.80455 55.8052C7.92279 55.6061 7.05788 55.3387 6.2177 55.0054L8.30827 58.5772L9.12598 69.7372C9.12598 70.9895 13.1014 72.0023 18.0026 72.0023C22.9037 72.0023 26.8791 70.9895 26.8791 69.7372L27.5271 58.4563L29.5045 54.9952C28.6575 55.3338 27.7848 55.6046 26.8945 55.8052C23.929 56.4894 20.8943 56.8286 17.8508 56.8157ZM29.5714 20.5019C25.7333 20.9792 21.8677 21.2034 18 21.173C14.1323 21.2034 10.2668 20.9792 6.42855 20.5019C5.20944 20.354 4.00511 20.1028 2.82855 19.751C2.52217 19.656 2.22519 19.5329 1.94141 19.3833L3.85713 37.0286C3.94628 36.7252 4.04569 36.4217 4.15541 36.1183C4.37763 35.4981 4.63519 34.891 4.92684 34.3003C5.21512 33.7215 5.53799 33.1609 5.8937 32.6212C6.22927 32.1105 6.60048 31.624 7.00455 31.1657C7.37065 30.7471 7.77529 30.364 8.21312 30.0214C8.59712 29.7198 9.01793 29.4683 9.46541 29.2732C9.86108 29.1034 10.2872 29.0158 10.7177 29.016C11.2057 29.0188 11.6837 29.1538 12.1011 29.4069C12.6082 29.7283 13.0355 30.1608 13.3508 30.672C13.4352 30.79 13.4931 30.9253 13.5206 31.068C13.5436 31.1925 13.5557 31.319 13.5566 31.446C13.5698 31.6828 13.4988 31.9171 13.356 32.1069C13.3007 32.1809 13.2291 32.2416 13.1465 32.2835C13.064 32.3254 12.9728 32.3476 12.8803 32.3486C12.7879 32.344 12.6977 32.3185 12.6166 32.2738C12.5355 32.2293 12.4656 32.1668 12.4123 32.0914C12.2287 31.8533 12.067 31.5995 11.9288 31.3329C11.7977 31.0773 11.6083 30.8561 11.376 30.6874C11.1825 30.5563 10.954 30.4864 10.7203 30.4869C10.2901 30.5098 9.87851 30.6692 9.54512 30.942C9.08353 31.2892 8.66793 31.6934 8.30827 32.1454C7.87215 32.6844 7.47921 33.2571 7.13312 33.858C6.76191 34.4942 6.4304 35.153 6.14055 35.8303C5.86235 36.4755 5.63285 37.141 5.45398 37.8206C5.29445 38.3945 5.20805 38.9862 5.19684 39.582C5.19748 39.7607 5.20952 39.9394 5.23284 40.1169C5.25321 40.2886 5.29823 40.4566 5.36655 40.6157C5.4233 40.7561 5.51125 40.8819 5.6237 40.9834C5.7436 41.0819 5.89544 41.1331 6.05055 41.1274C6.2834 41.1166 6.51014 41.0495 6.71141 40.932C6.98406 40.7849 7.24233 40.6126 7.48284 40.4177C7.76169 40.1935 8.0278 39.9538 8.27998 39.7003C8.54741 39.4344 8.79599 39.1644 9.0257 38.8903C9.2554 38.6159 9.45942 38.3536 9.6377 38.1034C9.78928 37.8962 9.92346 37.6768 10.0388 37.4477L10.7691 35.262C10.8298 35.0584 10.952 34.8789 11.1188 34.7477C11.248 34.6528 11.4035 34.6009 11.5637 34.5986C11.638 34.5986 11.7118 34.6107 11.7823 34.6346C11.8585 34.6598 11.928 34.7017 11.9859 34.7572C12.0437 34.8128 12.0884 34.8807 12.1166 34.956C12.1526 35.0494 12.17 35.1489 12.168 35.2492C12.1692 35.5305 12.1425 35.8113 12.0883 36.0874C12.0369 36.3482 11.9699 36.6058 11.8877 36.8589C11.8071 37.1073 11.7171 37.3567 11.6177 37.6072C11.5183 37.8574 11.4214 38.1196 11.3271 38.394C11.2809 38.4881 11.243 38.5861 11.214 38.6872C11.1591 38.8584 11.0923 39.0652 11.0134 39.3069C10.9345 39.5486 10.8488 39.8263 10.7563 40.14L10.4734 41.0786C10.3757 41.3974 10.2831 41.7101 10.1957 42.0172C10.1083 42.3239 10.0286 42.6016 9.95655 42.8503L9.77912 43.4726C9.73284 43.6397 9.70198 43.7297 9.6917 43.7709C9.65979 43.884 9.61761 43.9943 9.5657 44.1C9.50869 44.2206 9.44067 44.3361 9.36255 44.4446C9.28978 44.5423 9.20315 44.629 9.10541 44.7017C9.02323 44.7689 8.92099 44.8069 8.81484 44.8097C8.74474 44.8154 8.67428 44.8033 8.61033 44.774C8.54636 44.7447 8.49104 44.6994 8.4497 44.6426C8.35694 44.4515 8.31786 44.2391 8.33655 44.028V43.8969C8.33411 43.8506 8.33411 43.804 8.33655 43.758C8.36985 43.568 8.41976 43.381 8.4857 43.2C8.55942 42.9274 8.64513 42.6189 8.74284 42.2743C8.84055 41.9297 8.95028 41.5731 9.07198 41.2046C9.19027 40.8358 9.29654 40.5059 9.39084 40.2146C9.11312 40.5247 8.81227 40.8333 8.48827 41.1403C8.17445 41.4381 7.84114 41.7148 7.49055 41.9683C7.16871 42.202 6.82412 42.4026 6.46198 42.5675C6.14958 42.7143 5.80948 42.7932 5.46427 42.7989C5.1325 42.8076 4.8048 42.724 4.51798 42.5572C4.46912 42.5289 4.42541 42.4954 4.3817 42.462L5.44884 53.6529C5.72655 54.3497 10.9568 56.0597 17.856 56.0597C24.7551 56.0597 29.9905 54.3472 30.2631 53.6503L31.806 40.3457L31.4382 40.6852C31.0415 41.0572 30.6262 41.4093 30.1937 41.7394C29.8416 42.0118 29.4582 42.2414 29.052 42.4234C28.6752 42.5854 28.269 42.6677 27.8588 42.6652C27.531 42.6868 27.2052 42.596 26.9357 42.408C26.8287 42.3229 26.7436 42.2139 26.6868 42.0897C26.6299 41.9655 26.6034 41.8294 26.6091 41.6932V41.6237C26.6068 41.597 26.6068 41.5705 26.6091 41.544C26.6456 41.3152 26.7287 41.0963 26.8534 40.9012C27.0092 40.6396 27.181 40.3879 27.3677 40.1477C27.5664 39.887 27.7783 39.6232 28.0028 39.3557C28.2273 39.0883 28.4356 38.8353 28.6277 38.5972C28.7982 38.3873 28.9571 38.1685 29.1034 37.9414C29.208 37.7998 29.2728 37.6329 29.2911 37.458C29.2924 37.4241 29.286 37.3906 29.2721 37.3598C29.2582 37.3289 29.2376 37.3019 29.2114 37.2806C29.135 37.2312 29.0448 37.2086 28.9542 37.2163C28.7287 37.2199 28.5071 37.2752 28.3062 37.3783C28.0689 37.4961 27.8467 37.6429 27.6454 37.8154C27.4183 38.0083 27.2059 38.2181 27.0102 38.4429C26.8043 38.6779 26.6104 38.9235 26.4291 39.1783C26.2491 39.4318 26.0845 39.689 25.9354 39.9497C25.7862 40.2102 25.6594 40.4476 25.5548 40.662L25.4211 40.95C25.3628 41.0734 25.3003 41.2131 25.2334 41.3692C25.1666 41.525 25.0946 41.6844 25.0174 41.8474C24.942 42.0187 24.8726 42.174 24.8091 42.3129L24.6394 42.7037C24.5897 42.8184 24.5546 42.8974 24.534 42.9403C24.5134 42.983 24.4705 43.0884 24.4054 43.2566C24.3454 43.4109 24.276 43.5924 24.1971 43.8017L23.94 44.4574L23.6957 45.108L23.4951 45.648C23.4386 45.8023 23.4 45.9052 23.3846 45.9643C23.3339 46.1201 23.272 46.2724 23.1994 46.4194C23.1334 46.5547 23.0514 46.6815 22.9551 46.7974C22.8672 46.9016 22.7609 46.9888 22.6414 47.0546C22.52 47.1207 22.3836 47.1544 22.2454 47.1523C22.0791 47.1592 21.9149 47.1124 21.7774 47.0186C21.7085 46.9533 21.6558 46.8728 21.6237 46.7833C21.5915 46.6941 21.5807 46.5984 21.5923 46.5043C21.5926 46.376 21.6081 46.2482 21.6386 46.1237C21.6703 45.9928 21.7098 45.864 21.7568 45.738C21.8031 45.6094 21.852 45.4809 21.9034 45.3652C21.9548 45.2494 21.9986 45.1286 22.0397 45.0154C22.3226 44.3947 22.6106 43.7734 22.9037 43.1512C23.1968 42.5289 23.478 41.9117 23.7471 41.2997C23.8037 41.1712 23.8551 41.0426 23.9091 40.9217L23.8603 40.9706C23.5365 41.282 23.1929 41.5723 22.8317 41.8397C22.5192 42.0753 22.1821 42.2761 21.8263 42.4389C21.5226 42.5811 21.1922 42.6572 20.8568 42.6626C20.6723 42.6682 20.4888 42.633 20.3194 42.5597C20.1832 42.4972 20.0647 42.4019 19.9748 42.282C19.8847 42.1565 19.8217 42.0138 19.7897 41.8629C19.7897 41.8089 19.7691 41.7497 19.7614 41.6932C19.6688 41.7652 19.5763 41.8346 19.4837 41.9014C19.1829 42.1167 18.8616 42.3018 18.5246 42.4543C18.2592 42.5818 17.9702 42.6528 17.676 42.6626C17.5615 42.6657 17.4477 42.6446 17.3421 42.6001C17.2366 42.5559 17.1417 42.4893 17.064 42.4054C16.8829 42.1586 16.7996 41.8536 16.83 41.5492C16.8363 41.2139 16.8785 40.8801 16.956 40.554C16.8066 40.8137 16.6345 41.0598 16.4417 41.2894C16.234 41.5404 15.9994 41.768 15.7423 41.9683C15.4747 42.1753 15.1785 42.3424 14.8628 42.4646C14.5247 42.5937 14.1654 42.6582 13.8034 42.6549C13.635 42.6556 13.4672 42.634 13.3046 42.5906C13.1495 42.5489 13.0061 42.4726 12.8854 42.3669C12.757 42.2496 12.6575 42.1046 12.5948 41.9426C12.515 41.7297 12.4774 41.5036 12.4843 41.2766C12.4843 41.2766 12.4843 41.1763 12.5151 40.9937C12.5608 40.7011 12.6278 40.4123 12.7157 40.1297C12.8288 39.7353 13.0003 39.221 13.23 38.5869C13.4597 37.9525 13.7923 37.1932 14.2277 36.3086C14.3081 36.107 14.4392 35.9298 14.6083 35.7943C14.7439 35.6943 14.9078 35.6403 15.0763 35.64C15.1537 35.6408 15.2307 35.6518 15.3051 35.6734C15.384 35.695 15.4588 35.7298 15.5263 35.7763C15.5936 35.8223 15.6497 35.883 15.6908 35.9537C15.735 36.0319 15.7564 36.1209 15.7526 36.2109C15.7531 36.2708 15.7453 36.3304 15.7294 36.3883C15.6876 36.5318 15.6307 36.6706 15.5597 36.8023C15.474 36.9736 15.3728 37.169 15.2563 37.3886C15.1397 37.6079 15.018 37.8453 14.8911 38.1009C14.7626 38.3544 14.6434 38.6177 14.5337 38.8903C14.424 39.1624 14.3296 39.4406 14.2508 39.7234C14.1745 39.9914 14.1297 40.2676 14.1171 40.5463C14.1164 40.6533 14.1439 40.759 14.1968 40.8523C14.2223 40.897 14.26 40.9341 14.3055 40.9585C14.3509 40.9832 14.4024 40.9945 14.454 40.9912C14.8063 40.987 15.148 40.87 15.4286 40.6569C15.7511 40.42 16.0393 40.1395 16.2848 39.8237C16.5497 39.4866 16.787 39.1289 16.9946 38.754C17.2071 38.3734 17.3837 38.0245 17.5243 37.7074C17.6254 37.4871 17.7113 37.2603 17.7814 37.0286C17.8552 36.8013 17.9411 36.5781 18.0386 36.36C18.1149 36.1744 18.218 36.0013 18.3446 35.8457C18.396 35.7807 18.4618 35.7282 18.5366 35.6925C18.6115 35.657 18.6936 35.639 18.7766 35.64C18.8628 35.6367 18.9486 35.6544 19.0265 35.6917C19.1044 35.7287 19.1722 35.7843 19.224 35.8534C19.3359 36.001 19.3939 36.1823 19.3886 36.3677C19.3787 36.5259 19.3431 36.6812 19.2831 36.828C19.2128 37.0234 19.1271 37.2461 19.026 37.4966C18.9248 37.7468 18.8083 38.015 18.6763 38.3014C18.5511 38.5876 18.4346 38.8774 18.3266 39.1706C18.2258 39.4537 18.14 39.7422 18.0694 40.0346C18.0021 40.2915 17.9667 40.5558 17.964 40.8214C17.9583 40.8675 17.9633 40.9143 17.9788 40.9582C17.9942 41.0022 18.0197 41.0418 18.0531 41.0742C18.0865 41.1066 18.1269 41.1308 18.1712 41.1449C18.2156 41.1591 18.2626 41.1627 18.3086 41.1557C18.5195 41.1429 18.7254 41.086 18.9128 40.9886C19.1819 40.8595 19.4363 40.7016 19.6714 40.518C19.7383 40.4666 19.8051 40.4152 19.8694 40.3612C19.9359 40.0752 20.0218 39.7944 20.1266 39.5203C20.31 39.0369 20.496 38.556 20.6846 38.0777L21.1988 36.7663L23.5774 30.7672C23.6449 30.5586 23.7785 30.3781 23.958 30.2529C24.1018 30.1582 24.2694 30.1066 24.4414 30.1037C24.6025 30.1035 24.7587 30.1588 24.8837 30.2606C24.9551 30.3244 25.0104 30.4043 25.0453 30.4938C25.0801 30.583 25.0934 30.6792 25.0843 30.7749C25.0824 30.8952 25.0598 31.0143 25.0174 31.1272C24.9677 31.2634 24.911 31.3974 24.8477 31.5283C24.7174 31.8196 24.5614 32.1763 24.3797 32.598C24.198 33.0197 24.0043 33.4782 23.7986 33.9737C23.5911 34.469 23.3794 34.9833 23.1634 35.5166L22.5283 37.0826C22.3226 37.5969 22.1288 38.0785 21.9471 38.5277L21.4791 39.7132C21.4142 39.8764 21.3575 40.0428 21.3094 40.212C21.2576 40.3786 21.2299 40.5517 21.2271 40.7263C21.2233 40.8034 21.2392 40.8806 21.2734 40.95C21.2924 40.9796 21.3194 41.0032 21.3512 41.0182C21.3831 41.0331 21.4185 41.039 21.4534 41.0349C21.5971 41.0254 21.7373 40.986 21.8648 40.9192C22.0503 40.8302 22.2291 40.7278 22.3997 40.6132C22.5917 40.4861 22.7906 40.3406 22.9963 40.176C23.202 40.0114 23.4077 39.8399 23.6134 39.6617C23.8174 39.4902 24.0128 39.3136 24.1997 39.132C24.3865 38.9502 24.5528 38.7874 24.6986 38.6434C24.7329 38.6087 24.7741 38.5815 24.8194 38.5637C24.9068 38.3066 24.9891 38.0494 25.0586 37.7923C25.0997 37.6807 25.1571 37.5223 25.2308 37.3166C25.3063 37.1109 25.3922 36.9093 25.488 36.7123C25.5738 36.529 25.6808 36.3562 25.8068 36.198C25.8518 36.1381 25.9094 36.0895 25.9758 36.055C26.0421 36.0208 26.1154 36.0018 26.19 36C26.2717 35.9926 26.354 36.0013 26.4319 36.026C26.5101 36.0509 26.5826 36.0908 26.6451 36.144C26.6955 36.2019 26.7341 36.269 26.7582 36.3418C26.7827 36.4148 26.7922 36.4917 26.7865 36.5683C26.7847 36.6274 26.7796 36.6868 26.7711 36.7457C26.7711 36.8254 26.748 36.9129 26.7325 37.0029C26.7171 37.0929 26.6991 37.1777 26.6811 37.26C26.6688 37.3202 26.6515 37.3796 26.6297 37.4374C26.8233 37.2266 27.0326 37.0173 27.2571 36.81C27.477 36.6061 27.7107 36.4181 27.9565 36.2469C28.1877 36.0851 28.4351 35.9481 28.6945 35.838C28.9326 35.7359 29.1888 35.6824 29.448 35.6812C29.622 35.6812 29.7954 35.7064 29.9622 35.7557C30.1253 35.8018 30.2793 35.8758 30.4174 35.9743C30.5511 36.07 30.6624 36.1936 30.744 36.3369C30.8316 36.4937 30.8751 36.6714 30.87 36.8512C30.8638 37.1332 30.798 37.411 30.6771 37.6663C30.5408 37.969 30.3791 38.2598 30.1937 38.5354C30 38.8268 29.7907 39.1104 29.5662 39.3866C29.3418 39.6625 29.1309 39.9137 28.9337 40.14L28.4374 40.716C28.3448 40.8063 28.2738 40.9161 28.2291 41.0374C28.2281 41.1053 28.254 41.1709 28.3011 41.22C28.368 41.2727 28.4528 41.2977 28.5377 41.2894C28.6788 41.2712 28.8136 41.22 28.9311 41.1403C29.1839 40.985 29.4264 40.8132 29.6562 40.626C29.9682 40.3807 30.3634 40.0526 30.8417 39.6412C31.1708 39.3583 31.554 39.0214 31.9885 38.6383L34.0662 19.4039C33.7826 19.5535 33.4856 19.6766 33.1791 19.7716C31.9993 20.1169 30.7926 20.3612 29.5714 20.5019ZM18 15.9427C9.02055 15.9427 1.74341 16.9456 1.74341 18.185C1.74341 19.4245 8.99998 20.4222 18 20.4222C27 20.4222 34.2565 19.4193 34.2565 18.1799C34.2565 16.9405 26.9691 15.9427 18 15.9427ZM24.4903 18.8407C24.4903 19.1313 23.6263 19.355 22.5591 19.355C21.492 19.355 20.628 19.1185 20.628 18.8407C20.628 18.563 21.492 18.3265 22.5591 18.3265C23.6263 18.3265 24.4826 18.545 24.4826 18.8356L24.4903 18.8407Z" fill="#DA4648"/>
<path d="M21.0086 18.6016C20.9992 18.6153 20.9938 18.6313 20.9932 18.6479C20.9932 18.8356 21.69 18.9874 22.536 18.9874C23.382 18.9874 24.0789 18.8356 24.0789 18.6479L26.1103 10.4194L34.1897 1.88991C34.3594 1.69706 34.0149 1.09791 33.4389 0.583629C32.8629 0.0693438 32.2406 -0.102942 32.0477 0.0924866L23.4566 9.15164L21.0086 18.6016Z" fill="#DA4648"/>
</svg>
