<svg viewBox="0 0 52 72" xmlns="http://www.w3.org/2000/svg">
<path d="M4.65015 66.1959L0 13.9355H51.0968L46.442 66.1878L25.5172 72L4.65015 66.1959Z" fill="#E44D26"/>
<path d="M25.5483 67.7636L42.5287 63.0557L46.5241 18.3019H25.5483V67.7636Z" fill="#F16529"/>
<path d="M25.5484 37.7292H17.0472L16.4607 31.1499H25.5484V24.7256H9.43958L9.59287 26.4496L11.1722 44.1529H25.5484V37.7292ZM25.5484 54.4129L25.52 54.4204L18.3658 52.488L17.9083 47.365H11.4591L12.3591 57.452L25.5188 61.1054L25.5484 61.0967V54.4129Z" fill="#EBEBEB"/>
<path d="M4.66492 -0.216553H7.9293V3.00951H10.9161V-0.216553H14.1811V9.55106H10.9161V6.28029H7.92989V9.55106H4.66492V-0.216553V-0.216553ZM18.4738 3.02287H15.5996V-0.216553H24.6141V3.02287H21.7388V9.55106H18.4738V3.02287V3.02287ZM26.0449 -0.216553H29.4486L31.543 3.21564L33.635 -0.216553H37.0405V9.55106H33.7883V4.70964L31.543 8.18248H31.4861L29.239 4.70964V9.55106H26.0443V-0.216553H26.0449ZM38.6658 -0.216553H41.9313V6.32267H46.5225V9.55164H38.6658V-0.216553V-0.216553Z" fill="black"/>
<path d="M25.5264 37.7292V44.1529H33.4371L32.6915 52.4845L25.5264 54.4187V61.1019L38.6966 57.452L38.7929 56.3662L40.3026 39.4537L40.4594 37.7292H38.7279H25.5264ZM25.5264 24.7256V31.1499H41.0441L41.1724 29.7058L41.4657 26.4496L41.6195 24.7256H25.5264Z" fill="white"/>
</svg>
