<svg viewBox="0 0 322 72" xmlns="http://www.w3.org/2000/svg">
<path d="M10.3205 48.0528C10.3205 45.4608 9.43341 43.5917 7.65933 42.4901C5.91261 41.3885 3.35949 40.837 -0.00146484 40.837V31.189C1.66461 31.189 3.14349 31.0694 4.43373 30.8261C5.75133 30.5582 6.85293 30.1406 7.73997 29.5762C8.62701 29.0002 9.28509 28.2326 9.71565 27.3182C10.1721 26.4038 10.3737 25.3022 10.3205 24.0134V11.1931C10.3205 9.20592 10.5753 7.51104 11.0865 6.11424C11.5977 4.67424 12.5265 3.53376 13.8283 2.64672C15.1718 1.73376 16.9862 1.06272 19.2715 0.63072C21.5568 0.19872 24.4569 0 27.9792 0V9.072C26.9925 9.09313 26.0085 9.18746 25.0358 9.35424C24.1761 9.51696 23.4518 9.81072 22.8182 10.2413C22.2422 10.6445 21.7699 11.209 21.4473 11.9347C21.1248 12.6605 20.9635 13.6008 20.9635 14.7571V26.8099C20.8022 31.8499 17.6573 34.8192 11.5315 35.7595V36.2434C14.6217 36.6998 17.0035 37.6834 18.6264 39.1464C20.2493 40.6094 21.0456 42.6269 20.9649 45.1512V57.204C20.9649 58.3603 21.1262 59.3006 21.4488 60.0264C21.7713 60.7522 22.2264 61.3166 22.8197 61.7198C23.4389 62.1518 24.1776 62.4456 25.0373 62.6069C25.9243 62.7696 26.9049 62.8618 27.9806 62.8891V72C24.4598 72 21.5582 71.784 19.2729 71.3549C16.9877 70.9258 15.1747 70.2533 13.8297 69.3389C12.5121 68.4518 11.5977 67.2941 11.088 65.8714C10.5782 64.4486 10.3219 62.7408 10.3219 60.7522V48.0514L10.3205 48.0528ZM311.339 60.7522C311.339 62.7394 311.085 64.4472 310.573 65.8714C310.062 67.2955 309.133 68.4518 307.791 69.3389C306.474 70.2518 304.674 70.9229 302.391 71.3549C300.109 71.7869 297.216 72 293.681 72V62.8891C294.756 62.8574 295.723 62.7667 296.584 62.6069C297.445 62.447 298.168 62.1504 298.761 61.7198C299.38 61.3166 299.85 60.7522 300.172 60.0264C300.522 59.3006 300.696 58.3603 300.696 57.204V45.1512C300.616 42.6254 301.395 40.6224 303.035 39.1464C304.675 37.6704 307.027 36.7013 310.091 36.2434V35.7595C303.99 34.8192 300.875 31.8355 300.698 26.8099V14.7571C300.698 13.6022 300.525 12.6605 300.174 11.9347C299.88 11.2437 299.389 10.6546 298.763 10.2413C298.187 9.81216 297.445 9.51552 296.585 9.35424C295.626 9.18344 294.656 9.08906 293.682 9.072V0C297.203 0 300.105 0.216 302.39 0.64512C304.675 1.07424 306.475 1.74672 307.79 2.66112C309.133 3.54816 310.061 4.70304 310.572 6.12864C311.083 7.52544 311.338 9.21888 311.338 11.2075V24.0278C311.309 25.3181 311.511 26.4182 311.943 27.3326C312.375 28.247 313.031 28.9987 313.919 29.5906C314.806 30.155 315.894 30.5698 317.184 30.8405C318.502 31.0824 319.992 31.2034 321.66 31.2034V40.8514C318.3 40.8514 315.734 41.4014 313.96 42.5045C312.214 43.6061 311.339 45.4608 311.339 48.0672V60.768" fill="#555588"/>
<path d="M45.2232 63.2493C44.3074 63.2493 43.4952 63.1873 42.8242 63.0592C42.1416 62.9512 41.5483 62.8 41.0458 62.6013V58.2913C41.6923 58.4607 42.3496 58.5867 43.0128 58.6686C43.7622 58.7804 44.5189 58.8348 45.2765 58.8313C45.9503 58.8308 46.621 58.7403 47.2709 58.5621C47.9452 58.4045 48.5731 58.0909 49.104 57.6462C49.6613 57.1969 50.112 56.5777 50.4519 55.7742C50.7917 54.9707 50.9645 53.9771 50.9645 52.756V13.3576H56.0045V52.2289C56.0045 54.1009 55.7352 55.7497 55.1981 57.1336C54.6768 58.516 53.941 59.6579 52.9877 60.5565C52.0517 61.4723 50.9213 62.1462 49.5922 62.5782C48.2962 63.0275 46.4904 63.2521 44.8906 63.2521L45.2232 63.2493ZM81.0533 48.6721H80.8373C80.244 49.4785 79.6522 50.1813 79.0589 50.7745C78.4816 51.3382 77.8288 51.819 77.1192 52.203C76.4179 52.5803 75.636 52.8582 74.7749 53.0382C73.9138 53.2182 72.9029 53.3075 71.784 53.3075C70.5456 53.3075 69.4037 53.1261 68.3611 52.7689C67.3484 52.4448 66.4193 51.9021 65.6395 51.1792C64.885 50.4592 64.2917 49.5261 63.8611 48.4432C63.4291 47.3301 63.2131 46.0182 63.2131 44.5091C63.2131 41.5629 64.2456 39.2992 66.312 37.7181C68.3957 36.1369 71.5579 35.2744 75.7973 35.1304L80.7552 34.9403V33.0683C80.7552 31.8645 80.6199 30.8579 80.352 30.0501C80.1 29.2437 79.7227 28.6101 79.2202 28.1104C78.7349 27.6064 78.1258 27.2464 77.3871 27.0304C76.6671 26.8144 75.8419 26.7078 74.9074 26.7078C73.4891 26.6959 72.0782 26.9142 70.7299 27.3544C69.4541 27.7864 68.2243 28.3048 67.0378 28.9168L65.3127 25.2246C66.6418 24.5046 68.1235 23.8955 69.7594 23.3915C71.4275 22.8836 73.1622 22.6293 74.9059 22.6369C76.7391 22.6369 78.3187 22.827 79.6493 23.2029C80.9971 23.5629 82.1016 24.1461 82.9642 24.9539C83.8282 25.7459 84.5007 26.7597 84.9312 27.9995C85.3618 29.2393 85.5792 30.7398 85.5792 32.4995V52.7646H82.0397L81.0533 48.6721ZM73.0498 49.3317C74.1442 49.3317 75.1608 49.1589 76.0954 48.819C77.0299 48.4792 77.8234 47.9651 78.5203 47.2825C79.2029 46.5813 79.7328 45.7101 80.1101 44.6689C80.5047 43.6091 80.7034 42.3693 80.7034 40.9494V38.2811L76.8499 38.4712C75.2328 38.5432 73.8763 38.7232 72.7805 39.0097C71.6847 39.2963 70.8048 39.7009 70.1395 40.2222C69.5107 40.7015 69.0258 41.3447 68.7384 42.0813C68.4504 42.8013 68.3064 43.6177 68.3064 44.5336C68.3064 46.1867 68.7384 47.4136 69.5995 48.171C70.4635 48.9443 71.6155 49.3302 73.0483 49.3302L73.0498 49.3317ZM89.6947 23.1798H94.7607L100.123 39.6433L100.824 41.9473L101.631 44.8043L102.358 47.5403L102.816 49.5073H103.003L103.461 47.5403L104.188 44.8043L104.995 41.9473L105.696 39.6433L111.059 23.1784H116.124L106.019 52.7675H99.792L89.6947 23.1798ZM136.166 48.6721H135.95C135.357 49.4785 134.765 50.1813 134.172 50.7745C133.595 51.3382 132.942 51.819 132.232 52.203C131.531 52.5803 130.749 52.8582 129.888 53.0382C129.027 53.2182 128.016 53.3075 126.897 53.3075C125.659 53.3075 124.517 53.1261 123.474 52.7689C122.462 52.4448 121.532 51.9021 120.753 51.1792C119.998 50.4592 119.405 49.5261 118.974 48.4432C118.542 47.3301 118.326 46.0182 118.326 44.5091C118.326 41.5629 119.359 39.2992 121.425 37.7181C123.509 36.1369 126.671 35.2744 130.91 35.1304L135.868 34.9403V33.0683C135.868 31.8645 135.733 30.8579 135.465 30.0501C135.213 29.2437 134.836 28.6101 134.333 28.1104C133.848 27.6064 133.239 27.2464 132.5 27.0304C131.78 26.8144 130.955 26.7078 130.02 26.7078C128.602 26.6959 127.191 26.9142 125.843 27.3544C124.567 27.7864 123.337 28.3048 122.151 28.9168L120.426 25.2246C121.755 24.5046 123.237 23.8955 124.873 23.3915C126.541 22.8836 128.275 22.6293 130.019 22.6369C131.852 22.6369 133.432 22.827 134.762 23.2029C136.11 23.5629 137.215 24.1461 138.077 24.9539C138.941 25.7459 139.614 26.7597 140.044 27.9995C140.475 29.2393 140.692 30.7398 140.692 32.4995V52.7646H137.164L136.166 48.6721ZM128.163 49.3446C129.257 49.3446 130.274 49.1718 131.208 48.832C132.143 48.4921 132.936 47.9781 133.633 47.2955C134.316 46.5942 134.846 45.723 135.223 44.6819C135.618 43.6221 135.816 42.3822 135.816 40.9624V38.2941L131.963 38.4841C130.346 38.5561 128.989 38.7361 127.894 39.0227C126.798 39.3093 125.918 39.7139 125.253 40.2352C124.624 40.7144 124.139 41.3577 123.852 42.0942C123.564 42.8142 123.42 43.6307 123.42 44.5465C123.42 46.1997 123.852 47.4265 124.713 48.184C125.577 48.9573 126.729 49.3432 128.161 49.3432L128.163 49.3446ZM170.921 42.2296C170.921 43.9576 170.607 45.5344 169.978 46.9182C169.367 48.2833 168.486 49.4425 167.337 50.3944C166.188 51.3462 164.785 52.0749 163.132 52.5774C161.479 53.0627 159.618 53.3046 157.553 53.3046C155.559 53.3046 153.691 53.1419 151.949 52.8193C150.224 52.5126 148.778 52.0561 147.61 51.4441V46.6489L149.684 47.5129L152.163 48.2401L154.832 48.7787C155.739 48.9043 156.652 48.9678 157.568 48.9688C160.442 48.9688 162.562 48.4302 163.927 47.3517C165.309 46.2717 166 44.728 166 42.7149C166 41.7443 165.865 40.9005 165.597 40.1805C165.345 39.4605 164.887 38.8067 164.223 38.2134C163.575 37.6029 162.706 37.0182 161.61 36.4624C160.515 35.8864 159.13 35.2672 157.46 34.5904C155.876 33.9611 154.469 33.2944 153.284 32.5427C152.132 31.7881 151.145 30.9587 150.375 30.0083C149.616 29.0635 149.039 27.9851 148.676 26.8288C148.316 25.6437 148.137 24.2944 148.137 22.7867C148.137 21.2056 148.425 19.7958 149.001 18.556C149.577 17.3161 150.384 16.2736 151.426 15.4312C152.469 14.5672 153.707 13.9134 155.144 13.4641C156.581 13.0148 158.197 12.7902 159.939 12.7902C162.078 12.7902 164 12.9961 165.707 13.4094C167.413 13.804 168.932 14.3166 170.261 14.9459L168.456 19.1507C167.304 18.6294 165.959 18.1801 164.467 17.8029C162.973 17.4051 161.433 17.2057 159.888 17.2096C157.696 17.2096 156 17.7222 154.794 18.7461C153.59 19.7541 152.988 21.1177 152.988 22.8414C152.988 23.8494 153.124 24.7566 153.392 25.5097C153.661 26.247 154.112 26.9209 154.74 27.5315C155.369 28.1248 156.18 28.6907 157.219 29.2307C158.468 29.8464 159.745 30.4039 161.045 30.9011C162.68 31.5491 164.108 32.1971 165.329 32.8955C166.568 33.5781 167.602 34.3355 168.428 35.1995C169.25 36.0554 169.884 37.0744 170.287 38.1904C170.719 39.3222 170.947 40.7104 170.947 42.2569L170.921 42.2296ZM189.181 53.2758C187.367 53.2758 185.668 52.9965 184.088 52.4406C182.523 51.8758 181.112 50.9532 179.965 49.7464C178.813 48.508 177.882 46.9355 177.229 45.0304C176.564 43.108 176.233 40.7997 176.233 38.1184C176.233 35.296 176.574 32.9085 177.241 30.9501C177.924 28.9744 178.858 27.3745 180.043 26.1549C181.247 24.9165 182.635 24.0165 184.248 23.4621C185.861 22.9077 187.563 22.6269 189.395 22.6269C190.773 22.6246 192.146 22.7782 193.49 23.0848C194.838 23.3915 195.96 23.7673 196.86 24.2166L195.42 28.3667C194.97 28.1727 194.512 28.0017 194.046 27.8541C193.535 27.6696 193.013 27.5167 192.483 27.3961C191.961 27.2553 191.429 27.1472 190.894 27.0721C190.372 26.9829 189.878 26.9368 189.41 26.9368C186.588 26.9368 184.533 27.844 183.24 29.6728C181.947 31.4685 181.3 34.2721 181.3 38.0795C181.3 41.871 181.948 44.6459 183.24 46.407C184.536 48.135 186.552 49.0206 189.196 49.0206C190.636 49.0206 191.961 48.8579 193.13 48.5353C194.315 48.1941 195.394 47.8153 196.364 47.3502V51.7163C195.378 52.2435 194.327 52.6418 193.238 52.9014C192.144 53.1707 190.722 53.3046 189.124 53.3046L189.181 53.2758ZM215.904 22.6384L217.655 22.7176C218.215 22.7434 218.773 22.8069 219.325 22.9077L218.677 27.435L217.115 27.219C216.593 27.147 216.099 27.111 215.631 27.111C214.5 27.111 213.467 27.3443 212.532 27.8123C211.596 28.2616 210.804 28.9168 210.108 29.7793C209.442 30.6232 208.922 31.6485 208.545 32.8509C208.185 34.036 208.007 35.3565 208.007 36.8109V52.7632H203.102V23.1813H207.091L207.684 28.5957H207.9L209.328 26.3593C209.822 25.6655 210.403 25.0366 211.054 24.4873C211.696 23.9331 212.424 23.4871 213.209 23.1669C214.001 22.8256 214.98 22.6542 215.988 22.6542" fill="black"/>
<path d="M229.69 52.7674H224.784V23.1782H229.689V52.7674H229.69ZM225.216 12.816C225.773 12.3308 226.454 12.0888 227.264 12.0888C227.658 12.0888 228.027 12.1508 228.368 12.2789C228.714 12.3788 229.029 12.564 229.284 12.8175C229.553 13.0695 229.759 13.3935 229.903 13.788C230.064 14.1653 230.145 14.6232 230.145 15.1618C230.145 16.2043 229.857 16.9848 229.281 17.5061C228.724 18.0101 228.05 18.2606 227.259 18.2606C226.453 18.2606 225.747 17.8819 225.19 17.3794C224.652 16.8754 224.398 16.0949 224.398 15.097C224.401 14.0818 224.672 13.3013 225.21 12.816H225.216Z" fill="black"/>
<path d="M252.181 53.3058C251.122 53.3058 250.16 53.1906 249.298 52.9559C248.437 52.7211 247.654 52.4173 246.954 52.04C246.272 51.6455 245.661 51.1861 245.121 50.6648C244.61 50.1561 244.142 49.6066 243.72 49.0218H243.396L243.557 50.7728L243.665 52.2128L243.718 53.372V66.0109H238.814V23.1781H242.803L243.504 27.1669H243.72C244.132 26.5408 244.6 25.9544 245.121 25.4159C245.65 24.8533 246.257 24.3719 246.927 23.9874C247.628 23.5741 248.41 23.2501 249.271 23.0168C250.135 22.7648 251.104 22.6395 252.18 22.6395C253.869 22.6395 255.406 22.9635 256.788 23.6101C258.188 24.2714 259.402 25.2716 260.317 26.5203C261.305 27.7962 262.068 29.4003 262.621 31.2896C263.174 33.1789 263.428 35.4037 263.428 37.9194C263.428 40.4538 263.158 42.68 262.621 44.601C262.083 46.5047 261.318 48.1045 260.317 49.3962C259.347 50.6893 258.157 51.6685 256.789 52.3338C255.407 52.9818 253.529 53.3043 251.842 53.3043L252.181 53.3058ZM251.237 26.7075C249.872 26.7075 248.712 26.9135 247.761 27.3267C246.838 27.7312 246.044 28.3843 245.47 29.2131C244.894 30.057 244.462 31.1082 244.176 32.3811C243.907 33.6383 243.754 35.12 243.718 36.8279V37.9323C243.718 39.7467 243.834 41.3639 244.068 42.7823C244.32 44.1834 244.734 45.3699 245.307 46.3391C245.874 47.2676 246.685 48.0226 247.651 48.5221C248.622 49.0074 249.834 49.2493 251.289 49.2493C253.714 49.2493 255.493 48.2701 256.624 46.3117C257.773 44.3533 258.349 41.5424 258.349 37.8776C258.349 34.1408 257.773 31.3472 256.624 29.4968C255.492 27.6464 253.695 26.7219 251.234 26.7219L251.237 26.7075ZM279.792 49.2911C280.116 49.2911 280.474 49.2623 280.872 49.2363L282.057 49.101L283.065 48.9109L283.792 48.7208V52.4403C283.559 52.5483 283.262 52.6563 282.902 52.7643C282.542 52.8723 282.148 52.9602 281.717 53.0336C281.272 53.1249 280.822 53.1884 280.369 53.2237C279.913 53.2771 279.455 53.3035 278.996 53.3029C277.947 53.3118 276.903 53.1662 275.897 52.8709C274.959 52.5923 274.107 52.0828 273.417 51.3891C272.734 50.6879 272.196 49.7475 271.8 48.5595C271.405 47.3557 271.207 45.8466 271.207 44.0322V26.8674H267.031V24.6843L271.207 22.5819L273.309 16.3842H276.139V23.1752H283.576V26.8674H276.139V44.0322C276.139 45.7602 276.417 47.085 276.974 47.9663C277.55 48.8303 278.483 49.2867 279.776 49.2867" fill="black"/>
</svg>
