<svg viewBox="0 0 257 72" xmlns="http://www.w3.org/2000/svg">
<path d="M73.0147 28.1318V28.1284L70.9728 35.3621L73.0136 28.1284L73.0147 28.1318ZM83.5143 43.839L81.2643 43.8255L83.5143 43.839ZM82.935 54.6446H82.9372L69.4597 54.6941L82.9372 54.6446H82.935ZM85.761 43.8525L83.511 43.839L85.761 43.8525ZM84.1162 53.7255L86.4641 44.7705L84.1162 53.7255ZM133.742 12.4909L129.368 33.0525L133.742 12.4909ZM122.499 12.4909L119.18 27.8505L122.499 12.4909V12.4909Z" fill="#131B28"/>
<path d="M132.993 11.565H123.641C123.123 11.565 122.606 11.9812 122.496 12.4875L115.855 43.2C115.789 43.4563 115.642 43.6846 115.436 43.8506C115.23 44.0167 114.976 44.1117 114.712 44.1214H108.09C101.543 44.1214 102.299 39.5921 103.64 33.3855L103.68 33.1976L104.474 28.9676L104.816 27.2284L107.836 12.4909C107.94 11.9824 107.611 11.565 107.082 11.565H97.4813C96.9638 11.565 96.4486 11.9812 96.3428 12.4897L92.2163 32.0625C92.2129 32.0771 92.0205 32.9872 92.0205 32.9872C89.6434 43.8412 90.2734 54.1935 103.195 54.5164L103.57 54.5242H123.854C124.118 54.5139 124.372 54.4182 124.578 54.2515C124.783 54.0848 124.929 53.8561 124.994 53.5995L133.742 12.4785C133.773 12.3664 133.777 12.2485 133.753 12.1346C133.73 12.0208 133.679 11.9142 133.606 11.8238C133.533 11.7334 133.439 11.6617 133.333 11.6147C133.226 11.5678 133.11 11.5469 132.994 11.5537L132.993 11.565ZM170.303 44.2406C170.822 44.2406 171.162 44.6569 171.056 45.1654L170.147 49.6035L170.303 44.2406ZM169.243 54.045L170.151 49.6035L169.242 54.0472L169.243 54.045ZM168.104 54.9787L150.869 55.062L168.104 54.9787Z" fill="#131B28"/>
<path d="M145.289 38.5234C145.281 38.0374 145.835 37.2004 146.355 37.2004L145.187 37.1812C144.66 42.4744 145.299 38.5245 145.299 38.5245L145.289 38.5234ZM151.721 55.0609L151.541 55.062L151.721 55.0609ZM170.303 44.2406C170.822 44.2406 171.162 44.6569 171.056 45.1654L169.999 50.3404L170.303 44.2406ZM156.161 55.062H156.123H156.161ZM153.853 55.0575H153.72H153.853ZM153.152 55.0597L152.931 55.0609L153.152 55.0597ZM152.44 55.0609H152.246H152.44ZM153.72 55.0575H153.153H153.72Z" fill="#131B28"/>
<path d="M156.112 55.0507L153.855 55.0586L156.112 55.0507ZM168.109 54.9787L156.144 55.0519L168.109 54.9787ZM169.243 54.0472L170.003 50.328L169.242 54.0495L169.243 54.0472ZM152.932 55.0597H152.437H152.932ZM151.537 55.062H150.87H151.537ZM152.244 55.0609H151.717H152.244ZM15.435 38.6347L16.8975 32.1952L15.2369 39.5572L13.6428 47.0554L15.0401 40.482L15.4451 38.6347H15.435ZM32.8241 11.457H22.5528C22.2876 11.4678 22.0327 11.5628 21.8252 11.7283C21.6176 11.8938 21.4682 12.1211 21.3986 12.3772L19.4523 20.9756C19.42 21.0865 19.4148 21.2036 19.4372 21.317C19.4596 21.4303 19.509 21.5366 19.5812 21.6269C19.6533 21.7171 19.7461 21.7887 19.8518 21.8355C19.9574 21.8823 20.0728 21.903 20.1881 21.8959H30.5381C30.8029 21.8853 31.0574 21.7899 31.2639 21.6238C31.4705 21.4578 31.6183 21.2298 31.6856 20.9734L33.5677 12.3784C33.678 11.8721 33.345 11.4559 32.8252 11.4559L32.8241 11.457ZM30.6 25.7569V25.7557L27.5872 39.6922L30.6 25.7569ZM0.751448 71.9325L9.22045 72C6.39585 71.991 3.57132 71.9681 0.746948 71.9314L0.751448 71.9325ZM18.3408 25.7546L16.875 32.1952L18.3296 25.7557L18.3408 25.7546Z" fill="#131B28"/>
<path d="M29.8463 24.8333H19.494C18.9765 24.8333 18.4556 25.2495 18.342 25.7558L15.435 38.637L15.03 40.4843L12.2366 53.631C12.0998 54.2447 11.9335 54.8514 11.7383 55.449C11.7383 55.449 9.80326 61.2034 6.56326 61.1381L3.33001 61.0875C3.0656 61.0939 2.81019 61.1849 2.60125 61.3471C2.39231 61.5092 2.24083 61.7341 2.16901 61.9886L0.0225106 70.9988C-0.0111026 71.109 -0.0177582 71.2257 0.00310355 71.3391C0.0239653 71.4524 0.0717345 71.5591 0.142396 71.6502C0.213057 71.7412 0.304545 71.814 0.409169 71.8623C0.513794 71.9107 0.628496 71.9332 0.743636 71.928L9.21714 71.9955C17.3396 71.9955 21.6191 67.4955 24.363 54.558L30.6 25.7625C30.7091 25.2563 30.375 24.84 29.8553 24.84L29.8463 24.8333ZM176.898 54.5355C176.782 54.5422 176.666 54.5212 176.56 54.4741C176.454 54.4271 176.36 54.3554 176.287 54.265C176.214 54.1746 176.164 54.0681 176.14 53.9543C176.117 53.8405 176.12 53.7228 176.151 53.6108L183.938 17.1338" fill="#131B28"/>
<path d="M187.721 53.6096L190.871 38.0396L187.721 53.6096V53.6096ZM176.265 54.0731C176.202 53.8189 176.239 53.1956 176.349 52.6871L180.045 35.3621L176.152 53.5871C176.122 53.699 176.118 53.8167 176.141 53.9304C176.165 54.0441 176.215 54.1505 176.288 54.2409C176.361 54.3312 176.454 54.4029 176.561 54.4501C176.667 54.4972 176.782 54.5184 176.898 54.5119H177.843C177.324 54.5119 176.328 54.3037 176.265 54.0619V54.0731Z" fill="#131B28"/>
<path d="M187.107 54.3375C186.825 54.4523 186.167 54.5456 185.647 54.5456H186.592C187.11 54.5456 187.622 54.1294 187.724 53.6198L187.912 52.695C187.809 53.2035 187.39 54.225 187.107 54.3375ZM189.298 45.837L190.689 38.9655L189.298 45.837Z" fill="#131B28"/>
<path d="M220.025 19.5784L220.453 21.3502C220.571 21.8565 220.243 22.2694 219.725 22.2705L220.025 19.5784ZM187.909 52.6837L189.295 45.8246L187.909 52.6837ZM219.6 17.775L220.024 19.5907L219.6 17.775ZM190.687 38.9655L191.07 37.1295L192.555 30.1736L190.873 38.0531L190.687 38.9666V38.9655Z" fill="#131B28"/>
<path d="M184.067 16.5375L183.744 18.0585L180.048 35.3835L184.067 16.5488V16.5375ZM220.452 21.3525L220.024 19.5806L219.385 16.8469C218.545 13.5799 216.078 11.6944 210.717 11.6944L202.373 11.6854L194.689 11.6764H186.042C185.778 11.6869 185.525 11.7823 185.32 11.9486C185.114 12.1148 184.968 12.3429 184.903 12.5989L183.943 17.1371L176.354 52.6894C176.244 53.1979 176.208 53.8211 176.27 54.0754C176.331 54.3296 177.327 54.5254 177.848 54.5254H185.649C186.168 54.5254 186.825 54.432 187.108 54.3173C187.39 54.2025 187.81 53.1833 187.913 52.6748L190.875 38.0318L194.042 23.1818C194.108 22.9262 194.254 22.6986 194.46 22.5328C194.665 22.367 194.918 22.2719 195.182 22.2615L219.726 22.2503C220.243 22.2491 220.572 21.8374 220.454 21.33L220.452 21.3525ZM252.048 5.32463L250.158 5.33138H242.302C242.015 5.34793 241.734 5.4261 241.479 5.56061C241.224 5.69511 241 5.88281 240.824 6.11101L223.454 31.5608C223.162 31.9905 222.826 31.9264 222.712 31.4213L221.434 25.8143C221.364 25.5581 221.215 25.3308 221.007 25.1653C220.8 24.9998 220.545 24.9048 220.279 24.894H209.112C208.592 24.894 208.285 25.3013 208.437 25.8008L213.441 43.3316C213.584 43.9297 213.593 44.5523 213.465 45.1541L211.283 53.6389C211.153 54.1429 211.474 54.5546 211.992 54.5546H223.017C223.534 54.5546 224.066 54.1429 224.194 53.6389L226.377 45.1541C226.505 44.6513 226.867 43.8998 227.18 43.4846L255.375 6.05251C255.688 5.63626 255.519 5.29876 254.999 5.30439L252.04 5.32351L252.048 5.32463ZM163.323 27.2813C163.255 27.8348 162.738 28.2488 162.218 28.2488H148.059C147.57 28.2488 147.321 27.9158 147.393 27.5063C147.398 27.495 147.399 27.4838 147.407 27.4725C147.401 27.4613 147.401 27.4455 147.405 27.4298L147.471 27.189C148.823 23.5935 151.577 21.2344 156.754 21.2344C162.582 21.2344 163.72 24.0806 163.324 27.2835L163.323 27.2813ZM159.169 10.9384C140.995 10.9384 136.689 21.9701 134.273 33.1043C131.857 44.4521 132.065 55.0643 150.872 55.0643H151.539L151.719 55.0631H152.934L153.154 55.062L153.854 55.0609L156.149 55.053L168.114 54.9799C168.377 54.9665 168.628 54.869 168.831 54.7019C169.034 54.5348 169.178 54.3069 169.242 54.0518L171.06 45.1676C171.091 45.055 171.095 44.9366 171.071 44.8223C171.047 44.708 170.996 44.601 170.922 44.5105C170.848 44.4199 170.753 44.3484 170.646 44.3018C170.539 44.2553 170.422 44.2351 170.306 44.2429H153.397C146.673 44.2429 144.676 42.4429 145.412 37.2026H172.439C172.884 37.1948 173.283 36.8989 173.451 36.5051C173.483 36.4294 173.505 36.35 173.517 36.2689C177.526 21.1343 176.374 10.9406 159.184 10.9406L159.169 10.9384ZM73.2713 27.2228L68.9344 42.5925C68.8498 42.8479 68.6897 43.0716 68.4751 43.234C68.2605 43.3963 68.0017 43.4896 67.7329 43.5015H56.9306C48.7373 43.5015 46.7415 37.0935 48.7373 27.6413C50.7319 17.973 54.6435 11.9633 62.7075 11.3546C73.728 10.5221 75.9319 18.2734 73.2825 27.2216L73.2713 27.2228ZM80.6794 42.9469C80.6794 42.9469 85.7723 30.5719 86.9288 23.4394C88.5038 13.8769 83.718 0.011261 65.2275 0.011261C46.8428 0.011261 38.8575 13.2503 35.8121 27.6413C32.7656 42.1369 36.7571 54.8505 55.0496 54.7459L82.9496 54.6334C83.2171 54.6202 83.474 54.525 83.6855 54.3608C83.8971 54.1965 84.0529 53.9712 84.132 53.7154L86.4799 44.7604C86.5165 44.6519 86.5258 44.536 86.5071 44.4231C86.4883 44.3101 86.4421 44.2035 86.3723 44.1127C86.3026 44.0218 86.2116 43.9496 86.1074 43.9022C86.0031 43.8549 85.8888 43.834 85.7745 43.8413L81.2745 43.8143C80.8324 43.8109 80.5804 43.5263 80.6333 43.1471C80.6429 43.0746 80.6614 43.0036 80.6884 42.9356L80.6794 42.9469ZM171.692 34.6703C171.692 34.8347 171.627 34.9923 171.51 35.1086C171.394 35.2248 171.236 35.2901 171.072 35.2901C170.908 35.2901 170.75 35.2248 170.634 35.1086C170.517 34.9923 170.452 34.8347 170.452 34.6703C170.452 34.5059 170.517 34.3482 170.634 34.2319C170.75 34.1157 170.908 34.0504 171.072 34.0504C171.236 34.0504 171.394 34.1157 171.51 34.2319C171.627 34.3482 171.692 34.5059 171.692 34.6703Z" fill="#131B28"/>
</svg>
