<svg viewBox="0 0 152 72" xmlns="http://www.w3.org/2000/svg">
<path fill-rule="evenodd" clip-rule="evenodd" d="M145.561 29.562C144.841 28.0032 144.493 26.1588 144.419 24.4224C144.234 20.1492 144.391 15.8604 144.198 11.5872C144.025 7.76036 142.66 4.31156 138.985 2.33876C135.75 0.602369 132 0.429569 128.4 0.388769V7.21796C129.6 7.25876 129.305 7.29596 129.598 7.31156C134.432 7.54916 136.052 9.08278 136.114 13.8792C136.159 17.4456 136.128 21.0144 136.186 24.5796C136.256 28.9056 136.902 33.0348 140.858 35.766C140.926 35.8128 140.92 35.9844 140.958 36.1836C138.944 37.614 137.351 39.456 136.888 41.97C136.514 44.004 136.303 46.086 136.24 48.1536C136.124 51.8952 136.243 55.6452 136.136 59.3868C136.052 62.3172 134.664 63.6924 131.812 64.3452C130.738 64.5924 129.6 64.68 128.4 64.8324V71.6448C130.8 71.5008 132.02 71.406 133.664 71.2284C139.852 70.5588 143.335 67.3392 144.049 61.3368C144.272 59.4552 144.247 57.5376 144.289 55.6368C144.368 52.074 144.328 48.4944 144.647 44.9532C144.972 41.34 147.6 39.3432 151.2 39.5424V32.4012C148.8 32.8308 146.588 31.7928 145.561 29.562ZM32.7768 44.1216C32.7756 30.2628 32.4 16.404 32.4 2.54636V0.365968C28.8 0.365968 24.9288 0.331168 21.1308 0.382768C19.5888 0.403168 18.2292 0.535166 16.7004 0.743966C10.848 1.54076 8.0268 4.28756 6.99 10.1184C6.69 11.8008 6.75 13.5492 6.7248 15.27C6.678 18.5412 6.7716 21.8136 6.7188 25.0836C6.6528 29.202 4.7124 32.394 0.5124 32.6364C0.3636 32.6448 1.2 32.8164 0 32.9196V39.2856C4.8 40.0392 6.3276 41.9772 6.6468 46.4364C6.6972 47.1468 6.7104 47.8632 6.7176 48.5772C6.7584 52.5612 6.7128 56.5512 6.8928 60.528C7.062 64.2396 7.8864 67.5564 11.394 69.504C14.67 71.3232 19.2 71.4708 21.6 71.5656V64.7688C21.6 64.7112 21.348 64.6584 21.114 64.644C15.9072 64.326 14.7336 62.9124 14.7024 57.702C14.682 54.252 14.8296 50.802 14.7744 47.352C14.7048 43.0176 14.0712 38.9064 10.1472 36.1632C10.0872 36.1212 10.146 35.9436 10.1268 35.7036C12.7656 34.0356 14.1684 31.4844 14.55 28.3908C14.7612 26.6844 14.832 24.954 14.862 23.232C14.922 19.6644 14.8584 16.0932 14.9556 12.528C15.024 10.0224 16.6236 8.19596 18.6648 7.78556C20.5992 7.39556 21.6 7.40756 25.2 7.22636V9.69356C25.2 22.0656 24.7596 34.4364 24.8244 46.8084C24.8472 51.0456 25.3164 55.2228 29.8584 57.0528C32.328 58.0476 34.974 58.3536 37.8108 59.0232C38.2848 56.2488 38.4396 53.9472 38.8272 51.6696C33.5988 50.1696 32.7768 49.392 32.7768 44.1216ZM64.7856 20.25C55.9776 16.038 45.288 19.7208 41.1864 28.5552C38.0976 35.208 38.208 42.0552 40.9272 48.8016C42.402 52.4592 45.0672 55.1976 48.6948 56.808C55.7796 59.9532 62.9496 59.1888 70.0932 56.9808C70.4784 56.8608 70.9704 56.1192 70.9236 55.7256C70.68 53.7324 70.2756 51.7584 69.9144 49.7004C68.214 50.1288 66.7932 50.5668 65.3412 50.8392C61.5048 51.5604 57.66 51.5592 53.9268 50.0748C50.2404 48.6108 47.7648 44.3988 48.3804 40.7988H73.4268C73.7328 37.1988 73.6116 32.2488 72.0792 28.1556C70.7112 24.4968 68.3496 21.9552 64.7856 20.25ZM64.7328 34.8H48.2736C48.282 30 52.1904 25.692 57.318 25.7904C61.8216 25.8768 64.9368 30 64.7328 34.8ZM132.062 49.5348C132.653 43.47 130.822 40.0572 125.422 37.422C123.506 36.4872 121.474 35.7948 119.522 34.9284C118.062 34.2804 116.592 33.624 115.226 32.8032C113.897 32.0052 113.34 30.6804 113.537 29.1288C113.73 27.5964 114.715 26.586 116.138 26.298C117.863 25.9476 119.67 25.6476 121.404 25.7892C123.854 25.9896 126.271 26.6172 128.8 27.0792L130.398 20.0976C126.977 19.5768 123.787 18.9036 120.564 18.6492C116.98 18.3672 113.489 18.9624 110.208 20.6532C103.276 24.2256 103.148 35.1924 109.519 38.7924C111.422 39.8676 113.459 40.7076 115.439 41.6484C117.523 42.6408 119.683 43.5036 121.678 44.6532C123.192 45.5256 123.733 47.0484 123.328 48.8232C122.952 50.4732 121.703 51.2088 120.235 51.3492C118.003 51.5616 115.714 51.7656 113.504 51.5028C110.844 51.186 108.24 50.3784 105.515 49.7616L104.125 56.7096C110.525 59.112 116.857 59.5056 123.251 58.0884C128.602 56.9028 131.65 53.7732 132.062 49.5348ZM97.9644 38.1924C95.6136 36.9456 93.0852 36.036 90.6588 34.9248C89.1528 34.2348 87.558 33.636 86.2308 32.6796C83.6784 30.84 84.1536 27.3132 87.126 26.37C88.8312 25.8276 90.7596 25.6596 92.5512 25.794C94.992 25.9776 97.4004 26.6088 99.9456 27.0696L101.455 20.4144C100.163 20.0628 98.9928 19.68 97.794 19.428C93.0288 18.4248 88.2384 18.036 83.5452 19.686C79.5132 21.1044 76.716 23.7564 76.1628 28.218C75.5436 33.2004 77.196 37.134 81.798 39.5004C83.64 40.4484 85.614 41.136 87.4944 42.0144C89.3712 42.8904 91.2876 43.7268 93.0312 44.826C94.3644 45.666 94.89 47.088 94.5144 48.732C94.1412 50.3616 92.9532 51.1824 91.4748 51.3348C89.2428 51.564 86.952 51.7764 84.7416 51.5184C82.0704 51.2064 79.458 50.3964 76.6848 49.7724C76.2756 51.708 75.7956 53.658 75.4968 55.6344C75.432 56.064 75.9108 56.8896 76.314 57.03C82.7748 59.2692 89.3508 59.5908 95.922 57.6552C99.846 56.5008 102.59 53.994 103.144 49.7076C103.771 44.8416 102.611 40.6548 97.9644 38.1924Z" fill="#2A4D80"/>
</svg>
