<svg viewBox="0 0 56 72" xmlns="http://www.w3.org/2000/svg">
<path d="M55.8202 0H0V72H55.8202V0Z" fill="white"/>
<path d="M27.3389 71.1971L3.03369 0.052124L26.8124 6.78311L27.3389 71.1971Z" fill="#4BC248"/>
<path d="M28.0838 72.5445L-0.202271 6.65771H29.0599L28.0838 72.5445Z" fill="#4BC248"/>
<path d="M28.2977 71.2493L52.6028 0.104309L28.8242 6.83529L28.2977 71.2493Z" fill="#4BC248"/>
<path d="M27.5529 72.5966L55.8388 6.70984H26.5768L27.5529 72.5966Z" fill="#4BC248"/>
<path d="M17.7978 36.4045C25.1698 36.4045 31.1461 30.4283 31.1461 23.0562C31.1461 15.6841 25.1698 9.70789 17.7978 9.70789C10.4257 9.70789 4.44946 15.6841 4.44946 23.0562C4.44946 30.4283 10.4257 36.4045 17.7978 36.4045Z" fill="white"/>
<path d="M39.2359 36.4045C46.608 36.4045 52.5842 30.4283 52.5842 23.0562C52.5842 15.6841 46.608 9.70789 39.2359 9.70789C31.8638 9.70789 25.8876 15.6841 25.8876 23.0562C25.8876 30.4283 31.8638 36.4045 39.2359 36.4045Z" fill="white"/>
<path d="M17.7977 27.1011C20.2551 27.1011 22.2471 25.1091 22.2471 22.6517C22.2471 20.1944 20.2551 18.2023 17.7977 18.2023C15.3403 18.2023 13.3483 20.1944 13.3483 22.6517C13.3483 25.1091 15.3403 27.1011 17.7977 27.1011Z" fill="black"/>
<path d="M39.2359 27.1011C41.6933 27.1011 43.6854 25.1091 43.6854 22.6517C43.6854 20.1944 41.6933 18.2023 39.2359 18.2023C36.7786 18.2023 34.7865 20.1944 34.7865 22.6517C34.7865 25.1091 36.7786 27.1011 39.2359 27.1011Z" fill="black"/>
<path d="M28.1888 52.4378L22.0751 35.8581L34.468 35.9201L28.1888 52.4378Z" fill="white"/>
</svg>
