<svg viewBox="0 0 28 27" xmlns="http://www.w3.org/2000/svg">
<path d="M1.16699 1.16699H26.833V26.133H1.16699V1.16699Z" fill="#0C0824"/>
<path d="M1.167 1.15418H26.833V25.8458H1.167V1.15418ZM0 27H28V0H0V27ZM18.877 11.0769C17.955 11.0769 17.64 11.5388 17.64 11.9196C17.64 12.3349 17.85 12.6237 19.087 13.2577C20.919 14.1349 21.487 14.9766 21.487 16.2119C21.487 18.0584 20.064 19.0503 18.139 19.0503C17.3128 19.0806 16.4917 18.9108 15.747 18.5558C15.665 18.5212 15.654 18.4638 15.654 18.3709V16.6727C15.654 16.557 15.712 16.5224 15.794 16.5808C16.4934 17.0256 17.3075 17.2618 18.139 17.2612C19.061 17.2612 19.446 16.8804 19.446 16.3612C19.446 15.9458 19.178 15.5769 17.999 14.9766C16.342 14.1923 15.654 13.3942 15.654 12.0689C15.654 10.5804 16.832 9.34615 18.874 9.34615C19.5848 9.31597 20.2946 9.4259 20.962 9.66956C21.0004 9.69423 21.0315 9.72859 21.0521 9.76909C21.0727 9.80959 21.0819 9.85477 21.079 9.9V11.4824C21.079 11.5744 21.021 11.6327 20.904 11.5981C20.2872 11.2469 19.5857 11.0675 18.874 11.0789L18.877 11.0769ZM8.843 12.4497C9.111 12.4724 9.321 12.4724 9.788 12.4724C11.153 12.4724 12.436 11.9997 12.436 10.1651C12.436 8.69934 11.514 7.96154 9.963 7.96154C9.496 7.96154 9.053 7.98429 8.843 7.99615V12.4497ZM6.766 6.3178C6.766 6.2367 6.929 6.17934 7.023 6.17934C7.77 6.14472 8.878 6.12198 10.033 6.12198C13.265 6.12198 14.525 7.87549 14.525 10.1146C14.525 13.0451 12.378 14.3031 9.742 14.3031C9.299 14.3031 9.147 14.2803 8.832 14.2803V18.7111C8.832 18.8031 8.797 18.8496 8.692 18.8496H6.907C6.814 18.8496 6.767 18.8149 6.767 18.7111V6.32275L6.766 6.3178Z" fill="#31C5F0"/>
</svg>
