<svg viewBox="0 0 122 62" xmlns="http://www.w3.org/2000/svg">
<path d="M61 0.0390015C27.26 0.0390015 -0.0939941 13.901 -0.0939941 31C-0.0939941 48.099 27.26 61.961 61 61.961C94.74 61.961 122.094 48.099 122.094 31C122.094 13.901 94.74 0.0390015 61 0.0390015V0.0390015ZM45.103 37.032C43.645 38.396 42.026 38.959 40.243 39.539C38.46 40.12 36.191 40 33.432 40H27.179L25.446 50H18.145L24.66 16H38.7C42.924 16 46.005 17.215 47.942 19.432C49.879 21.649 50.461 24.796 49.689 28.769C49.37 30.406 48.833 31.928 48.075 33.284C47.316 34.641 46.325 35.908 45.103 37.032V37.032ZM66.414 40L69.295 25.58C69.623 23.892 69.503 22.638 68.934 22.025C68.364 21.411 67.152 21 65.299 21H59.509L55.778 40H48.534L55.049 7H62.293L60.561 16H67.014C71.075 16 73.875 16.815 75.416 18.231C76.957 19.647 77.419 21.587 76.803 24.759L73.772 40H66.414V40ZM106.673 28.822C106.355 30.459 105.817 31.955 105.06 33.31C104.302 34.667 103.312 35.908 102.089 37.032C100.631 38.396 99.011 38.959 97.229 39.539C95.447 40.12 93.176 40 90.417 40H84.164L82.432 50H75.131L81.645 16H95.686C99.91 16 102.991 17.215 104.927 19.432C106.862 21.649 107.445 24.85 106.673 28.822V28.822ZM92.919 21H87.918L85.191 35H89.633C92.575 35 94.769 34.71 96.209 33.6C97.651 32.492 98.622 30.772 99.127 28.179C99.611 25.688 99.391 23.745 98.467 22.721C97.542 21.697 95.693 21 92.919 21V21ZM35.934 21H30.932L28.205 35H32.646C35.589 35 37.782 34.71 39.223 33.6C40.664 32.492 41.636 30.772 42.14 28.179C42.624 25.688 42.404 23.745 41.48 22.721C40.556 21.697 38.708 21 35.934 21Z" fill="#6181B6"/>
</svg>
