<svg viewBox="0 0 96 72" xmlns="http://www.w3.org/2000/svg">
<path d="M45.2761 54.438C45.2311 54.528 45.1861 54.6 45.2761 54.438V54.438ZM82.6441 41.388C79.6261 41.388 76.6501 42.078 73.9441 43.413C73.0591 41.628 72.1441 40.068 71.9941 38.898C71.8141 37.533 71.6191 36.723 71.8291 35.103C72.0391 33.483 72.9841 31.188 72.9691 31.023C72.9541 30.858 72.7591 30.033 70.8241 30.018C68.8891 30.003 67.2241 30.393 67.0291 30.903C66.6871 31.836 66.4201 32.793 66.2341 33.768C65.8891 35.523 62.3671 41.793 60.3721 45.063C59.7121 43.788 59.1571 42.663 59.0371 41.763C58.8571 40.398 58.6621 39.588 58.8721 37.968C59.0821 36.348 60.0271 34.053 60.0121 33.888C59.9971 33.723 59.8021 32.898 57.8701 32.883C55.9381 32.868 54.2701 33.258 54.0751 33.768C53.8801 34.278 53.6701 35.478 53.2801 36.633C52.8901 37.788 48.1951 48.228 46.9681 50.943C46.3381 52.323 45.7981 53.433 45.4081 54.183C45.3481 54.303 45.3031 54.378 45.2731 54.438C45.3181 54.363 45.3481 54.288 45.3481 54.318C45.0181 54.963 44.8231 55.323 44.8231 55.323V55.338C44.5681 55.818 44.2831 56.253 44.1481 56.253C44.0581 56.253 43.8631 54.993 44.1931 53.268C44.8981 49.638 46.5631 43.998 46.5481 43.803C46.5331 43.698 46.8631 42.723 45.4531 42.198C44.0881 41.703 43.5931 42.528 43.4731 42.528C43.3531 42.528 43.2631 42.828 43.2631 42.828C43.2631 42.828 44.7781 36.468 40.3531 36.468C37.5931 36.468 33.7531 39.498 31.8661 42.243C30.6811 42.888 28.1161 44.283 25.4161 45.768C24.3811 46.338 23.3161 46.923 22.3111 47.478C22.2361 47.403 22.1761 47.328 22.1011 47.253C16.7311 41.523 6.81905 37.473 7.23905 29.7781C7.38905 26.9731 8.36405 19.6081 26.3011 10.6681C41.0011 3.34809 52.7521 5.35809 54.7771 9.82809C57.6871 16.2031 48.4921 28.0681 33.2281 29.7781C27.4081 30.423 24.3511 28.1731 23.5861 27.3331C22.7911 26.4481 22.6711 26.4031 22.3711 26.5681C21.8761 26.8381 22.1911 27.6181 22.3711 28.0831C22.8211 29.2681 24.6961 31.368 27.8911 32.418C30.6961 33.333 37.5181 33.843 45.7651 30.648C55.0321 27.0781 62.2471 17.1331 60.1291 8.80809C57.9751 0.348096 43.9471 -2.4269 30.6841 2.2831C22.7791 5.08809 14.2321 9.49809 8.08505 15.2431C0.780051 22.0831 -0.38695 28.0381 0.09305 30.528C1.80305 39.363 13.9801 45.123 18.8521 49.383C18.6121 49.518 18.3871 49.638 18.1771 49.758C15.7321 50.973 6.45005 55.833 4.12505 60.963C1.50005 66.783 4.56005 70.953 6.56705 71.523C12.8371 73.263 19.2541 70.128 22.7041 64.983C26.1541 59.838 25.7341 53.118 24.1441 50.058C24.1291 50.013 24.0991 49.983 24.0841 49.938C24.7141 49.563 25.3591 49.188 26.0041 48.813C27.2491 48.078 28.4641 47.403 29.5291 46.818C28.9291 48.438 28.4941 50.388 28.2691 53.208C27.9991 56.508 29.3641 60.783 31.1341 62.463C31.9141 63.198 32.8561 63.213 33.4441 63.213C35.5141 63.213 36.4441 61.503 37.4791 59.463C38.7541 56.973 39.8791 54.078 39.8791 54.078C39.8791 54.078 38.4691 61.908 42.3241 61.908C43.7341 61.908 45.1441 60.093 45.7741 59.163V59.178C45.7741 59.178 45.8041 59.118 45.8791 58.998C46.0291 58.773 46.1041 58.638 46.1041 58.638V58.593C46.6741 57.618 47.9191 55.383 49.7941 51.693C52.2241 46.923 54.5461 40.968 54.5461 40.968C54.7711 42.276 55.0831 43.569 55.4761 44.838C55.8961 46.263 56.7811 47.823 57.4861 49.338C56.9161 50.118 56.5711 50.568 56.5711 50.568C56.5711 50.58 56.5771 50.589 56.5861 50.598C56.1361 51.198 55.6261 51.843 55.1011 52.473C53.1841 54.753 50.9011 57.363 50.6011 58.113C50.2411 58.998 50.3311 59.658 51.0211 60.168C51.5311 60.558 52.4311 60.618 53.3761 60.543C55.1011 60.423 56.3161 60.003 56.9011 59.733C57.9811 59.346 58.9981 58.812 59.9311 58.143C61.8061 56.763 62.9461 54.783 62.8411 52.173C62.7811 50.733 62.3161 49.293 61.7461 47.943C61.9111 47.703 62.0911 47.448 62.2561 47.193C65.2231 42.858 67.5211 38.1 67.5211 38.1C67.7461 39.408 68.0551 40.701 68.4511 41.97C68.8111 43.185 69.5161 44.52 70.1611 45.825C67.3711 48.09 65.6461 50.715 65.0491 52.44C63.9391 55.635 64.8091 57.075 66.4441 57.405C67.1791 57.555 68.2291 57.21 69.0091 56.88C70.1671 56.493 71.2591 55.932 72.2461 55.215C74.1211 53.835 75.9361 51.9 75.8131 49.275C75.7681 48.09 75.4381 46.905 75.0031 45.765C77.3581 44.775 80.4181 44.235 84.3181 44.685C92.6701 45.66 94.3051 50.88 93.9901 53.055C93.6751 55.23 91.9201 56.445 91.3351 56.805C90.7501 57.165 90.5701 57.3 90.6151 57.57C90.6901 57.96 90.9601 57.945 91.4551 57.855C92.1451 57.735 95.8351 56.085 96.0001 52.05C96.2401 46.95 91.3351 41.34 82.6501 41.385L82.6441 41.388ZM18.2671 63.093C15.5071 66.108 11.6401 67.248 9.97505 66.288C8.19005 65.25 8.89505 60.813 12.2971 57.6C14.3671 55.65 17.0371 53.85 18.8071 52.74C19.2121 52.5 19.7971 52.14 20.5171 51.705C20.6371 51.63 20.6971 51.6 20.6971 51.6C20.8321 51.51 20.9821 51.435 21.1321 51.345C22.3741 55.905 21.1771 59.925 18.2671 63.09V63.093ZM38.4211 49.383C37.4611 51.738 35.4391 57.738 34.2061 57.423C33.1561 57.153 32.5111 52.578 33.9961 48.078C34.7461 45.813 36.3361 43.113 37.2811 42.063C38.7961 40.368 40.4611 39.828 40.8511 40.503C41.3761 41.388 39.0211 47.913 38.4211 49.383ZM55.0711 57.333C54.6661 57.543 54.2911 57.678 54.1111 57.573C53.9761 57.498 54.2761 57.213 54.2761 57.213C54.2761 57.213 56.3611 54.978 57.1861 53.958C57.6661 53.358 58.2211 52.653 58.8211 51.873C58.8211 51.948 58.8361 52.023 58.8361 52.113C58.8181 54.798 56.2381 56.613 55.0681 57.333H55.0711ZM67.9111 54.408C67.6111 54.198 67.6561 53.493 68.6611 51.303C69.0511 50.448 69.9511 49.008 71.5111 47.628C71.6881 48.15 71.7841 48.696 71.7961 49.248C71.7811 52.623 69.3661 53.883 67.9111 54.408Z" fill="black"/>
</svg>
