<svg viewBox="0 0 21 21" xmlns="http://www.w3.org/2000/svg">
<path fill-rule="evenodd" clip-rule="evenodd" d="M16.6509 3.99146C15.0309 2.37154 12.7929 1.36956 10.3211 1.36956C10.0393 1.36956 9.75542 1.3835 9.4704 1.41053C9.21754 1.43451 8.96959 1.46857 8.7269 1.51213C7.72989 0.677901 6.49094 0.281727 5.26471 0.324153C4.01315 0.367459 2.77508 0.866171 1.82067 1.82062C0.866158 2.77495 0.367392 4.01307 0.324131 5.26473C0.281753 6.49089 0.678001 7.72984 1.51242 8.72692C1.46877 8.96941 1.43462 9.21725 1.41059 9.47003C1.38349 9.75507 1.36953 10.039 1.36953 10.3209C1.36953 12.7929 2.37154 15.0308 3.99142 16.6507C5.61139 18.2707 7.84938 19.2727 10.3211 19.2727C10.6031 19.2727 10.8872 19.2587 11.1724 19.2316C11.4252 19.2076 11.6731 19.1735 11.9158 19.1298C12.9125 19.9642 14.1514 20.3604 15.3775 20.318C16.6291 20.2747 17.8672 19.776 18.8217 18.8216C19.776 17.8672 20.2747 16.629 20.318 15.3773C20.3604 14.1512 19.9642 12.9122 19.1299 11.9153C19.1736 11.6727 19.2077 11.4249 19.2317 11.1721C19.2588 10.8869 19.2728 10.603 19.2728 10.3209C19.2728 7.84915 18.2707 5.61132 16.6509 3.99148L16.6509 3.99146Z" fill="#00ACEC"/>
<path fill-rule="evenodd" clip-rule="evenodd" d="M14.6219 7.11492C14.6219 6.398 14.0772 5.81117 13.2495 5.3992C12.3884 4.97063 11.2081 4.72571 10.0366 4.72571C7.95795 4.72571 5.52969 5.64582 5.52969 8.13481C5.52969 9.1653 5.88086 9.86823 6.4582 10.371C7.01987 10.8602 7.78958 11.1472 8.65283 11.3605H8.65367L10.3382 11.7718L10.3381 11.7722L10.4883 11.8093C11.3187 12.0152 11.824 12.1406 11.824 12.6641C11.824 12.887 11.692 13.0878 11.4566 13.2346C11.2006 13.3942 10.8292 13.4904 10.3702 13.4904C9.25792 13.4904 8.73379 12.9575 8.27988 12.4959C7.87743 12.0867 7.52246 11.7257 6.89915 11.7257C6.46195 11.7257 6.13439 11.8745 5.90687 12.1098C5.64949 12.3761 5.52968 12.7476 5.52968 13.1349C5.52968 13.9237 6.11003 14.63 7.03899 15.1328C7.93148 15.6159 9.15577 15.9162 10.4876 15.9162C11.6965 15.9162 12.9393 15.5863 13.8302 14.8974C14.6037 14.2993 15.1123 13.4369 15.1123 12.2919C15.1123 11.2086 14.5881 10.482 13.8442 9.97646C13.1271 9.48909 12.2112 9.21656 11.3782 9.026L10.1824 8.75136H10.1807C9.756 8.65686 9.38836 8.57214 9.13974 8.43781C8.938 8.3288 8.81804 8.17868 8.81804 7.93865C8.81804 7.73097 8.92912 7.5763 9.1268 7.47041C9.38179 7.33382 9.76984 7.26912 10.2523 7.26912C11.1803 7.26912 11.6047 7.65122 11.9786 7.98782C12.3276 8.30201 12.6395 8.58282 13.2131 8.58282L13.2131 8.58198C13.6508 8.58197 14.0039 8.40725 14.2483 8.13369C14.4897 7.86356 14.6219 7.49926 14.6219 7.11491L14.6219 7.11492Z" fill="#FFFFFE"/>
</svg>
