<svg width="20" height="20" viewBox="0 0 20 20" fill="none" xmlns="http://www.w3.org/2000/svg">
<g filter="url(#filter0_b)">
<circle cx="5" cy="5" r="5" fill="url(#paint0_linear)"/>
</g>
<g filter="url(#filter1_b)">
<circle cx="15" cy="15" r="5" transform="rotate(-180 15 15)" fill="url(#paint1_linear)"/>
</g>
<g filter="url(#filter2_bi)">
<circle cx="10" cy="10" r="10" fill="#0F54BB"/>
</g>
<path d="M10.502 15.234C12.806 15.234 14.066 13.92 14.066 12.336C14.066 10.482 12.5 9.906 11.078 9.366C9.98004 8.952 8.97204 8.61 8.97204 7.674C8.97204 6.918 9.54804 6.27 10.79 6.27C11.654 6.27 12.338 6.63 13.004 7.134L13.796 6.072C13.04 5.478 11.978 4.974 10.772 4.974C8.64804 4.974 7.38804 6.198 7.38804 7.746C7.38804 9.402 8.88204 10.068 10.25 10.572C11.33 10.986 12.482 11.418 12.482 12.426C12.482 13.272 11.852 13.956 10.556 13.956C9.38604 13.956 8.50404 13.488 7.65804 12.804L6.84804 13.884C7.78404 14.658 9.11604 15.234 10.502 15.234Z" fill="white"/>
<defs>
<filter id="filter0_b" x="-4" y="-4" width="18" height="18" filterUnits="userSpaceOnUse" color-interpolation-filters="sRGB">
<feFlood flood-opacity="0" result="BackgroundImageFix"/>
<feGaussianBlur in="BackgroundImage" stdDeviation="2"/>
<feComposite in2="SourceAlpha" operator="in" result="effect1_backgroundBlur"/>
<feBlend mode="normal" in="SourceGraphic" in2="effect1_backgroundBlur" result="shape"/>
</filter>
<filter id="filter1_b" x="6" y="6" width="18" height="18" filterUnits="userSpaceOnUse" color-interpolation-filters="sRGB">
<feFlood flood-opacity="0" result="BackgroundImageFix"/>
<feGaussianBlur in="BackgroundImage" stdDeviation="2"/>
<feComposite in2="SourceAlpha" operator="in" result="effect1_backgroundBlur"/>
<feBlend mode="normal" in="SourceGraphic" in2="effect1_backgroundBlur" result="shape"/>
</filter>
<filter id="filter2_bi" x="-4" y="-4" width="28" height="28" filterUnits="userSpaceOnUse" color-interpolation-filters="sRGB">
<feFlood flood-opacity="0" result="BackgroundImageFix"/>
<feGaussianBlur in="BackgroundImage" stdDeviation="2"/>
<feComposite in2="SourceAlpha" operator="in" result="effect1_backgroundBlur"/>
<feBlend mode="normal" in="SourceGraphic" in2="effect1_backgroundBlur" result="shape"/>
<feColorMatrix in="SourceAlpha" type="matrix" values="0 0 0 0 0 0 0 0 0 0 0 0 0 0 0 0 0 0 127 0" result="hardAlpha"/>
<feOffset dy="4"/>
<feGaussianBlur stdDeviation="2"/>
<feComposite in2="hardAlpha" operator="arithmetic" k2="-1" k3="1"/>
<feColorMatrix type="matrix" values="0 0 0 0 0 0 0 0 0 0 0 0 0 0 0 0 0 0 0.25 0"/>
<feBlend mode="normal" in2="shape" result="effect2_innerShadow"/>
</filter>
<linearGradient id="paint0_linear" x1="2" y1="-2.5" x2="5" y2="10" gradientUnits="userSpaceOnUse">
<stop offset="0.4375" stop-color="#2E6CC9"/>
<stop offset="1" stop-color="#77AEFF" stop-opacity="0"/>
</linearGradient>
<linearGradient id="paint1_linear" x1="12" y1="7.5" x2="15" y2="20" gradientUnits="userSpaceOnUse">
<stop offset="0.494792" stop-color="#3A72C6"/>
<stop offset="1" stop-color="#77AEFF" stop-opacity="0"/>
</linearGradient>
</defs>
</svg>
