<svg viewBox="0 0 22 22" xmlns="http://www.w3.org/2000/svg">
<path fill-rule="evenodd" clip-rule="evenodd" d="M8.40621 1.33968C9.23341 1.11813 10.1029 1 11 1C16.5228 1 21 5.47715 21 11C21 11.8971 20.8819 12.7666 20.6603 13.5938C21.4915 14.4866 22 15.6839 22 17C22 19.7614 19.7614 22 17 22C15.6839 22 14.4866 21.4915 13.5938 20.6603C12.7666 20.8819 11.8971 21 11 21C5.47715 21 1 16.5228 1 11C1 10.1029 1.11813 9.23341 1.33968 8.40621C0.50847 7.51338 0 6.31607 0 5C0 2.23858 2.23858 0 5 0C6.31607 0 7.51338 0.50847 8.40621 1.33968ZM14.776 13.336C14.776 14.92 13.516 16.234 11.212 16.234C9.826 16.234 8.494 15.658 7.558 14.884L8.368 13.804C9.214 14.488 10.096 14.956 11.266 14.956C12.562 14.956 13.192 14.272 13.192 13.426C13.192 12.4274 12.0614 11.9941 10.9903 11.5836L10.96 11.572C9.592 11.068 8.098 10.402 8.098 8.746C8.098 7.198 9.358 5.974 11.482 5.974C12.688 5.974 13.75 6.478 14.506 7.072L13.714 8.134C13.048 7.63 12.364 7.27 11.5 7.27C10.258 7.27 9.682 7.918 9.682 8.674C9.682 9.57465 10.6153 9.92532 11.664 10.3194C11.7052 10.3348 11.7465 10.3504 11.788 10.366L11.8301 10.382C13.2408 10.9175 14.776 11.5003 14.776 13.336Z" fill="black"/>
</svg>
