<svg viewBox="0 0 25 26" xmlns="http://www.w3.org/2000/svg">
<path fill-rule="evenodd" clip-rule="evenodd" d="M12.5 21C20.495 21 22 18.9632 22 11.5C22 4.03677 20.495 2 12.5 2C4.50502 2 3 4.03677 3 11.5C3 18.0883 4.17285 20.4479 9.94788 20.9106L9.91858 24.2385L12.0029 20.9973C12.1657 20.9991 12.3314 21 12.5 21Z" fill="black"/>
<path d="M9.94788 20.9106L10.9478 20.9194C10.9525 20.3947 10.5508 19.9557 10.0277 19.9138L9.94788 20.9106ZM9.91858 24.2385L8.91862 24.2296C8.9147 24.675 9.20575 25.0692 9.63249 25.1967C10.0592 25.3241 10.5188 25.1539 10.7597 24.7793L9.91858 24.2385ZM12.0029 20.9973L12.0142 19.9973C11.67 19.9934 11.3479 20.1668 11.1618 20.4564L12.0029 20.9973ZM21 11.5C21 15.2686 20.5909 17.2406 19.5245 18.3585C18.4709 19.463 16.5104 20 12.5 20V22C16.4845 22 19.2741 21.5186 20.9717 19.7389C22.6566 17.9726 23 15.1947 23 11.5H21ZM12.5 3C16.5104 3 18.4709 3.53701 19.5245 4.64152C20.5909 5.75941 21 7.73144 21 11.5H23C23 7.80533 22.6566 5.02737 20.9717 3.26106C19.2741 1.48138 16.4845 1 12.5 1V3ZM4 11.5C4 7.73144 4.40911 5.75941 5.47547 4.64152C6.52908 3.53701 8.48956 3 12.5 3V1C8.51546 1 5.72594 1.48138 4.0283 3.26106C2.3434 5.02737 2 7.80533 2 11.5H4ZM10.0277 19.9138C7.23411 19.69 5.88568 19.0278 5.13141 17.9345C4.313 16.7483 4 14.8109 4 11.5H2C2 14.7775 2.27343 17.314 3.4852 19.0703C4.76111 20.9196 6.88662 21.6685 9.86802 21.9074L10.0277 19.9138ZM10.9185 24.2473L10.9478 20.9194L8.94792 20.9018L8.91862 24.2296L10.9185 24.2473ZM11.1618 20.4564L9.07748 23.6976L10.7597 24.7793L12.844 21.5381L11.1618 20.4564ZM12.5 20C12.335 20 12.1731 19.9991 12.0142 19.9973L11.9915 21.9972C12.1584 21.9991 12.3278 22 12.5 22V20Z" fill="black"/>
<path d="M12.5 15.3483C17.5 16.3483 16.0899 18.3483 12.5 18.3483C8.91015 18.3483 6 15.4381 6 11.8483C6 8.25842 8 7.84827 9.5 11.8483C6 13.8483 11 18.3483 12.5 15.3483Z" fill="white"/>
<path d="M11.325 8.183L12.4249 8.183L13.2198 8.53213L14.2198 9.03212L15.0597 9.78482L15.6612 10.8421L15.7198 12.0321L15.7125 13.5387L15.7198 13.5321L15.7198 12.0321L15.6612 10.8421L15.0597 9.78482L14.2198 9.03212L13.2198 8.53213L12.4249 8.183L11.2198 8.183L11.325 8.183Z" fill="white"/>
<path d="M12.4249 8.183L11.325 8.183L11.2198 8.183L12.4249 8.183ZM12.4249 8.183L13.2198 8.53213L14.2198 9.03212L15.0597 9.78482L15.6612 10.8421L15.7198 12.0321M15.7198 12.0321L15.7198 13.5321L15.7125 13.5387L15.7198 12.0321Z" stroke="white" stroke-width="1.5" stroke-linejoin="round"/>
<path d="M12.4418 4.57956L14.0161 4.70776L15.2419 5.30801L16.6844 6.1502L17.9743 7.34128L18.9586 8.94692L19.1812 10.6821L19.3464 12.8694L19.356 12.8606L19.1812 10.6821L18.9586 8.94692L17.9743 7.34128L16.6844 6.1502L15.2419 5.30801L14.0161 4.70776L12.2912 4.56729L12.4418 4.57956Z" fill="white"/>
<path d="M14.0161 4.70776L12.4418 4.57956L12.2912 4.56729L14.0161 4.70776ZM14.0161 4.70776L15.2419 5.30801L16.6844 6.1502L17.9743 7.34128L18.9586 8.94692L19.1812 10.6821M19.1812 10.6821L19.356 12.8606L19.3464 12.8694L19.1812 10.6821Z" stroke="white" stroke-width="1.5" stroke-linejoin="round"/>
</svg>
