<svg width="21" height="20" viewBox="0 0 21 20" fill="none" xmlns="http://www.w3.org/2000/svg">
<path fill-rule="evenodd" clip-rule="evenodd" d="M20.375 10C20.375 15.5228 15.8978 20 10.375 20C7.85136 20 5.54608 19.0652 3.78652 17.523L0 18.506L1.87497 15.5L1.94425 15.3803C0.950827 13.8269 0.374969 11.9807 0.374969 10C0.374969 4.47715 4.85212 0 10.375 0C15.8978 0 20.375 4.47715 20.375 10ZM12.3257 15.5353C18.455 14.7092 13.2658 11.6153 12.2719 11.5045C11.9396 14.4861 4.98426 9.18293 9.23658 7.14143C8.18893 2.99989 5.63409 3.35303 5.20582 7.19522C4.77754 11.0374 8.20909 15.0764 12.3257 15.5353Z" fill="#61DB5F"/>
</svg>
