<svg viewBox="0 0 21 20" xmlns="http://www.w3.org/2000/svg">
<path fill-rule="evenodd" clip-rule="evenodd" d="M21 10C21 15.5228 16.5228 20 11 20C8.47639 20 6.17111 19.0652 4.41155 17.523L0.625031 18.506L2.5 15.5L2.56928 15.3803C1.57586 13.8269 1 11.9807 1 10C1 4.47715 5.47715 0 11 0C16.5228 0 21 4.47715 21 10ZM12.9508 15.5353C19.08 14.7092 13.8908 11.6153 12.897 11.5045C12.5646 14.4861 5.60929 9.18293 9.86161 7.14143C8.81396 2.99989 6.25912 3.35303 5.83085 7.19522C5.40257 11.0374 8.83412 15.0764 12.9508 15.5353Z" fill="black"/>
</svg>
